G04 #@! TF.GenerationSoftware,KiCad,Pcbnew,(5.1.5)-2*
G04 #@! TF.CreationDate,2020-03-24T14:33:53+08:00*
G04 #@! TF.ProjectId,EV Meter,4556204d-6574-4657-922e-6b696361645f,rev?*
G04 #@! TF.SameCoordinates,Original*
G04 #@! TF.FileFunction,Soldermask,Bot*
G04 #@! TF.FilePolarity,Negative*
%FSLAX46Y46*%
G04 Gerber Fmt 4.6, Leading zero omitted, Abs format (unit mm)*
G04 Created by KiCad (PCBNEW (5.1.5)-2) date 2020-03-24 14:33:53*
%MOMM*%
%LPD*%
G04 APERTURE LIST*
%ADD10C,0.100000*%
G04 APERTURE END LIST*
D10*
G36*
X157480000Y-111887000D02*
G01*
X142367000Y-111887000D01*
X142367000Y-109347000D01*
X157480000Y-109347000D01*
X157480000Y-111887000D01*
G37*
X157480000Y-111887000D02*
X142367000Y-111887000D01*
X142367000Y-109347000D01*
X157480000Y-109347000D01*
X157480000Y-111887000D01*
G36*
X159324549Y-130871116D02*
G01*
X159435734Y-130893232D01*
X159645203Y-130979997D01*
X159833720Y-131105960D01*
X159994040Y-131266280D01*
X160120003Y-131454797D01*
X160206768Y-131664266D01*
X160251000Y-131886636D01*
X160251000Y-132113364D01*
X160206768Y-132335734D01*
X160120003Y-132545203D01*
X159994040Y-132733720D01*
X159833720Y-132894040D01*
X159645203Y-133020003D01*
X159435734Y-133106768D01*
X159324549Y-133128884D01*
X159213365Y-133151000D01*
X158986635Y-133151000D01*
X158875451Y-133128884D01*
X158764266Y-133106768D01*
X158554797Y-133020003D01*
X158366280Y-132894040D01*
X158205960Y-132733720D01*
X158079997Y-132545203D01*
X157993232Y-132335734D01*
X157949000Y-132113364D01*
X157949000Y-131886636D01*
X157993232Y-131664266D01*
X158079997Y-131454797D01*
X158205960Y-131266280D01*
X158366280Y-131105960D01*
X158554797Y-130979997D01*
X158764266Y-130893232D01*
X158875451Y-130871116D01*
X158986635Y-130849000D01*
X159213365Y-130849000D01*
X159324549Y-130871116D01*
G37*
G36*
X113924549Y-130871116D02*
G01*
X114035734Y-130893232D01*
X114245203Y-130979997D01*
X114433720Y-131105960D01*
X114594040Y-131266280D01*
X114720003Y-131454797D01*
X114806768Y-131664266D01*
X114851000Y-131886636D01*
X114851000Y-132113364D01*
X114806768Y-132335734D01*
X114720003Y-132545203D01*
X114594040Y-132733720D01*
X114433720Y-132894040D01*
X114245203Y-133020003D01*
X114035734Y-133106768D01*
X113924549Y-133128884D01*
X113813365Y-133151000D01*
X113586635Y-133151000D01*
X113475451Y-133128884D01*
X113364266Y-133106768D01*
X113154797Y-133020003D01*
X112966280Y-132894040D01*
X112805960Y-132733720D01*
X112679997Y-132545203D01*
X112593232Y-132335734D01*
X112549000Y-132113364D01*
X112549000Y-131886636D01*
X112593232Y-131664266D01*
X112679997Y-131454797D01*
X112805960Y-131266280D01*
X112966280Y-131105960D01*
X113154797Y-130979997D01*
X113364266Y-130893232D01*
X113475451Y-130871116D01*
X113586635Y-130849000D01*
X113813365Y-130849000D01*
X113924549Y-130871116D01*
G37*
G36*
X113797715Y-127337058D02*
G01*
X113893753Y-127366191D01*
X113908935Y-127370796D01*
X113915722Y-127372855D01*
X114024468Y-127430981D01*
X114119790Y-127509210D01*
X114198019Y-127604532D01*
X114256145Y-127713278D01*
X114291942Y-127831285D01*
X114304028Y-127954000D01*
X114291942Y-128076715D01*
X114256145Y-128194722D01*
X114198019Y-128303468D01*
X114119790Y-128398790D01*
X114024468Y-128477019D01*
X113915722Y-128535145D01*
X113797715Y-128570942D01*
X113705746Y-128580000D01*
X112994254Y-128580000D01*
X112902285Y-128570942D01*
X112784278Y-128535145D01*
X112675532Y-128477019D01*
X112580210Y-128398790D01*
X112501981Y-128303468D01*
X112443855Y-128194722D01*
X112408058Y-128076715D01*
X112395972Y-127954000D01*
X112408058Y-127831285D01*
X112443855Y-127713278D01*
X112501981Y-127604532D01*
X112580210Y-127509210D01*
X112675532Y-127430981D01*
X112784278Y-127372855D01*
X112791066Y-127370796D01*
X112806247Y-127366191D01*
X112902285Y-127337058D01*
X112994254Y-127328000D01*
X113705746Y-127328000D01*
X113797715Y-127337058D01*
G37*
G36*
X116231552Y-126145331D02*
G01*
X116313627Y-126179328D01*
X116313629Y-126179329D01*
X116350813Y-126204175D01*
X116387495Y-126228685D01*
X116450315Y-126291505D01*
X116499672Y-126365373D01*
X116533669Y-126447448D01*
X116551000Y-126534579D01*
X116551000Y-126623421D01*
X116533669Y-126710552D01*
X116499672Y-126792627D01*
X116450315Y-126866495D01*
X116434762Y-126882048D01*
X116419217Y-126900990D01*
X116407666Y-126922601D01*
X116400553Y-126946050D01*
X116398151Y-126970436D01*
X116400553Y-126994822D01*
X116407666Y-127018271D01*
X116419217Y-127039882D01*
X116434762Y-127058824D01*
X116453704Y-127074369D01*
X116475315Y-127085920D01*
X116498764Y-127093033D01*
X116523150Y-127095435D01*
X116547536Y-127093033D01*
X116570985Y-127085920D01*
X116574614Y-127084204D01*
X116576600Y-127083602D01*
X116576601Y-127083601D01*
X116620901Y-127070163D01*
X116722879Y-127039228D01*
X116836882Y-127028000D01*
X117463118Y-127028000D01*
X117577121Y-127039228D01*
X117723402Y-127083602D01*
X117858204Y-127155655D01*
X117858207Y-127155657D01*
X117858208Y-127155658D01*
X117943568Y-127225712D01*
X117976369Y-127252631D01*
X118073345Y-127370796D01*
X118145398Y-127505598D01*
X118189772Y-127651879D01*
X118204754Y-127804000D01*
X118189772Y-127956121D01*
X118145398Y-128102402D01*
X118073345Y-128237204D01*
X118073343Y-128237207D01*
X118073342Y-128237208D01*
X117976369Y-128355369D01*
X117858204Y-128452345D01*
X117723402Y-128524398D01*
X117577121Y-128568772D01*
X117463118Y-128580000D01*
X116836882Y-128580000D01*
X116722879Y-128568772D01*
X116576598Y-128524398D01*
X116441796Y-128452345D01*
X116323631Y-128355369D01*
X116226658Y-128237208D01*
X116226657Y-128237207D01*
X116226655Y-128237204D01*
X116154602Y-128102402D01*
X116110228Y-127956121D01*
X116095246Y-127804000D01*
X116110228Y-127651879D01*
X116154602Y-127505598D01*
X116226655Y-127370796D01*
X116323633Y-127252628D01*
X116356430Y-127225712D01*
X116373757Y-127208385D01*
X116387370Y-127188011D01*
X116396748Y-127165372D01*
X116401528Y-127141339D01*
X116401528Y-127116835D01*
X116396748Y-127092801D01*
X116387370Y-127070163D01*
X116373756Y-127049788D01*
X116356429Y-127032461D01*
X116336055Y-127018848D01*
X116313416Y-127009470D01*
X116289383Y-127004690D01*
X116264879Y-127004690D01*
X116240845Y-127009470D01*
X116232351Y-127012510D01*
X116144421Y-127030000D01*
X116055579Y-127030000D01*
X115968448Y-127012669D01*
X115886373Y-126978672D01*
X115886372Y-126978672D01*
X115886371Y-126978671D01*
X115812504Y-126929314D01*
X115749686Y-126866496D01*
X115700329Y-126792629D01*
X115700328Y-126792627D01*
X115666331Y-126710552D01*
X115649000Y-126623421D01*
X115649000Y-126534579D01*
X115666331Y-126447448D01*
X115700328Y-126365373D01*
X115749685Y-126291505D01*
X115812505Y-126228685D01*
X115849187Y-126204175D01*
X115886371Y-126179329D01*
X115886373Y-126179328D01*
X115968448Y-126145331D01*
X116055579Y-126128000D01*
X116144421Y-126128000D01*
X116231552Y-126145331D01*
G37*
G36*
X146191000Y-128538800D02*
G01*
X125389000Y-128538800D01*
X125389000Y-126036800D01*
X146191000Y-126036800D01*
X146191000Y-128538800D01*
G37*
G36*
X142882591Y-124253085D02*
G01*
X142916569Y-124263393D01*
X142947890Y-124280134D01*
X142975339Y-124302661D01*
X142997866Y-124330110D01*
X143014607Y-124361431D01*
X143024915Y-124395409D01*
X143029000Y-124436890D01*
X143029000Y-125113110D01*
X143024915Y-125154591D01*
X143014607Y-125188569D01*
X142997866Y-125219890D01*
X142975339Y-125247339D01*
X142947890Y-125269866D01*
X142916569Y-125286607D01*
X142882591Y-125296915D01*
X142841110Y-125301000D01*
X142239890Y-125301000D01*
X142198409Y-125296915D01*
X142164431Y-125286607D01*
X142133110Y-125269866D01*
X142105661Y-125247339D01*
X142083134Y-125219890D01*
X142066393Y-125188569D01*
X142056085Y-125154591D01*
X142052000Y-125113110D01*
X142052000Y-124436890D01*
X142056085Y-124395409D01*
X142066393Y-124361431D01*
X142083134Y-124330110D01*
X142105661Y-124302661D01*
X142133110Y-124280134D01*
X142164431Y-124263393D01*
X142198409Y-124253085D01*
X142239890Y-124249000D01*
X142841110Y-124249000D01*
X142882591Y-124253085D01*
G37*
G36*
X141307591Y-124253085D02*
G01*
X141341569Y-124263393D01*
X141372890Y-124280134D01*
X141400339Y-124302661D01*
X141422866Y-124330110D01*
X141439607Y-124361431D01*
X141449915Y-124395409D01*
X141454000Y-124436890D01*
X141454000Y-125113110D01*
X141449915Y-125154591D01*
X141439607Y-125188569D01*
X141422866Y-125219890D01*
X141400339Y-125247339D01*
X141372890Y-125269866D01*
X141341569Y-125286607D01*
X141307591Y-125296915D01*
X141266110Y-125301000D01*
X140664890Y-125301000D01*
X140623409Y-125296915D01*
X140589431Y-125286607D01*
X140558110Y-125269866D01*
X140530661Y-125247339D01*
X140508134Y-125219890D01*
X140491393Y-125188569D01*
X140481085Y-125154591D01*
X140477000Y-125113110D01*
X140477000Y-124436890D01*
X140481085Y-124395409D01*
X140491393Y-124361431D01*
X140508134Y-124330110D01*
X140530661Y-124302661D01*
X140558110Y-124280134D01*
X140589431Y-124263393D01*
X140623409Y-124253085D01*
X140664890Y-124249000D01*
X141266110Y-124249000D01*
X141307591Y-124253085D01*
G37*
G36*
X131870991Y-124316085D02*
G01*
X131904969Y-124326393D01*
X131936290Y-124343134D01*
X131963739Y-124365661D01*
X131986266Y-124393110D01*
X132003007Y-124424431D01*
X132013315Y-124458409D01*
X132017400Y-124499890D01*
X132017400Y-125101110D01*
X132013315Y-125142591D01*
X132003007Y-125176569D01*
X131986266Y-125207890D01*
X131963739Y-125235339D01*
X131936290Y-125257866D01*
X131904969Y-125274607D01*
X131870991Y-125284915D01*
X131829510Y-125289000D01*
X131153290Y-125289000D01*
X131111809Y-125284915D01*
X131077831Y-125274607D01*
X131046510Y-125257866D01*
X131019061Y-125235339D01*
X130996534Y-125207890D01*
X130979793Y-125176569D01*
X130969485Y-125142591D01*
X130965400Y-125101110D01*
X130965400Y-124499890D01*
X130969485Y-124458409D01*
X130979793Y-124424431D01*
X130996534Y-124393110D01*
X131019061Y-124365661D01*
X131046510Y-124343134D01*
X131077831Y-124326393D01*
X131111809Y-124316085D01*
X131153290Y-124312000D01*
X131829510Y-124312000D01*
X131870991Y-124316085D01*
G37*
G36*
X133445791Y-124316085D02*
G01*
X133479769Y-124326393D01*
X133511090Y-124343134D01*
X133538539Y-124365661D01*
X133561066Y-124393110D01*
X133577807Y-124424431D01*
X133588115Y-124458409D01*
X133592200Y-124499890D01*
X133592200Y-125101110D01*
X133588115Y-125142591D01*
X133577807Y-125176569D01*
X133561066Y-125207890D01*
X133538539Y-125235339D01*
X133511090Y-125257866D01*
X133479769Y-125274607D01*
X133445791Y-125284915D01*
X133404310Y-125289000D01*
X132728090Y-125289000D01*
X132686609Y-125284915D01*
X132652631Y-125274607D01*
X132621310Y-125257866D01*
X132593861Y-125235339D01*
X132571334Y-125207890D01*
X132554593Y-125176569D01*
X132544285Y-125142591D01*
X132540200Y-125101110D01*
X132540200Y-124499890D01*
X132544285Y-124458409D01*
X132554593Y-124424431D01*
X132571334Y-124393110D01*
X132593861Y-124365661D01*
X132621310Y-124343134D01*
X132652631Y-124326393D01*
X132686609Y-124316085D01*
X132728090Y-124312000D01*
X133404310Y-124312000D01*
X133445791Y-124316085D01*
G37*
G36*
X146425191Y-124316085D02*
G01*
X146459169Y-124326393D01*
X146490490Y-124343134D01*
X146517939Y-124365661D01*
X146540466Y-124393110D01*
X146557207Y-124424431D01*
X146567515Y-124458409D01*
X146571600Y-124499890D01*
X146571600Y-125101110D01*
X146567515Y-125142591D01*
X146557207Y-125176569D01*
X146540466Y-125207890D01*
X146517939Y-125235339D01*
X146490490Y-125257866D01*
X146459169Y-125274607D01*
X146425191Y-125284915D01*
X146383710Y-125289000D01*
X145707490Y-125289000D01*
X145666009Y-125284915D01*
X145632031Y-125274607D01*
X145600710Y-125257866D01*
X145573261Y-125235339D01*
X145550734Y-125207890D01*
X145533993Y-125176569D01*
X145523685Y-125142591D01*
X145519600Y-125101110D01*
X145519600Y-124499890D01*
X145523685Y-124458409D01*
X145533993Y-124424431D01*
X145550734Y-124393110D01*
X145573261Y-124365661D01*
X145600710Y-124343134D01*
X145632031Y-124326393D01*
X145666009Y-124316085D01*
X145707490Y-124312000D01*
X146383710Y-124312000D01*
X146425191Y-124316085D01*
G37*
G36*
X144877468Y-124213365D02*
G01*
X144916138Y-124225096D01*
X144951777Y-124244146D01*
X144983017Y-124269783D01*
X145008654Y-124301023D01*
X145027704Y-124336662D01*
X145039435Y-124375332D01*
X145044000Y-124421688D01*
X145044000Y-125072912D01*
X145039435Y-125119268D01*
X145027704Y-125157938D01*
X145008654Y-125193577D01*
X144983017Y-125224817D01*
X144951777Y-125250454D01*
X144916138Y-125269504D01*
X144877468Y-125281235D01*
X144831112Y-125285800D01*
X143754888Y-125285800D01*
X143708532Y-125281235D01*
X143669862Y-125269504D01*
X143634223Y-125250454D01*
X143602983Y-125224817D01*
X143577346Y-125193577D01*
X143558296Y-125157938D01*
X143546565Y-125119268D01*
X143542000Y-125072912D01*
X143542000Y-124421688D01*
X143546565Y-124375332D01*
X143558296Y-124336662D01*
X143577346Y-124301023D01*
X143602983Y-124269783D01*
X143634223Y-124244146D01*
X143669862Y-124225096D01*
X143708532Y-124213365D01*
X143754888Y-124208800D01*
X144831112Y-124208800D01*
X144877468Y-124213365D01*
G37*
G36*
X130004791Y-123948285D02*
G01*
X130038769Y-123958593D01*
X130070090Y-123975334D01*
X130097539Y-123997861D01*
X130120066Y-124025310D01*
X130136807Y-124056631D01*
X130147115Y-124090609D01*
X130151200Y-124132090D01*
X130151200Y-124808310D01*
X130147115Y-124849791D01*
X130136807Y-124883769D01*
X130120066Y-124915090D01*
X130097539Y-124942539D01*
X130070090Y-124965066D01*
X130038769Y-124981807D01*
X130004791Y-124992115D01*
X129963310Y-124996200D01*
X129362090Y-124996200D01*
X129320609Y-124992115D01*
X129286631Y-124981807D01*
X129255310Y-124965066D01*
X129227861Y-124942539D01*
X129205334Y-124915090D01*
X129188593Y-124883769D01*
X129178285Y-124849791D01*
X129174200Y-124808310D01*
X129174200Y-124132090D01*
X129178285Y-124090609D01*
X129188593Y-124056631D01*
X129205334Y-124025310D01*
X129227861Y-123997861D01*
X129255310Y-123975334D01*
X129286631Y-123958593D01*
X129320609Y-123948285D01*
X129362090Y-123944200D01*
X129963310Y-123944200D01*
X130004791Y-123948285D01*
G37*
G36*
X126982191Y-123948285D02*
G01*
X127016169Y-123958593D01*
X127047490Y-123975334D01*
X127074939Y-123997861D01*
X127097466Y-124025310D01*
X127114207Y-124056631D01*
X127124515Y-124090609D01*
X127128600Y-124132090D01*
X127128600Y-124808310D01*
X127124515Y-124849791D01*
X127114207Y-124883769D01*
X127097466Y-124915090D01*
X127074939Y-124942539D01*
X127047490Y-124965066D01*
X127016169Y-124981807D01*
X126982191Y-124992115D01*
X126940710Y-124996200D01*
X126339490Y-124996200D01*
X126298009Y-124992115D01*
X126264031Y-124981807D01*
X126232710Y-124965066D01*
X126205261Y-124942539D01*
X126182734Y-124915090D01*
X126165993Y-124883769D01*
X126155685Y-124849791D01*
X126151600Y-124808310D01*
X126151600Y-124132090D01*
X126155685Y-124090609D01*
X126165993Y-124056631D01*
X126182734Y-124025310D01*
X126205261Y-123997861D01*
X126232710Y-123975334D01*
X126264031Y-123958593D01*
X126298009Y-123948285D01*
X126339490Y-123944200D01*
X126940710Y-123944200D01*
X126982191Y-123948285D01*
G37*
G36*
X128429791Y-123948285D02*
G01*
X128463769Y-123958593D01*
X128495090Y-123975334D01*
X128522539Y-123997861D01*
X128545066Y-124025310D01*
X128561807Y-124056631D01*
X128572115Y-124090609D01*
X128576200Y-124132090D01*
X128576200Y-124808310D01*
X128572115Y-124849791D01*
X128561807Y-124883769D01*
X128545066Y-124915090D01*
X128522539Y-124942539D01*
X128495090Y-124965066D01*
X128463769Y-124981807D01*
X128429791Y-124992115D01*
X128388310Y-124996200D01*
X127787090Y-124996200D01*
X127745609Y-124992115D01*
X127711631Y-124981807D01*
X127680310Y-124965066D01*
X127652861Y-124942539D01*
X127630334Y-124915090D01*
X127613593Y-124883769D01*
X127603285Y-124849791D01*
X127599200Y-124808310D01*
X127599200Y-124132090D01*
X127603285Y-124090609D01*
X127613593Y-124056631D01*
X127630334Y-124025310D01*
X127652861Y-123997861D01*
X127680310Y-123975334D01*
X127711631Y-123958593D01*
X127745609Y-123948285D01*
X127787090Y-123944200D01*
X128388310Y-123944200D01*
X128429791Y-123948285D01*
G37*
G36*
X125407191Y-123948285D02*
G01*
X125441169Y-123958593D01*
X125472490Y-123975334D01*
X125499939Y-123997861D01*
X125522466Y-124025310D01*
X125539207Y-124056631D01*
X125549515Y-124090609D01*
X125553600Y-124132090D01*
X125553600Y-124808310D01*
X125549515Y-124849791D01*
X125539207Y-124883769D01*
X125522466Y-124915090D01*
X125499939Y-124942539D01*
X125472490Y-124965066D01*
X125441169Y-124981807D01*
X125407191Y-124992115D01*
X125365710Y-124996200D01*
X124764490Y-124996200D01*
X124723009Y-124992115D01*
X124689031Y-124981807D01*
X124657710Y-124965066D01*
X124630261Y-124942539D01*
X124607734Y-124915090D01*
X124590993Y-124883769D01*
X124580685Y-124849791D01*
X124576600Y-124808310D01*
X124576600Y-124132090D01*
X124580685Y-124090609D01*
X124590993Y-124056631D01*
X124607734Y-124025310D01*
X124630261Y-123997861D01*
X124657710Y-123975334D01*
X124689031Y-123958593D01*
X124723009Y-123948285D01*
X124764490Y-123944200D01*
X125365710Y-123944200D01*
X125407191Y-123948285D01*
G37*
G36*
X160484800Y-123999600D02*
G01*
X158682800Y-123999600D01*
X158682800Y-122197600D01*
X160484800Y-122197600D01*
X160484800Y-123999600D01*
G37*
G36*
X133445791Y-122741085D02*
G01*
X133479769Y-122751393D01*
X133511090Y-122768134D01*
X133538539Y-122790661D01*
X133561066Y-122818110D01*
X133577807Y-122849431D01*
X133588115Y-122883409D01*
X133592200Y-122924890D01*
X133592200Y-123526110D01*
X133588115Y-123567591D01*
X133577807Y-123601569D01*
X133561066Y-123632890D01*
X133538539Y-123660339D01*
X133511090Y-123682866D01*
X133479769Y-123699607D01*
X133445791Y-123709915D01*
X133404310Y-123714000D01*
X132728090Y-123714000D01*
X132686609Y-123709915D01*
X132652631Y-123699607D01*
X132621310Y-123682866D01*
X132593861Y-123660339D01*
X132571334Y-123632890D01*
X132554593Y-123601569D01*
X132544285Y-123567591D01*
X132540200Y-123526110D01*
X132540200Y-122924890D01*
X132544285Y-122883409D01*
X132554593Y-122849431D01*
X132571334Y-122818110D01*
X132593861Y-122790661D01*
X132621310Y-122768134D01*
X132652631Y-122751393D01*
X132686609Y-122741085D01*
X132728090Y-122737000D01*
X133404310Y-122737000D01*
X133445791Y-122741085D01*
G37*
G36*
X131870991Y-122741085D02*
G01*
X131904969Y-122751393D01*
X131936290Y-122768134D01*
X131963739Y-122790661D01*
X131986266Y-122818110D01*
X132003007Y-122849431D01*
X132013315Y-122883409D01*
X132017400Y-122924890D01*
X132017400Y-123526110D01*
X132013315Y-123567591D01*
X132003007Y-123601569D01*
X131986266Y-123632890D01*
X131963739Y-123660339D01*
X131936290Y-123682866D01*
X131904969Y-123699607D01*
X131870991Y-123709915D01*
X131829510Y-123714000D01*
X131153290Y-123714000D01*
X131111809Y-123709915D01*
X131077831Y-123699607D01*
X131046510Y-123682866D01*
X131019061Y-123660339D01*
X130996534Y-123632890D01*
X130979793Y-123601569D01*
X130969485Y-123567591D01*
X130965400Y-123526110D01*
X130965400Y-122924890D01*
X130969485Y-122883409D01*
X130979793Y-122849431D01*
X130996534Y-122818110D01*
X131019061Y-122790661D01*
X131046510Y-122768134D01*
X131077831Y-122751393D01*
X131111809Y-122741085D01*
X131153290Y-122737000D01*
X131829510Y-122737000D01*
X131870991Y-122741085D01*
G37*
G36*
X146425191Y-122741085D02*
G01*
X146459169Y-122751393D01*
X146490490Y-122768134D01*
X146517939Y-122790661D01*
X146540466Y-122818110D01*
X146557207Y-122849431D01*
X146567515Y-122883409D01*
X146571600Y-122924890D01*
X146571600Y-123526110D01*
X146567515Y-123567591D01*
X146557207Y-123601569D01*
X146540466Y-123632890D01*
X146517939Y-123660339D01*
X146490490Y-123682866D01*
X146459169Y-123699607D01*
X146425191Y-123709915D01*
X146383710Y-123714000D01*
X145707490Y-123714000D01*
X145666009Y-123709915D01*
X145632031Y-123699607D01*
X145600710Y-123682866D01*
X145573261Y-123660339D01*
X145550734Y-123632890D01*
X145533993Y-123601569D01*
X145523685Y-123567591D01*
X145519600Y-123526110D01*
X145519600Y-122924890D01*
X145523685Y-122883409D01*
X145533993Y-122849431D01*
X145550734Y-122818110D01*
X145573261Y-122790661D01*
X145600710Y-122768134D01*
X145632031Y-122751393D01*
X145666009Y-122741085D01*
X145707490Y-122737000D01*
X146383710Y-122737000D01*
X146425191Y-122741085D01*
G37*
G36*
X157079928Y-122841764D02*
G01*
X157101009Y-122848160D01*
X157120445Y-122858548D01*
X157137476Y-122872524D01*
X157151452Y-122889555D01*
X157161840Y-122908991D01*
X157168236Y-122930072D01*
X157171000Y-122958140D01*
X157171000Y-123421860D01*
X157168236Y-123449928D01*
X157161840Y-123471009D01*
X157151452Y-123490445D01*
X157137476Y-123507476D01*
X157120445Y-123521452D01*
X157101009Y-123531840D01*
X157079928Y-123538236D01*
X157051860Y-123541000D01*
X155238140Y-123541000D01*
X155210072Y-123538236D01*
X155188991Y-123531840D01*
X155169555Y-123521452D01*
X155152524Y-123507476D01*
X155138548Y-123490445D01*
X155128160Y-123471009D01*
X155121764Y-123449928D01*
X155119000Y-123421860D01*
X155119000Y-122958140D01*
X155121764Y-122930072D01*
X155128160Y-122908991D01*
X155138548Y-122889555D01*
X155152524Y-122872524D01*
X155169555Y-122858548D01*
X155188991Y-122848160D01*
X155210072Y-122841764D01*
X155238140Y-122839000D01*
X157051860Y-122839000D01*
X157079928Y-122841764D01*
G37*
G36*
X152129928Y-122841764D02*
G01*
X152151009Y-122848160D01*
X152170445Y-122858548D01*
X152187476Y-122872524D01*
X152201452Y-122889555D01*
X152211840Y-122908991D01*
X152218236Y-122930072D01*
X152221000Y-122958140D01*
X152221000Y-123421860D01*
X152218236Y-123449928D01*
X152211840Y-123471009D01*
X152201452Y-123490445D01*
X152187476Y-123507476D01*
X152170445Y-123521452D01*
X152151009Y-123531840D01*
X152129928Y-123538236D01*
X152101860Y-123541000D01*
X150288140Y-123541000D01*
X150260072Y-123538236D01*
X150238991Y-123531840D01*
X150219555Y-123521452D01*
X150202524Y-123507476D01*
X150188548Y-123490445D01*
X150178160Y-123471009D01*
X150171764Y-123449928D01*
X150169000Y-123421860D01*
X150169000Y-122958140D01*
X150171764Y-122930072D01*
X150178160Y-122908991D01*
X150188548Y-122889555D01*
X150202524Y-122872524D01*
X150219555Y-122858548D01*
X150238991Y-122848160D01*
X150260072Y-122841764D01*
X150288140Y-122839000D01*
X152101860Y-122839000D01*
X152129928Y-122841764D01*
G37*
G36*
X128429791Y-122398885D02*
G01*
X128463769Y-122409193D01*
X128495090Y-122425934D01*
X128522539Y-122448461D01*
X128545066Y-122475910D01*
X128561807Y-122507231D01*
X128572115Y-122541209D01*
X128576200Y-122582690D01*
X128576200Y-123258910D01*
X128572115Y-123300391D01*
X128561807Y-123334369D01*
X128545066Y-123365690D01*
X128522539Y-123393139D01*
X128495090Y-123415666D01*
X128463769Y-123432407D01*
X128429791Y-123442715D01*
X128388310Y-123446800D01*
X127787090Y-123446800D01*
X127745609Y-123442715D01*
X127711631Y-123432407D01*
X127680310Y-123415666D01*
X127652861Y-123393139D01*
X127630334Y-123365690D01*
X127613593Y-123334369D01*
X127603285Y-123300391D01*
X127599200Y-123258910D01*
X127599200Y-122582690D01*
X127603285Y-122541209D01*
X127613593Y-122507231D01*
X127630334Y-122475910D01*
X127652861Y-122448461D01*
X127680310Y-122425934D01*
X127711631Y-122409193D01*
X127745609Y-122398885D01*
X127787090Y-122394800D01*
X128388310Y-122394800D01*
X128429791Y-122398885D01*
G37*
G36*
X126982191Y-122398885D02*
G01*
X127016169Y-122409193D01*
X127047490Y-122425934D01*
X127074939Y-122448461D01*
X127097466Y-122475910D01*
X127114207Y-122507231D01*
X127124515Y-122541209D01*
X127128600Y-122582690D01*
X127128600Y-123258910D01*
X127124515Y-123300391D01*
X127114207Y-123334369D01*
X127097466Y-123365690D01*
X127074939Y-123393139D01*
X127047490Y-123415666D01*
X127016169Y-123432407D01*
X126982191Y-123442715D01*
X126940710Y-123446800D01*
X126339490Y-123446800D01*
X126298009Y-123442715D01*
X126264031Y-123432407D01*
X126232710Y-123415666D01*
X126205261Y-123393139D01*
X126182734Y-123365690D01*
X126165993Y-123334369D01*
X126155685Y-123300391D01*
X126151600Y-123258910D01*
X126151600Y-122582690D01*
X126155685Y-122541209D01*
X126165993Y-122507231D01*
X126182734Y-122475910D01*
X126205261Y-122448461D01*
X126232710Y-122425934D01*
X126264031Y-122409193D01*
X126298009Y-122398885D01*
X126339490Y-122394800D01*
X126940710Y-122394800D01*
X126982191Y-122398885D01*
G37*
G36*
X130004791Y-122398885D02*
G01*
X130038769Y-122409193D01*
X130070090Y-122425934D01*
X130097539Y-122448461D01*
X130120066Y-122475910D01*
X130136807Y-122507231D01*
X130147115Y-122541209D01*
X130151200Y-122582690D01*
X130151200Y-123258910D01*
X130147115Y-123300391D01*
X130136807Y-123334369D01*
X130120066Y-123365690D01*
X130097539Y-123393139D01*
X130070090Y-123415666D01*
X130038769Y-123432407D01*
X130004791Y-123442715D01*
X129963310Y-123446800D01*
X129362090Y-123446800D01*
X129320609Y-123442715D01*
X129286631Y-123432407D01*
X129255310Y-123415666D01*
X129227861Y-123393139D01*
X129205334Y-123365690D01*
X129188593Y-123334369D01*
X129178285Y-123300391D01*
X129174200Y-123258910D01*
X129174200Y-122582690D01*
X129178285Y-122541209D01*
X129188593Y-122507231D01*
X129205334Y-122475910D01*
X129227861Y-122448461D01*
X129255310Y-122425934D01*
X129286631Y-122409193D01*
X129320609Y-122398885D01*
X129362090Y-122394800D01*
X129963310Y-122394800D01*
X130004791Y-122398885D01*
G37*
G36*
X125407191Y-122398885D02*
G01*
X125441169Y-122409193D01*
X125472490Y-122425934D01*
X125499939Y-122448461D01*
X125522466Y-122475910D01*
X125539207Y-122507231D01*
X125549515Y-122541209D01*
X125553600Y-122582690D01*
X125553600Y-123258910D01*
X125549515Y-123300391D01*
X125539207Y-123334369D01*
X125522466Y-123365690D01*
X125499939Y-123393139D01*
X125472490Y-123415666D01*
X125441169Y-123432407D01*
X125407191Y-123442715D01*
X125365710Y-123446800D01*
X124764490Y-123446800D01*
X124723009Y-123442715D01*
X124689031Y-123432407D01*
X124657710Y-123415666D01*
X124630261Y-123393139D01*
X124607734Y-123365690D01*
X124590993Y-123334369D01*
X124580685Y-123300391D01*
X124576600Y-123258910D01*
X124576600Y-122582690D01*
X124580685Y-122541209D01*
X124590993Y-122507231D01*
X124607734Y-122475910D01*
X124630261Y-122448461D01*
X124657710Y-122425934D01*
X124689031Y-122409193D01*
X124723009Y-122398885D01*
X124764490Y-122394800D01*
X125365710Y-122394800D01*
X125407191Y-122398885D01*
G37*
G36*
X144877468Y-122338365D02*
G01*
X144916138Y-122350096D01*
X144951777Y-122369146D01*
X144983017Y-122394783D01*
X145008654Y-122426023D01*
X145027704Y-122461662D01*
X145039435Y-122500332D01*
X145044000Y-122546688D01*
X145044000Y-123197912D01*
X145039435Y-123244268D01*
X145027704Y-123282938D01*
X145008654Y-123318577D01*
X144983017Y-123349817D01*
X144951777Y-123375454D01*
X144916138Y-123394504D01*
X144877468Y-123406235D01*
X144831112Y-123410800D01*
X143754888Y-123410800D01*
X143708532Y-123406235D01*
X143669862Y-123394504D01*
X143634223Y-123375454D01*
X143602983Y-123349817D01*
X143577346Y-123318577D01*
X143558296Y-123282938D01*
X143546565Y-123244268D01*
X143542000Y-123197912D01*
X143542000Y-122546688D01*
X143546565Y-122500332D01*
X143558296Y-122461662D01*
X143577346Y-122426023D01*
X143602983Y-122394783D01*
X143634223Y-122369146D01*
X143669862Y-122350096D01*
X143708532Y-122338365D01*
X143754888Y-122333800D01*
X144831112Y-122333800D01*
X144877468Y-122338365D01*
G37*
G36*
X152129928Y-121571764D02*
G01*
X152151009Y-121578160D01*
X152170445Y-121588548D01*
X152187476Y-121602524D01*
X152201452Y-121619555D01*
X152211840Y-121638991D01*
X152218236Y-121660072D01*
X152221000Y-121688140D01*
X152221000Y-122151860D01*
X152218236Y-122179928D01*
X152211840Y-122201009D01*
X152201452Y-122220445D01*
X152187476Y-122237476D01*
X152170445Y-122251452D01*
X152151009Y-122261840D01*
X152129928Y-122268236D01*
X152101860Y-122271000D01*
X150288140Y-122271000D01*
X150260072Y-122268236D01*
X150238991Y-122261840D01*
X150219555Y-122251452D01*
X150202524Y-122237476D01*
X150188548Y-122220445D01*
X150178160Y-122201009D01*
X150171764Y-122179928D01*
X150169000Y-122151860D01*
X150169000Y-121688140D01*
X150171764Y-121660072D01*
X150178160Y-121638991D01*
X150188548Y-121619555D01*
X150202524Y-121602524D01*
X150219555Y-121588548D01*
X150238991Y-121578160D01*
X150260072Y-121571764D01*
X150288140Y-121569000D01*
X152101860Y-121569000D01*
X152129928Y-121571764D01*
G37*
G36*
X157079928Y-121571764D02*
G01*
X157101009Y-121578160D01*
X157120445Y-121588548D01*
X157137476Y-121602524D01*
X157151452Y-121619555D01*
X157161840Y-121638991D01*
X157168236Y-121660072D01*
X157171000Y-121688140D01*
X157171000Y-122151860D01*
X157168236Y-122179928D01*
X157161840Y-122201009D01*
X157151452Y-122220445D01*
X157137476Y-122237476D01*
X157120445Y-122251452D01*
X157101009Y-122261840D01*
X157079928Y-122268236D01*
X157051860Y-122271000D01*
X155238140Y-122271000D01*
X155210072Y-122268236D01*
X155188991Y-122261840D01*
X155169555Y-122251452D01*
X155152524Y-122237476D01*
X155138548Y-122220445D01*
X155128160Y-122201009D01*
X155121764Y-122179928D01*
X155119000Y-122151860D01*
X155119000Y-121688140D01*
X155121764Y-121660072D01*
X155128160Y-121638991D01*
X155138548Y-121619555D01*
X155152524Y-121602524D01*
X155169555Y-121588548D01*
X155188991Y-121578160D01*
X155210072Y-121571764D01*
X155238140Y-121569000D01*
X157051860Y-121569000D01*
X157079928Y-121571764D01*
G37*
G36*
X117577121Y-119589228D02*
G01*
X117723402Y-119633602D01*
X117858204Y-119705655D01*
X117858207Y-119705657D01*
X117858208Y-119705658D01*
X117976369Y-119802631D01*
X118056730Y-119900550D01*
X118073345Y-119920796D01*
X118145398Y-120055598D01*
X118189772Y-120201879D01*
X118204754Y-120354000D01*
X118189772Y-120506121D01*
X118145398Y-120652402D01*
X118073345Y-120787204D01*
X118073343Y-120787207D01*
X118073342Y-120787208D01*
X117976369Y-120905369D01*
X117871005Y-120991840D01*
X117858204Y-121002345D01*
X117723402Y-121074398D01*
X117577121Y-121118772D01*
X117463118Y-121130000D01*
X116836882Y-121130000D01*
X116722879Y-121118772D01*
X116570664Y-121072598D01*
X116559439Y-121067948D01*
X116535405Y-121063167D01*
X116510901Y-121063167D01*
X116486868Y-121067946D01*
X116464229Y-121077323D01*
X116443854Y-121090936D01*
X116426527Y-121108263D01*
X116412912Y-121128637D01*
X116403534Y-121151275D01*
X116398753Y-121175309D01*
X116398753Y-121199813D01*
X116403532Y-121223846D01*
X116412909Y-121246485D01*
X116426522Y-121266860D01*
X116434762Y-121275952D01*
X116450315Y-121291505D01*
X116499672Y-121365373D01*
X116533669Y-121447448D01*
X116551000Y-121534579D01*
X116551000Y-121623421D01*
X116533669Y-121710552D01*
X116499672Y-121792627D01*
X116499671Y-121792629D01*
X116450314Y-121866496D01*
X116387496Y-121929314D01*
X116313629Y-121978671D01*
X116313628Y-121978672D01*
X116313627Y-121978672D01*
X116231552Y-122012669D01*
X116144421Y-122030000D01*
X116055579Y-122030000D01*
X115968448Y-122012669D01*
X115886373Y-121978672D01*
X115886372Y-121978672D01*
X115886371Y-121978671D01*
X115812504Y-121929314D01*
X115749686Y-121866496D01*
X115700329Y-121792629D01*
X115700328Y-121792627D01*
X115666331Y-121710552D01*
X115649000Y-121623421D01*
X115649000Y-121534579D01*
X115666331Y-121447448D01*
X115700328Y-121365373D01*
X115749685Y-121291505D01*
X115812505Y-121228685D01*
X115855715Y-121199813D01*
X115886371Y-121179329D01*
X115886373Y-121179328D01*
X115968448Y-121145331D01*
X116055579Y-121128000D01*
X116144421Y-121128000D01*
X116233946Y-121145807D01*
X116252743Y-121151510D01*
X116277129Y-121153912D01*
X116301515Y-121151511D01*
X116324964Y-121144398D01*
X116346575Y-121132847D01*
X116365517Y-121117302D01*
X116381063Y-121098361D01*
X116392614Y-121076750D01*
X116399728Y-121053301D01*
X116402130Y-121028915D01*
X116399729Y-121004529D01*
X116392616Y-120981080D01*
X116381065Y-120959469D01*
X116365520Y-120940527D01*
X116356430Y-120932288D01*
X116323633Y-120905372D01*
X116254342Y-120820941D01*
X116226658Y-120787208D01*
X116226657Y-120787207D01*
X116226655Y-120787204D01*
X116154602Y-120652402D01*
X116110228Y-120506121D01*
X116095246Y-120354000D01*
X116110228Y-120201879D01*
X116154602Y-120055598D01*
X116226655Y-119920796D01*
X116243271Y-119900550D01*
X116323631Y-119802631D01*
X116441792Y-119705658D01*
X116441793Y-119705657D01*
X116441796Y-119705655D01*
X116576598Y-119633602D01*
X116722879Y-119589228D01*
X116836882Y-119578000D01*
X117463118Y-119578000D01*
X117577121Y-119589228D01*
G37*
G36*
X143009591Y-120697085D02*
G01*
X143043569Y-120707393D01*
X143074890Y-120724134D01*
X143102339Y-120746661D01*
X143124866Y-120774110D01*
X143141607Y-120805431D01*
X143151915Y-120839409D01*
X143156000Y-120880890D01*
X143156000Y-121557110D01*
X143151915Y-121598591D01*
X143141607Y-121632569D01*
X143124866Y-121663890D01*
X143102339Y-121691339D01*
X143074890Y-121713866D01*
X143043569Y-121730607D01*
X143009591Y-121740915D01*
X142968110Y-121745000D01*
X142366890Y-121745000D01*
X142325409Y-121740915D01*
X142291431Y-121730607D01*
X142260110Y-121713866D01*
X142232661Y-121691339D01*
X142210134Y-121663890D01*
X142193393Y-121632569D01*
X142183085Y-121598591D01*
X142179000Y-121557110D01*
X142179000Y-120880890D01*
X142183085Y-120839409D01*
X142193393Y-120805431D01*
X142210134Y-120774110D01*
X142232661Y-120746661D01*
X142260110Y-120724134D01*
X142291431Y-120707393D01*
X142325409Y-120697085D01*
X142366890Y-120693000D01*
X142968110Y-120693000D01*
X143009591Y-120697085D01*
G37*
G36*
X141434591Y-120697085D02*
G01*
X141468569Y-120707393D01*
X141499890Y-120724134D01*
X141527339Y-120746661D01*
X141549866Y-120774110D01*
X141566607Y-120805431D01*
X141576915Y-120839409D01*
X141581000Y-120880890D01*
X141581000Y-121557110D01*
X141576915Y-121598591D01*
X141566607Y-121632569D01*
X141549866Y-121663890D01*
X141527339Y-121691339D01*
X141499890Y-121713866D01*
X141468569Y-121730607D01*
X141434591Y-121740915D01*
X141393110Y-121745000D01*
X140791890Y-121745000D01*
X140750409Y-121740915D01*
X140716431Y-121730607D01*
X140685110Y-121713866D01*
X140657661Y-121691339D01*
X140635134Y-121663890D01*
X140618393Y-121632569D01*
X140608085Y-121598591D01*
X140604000Y-121557110D01*
X140604000Y-120880890D01*
X140608085Y-120839409D01*
X140618393Y-120805431D01*
X140635134Y-120774110D01*
X140657661Y-120746661D01*
X140685110Y-120724134D01*
X140716431Y-120707393D01*
X140750409Y-120697085D01*
X140791890Y-120693000D01*
X141393110Y-120693000D01*
X141434591Y-120697085D01*
G37*
G36*
X159689680Y-119661009D02*
G01*
X159846612Y-119692224D01*
X160010584Y-119760144D01*
X160158154Y-119858747D01*
X160283653Y-119984246D01*
X160382256Y-120131816D01*
X160450176Y-120295788D01*
X160484800Y-120469859D01*
X160484800Y-120647341D01*
X160450176Y-120821412D01*
X160382256Y-120985384D01*
X160283653Y-121132954D01*
X160158154Y-121258453D01*
X160010584Y-121357056D01*
X159846612Y-121424976D01*
X159697312Y-121454673D01*
X159672542Y-121459600D01*
X159495058Y-121459600D01*
X159470288Y-121454673D01*
X159320988Y-121424976D01*
X159157016Y-121357056D01*
X159009446Y-121258453D01*
X158883947Y-121132954D01*
X158785344Y-120985384D01*
X158717424Y-120821412D01*
X158682800Y-120647341D01*
X158682800Y-120469859D01*
X158717424Y-120295788D01*
X158785344Y-120131816D01*
X158883947Y-119984246D01*
X159009446Y-119858747D01*
X159157016Y-119760144D01*
X159320988Y-119692224D01*
X159477920Y-119661009D01*
X159495058Y-119657600D01*
X159672542Y-119657600D01*
X159689680Y-119661009D01*
G37*
G36*
X149350591Y-120318085D02*
G01*
X149384569Y-120328393D01*
X149415890Y-120345134D01*
X149443339Y-120367661D01*
X149465866Y-120395110D01*
X149482607Y-120426431D01*
X149492915Y-120460409D01*
X149497000Y-120501890D01*
X149497000Y-121103110D01*
X149492915Y-121144591D01*
X149482607Y-121178569D01*
X149465866Y-121209890D01*
X149443339Y-121237339D01*
X149415890Y-121259866D01*
X149384569Y-121276607D01*
X149350591Y-121286915D01*
X149309110Y-121291000D01*
X148632890Y-121291000D01*
X148591409Y-121286915D01*
X148557431Y-121276607D01*
X148526110Y-121259866D01*
X148498661Y-121237339D01*
X148476134Y-121209890D01*
X148459393Y-121178569D01*
X148449085Y-121144591D01*
X148445000Y-121103110D01*
X148445000Y-120501890D01*
X148449085Y-120460409D01*
X148459393Y-120426431D01*
X148476134Y-120395110D01*
X148498661Y-120367661D01*
X148526110Y-120345134D01*
X148557431Y-120328393D01*
X148591409Y-120318085D01*
X148632890Y-120314000D01*
X149309110Y-120314000D01*
X149350591Y-120318085D01*
G37*
G36*
X133059170Y-119586403D02*
G01*
X133070875Y-119589954D01*
X133081665Y-119595721D01*
X133095688Y-119607230D01*
X133104704Y-119616245D01*
X133125078Y-119629859D01*
X133147717Y-119639235D01*
X133171751Y-119644015D01*
X133196255Y-119644015D01*
X133220288Y-119639234D01*
X133242926Y-119629856D01*
X133263301Y-119616242D01*
X133272317Y-119607226D01*
X133286335Y-119595721D01*
X133297125Y-119589954D01*
X133308830Y-119586403D01*
X133327138Y-119584600D01*
X133690862Y-119584600D01*
X133709170Y-119586403D01*
X133720875Y-119589954D01*
X133731665Y-119595721D01*
X133745688Y-119607230D01*
X133754704Y-119616245D01*
X133775078Y-119629859D01*
X133797717Y-119639235D01*
X133821751Y-119644015D01*
X133846255Y-119644015D01*
X133870288Y-119639234D01*
X133892926Y-119629856D01*
X133913301Y-119616242D01*
X133922317Y-119607226D01*
X133936335Y-119595721D01*
X133947125Y-119589954D01*
X133958830Y-119586403D01*
X133977138Y-119584600D01*
X134340862Y-119584600D01*
X134359170Y-119586403D01*
X134370875Y-119589954D01*
X134381665Y-119595721D01*
X134395688Y-119607230D01*
X134404704Y-119616245D01*
X134425078Y-119629859D01*
X134447717Y-119639235D01*
X134471751Y-119644015D01*
X134496255Y-119644015D01*
X134520288Y-119639234D01*
X134542926Y-119629856D01*
X134563301Y-119616242D01*
X134572317Y-119607226D01*
X134586335Y-119595721D01*
X134597125Y-119589954D01*
X134608830Y-119586403D01*
X134627138Y-119584600D01*
X134990862Y-119584600D01*
X135009170Y-119586403D01*
X135020875Y-119589954D01*
X135031665Y-119595721D01*
X135045688Y-119607230D01*
X135054704Y-119616245D01*
X135075078Y-119629859D01*
X135097717Y-119639235D01*
X135121751Y-119644015D01*
X135146255Y-119644015D01*
X135170288Y-119639234D01*
X135192926Y-119629856D01*
X135213301Y-119616242D01*
X135222317Y-119607226D01*
X135236335Y-119595721D01*
X135247125Y-119589954D01*
X135258830Y-119586403D01*
X135277138Y-119584600D01*
X135640862Y-119584600D01*
X135659170Y-119586403D01*
X135670875Y-119589954D01*
X135681665Y-119595721D01*
X135695688Y-119607230D01*
X135704704Y-119616245D01*
X135725078Y-119629859D01*
X135747717Y-119639235D01*
X135771751Y-119644015D01*
X135796255Y-119644015D01*
X135820288Y-119639234D01*
X135842926Y-119629856D01*
X135863301Y-119616242D01*
X135872317Y-119607226D01*
X135886335Y-119595721D01*
X135897125Y-119589954D01*
X135908830Y-119586403D01*
X135927138Y-119584600D01*
X136290862Y-119584600D01*
X136309170Y-119586403D01*
X136320875Y-119589954D01*
X136331665Y-119595721D01*
X136345688Y-119607230D01*
X136354704Y-119616245D01*
X136375078Y-119629859D01*
X136397717Y-119639235D01*
X136421751Y-119644015D01*
X136446255Y-119644015D01*
X136470288Y-119639234D01*
X136492926Y-119629856D01*
X136513301Y-119616242D01*
X136522317Y-119607226D01*
X136536335Y-119595721D01*
X136547125Y-119589954D01*
X136558830Y-119586403D01*
X136577138Y-119584600D01*
X136940862Y-119584600D01*
X136959170Y-119586403D01*
X136970875Y-119589954D01*
X136981665Y-119595721D01*
X136995688Y-119607230D01*
X137004704Y-119616245D01*
X137025078Y-119629859D01*
X137047717Y-119639235D01*
X137071751Y-119644015D01*
X137096255Y-119644015D01*
X137120288Y-119639234D01*
X137142926Y-119629856D01*
X137163301Y-119616242D01*
X137172317Y-119607226D01*
X137186335Y-119595721D01*
X137197125Y-119589954D01*
X137208830Y-119586403D01*
X137227138Y-119584600D01*
X137590862Y-119584600D01*
X137609170Y-119586403D01*
X137620875Y-119589954D01*
X137631665Y-119595721D01*
X137645688Y-119607230D01*
X137654704Y-119616245D01*
X137675078Y-119629859D01*
X137697717Y-119639235D01*
X137721751Y-119644015D01*
X137746255Y-119644015D01*
X137770288Y-119639234D01*
X137792926Y-119629856D01*
X137813301Y-119616242D01*
X137822317Y-119607226D01*
X137836335Y-119595721D01*
X137847125Y-119589954D01*
X137858830Y-119586403D01*
X137877138Y-119584600D01*
X138240862Y-119584600D01*
X138259170Y-119586403D01*
X138270875Y-119589954D01*
X138281665Y-119595721D01*
X138295688Y-119607230D01*
X138304704Y-119616245D01*
X138325078Y-119629859D01*
X138347717Y-119639235D01*
X138371751Y-119644015D01*
X138396255Y-119644015D01*
X138420288Y-119639234D01*
X138442926Y-119629856D01*
X138463301Y-119616242D01*
X138472317Y-119607226D01*
X138486335Y-119595721D01*
X138497125Y-119589954D01*
X138508830Y-119586403D01*
X138527138Y-119584600D01*
X138890862Y-119584600D01*
X138909170Y-119586403D01*
X138920875Y-119589954D01*
X138931665Y-119595721D01*
X138941119Y-119603481D01*
X138948879Y-119612935D01*
X138954646Y-119623725D01*
X138958197Y-119635430D01*
X138960000Y-119653738D01*
X138960000Y-121092462D01*
X138958197Y-121110770D01*
X138954646Y-121122475D01*
X138948879Y-121133265D01*
X138941119Y-121142719D01*
X138931665Y-121150479D01*
X138920875Y-121156246D01*
X138909170Y-121159797D01*
X138890862Y-121161600D01*
X138527138Y-121161600D01*
X138508830Y-121159797D01*
X138497125Y-121156246D01*
X138486335Y-121150479D01*
X138472312Y-121138970D01*
X138463296Y-121129955D01*
X138442922Y-121116341D01*
X138420283Y-121106965D01*
X138396249Y-121102185D01*
X138371745Y-121102185D01*
X138347712Y-121106966D01*
X138325074Y-121116344D01*
X138304699Y-121129958D01*
X138295683Y-121138974D01*
X138281665Y-121150479D01*
X138270875Y-121156246D01*
X138259170Y-121159797D01*
X138240862Y-121161600D01*
X137877138Y-121161600D01*
X137858830Y-121159797D01*
X137847125Y-121156246D01*
X137836335Y-121150479D01*
X137822312Y-121138970D01*
X137813296Y-121129955D01*
X137792922Y-121116341D01*
X137770283Y-121106965D01*
X137746249Y-121102185D01*
X137721745Y-121102185D01*
X137697712Y-121106966D01*
X137675074Y-121116344D01*
X137654699Y-121129958D01*
X137645683Y-121138974D01*
X137631665Y-121150479D01*
X137620875Y-121156246D01*
X137609170Y-121159797D01*
X137590862Y-121161600D01*
X137227138Y-121161600D01*
X137208830Y-121159797D01*
X137197125Y-121156246D01*
X137186335Y-121150479D01*
X137172312Y-121138970D01*
X137163296Y-121129955D01*
X137142922Y-121116341D01*
X137120283Y-121106965D01*
X137096249Y-121102185D01*
X137071745Y-121102185D01*
X137047712Y-121106966D01*
X137025074Y-121116344D01*
X137004699Y-121129958D01*
X136995683Y-121138974D01*
X136981665Y-121150479D01*
X136970875Y-121156246D01*
X136959170Y-121159797D01*
X136940862Y-121161600D01*
X136577138Y-121161600D01*
X136558830Y-121159797D01*
X136547125Y-121156246D01*
X136536335Y-121150479D01*
X136522312Y-121138970D01*
X136513296Y-121129955D01*
X136492922Y-121116341D01*
X136470283Y-121106965D01*
X136446249Y-121102185D01*
X136421745Y-121102185D01*
X136397712Y-121106966D01*
X136375074Y-121116344D01*
X136354699Y-121129958D01*
X136345683Y-121138974D01*
X136331665Y-121150479D01*
X136320875Y-121156246D01*
X136309170Y-121159797D01*
X136290862Y-121161600D01*
X135927138Y-121161600D01*
X135908830Y-121159797D01*
X135897125Y-121156246D01*
X135886335Y-121150479D01*
X135872312Y-121138970D01*
X135863296Y-121129955D01*
X135842922Y-121116341D01*
X135820283Y-121106965D01*
X135796249Y-121102185D01*
X135771745Y-121102185D01*
X135747712Y-121106966D01*
X135725074Y-121116344D01*
X135704699Y-121129958D01*
X135695683Y-121138974D01*
X135681665Y-121150479D01*
X135670875Y-121156246D01*
X135659170Y-121159797D01*
X135640862Y-121161600D01*
X135277138Y-121161600D01*
X135258830Y-121159797D01*
X135247125Y-121156246D01*
X135236335Y-121150479D01*
X135222312Y-121138970D01*
X135213296Y-121129955D01*
X135192922Y-121116341D01*
X135170283Y-121106965D01*
X135146249Y-121102185D01*
X135121745Y-121102185D01*
X135097712Y-121106966D01*
X135075074Y-121116344D01*
X135054699Y-121129958D01*
X135045683Y-121138974D01*
X135031665Y-121150479D01*
X135020875Y-121156246D01*
X135009170Y-121159797D01*
X134990862Y-121161600D01*
X134627138Y-121161600D01*
X134608830Y-121159797D01*
X134597125Y-121156246D01*
X134586335Y-121150479D01*
X134572312Y-121138970D01*
X134563296Y-121129955D01*
X134542922Y-121116341D01*
X134520283Y-121106965D01*
X134496249Y-121102185D01*
X134471745Y-121102185D01*
X134447712Y-121106966D01*
X134425074Y-121116344D01*
X134404699Y-121129958D01*
X134395683Y-121138974D01*
X134381665Y-121150479D01*
X134370875Y-121156246D01*
X134359170Y-121159797D01*
X134340862Y-121161600D01*
X133977138Y-121161600D01*
X133958830Y-121159797D01*
X133947125Y-121156246D01*
X133936335Y-121150479D01*
X133922312Y-121138970D01*
X133913296Y-121129955D01*
X133892922Y-121116341D01*
X133870283Y-121106965D01*
X133846249Y-121102185D01*
X133821745Y-121102185D01*
X133797712Y-121106966D01*
X133775074Y-121116344D01*
X133754699Y-121129958D01*
X133745683Y-121138974D01*
X133731665Y-121150479D01*
X133720875Y-121156246D01*
X133709170Y-121159797D01*
X133690862Y-121161600D01*
X133327138Y-121161600D01*
X133308830Y-121159797D01*
X133297125Y-121156246D01*
X133286335Y-121150479D01*
X133272312Y-121138970D01*
X133263296Y-121129955D01*
X133242922Y-121116341D01*
X133220283Y-121106965D01*
X133196249Y-121102185D01*
X133171745Y-121102185D01*
X133147712Y-121106966D01*
X133125074Y-121116344D01*
X133104699Y-121129958D01*
X133095683Y-121138974D01*
X133081665Y-121150479D01*
X133070875Y-121156246D01*
X133059170Y-121159797D01*
X133040862Y-121161600D01*
X132677138Y-121161600D01*
X132658830Y-121159797D01*
X132647125Y-121156246D01*
X132636335Y-121150479D01*
X132626881Y-121142719D01*
X132619121Y-121133265D01*
X132613354Y-121122475D01*
X132609803Y-121110770D01*
X132608000Y-121092462D01*
X132608000Y-119653738D01*
X132609803Y-119635430D01*
X132613354Y-119623725D01*
X132619121Y-119612935D01*
X132626881Y-119603481D01*
X132636335Y-119595721D01*
X132647125Y-119589954D01*
X132658830Y-119586403D01*
X132677138Y-119584600D01*
X133040862Y-119584600D01*
X133059170Y-119586403D01*
G37*
G36*
X131642391Y-120175885D02*
G01*
X131676369Y-120186193D01*
X131707690Y-120202934D01*
X131735139Y-120225461D01*
X131757666Y-120252910D01*
X131774407Y-120284231D01*
X131784715Y-120318209D01*
X131788800Y-120359690D01*
X131788800Y-120960910D01*
X131784715Y-121002391D01*
X131774407Y-121036369D01*
X131757666Y-121067690D01*
X131735139Y-121095139D01*
X131707690Y-121117666D01*
X131676369Y-121134407D01*
X131642391Y-121144715D01*
X131600910Y-121148800D01*
X130924690Y-121148800D01*
X130883209Y-121144715D01*
X130849231Y-121134407D01*
X130817910Y-121117666D01*
X130790461Y-121095139D01*
X130767934Y-121067690D01*
X130751193Y-121036369D01*
X130740885Y-121002391D01*
X130736800Y-120960910D01*
X130736800Y-120359690D01*
X130740885Y-120318209D01*
X130751193Y-120284231D01*
X130767934Y-120252910D01*
X130790461Y-120225461D01*
X130817910Y-120202934D01*
X130849231Y-120186193D01*
X130883209Y-120175885D01*
X130924690Y-120171800D01*
X131600910Y-120171800D01*
X131642391Y-120175885D01*
G37*
G36*
X152129928Y-120301764D02*
G01*
X152151009Y-120308160D01*
X152170445Y-120318548D01*
X152187476Y-120332524D01*
X152201452Y-120349555D01*
X152211840Y-120368991D01*
X152218236Y-120390072D01*
X152221000Y-120418140D01*
X152221000Y-120881860D01*
X152218236Y-120909928D01*
X152211840Y-120931009D01*
X152201452Y-120950445D01*
X152187476Y-120967476D01*
X152170445Y-120981452D01*
X152151009Y-120991840D01*
X152129928Y-120998236D01*
X152101860Y-121001000D01*
X150288140Y-121001000D01*
X150260072Y-120998236D01*
X150238991Y-120991840D01*
X150219555Y-120981452D01*
X150202524Y-120967476D01*
X150188548Y-120950445D01*
X150178160Y-120931009D01*
X150171764Y-120909928D01*
X150169000Y-120881860D01*
X150169000Y-120418140D01*
X150171764Y-120390072D01*
X150178160Y-120368991D01*
X150188548Y-120349555D01*
X150202524Y-120332524D01*
X150219555Y-120318548D01*
X150238991Y-120308160D01*
X150260072Y-120301764D01*
X150288140Y-120299000D01*
X152101860Y-120299000D01*
X152129928Y-120301764D01*
G37*
G36*
X157079928Y-120301764D02*
G01*
X157101009Y-120308160D01*
X157120445Y-120318548D01*
X157137476Y-120332524D01*
X157151452Y-120349555D01*
X157161840Y-120368991D01*
X157168236Y-120390072D01*
X157171000Y-120418140D01*
X157171000Y-120881860D01*
X157168236Y-120909928D01*
X157161840Y-120931009D01*
X157151452Y-120950445D01*
X157137476Y-120967476D01*
X157120445Y-120981452D01*
X157101009Y-120991840D01*
X157079928Y-120998236D01*
X157051860Y-121001000D01*
X155238140Y-121001000D01*
X155210072Y-120998236D01*
X155188991Y-120991840D01*
X155169555Y-120981452D01*
X155152524Y-120967476D01*
X155138548Y-120950445D01*
X155128160Y-120931009D01*
X155121764Y-120909928D01*
X155119000Y-120881860D01*
X155119000Y-120418140D01*
X155121764Y-120390072D01*
X155128160Y-120368991D01*
X155138548Y-120349555D01*
X155152524Y-120332524D01*
X155169555Y-120318548D01*
X155188991Y-120308160D01*
X155210072Y-120301764D01*
X155238140Y-120299000D01*
X157051860Y-120299000D01*
X157079928Y-120301764D01*
G37*
G36*
X113797715Y-119587058D02*
G01*
X113879476Y-119611860D01*
X113915083Y-119622661D01*
X113915722Y-119622855D01*
X114024468Y-119680981D01*
X114119790Y-119759210D01*
X114198019Y-119854532D01*
X114256145Y-119963278D01*
X114291942Y-120081285D01*
X114304028Y-120204000D01*
X114291942Y-120326715D01*
X114256145Y-120444722D01*
X114198019Y-120553468D01*
X114119790Y-120648790D01*
X114024468Y-120727019D01*
X113915722Y-120785145D01*
X113915719Y-120785146D01*
X113908921Y-120787208D01*
X113797715Y-120820942D01*
X113705746Y-120830000D01*
X112994254Y-120830000D01*
X112902285Y-120820942D01*
X112791079Y-120787208D01*
X112784281Y-120785146D01*
X112784278Y-120785145D01*
X112675532Y-120727019D01*
X112580210Y-120648790D01*
X112501981Y-120553468D01*
X112443855Y-120444722D01*
X112408058Y-120326715D01*
X112395972Y-120204000D01*
X112408058Y-120081285D01*
X112443855Y-119963278D01*
X112501981Y-119854532D01*
X112580210Y-119759210D01*
X112675532Y-119680981D01*
X112784278Y-119622855D01*
X112784918Y-119622661D01*
X112820524Y-119611860D01*
X112902285Y-119587058D01*
X112994254Y-119578000D01*
X113705746Y-119578000D01*
X113797715Y-119587058D01*
G37*
G36*
X124391191Y-119630285D02*
G01*
X124425169Y-119640593D01*
X124456490Y-119657334D01*
X124483939Y-119679861D01*
X124506466Y-119707310D01*
X124523207Y-119738631D01*
X124533515Y-119772609D01*
X124537600Y-119814090D01*
X124537600Y-120490310D01*
X124533515Y-120531791D01*
X124523207Y-120565769D01*
X124506466Y-120597090D01*
X124483939Y-120624539D01*
X124456490Y-120647066D01*
X124425169Y-120663807D01*
X124391191Y-120674115D01*
X124349710Y-120678200D01*
X123748490Y-120678200D01*
X123707009Y-120674115D01*
X123673031Y-120663807D01*
X123641710Y-120647066D01*
X123614261Y-120624539D01*
X123591734Y-120597090D01*
X123574993Y-120565769D01*
X123564685Y-120531791D01*
X123560600Y-120490310D01*
X123560600Y-119814090D01*
X123564685Y-119772609D01*
X123574993Y-119738631D01*
X123591734Y-119707310D01*
X123614261Y-119679861D01*
X123641710Y-119657334D01*
X123673031Y-119640593D01*
X123707009Y-119630285D01*
X123748490Y-119626200D01*
X124349710Y-119626200D01*
X124391191Y-119630285D01*
G37*
G36*
X125966191Y-119630285D02*
G01*
X126000169Y-119640593D01*
X126031490Y-119657334D01*
X126058939Y-119679861D01*
X126081466Y-119707310D01*
X126098207Y-119738631D01*
X126108515Y-119772609D01*
X126112600Y-119814090D01*
X126112600Y-120490310D01*
X126108515Y-120531791D01*
X126098207Y-120565769D01*
X126081466Y-120597090D01*
X126058939Y-120624539D01*
X126031490Y-120647066D01*
X126000169Y-120663807D01*
X125966191Y-120674115D01*
X125924710Y-120678200D01*
X125323490Y-120678200D01*
X125282009Y-120674115D01*
X125248031Y-120663807D01*
X125216710Y-120647066D01*
X125189261Y-120624539D01*
X125166734Y-120597090D01*
X125149993Y-120565769D01*
X125139685Y-120531791D01*
X125135600Y-120490310D01*
X125135600Y-119814090D01*
X125139685Y-119772609D01*
X125149993Y-119738631D01*
X125166734Y-119707310D01*
X125189261Y-119679861D01*
X125216710Y-119657334D01*
X125248031Y-119640593D01*
X125282009Y-119630285D01*
X125323490Y-119626200D01*
X125924710Y-119626200D01*
X125966191Y-119630285D01*
G37*
G36*
X129592800Y-120538600D02*
G01*
X127090800Y-120538600D01*
X127090800Y-118436600D01*
X129592800Y-118436600D01*
X129592800Y-120538600D01*
G37*
G36*
X141434591Y-119096885D02*
G01*
X141468569Y-119107193D01*
X141499890Y-119123934D01*
X141527339Y-119146461D01*
X141549866Y-119173910D01*
X141566607Y-119205231D01*
X141576915Y-119239209D01*
X141581000Y-119280690D01*
X141581000Y-119956910D01*
X141576915Y-119998391D01*
X141566607Y-120032369D01*
X141549866Y-120063690D01*
X141527339Y-120091139D01*
X141499890Y-120113666D01*
X141468569Y-120130407D01*
X141434591Y-120140715D01*
X141393110Y-120144800D01*
X140791890Y-120144800D01*
X140750409Y-120140715D01*
X140716431Y-120130407D01*
X140685110Y-120113666D01*
X140657661Y-120091139D01*
X140635134Y-120063690D01*
X140618393Y-120032369D01*
X140608085Y-119998391D01*
X140604000Y-119956910D01*
X140604000Y-119280690D01*
X140608085Y-119239209D01*
X140618393Y-119205231D01*
X140635134Y-119173910D01*
X140657661Y-119146461D01*
X140685110Y-119123934D01*
X140716431Y-119107193D01*
X140750409Y-119096885D01*
X140791890Y-119092800D01*
X141393110Y-119092800D01*
X141434591Y-119096885D01*
G37*
G36*
X143009591Y-119096885D02*
G01*
X143043569Y-119107193D01*
X143074890Y-119123934D01*
X143102339Y-119146461D01*
X143124866Y-119173910D01*
X143141607Y-119205231D01*
X143151915Y-119239209D01*
X143156000Y-119280690D01*
X143156000Y-119956910D01*
X143151915Y-119998391D01*
X143141607Y-120032369D01*
X143124866Y-120063690D01*
X143102339Y-120091139D01*
X143074890Y-120113666D01*
X143043569Y-120130407D01*
X143009591Y-120140715D01*
X142968110Y-120144800D01*
X142366890Y-120144800D01*
X142325409Y-120140715D01*
X142291431Y-120130407D01*
X142260110Y-120113666D01*
X142232661Y-120091139D01*
X142210134Y-120063690D01*
X142193393Y-120032369D01*
X142183085Y-119998391D01*
X142179000Y-119956910D01*
X142179000Y-119280690D01*
X142183085Y-119239209D01*
X142193393Y-119205231D01*
X142210134Y-119173910D01*
X142232661Y-119146461D01*
X142260110Y-119123934D01*
X142291431Y-119107193D01*
X142325409Y-119096885D01*
X142366890Y-119092800D01*
X142968110Y-119092800D01*
X143009591Y-119096885D01*
G37*
G36*
X152129928Y-119031764D02*
G01*
X152151009Y-119038160D01*
X152170445Y-119048548D01*
X152187476Y-119062524D01*
X152201452Y-119079555D01*
X152211840Y-119098991D01*
X152218236Y-119120072D01*
X152221000Y-119148140D01*
X152221000Y-119611860D01*
X152218236Y-119639928D01*
X152211840Y-119661009D01*
X152201452Y-119680445D01*
X152187476Y-119697476D01*
X152170445Y-119711452D01*
X152151009Y-119721840D01*
X152129928Y-119728236D01*
X152101860Y-119731000D01*
X150288140Y-119731000D01*
X150260072Y-119728236D01*
X150238991Y-119721840D01*
X150219555Y-119711452D01*
X150202524Y-119697476D01*
X150188548Y-119680445D01*
X150178160Y-119661009D01*
X150171764Y-119639928D01*
X150169000Y-119611860D01*
X150169000Y-119148140D01*
X150171764Y-119120072D01*
X150178160Y-119098991D01*
X150188548Y-119079555D01*
X150202524Y-119062524D01*
X150219555Y-119048548D01*
X150238991Y-119038160D01*
X150260072Y-119031764D01*
X150288140Y-119029000D01*
X152101860Y-119029000D01*
X152129928Y-119031764D01*
G37*
G36*
X157079928Y-119031764D02*
G01*
X157101009Y-119038160D01*
X157120445Y-119048548D01*
X157137476Y-119062524D01*
X157151452Y-119079555D01*
X157161840Y-119098991D01*
X157168236Y-119120072D01*
X157171000Y-119148140D01*
X157171000Y-119611860D01*
X157168236Y-119639928D01*
X157161840Y-119661009D01*
X157151452Y-119680445D01*
X157137476Y-119697476D01*
X157120445Y-119711452D01*
X157101009Y-119721840D01*
X157079928Y-119728236D01*
X157051860Y-119731000D01*
X155238140Y-119731000D01*
X155210072Y-119728236D01*
X155188991Y-119721840D01*
X155169555Y-119711452D01*
X155152524Y-119697476D01*
X155138548Y-119680445D01*
X155128160Y-119661009D01*
X155121764Y-119639928D01*
X155119000Y-119611860D01*
X155119000Y-119148140D01*
X155121764Y-119120072D01*
X155128160Y-119098991D01*
X155138548Y-119079555D01*
X155152524Y-119062524D01*
X155169555Y-119048548D01*
X155188991Y-119038160D01*
X155210072Y-119031764D01*
X155238140Y-119029000D01*
X157051860Y-119029000D01*
X157079928Y-119031764D01*
G37*
G36*
X149350591Y-118743085D02*
G01*
X149384569Y-118753393D01*
X149415890Y-118770134D01*
X149443339Y-118792661D01*
X149465866Y-118820110D01*
X149482607Y-118851431D01*
X149492915Y-118885409D01*
X149497000Y-118926890D01*
X149497000Y-119528110D01*
X149492915Y-119569591D01*
X149482607Y-119603569D01*
X149465866Y-119634890D01*
X149443339Y-119662339D01*
X149415890Y-119684866D01*
X149384569Y-119701607D01*
X149350591Y-119711915D01*
X149309110Y-119716000D01*
X148632890Y-119716000D01*
X148591409Y-119711915D01*
X148557431Y-119701607D01*
X148526110Y-119684866D01*
X148498661Y-119662339D01*
X148476134Y-119634890D01*
X148459393Y-119603569D01*
X148449085Y-119569591D01*
X148445000Y-119528110D01*
X148445000Y-118926890D01*
X148449085Y-118885409D01*
X148459393Y-118851431D01*
X148476134Y-118820110D01*
X148498661Y-118792661D01*
X148526110Y-118770134D01*
X148557431Y-118753393D01*
X148591409Y-118743085D01*
X148632890Y-118739000D01*
X149309110Y-118739000D01*
X149350591Y-118743085D01*
G37*
G36*
X131642391Y-118600885D02*
G01*
X131676369Y-118611193D01*
X131707690Y-118627934D01*
X131735139Y-118650461D01*
X131757666Y-118677910D01*
X131774407Y-118709231D01*
X131784715Y-118743209D01*
X131788800Y-118784690D01*
X131788800Y-119385910D01*
X131784715Y-119427391D01*
X131774407Y-119461369D01*
X131757666Y-119492690D01*
X131735139Y-119520139D01*
X131707690Y-119542666D01*
X131676369Y-119559407D01*
X131642391Y-119569715D01*
X131600910Y-119573800D01*
X130924690Y-119573800D01*
X130883209Y-119569715D01*
X130849231Y-119559407D01*
X130817910Y-119542666D01*
X130790461Y-119520139D01*
X130767934Y-119492690D01*
X130751193Y-119461369D01*
X130740885Y-119427391D01*
X130736800Y-119385910D01*
X130736800Y-118784690D01*
X130740885Y-118743209D01*
X130751193Y-118709231D01*
X130767934Y-118677910D01*
X130790461Y-118650461D01*
X130817910Y-118627934D01*
X130849231Y-118611193D01*
X130883209Y-118600885D01*
X130924690Y-118596800D01*
X131600910Y-118596800D01*
X131642391Y-118600885D01*
G37*
G36*
X124391191Y-118055485D02*
G01*
X124425169Y-118065793D01*
X124456490Y-118082534D01*
X124483939Y-118105061D01*
X124506466Y-118132510D01*
X124523207Y-118163831D01*
X124533515Y-118197809D01*
X124537600Y-118239290D01*
X124537600Y-118915510D01*
X124533515Y-118956991D01*
X124523207Y-118990969D01*
X124506466Y-119022290D01*
X124483939Y-119049739D01*
X124456490Y-119072266D01*
X124425169Y-119089007D01*
X124391191Y-119099315D01*
X124349710Y-119103400D01*
X123748490Y-119103400D01*
X123707009Y-119099315D01*
X123673031Y-119089007D01*
X123641710Y-119072266D01*
X123614261Y-119049739D01*
X123591734Y-119022290D01*
X123574993Y-118990969D01*
X123564685Y-118956991D01*
X123560600Y-118915510D01*
X123560600Y-118239290D01*
X123564685Y-118197809D01*
X123574993Y-118163831D01*
X123591734Y-118132510D01*
X123614261Y-118105061D01*
X123641710Y-118082534D01*
X123673031Y-118065793D01*
X123707009Y-118055485D01*
X123748490Y-118051400D01*
X124349710Y-118051400D01*
X124391191Y-118055485D01*
G37*
G36*
X125966191Y-118055485D02*
G01*
X126000169Y-118065793D01*
X126031490Y-118082534D01*
X126058939Y-118105061D01*
X126081466Y-118132510D01*
X126098207Y-118163831D01*
X126108515Y-118197809D01*
X126112600Y-118239290D01*
X126112600Y-118915510D01*
X126108515Y-118956991D01*
X126098207Y-118990969D01*
X126081466Y-119022290D01*
X126058939Y-119049739D01*
X126031490Y-119072266D01*
X126000169Y-119089007D01*
X125966191Y-119099315D01*
X125924710Y-119103400D01*
X125323490Y-119103400D01*
X125282009Y-119099315D01*
X125248031Y-119089007D01*
X125216710Y-119072266D01*
X125189261Y-119049739D01*
X125166734Y-119022290D01*
X125149993Y-118990969D01*
X125139685Y-118956991D01*
X125135600Y-118915510D01*
X125135600Y-118239290D01*
X125139685Y-118197809D01*
X125149993Y-118163831D01*
X125166734Y-118132510D01*
X125189261Y-118105061D01*
X125216710Y-118082534D01*
X125248031Y-118065793D01*
X125282009Y-118055485D01*
X125323490Y-118051400D01*
X125924710Y-118051400D01*
X125966191Y-118055485D01*
G37*
G36*
X159697312Y-117122527D02*
G01*
X159846612Y-117152224D01*
X160010584Y-117220144D01*
X160158154Y-117318747D01*
X160283653Y-117444246D01*
X160382256Y-117591816D01*
X160450176Y-117755788D01*
X160479873Y-117905088D01*
X160484800Y-117929858D01*
X160484800Y-118107342D01*
X160479873Y-118132112D01*
X160450176Y-118281412D01*
X160382256Y-118445384D01*
X160283653Y-118592954D01*
X160158154Y-118718453D01*
X160010584Y-118817056D01*
X159846612Y-118884976D01*
X159697312Y-118914673D01*
X159672542Y-118919600D01*
X159495058Y-118919600D01*
X159470288Y-118914673D01*
X159320988Y-118884976D01*
X159157016Y-118817056D01*
X159009446Y-118718453D01*
X158883947Y-118592954D01*
X158785344Y-118445384D01*
X158717424Y-118281412D01*
X158687727Y-118132112D01*
X158682800Y-118107342D01*
X158682800Y-117929858D01*
X158687727Y-117905088D01*
X158717424Y-117755788D01*
X158785344Y-117591816D01*
X158883947Y-117444246D01*
X159009446Y-117318747D01*
X159157016Y-117220144D01*
X159320988Y-117152224D01*
X159470288Y-117122527D01*
X159495058Y-117117600D01*
X159672542Y-117117600D01*
X159697312Y-117122527D01*
G37*
G36*
X113797740Y-116808627D02*
G01*
X113846136Y-116818253D01*
X113883902Y-116833896D01*
X113937311Y-116856019D01*
X113937312Y-116856020D01*
X114019369Y-116910848D01*
X114089152Y-116980631D01*
X114089153Y-116980633D01*
X114143981Y-117062689D01*
X114156619Y-117093201D01*
X114181068Y-117152224D01*
X114181747Y-117153865D01*
X114201000Y-117250655D01*
X114201000Y-117349345D01*
X114198771Y-117360550D01*
X114181747Y-117446136D01*
X114166821Y-117482169D01*
X114143981Y-117537311D01*
X114126505Y-117563466D01*
X114089152Y-117619369D01*
X114019369Y-117689152D01*
X113978062Y-117716752D01*
X113937311Y-117743981D01*
X113883902Y-117766104D01*
X113846136Y-117781747D01*
X113797740Y-117791374D01*
X113749345Y-117801000D01*
X113650655Y-117801000D01*
X113602260Y-117791374D01*
X113553864Y-117781747D01*
X113516098Y-117766104D01*
X113462689Y-117743981D01*
X113421938Y-117716752D01*
X113380631Y-117689152D01*
X113310848Y-117619369D01*
X113273495Y-117563466D01*
X113256019Y-117537311D01*
X113233179Y-117482169D01*
X113218253Y-117446136D01*
X113201229Y-117360550D01*
X113199000Y-117349345D01*
X113199000Y-117250655D01*
X113218253Y-117153865D01*
X113218933Y-117152224D01*
X113243381Y-117093201D01*
X113256019Y-117062689D01*
X113310847Y-116980633D01*
X113310848Y-116980631D01*
X113380631Y-116910848D01*
X113462688Y-116856020D01*
X113462689Y-116856019D01*
X113516098Y-116833896D01*
X113553864Y-116818253D01*
X113602260Y-116808627D01*
X113650655Y-116799000D01*
X113749345Y-116799000D01*
X113797740Y-116808627D01*
G37*
G36*
X116263191Y-116556885D02*
G01*
X116297169Y-116567193D01*
X116328490Y-116583934D01*
X116355939Y-116606461D01*
X116378466Y-116633910D01*
X116395207Y-116665231D01*
X116405515Y-116699209D01*
X116409600Y-116740690D01*
X116409600Y-117416910D01*
X116405515Y-117458391D01*
X116395207Y-117492369D01*
X116378466Y-117523690D01*
X116355939Y-117551139D01*
X116328490Y-117573666D01*
X116297169Y-117590407D01*
X116263191Y-117600715D01*
X116221710Y-117604800D01*
X115620490Y-117604800D01*
X115579009Y-117600715D01*
X115545031Y-117590407D01*
X115513710Y-117573666D01*
X115486261Y-117551139D01*
X115463734Y-117523690D01*
X115446993Y-117492369D01*
X115436685Y-117458391D01*
X115432600Y-117416910D01*
X115432600Y-116740690D01*
X115436685Y-116699209D01*
X115446993Y-116665231D01*
X115463734Y-116633910D01*
X115486261Y-116606461D01*
X115513710Y-116583934D01*
X115545031Y-116567193D01*
X115579009Y-116556885D01*
X115620490Y-116552800D01*
X116221710Y-116552800D01*
X116263191Y-116556885D01*
G37*
G36*
X117838191Y-116556885D02*
G01*
X117872169Y-116567193D01*
X117903490Y-116583934D01*
X117930939Y-116606461D01*
X117953466Y-116633910D01*
X117970207Y-116665231D01*
X117980515Y-116699209D01*
X117984600Y-116740690D01*
X117984600Y-117416910D01*
X117980515Y-117458391D01*
X117970207Y-117492369D01*
X117953466Y-117523690D01*
X117930939Y-117551139D01*
X117903490Y-117573666D01*
X117872169Y-117590407D01*
X117838191Y-117600715D01*
X117796710Y-117604800D01*
X117195490Y-117604800D01*
X117154009Y-117600715D01*
X117120031Y-117590407D01*
X117088710Y-117573666D01*
X117061261Y-117551139D01*
X117038734Y-117523690D01*
X117021993Y-117492369D01*
X117011685Y-117458391D01*
X117007600Y-117416910D01*
X117007600Y-116740690D01*
X117011685Y-116699209D01*
X117021993Y-116665231D01*
X117038734Y-116633910D01*
X117061261Y-116606461D01*
X117088710Y-116583934D01*
X117120031Y-116567193D01*
X117154009Y-116556885D01*
X117195490Y-116552800D01*
X117796710Y-116552800D01*
X117838191Y-116556885D01*
G37*
G36*
X121550991Y-116546685D02*
G01*
X121584969Y-116556993D01*
X121616290Y-116573734D01*
X121643739Y-116596261D01*
X121666266Y-116623710D01*
X121683007Y-116655031D01*
X121693315Y-116689009D01*
X121697400Y-116730490D01*
X121697400Y-117406710D01*
X121693315Y-117448191D01*
X121683007Y-117482169D01*
X121666266Y-117513490D01*
X121643739Y-117540939D01*
X121616290Y-117563466D01*
X121584969Y-117580207D01*
X121550991Y-117590515D01*
X121509510Y-117594600D01*
X120908290Y-117594600D01*
X120866809Y-117590515D01*
X120832831Y-117580207D01*
X120801510Y-117563466D01*
X120774061Y-117540939D01*
X120751534Y-117513490D01*
X120734793Y-117482169D01*
X120724485Y-117448191D01*
X120720400Y-117406710D01*
X120720400Y-116730490D01*
X120724485Y-116689009D01*
X120734793Y-116655031D01*
X120751534Y-116623710D01*
X120774061Y-116596261D01*
X120801510Y-116573734D01*
X120832831Y-116556993D01*
X120866809Y-116546685D01*
X120908290Y-116542600D01*
X121509510Y-116542600D01*
X121550991Y-116546685D01*
G37*
G36*
X119975991Y-116546685D02*
G01*
X120009969Y-116556993D01*
X120041290Y-116573734D01*
X120068739Y-116596261D01*
X120091266Y-116623710D01*
X120108007Y-116655031D01*
X120118315Y-116689009D01*
X120122400Y-116730490D01*
X120122400Y-117406710D01*
X120118315Y-117448191D01*
X120108007Y-117482169D01*
X120091266Y-117513490D01*
X120068739Y-117540939D01*
X120041290Y-117563466D01*
X120009969Y-117580207D01*
X119975991Y-117590515D01*
X119934510Y-117594600D01*
X119333290Y-117594600D01*
X119291809Y-117590515D01*
X119257831Y-117580207D01*
X119226510Y-117563466D01*
X119199061Y-117540939D01*
X119176534Y-117513490D01*
X119159793Y-117482169D01*
X119149485Y-117448191D01*
X119145400Y-117406710D01*
X119145400Y-116730490D01*
X119149485Y-116689009D01*
X119159793Y-116655031D01*
X119176534Y-116623710D01*
X119199061Y-116596261D01*
X119226510Y-116573734D01*
X119257831Y-116556993D01*
X119291809Y-116546685D01*
X119333290Y-116542600D01*
X119934510Y-116542600D01*
X119975991Y-116546685D01*
G37*
G36*
X125966191Y-116302885D02*
G01*
X126000169Y-116313193D01*
X126031490Y-116329934D01*
X126058939Y-116352461D01*
X126081466Y-116379910D01*
X126098207Y-116411231D01*
X126108515Y-116445209D01*
X126112600Y-116486690D01*
X126112600Y-117162910D01*
X126108515Y-117204391D01*
X126098207Y-117238369D01*
X126081466Y-117269690D01*
X126058939Y-117297139D01*
X126031490Y-117319666D01*
X126000169Y-117336407D01*
X125966191Y-117346715D01*
X125924710Y-117350800D01*
X125323490Y-117350800D01*
X125282009Y-117346715D01*
X125248031Y-117336407D01*
X125216710Y-117319666D01*
X125189261Y-117297139D01*
X125166734Y-117269690D01*
X125149993Y-117238369D01*
X125139685Y-117204391D01*
X125135600Y-117162910D01*
X125135600Y-116486690D01*
X125139685Y-116445209D01*
X125149993Y-116411231D01*
X125166734Y-116379910D01*
X125189261Y-116352461D01*
X125216710Y-116329934D01*
X125248031Y-116313193D01*
X125282009Y-116302885D01*
X125323490Y-116298800D01*
X125924710Y-116298800D01*
X125966191Y-116302885D01*
G37*
G36*
X124391191Y-116302885D02*
G01*
X124425169Y-116313193D01*
X124456490Y-116329934D01*
X124483939Y-116352461D01*
X124506466Y-116379910D01*
X124523207Y-116411231D01*
X124533515Y-116445209D01*
X124537600Y-116486690D01*
X124537600Y-117162910D01*
X124533515Y-117204391D01*
X124523207Y-117238369D01*
X124506466Y-117269690D01*
X124483939Y-117297139D01*
X124456490Y-117319666D01*
X124425169Y-117336407D01*
X124391191Y-117346715D01*
X124349710Y-117350800D01*
X123748490Y-117350800D01*
X123707009Y-117346715D01*
X123673031Y-117336407D01*
X123641710Y-117319666D01*
X123614261Y-117297139D01*
X123591734Y-117269690D01*
X123574993Y-117238369D01*
X123564685Y-117204391D01*
X123560600Y-117162910D01*
X123560600Y-116486690D01*
X123564685Y-116445209D01*
X123574993Y-116411231D01*
X123591734Y-116379910D01*
X123614261Y-116352461D01*
X123641710Y-116329934D01*
X123673031Y-116313193D01*
X123707009Y-116302885D01*
X123748490Y-116298800D01*
X124349710Y-116298800D01*
X124391191Y-116302885D01*
G37*
G36*
X142988591Y-116241885D02*
G01*
X143022569Y-116252193D01*
X143053890Y-116268934D01*
X143081339Y-116291461D01*
X143103866Y-116318910D01*
X143120607Y-116350231D01*
X143130915Y-116384209D01*
X143135000Y-116425690D01*
X143135000Y-117101910D01*
X143130915Y-117143391D01*
X143120607Y-117177369D01*
X143103866Y-117208690D01*
X143081339Y-117236139D01*
X143053890Y-117258666D01*
X143022569Y-117275407D01*
X142988591Y-117285715D01*
X142947110Y-117289800D01*
X142345890Y-117289800D01*
X142304409Y-117285715D01*
X142270431Y-117275407D01*
X142239110Y-117258666D01*
X142211661Y-117236139D01*
X142189134Y-117208690D01*
X142172393Y-117177369D01*
X142162085Y-117143391D01*
X142158000Y-117101910D01*
X142158000Y-116425690D01*
X142162085Y-116384209D01*
X142172393Y-116350231D01*
X142189134Y-116318910D01*
X142211661Y-116291461D01*
X142239110Y-116268934D01*
X142270431Y-116252193D01*
X142304409Y-116241885D01*
X142345890Y-116237800D01*
X142947110Y-116237800D01*
X142988591Y-116241885D01*
G37*
G36*
X141413591Y-116241885D02*
G01*
X141447569Y-116252193D01*
X141478890Y-116268934D01*
X141506339Y-116291461D01*
X141528866Y-116318910D01*
X141545607Y-116350231D01*
X141555915Y-116384209D01*
X141560000Y-116425690D01*
X141560000Y-117101910D01*
X141555915Y-117143391D01*
X141545607Y-117177369D01*
X141528866Y-117208690D01*
X141506339Y-117236139D01*
X141478890Y-117258666D01*
X141447569Y-117275407D01*
X141413591Y-117285715D01*
X141372110Y-117289800D01*
X140770890Y-117289800D01*
X140729409Y-117285715D01*
X140695431Y-117275407D01*
X140664110Y-117258666D01*
X140636661Y-117236139D01*
X140614134Y-117208690D01*
X140597393Y-117177369D01*
X140587085Y-117143391D01*
X140583000Y-117101910D01*
X140583000Y-116425690D01*
X140587085Y-116384209D01*
X140597393Y-116350231D01*
X140614134Y-116318910D01*
X140636661Y-116291461D01*
X140664110Y-116268934D01*
X140695431Y-116252193D01*
X140729409Y-116241885D01*
X140770890Y-116237800D01*
X141372110Y-116237800D01*
X141413591Y-116241885D01*
G37*
G36*
X129592800Y-116838600D02*
G01*
X127090800Y-116838600D01*
X127090800Y-114736600D01*
X129592800Y-114736600D01*
X129592800Y-116838600D01*
G37*
G36*
X159688674Y-114580809D02*
G01*
X159846612Y-114612224D01*
X160010584Y-114680144D01*
X160158154Y-114778747D01*
X160283653Y-114904246D01*
X160382256Y-115051816D01*
X160450176Y-115215788D01*
X160484800Y-115389859D01*
X160484800Y-115567341D01*
X160450176Y-115741412D01*
X160382256Y-115905384D01*
X160283653Y-116052954D01*
X160158154Y-116178453D01*
X160010584Y-116277056D01*
X159846612Y-116344976D01*
X159697312Y-116374673D01*
X159672542Y-116379600D01*
X159495058Y-116379600D01*
X159470288Y-116374673D01*
X159320988Y-116344976D01*
X159157016Y-116277056D01*
X159009446Y-116178453D01*
X158883947Y-116052954D01*
X158785344Y-115905384D01*
X158717424Y-115741412D01*
X158682800Y-115567341D01*
X158682800Y-115389859D01*
X158717424Y-115215788D01*
X158785344Y-115051816D01*
X158883947Y-114904246D01*
X159009446Y-114778747D01*
X159157016Y-114680144D01*
X159320988Y-114612224D01*
X159478926Y-114580809D01*
X159495058Y-114577600D01*
X159672542Y-114577600D01*
X159688674Y-114580809D01*
G37*
G36*
X118210191Y-115060285D02*
G01*
X118244169Y-115070593D01*
X118275490Y-115087334D01*
X118302939Y-115109861D01*
X118325466Y-115137310D01*
X118342207Y-115168631D01*
X118352515Y-115202609D01*
X118356600Y-115244090D01*
X118356600Y-115845310D01*
X118352515Y-115886791D01*
X118342207Y-115920769D01*
X118325466Y-115952090D01*
X118302939Y-115979539D01*
X118275490Y-116002066D01*
X118244169Y-116018807D01*
X118210191Y-116029115D01*
X118168710Y-116033200D01*
X117492490Y-116033200D01*
X117451009Y-116029115D01*
X117417031Y-116018807D01*
X117385710Y-116002066D01*
X117358261Y-115979539D01*
X117335734Y-115952090D01*
X117318993Y-115920769D01*
X117308685Y-115886791D01*
X117304600Y-115845310D01*
X117304600Y-115244090D01*
X117308685Y-115202609D01*
X117318993Y-115168631D01*
X117335734Y-115137310D01*
X117358261Y-115109861D01*
X117385710Y-115087334D01*
X117417031Y-115070593D01*
X117451009Y-115060285D01*
X117492490Y-115056200D01*
X118168710Y-115056200D01*
X118210191Y-115060285D01*
G37*
G36*
X121747400Y-116031800D02*
G01*
X120995400Y-116031800D01*
X120995400Y-114869800D01*
X121747400Y-114869800D01*
X121747400Y-116031800D01*
G37*
G36*
X119847400Y-116031800D02*
G01*
X119095400Y-116031800D01*
X119095400Y-114869800D01*
X119847400Y-114869800D01*
X119847400Y-116031800D01*
G37*
G36*
X125966191Y-114728085D02*
G01*
X126000169Y-114738393D01*
X126031490Y-114755134D01*
X126058939Y-114777661D01*
X126081466Y-114805110D01*
X126098207Y-114836431D01*
X126108515Y-114870409D01*
X126112600Y-114911890D01*
X126112600Y-115588110D01*
X126108515Y-115629591D01*
X126098207Y-115663569D01*
X126081466Y-115694890D01*
X126058939Y-115722339D01*
X126031490Y-115744866D01*
X126000169Y-115761607D01*
X125966191Y-115771915D01*
X125924710Y-115776000D01*
X125323490Y-115776000D01*
X125282009Y-115771915D01*
X125248031Y-115761607D01*
X125216710Y-115744866D01*
X125189261Y-115722339D01*
X125166734Y-115694890D01*
X125149993Y-115663569D01*
X125139685Y-115629591D01*
X125135600Y-115588110D01*
X125135600Y-114911890D01*
X125139685Y-114870409D01*
X125149993Y-114836431D01*
X125166734Y-114805110D01*
X125189261Y-114777661D01*
X125216710Y-114755134D01*
X125248031Y-114738393D01*
X125282009Y-114728085D01*
X125323490Y-114724000D01*
X125924710Y-114724000D01*
X125966191Y-114728085D01*
G37*
G36*
X124391191Y-114728085D02*
G01*
X124425169Y-114738393D01*
X124456490Y-114755134D01*
X124483939Y-114777661D01*
X124506466Y-114805110D01*
X124523207Y-114836431D01*
X124533515Y-114870409D01*
X124537600Y-114911890D01*
X124537600Y-115588110D01*
X124533515Y-115629591D01*
X124523207Y-115663569D01*
X124506466Y-115694890D01*
X124483939Y-115722339D01*
X124456490Y-115744866D01*
X124425169Y-115761607D01*
X124391191Y-115771915D01*
X124349710Y-115776000D01*
X123748490Y-115776000D01*
X123707009Y-115771915D01*
X123673031Y-115761607D01*
X123641710Y-115744866D01*
X123614261Y-115722339D01*
X123591734Y-115694890D01*
X123574993Y-115663569D01*
X123564685Y-115629591D01*
X123560600Y-115588110D01*
X123560600Y-114911890D01*
X123564685Y-114870409D01*
X123574993Y-114836431D01*
X123591734Y-114805110D01*
X123614261Y-114777661D01*
X123641710Y-114755134D01*
X123673031Y-114738393D01*
X123707009Y-114728085D01*
X123748490Y-114724000D01*
X124349710Y-114724000D01*
X124391191Y-114728085D01*
G37*
G36*
X142963191Y-114438485D02*
G01*
X142997169Y-114448793D01*
X143028490Y-114465534D01*
X143055939Y-114488061D01*
X143078466Y-114515510D01*
X143095207Y-114546831D01*
X143105515Y-114580809D01*
X143109600Y-114622290D01*
X143109600Y-115298510D01*
X143105515Y-115339991D01*
X143095207Y-115373969D01*
X143078466Y-115405290D01*
X143055939Y-115432739D01*
X143028490Y-115455266D01*
X142997169Y-115472007D01*
X142963191Y-115482315D01*
X142921710Y-115486400D01*
X142320490Y-115486400D01*
X142279009Y-115482315D01*
X142245031Y-115472007D01*
X142213710Y-115455266D01*
X142186261Y-115432739D01*
X142163734Y-115405290D01*
X142146993Y-115373969D01*
X142136685Y-115339991D01*
X142132600Y-115298510D01*
X142132600Y-114622290D01*
X142136685Y-114580809D01*
X142146993Y-114546831D01*
X142163734Y-114515510D01*
X142186261Y-114488061D01*
X142213710Y-114465534D01*
X142245031Y-114448793D01*
X142279009Y-114438485D01*
X142320490Y-114434400D01*
X142921710Y-114434400D01*
X142963191Y-114438485D01*
G37*
G36*
X141388191Y-114438485D02*
G01*
X141422169Y-114448793D01*
X141453490Y-114465534D01*
X141480939Y-114488061D01*
X141503466Y-114515510D01*
X141520207Y-114546831D01*
X141530515Y-114580809D01*
X141534600Y-114622290D01*
X141534600Y-115298510D01*
X141530515Y-115339991D01*
X141520207Y-115373969D01*
X141503466Y-115405290D01*
X141480939Y-115432739D01*
X141453490Y-115455266D01*
X141422169Y-115472007D01*
X141388191Y-115482315D01*
X141346710Y-115486400D01*
X140745490Y-115486400D01*
X140704009Y-115482315D01*
X140670031Y-115472007D01*
X140638710Y-115455266D01*
X140611261Y-115432739D01*
X140588734Y-115405290D01*
X140571993Y-115373969D01*
X140561685Y-115339991D01*
X140557600Y-115298510D01*
X140557600Y-114622290D01*
X140561685Y-114580809D01*
X140571993Y-114546831D01*
X140588734Y-114515510D01*
X140611261Y-114488061D01*
X140638710Y-114465534D01*
X140670031Y-114448793D01*
X140704009Y-114438485D01*
X140745490Y-114434400D01*
X141346710Y-114434400D01*
X141388191Y-114438485D01*
G37*
G36*
X133059170Y-113861403D02*
G01*
X133070875Y-113864954D01*
X133081665Y-113870721D01*
X133095688Y-113882230D01*
X133104704Y-113891245D01*
X133125078Y-113904859D01*
X133147717Y-113914235D01*
X133171751Y-113919015D01*
X133196255Y-113919015D01*
X133220288Y-113914234D01*
X133242926Y-113904856D01*
X133263301Y-113891242D01*
X133272317Y-113882226D01*
X133286335Y-113870721D01*
X133297125Y-113864954D01*
X133308830Y-113861403D01*
X133327138Y-113859600D01*
X133690862Y-113859600D01*
X133709170Y-113861403D01*
X133720875Y-113864954D01*
X133731665Y-113870721D01*
X133745688Y-113882230D01*
X133754704Y-113891245D01*
X133775078Y-113904859D01*
X133797717Y-113914235D01*
X133821751Y-113919015D01*
X133846255Y-113919015D01*
X133870288Y-113914234D01*
X133892926Y-113904856D01*
X133913301Y-113891242D01*
X133922317Y-113882226D01*
X133936335Y-113870721D01*
X133947125Y-113864954D01*
X133958830Y-113861403D01*
X133977138Y-113859600D01*
X134340862Y-113859600D01*
X134359170Y-113861403D01*
X134370875Y-113864954D01*
X134381665Y-113870721D01*
X134395688Y-113882230D01*
X134404704Y-113891245D01*
X134425078Y-113904859D01*
X134447717Y-113914235D01*
X134471751Y-113919015D01*
X134496255Y-113919015D01*
X134520288Y-113914234D01*
X134542926Y-113904856D01*
X134563301Y-113891242D01*
X134572317Y-113882226D01*
X134586335Y-113870721D01*
X134597125Y-113864954D01*
X134608830Y-113861403D01*
X134627138Y-113859600D01*
X134990862Y-113859600D01*
X135009170Y-113861403D01*
X135020875Y-113864954D01*
X135031665Y-113870721D01*
X135045688Y-113882230D01*
X135054704Y-113891245D01*
X135075078Y-113904859D01*
X135097717Y-113914235D01*
X135121751Y-113919015D01*
X135146255Y-113919015D01*
X135170288Y-113914234D01*
X135192926Y-113904856D01*
X135213301Y-113891242D01*
X135222317Y-113882226D01*
X135236335Y-113870721D01*
X135247125Y-113864954D01*
X135258830Y-113861403D01*
X135277138Y-113859600D01*
X135640862Y-113859600D01*
X135659170Y-113861403D01*
X135670875Y-113864954D01*
X135681665Y-113870721D01*
X135695688Y-113882230D01*
X135704704Y-113891245D01*
X135725078Y-113904859D01*
X135747717Y-113914235D01*
X135771751Y-113919015D01*
X135796255Y-113919015D01*
X135820288Y-113914234D01*
X135842926Y-113904856D01*
X135863301Y-113891242D01*
X135872317Y-113882226D01*
X135886335Y-113870721D01*
X135897125Y-113864954D01*
X135908830Y-113861403D01*
X135927138Y-113859600D01*
X136290862Y-113859600D01*
X136309170Y-113861403D01*
X136320875Y-113864954D01*
X136331665Y-113870721D01*
X136345688Y-113882230D01*
X136354704Y-113891245D01*
X136375078Y-113904859D01*
X136397717Y-113914235D01*
X136421751Y-113919015D01*
X136446255Y-113919015D01*
X136470288Y-113914234D01*
X136492926Y-113904856D01*
X136513301Y-113891242D01*
X136522317Y-113882226D01*
X136536335Y-113870721D01*
X136547125Y-113864954D01*
X136558830Y-113861403D01*
X136577138Y-113859600D01*
X136940862Y-113859600D01*
X136959170Y-113861403D01*
X136970875Y-113864954D01*
X136981665Y-113870721D01*
X136995688Y-113882230D01*
X137004704Y-113891245D01*
X137025078Y-113904859D01*
X137047717Y-113914235D01*
X137071751Y-113919015D01*
X137096255Y-113919015D01*
X137120288Y-113914234D01*
X137142926Y-113904856D01*
X137163301Y-113891242D01*
X137172317Y-113882226D01*
X137186335Y-113870721D01*
X137197125Y-113864954D01*
X137208830Y-113861403D01*
X137227138Y-113859600D01*
X137590862Y-113859600D01*
X137609170Y-113861403D01*
X137620875Y-113864954D01*
X137631665Y-113870721D01*
X137645688Y-113882230D01*
X137654704Y-113891245D01*
X137675078Y-113904859D01*
X137697717Y-113914235D01*
X137721751Y-113919015D01*
X137746255Y-113919015D01*
X137770288Y-113914234D01*
X137792926Y-113904856D01*
X137813301Y-113891242D01*
X137822317Y-113882226D01*
X137836335Y-113870721D01*
X137847125Y-113864954D01*
X137858830Y-113861403D01*
X137877138Y-113859600D01*
X138240862Y-113859600D01*
X138259170Y-113861403D01*
X138270875Y-113864954D01*
X138281665Y-113870721D01*
X138295688Y-113882230D01*
X138304704Y-113891245D01*
X138325078Y-113904859D01*
X138347717Y-113914235D01*
X138371751Y-113919015D01*
X138396255Y-113919015D01*
X138420288Y-113914234D01*
X138442926Y-113904856D01*
X138463301Y-113891242D01*
X138472317Y-113882226D01*
X138486335Y-113870721D01*
X138497125Y-113864954D01*
X138508830Y-113861403D01*
X138527138Y-113859600D01*
X138890862Y-113859600D01*
X138909170Y-113861403D01*
X138920875Y-113864954D01*
X138931665Y-113870721D01*
X138941119Y-113878481D01*
X138948879Y-113887935D01*
X138954646Y-113898725D01*
X138958197Y-113910430D01*
X138960000Y-113928738D01*
X138960000Y-115367462D01*
X138958197Y-115385770D01*
X138954646Y-115397475D01*
X138948879Y-115408265D01*
X138941119Y-115417719D01*
X138931665Y-115425479D01*
X138920875Y-115431246D01*
X138909170Y-115434797D01*
X138890862Y-115436600D01*
X138527138Y-115436600D01*
X138508830Y-115434797D01*
X138497125Y-115431246D01*
X138486335Y-115425479D01*
X138472312Y-115413970D01*
X138463296Y-115404955D01*
X138442922Y-115391341D01*
X138420283Y-115381965D01*
X138396249Y-115377185D01*
X138371745Y-115377185D01*
X138347712Y-115381966D01*
X138325074Y-115391344D01*
X138304699Y-115404958D01*
X138295683Y-115413974D01*
X138281665Y-115425479D01*
X138270875Y-115431246D01*
X138259170Y-115434797D01*
X138240862Y-115436600D01*
X137877138Y-115436600D01*
X137858830Y-115434797D01*
X137847125Y-115431246D01*
X137836335Y-115425479D01*
X137822312Y-115413970D01*
X137813296Y-115404955D01*
X137792922Y-115391341D01*
X137770283Y-115381965D01*
X137746249Y-115377185D01*
X137721745Y-115377185D01*
X137697712Y-115381966D01*
X137675074Y-115391344D01*
X137654699Y-115404958D01*
X137645683Y-115413974D01*
X137631665Y-115425479D01*
X137620875Y-115431246D01*
X137609170Y-115434797D01*
X137590862Y-115436600D01*
X137227138Y-115436600D01*
X137208830Y-115434797D01*
X137197125Y-115431246D01*
X137186335Y-115425479D01*
X137172312Y-115413970D01*
X137163296Y-115404955D01*
X137142922Y-115391341D01*
X137120283Y-115381965D01*
X137096249Y-115377185D01*
X137071745Y-115377185D01*
X137047712Y-115381966D01*
X137025074Y-115391344D01*
X137004699Y-115404958D01*
X136995683Y-115413974D01*
X136981665Y-115425479D01*
X136970875Y-115431246D01*
X136959170Y-115434797D01*
X136940862Y-115436600D01*
X136577138Y-115436600D01*
X136558830Y-115434797D01*
X136547125Y-115431246D01*
X136536335Y-115425479D01*
X136522312Y-115413970D01*
X136513296Y-115404955D01*
X136492922Y-115391341D01*
X136470283Y-115381965D01*
X136446249Y-115377185D01*
X136421745Y-115377185D01*
X136397712Y-115381966D01*
X136375074Y-115391344D01*
X136354699Y-115404958D01*
X136345683Y-115413974D01*
X136331665Y-115425479D01*
X136320875Y-115431246D01*
X136309170Y-115434797D01*
X136290862Y-115436600D01*
X135927138Y-115436600D01*
X135908830Y-115434797D01*
X135897125Y-115431246D01*
X135886335Y-115425479D01*
X135872312Y-115413970D01*
X135863296Y-115404955D01*
X135842922Y-115391341D01*
X135820283Y-115381965D01*
X135796249Y-115377185D01*
X135771745Y-115377185D01*
X135747712Y-115381966D01*
X135725074Y-115391344D01*
X135704699Y-115404958D01*
X135695683Y-115413974D01*
X135681665Y-115425479D01*
X135670875Y-115431246D01*
X135659170Y-115434797D01*
X135640862Y-115436600D01*
X135277138Y-115436600D01*
X135258830Y-115434797D01*
X135247125Y-115431246D01*
X135236335Y-115425479D01*
X135222312Y-115413970D01*
X135213296Y-115404955D01*
X135192922Y-115391341D01*
X135170283Y-115381965D01*
X135146249Y-115377185D01*
X135121745Y-115377185D01*
X135097712Y-115381966D01*
X135075074Y-115391344D01*
X135054699Y-115404958D01*
X135045683Y-115413974D01*
X135031665Y-115425479D01*
X135020875Y-115431246D01*
X135009170Y-115434797D01*
X134990862Y-115436600D01*
X134627138Y-115436600D01*
X134608830Y-115434797D01*
X134597125Y-115431246D01*
X134586335Y-115425479D01*
X134572312Y-115413970D01*
X134563296Y-115404955D01*
X134542922Y-115391341D01*
X134520283Y-115381965D01*
X134496249Y-115377185D01*
X134471745Y-115377185D01*
X134447712Y-115381966D01*
X134425074Y-115391344D01*
X134404699Y-115404958D01*
X134395683Y-115413974D01*
X134381665Y-115425479D01*
X134370875Y-115431246D01*
X134359170Y-115434797D01*
X134340862Y-115436600D01*
X133977138Y-115436600D01*
X133958830Y-115434797D01*
X133947125Y-115431246D01*
X133936335Y-115425479D01*
X133922312Y-115413970D01*
X133913296Y-115404955D01*
X133892922Y-115391341D01*
X133870283Y-115381965D01*
X133846249Y-115377185D01*
X133821745Y-115377185D01*
X133797712Y-115381966D01*
X133775074Y-115391344D01*
X133754699Y-115404958D01*
X133745683Y-115413974D01*
X133731665Y-115425479D01*
X133720875Y-115431246D01*
X133709170Y-115434797D01*
X133690862Y-115436600D01*
X133327138Y-115436600D01*
X133308830Y-115434797D01*
X133297125Y-115431246D01*
X133286335Y-115425479D01*
X133272312Y-115413970D01*
X133263296Y-115404955D01*
X133242922Y-115391341D01*
X133220283Y-115381965D01*
X133196249Y-115377185D01*
X133171745Y-115377185D01*
X133147712Y-115381966D01*
X133125074Y-115391344D01*
X133104699Y-115404958D01*
X133095683Y-115413974D01*
X133081665Y-115425479D01*
X133070875Y-115431246D01*
X133059170Y-115434797D01*
X133040862Y-115436600D01*
X132677138Y-115436600D01*
X132658830Y-115434797D01*
X132647125Y-115431246D01*
X132636335Y-115425479D01*
X132626881Y-115417719D01*
X132619121Y-115408265D01*
X132613354Y-115397475D01*
X132609803Y-115385770D01*
X132608000Y-115367462D01*
X132608000Y-113928738D01*
X132609803Y-113910430D01*
X132613354Y-113898725D01*
X132619121Y-113887935D01*
X132626881Y-113878481D01*
X132636335Y-113870721D01*
X132647125Y-113864954D01*
X132658830Y-113861403D01*
X132677138Y-113859600D01*
X133040862Y-113859600D01*
X133059170Y-113861403D01*
G37*
G36*
X113155591Y-114222085D02*
G01*
X113189569Y-114232393D01*
X113220890Y-114249134D01*
X113248339Y-114271661D01*
X113270866Y-114299110D01*
X113287607Y-114330431D01*
X113297915Y-114364409D01*
X113302000Y-114405890D01*
X113302000Y-115007110D01*
X113297915Y-115048591D01*
X113287607Y-115082569D01*
X113270866Y-115113890D01*
X113248339Y-115141339D01*
X113220890Y-115163866D01*
X113189569Y-115180607D01*
X113155591Y-115190915D01*
X113114110Y-115195000D01*
X112437890Y-115195000D01*
X112396409Y-115190915D01*
X112362431Y-115180607D01*
X112331110Y-115163866D01*
X112303661Y-115141339D01*
X112281134Y-115113890D01*
X112264393Y-115082569D01*
X112254085Y-115048591D01*
X112250000Y-115007110D01*
X112250000Y-114405890D01*
X112254085Y-114364409D01*
X112264393Y-114330431D01*
X112281134Y-114299110D01*
X112303661Y-114271661D01*
X112331110Y-114249134D01*
X112362431Y-114232393D01*
X112396409Y-114222085D01*
X112437890Y-114218000D01*
X113114110Y-114218000D01*
X113155591Y-114222085D01*
G37*
G36*
X118210191Y-113485285D02*
G01*
X118244169Y-113495593D01*
X118275490Y-113512334D01*
X118302939Y-113534861D01*
X118325466Y-113562310D01*
X118342207Y-113593631D01*
X118352515Y-113627609D01*
X118356600Y-113669090D01*
X118356600Y-114270310D01*
X118352515Y-114311791D01*
X118342207Y-114345769D01*
X118325466Y-114377090D01*
X118302939Y-114404539D01*
X118275490Y-114427066D01*
X118244169Y-114443807D01*
X118210191Y-114454115D01*
X118168710Y-114458200D01*
X117492490Y-114458200D01*
X117451009Y-114454115D01*
X117417031Y-114443807D01*
X117385710Y-114427066D01*
X117358261Y-114404539D01*
X117335734Y-114377090D01*
X117318993Y-114345769D01*
X117308685Y-114311791D01*
X117304600Y-114270310D01*
X117304600Y-113669090D01*
X117308685Y-113627609D01*
X117318993Y-113593631D01*
X117335734Y-113562310D01*
X117358261Y-113534861D01*
X117385710Y-113512334D01*
X117417031Y-113495593D01*
X117451009Y-113485285D01*
X117492490Y-113481200D01*
X118168710Y-113481200D01*
X118210191Y-113485285D01*
G37*
G36*
X121747400Y-113831800D02*
G01*
X119095400Y-113831800D01*
X119095400Y-112669800D01*
X121747400Y-112669800D01*
X121747400Y-113831800D01*
G37*
G36*
X142963191Y-112609685D02*
G01*
X142997169Y-112619993D01*
X143028490Y-112636734D01*
X143055939Y-112659261D01*
X143078466Y-112686710D01*
X143095207Y-112718031D01*
X143105515Y-112752009D01*
X143109600Y-112793490D01*
X143109600Y-113469710D01*
X143105515Y-113511191D01*
X143095207Y-113545169D01*
X143078466Y-113576490D01*
X143055939Y-113603939D01*
X143028490Y-113626466D01*
X142997169Y-113643207D01*
X142963191Y-113653515D01*
X142921710Y-113657600D01*
X142320490Y-113657600D01*
X142279009Y-113653515D01*
X142245031Y-113643207D01*
X142213710Y-113626466D01*
X142186261Y-113603939D01*
X142163734Y-113576490D01*
X142146993Y-113545169D01*
X142136685Y-113511191D01*
X142132600Y-113469710D01*
X142132600Y-112793490D01*
X142136685Y-112752009D01*
X142146993Y-112718031D01*
X142163734Y-112686710D01*
X142186261Y-112659261D01*
X142213710Y-112636734D01*
X142245031Y-112619993D01*
X142279009Y-112609685D01*
X142320490Y-112605600D01*
X142921710Y-112605600D01*
X142963191Y-112609685D01*
G37*
G36*
X141388191Y-112609685D02*
G01*
X141422169Y-112619993D01*
X141453490Y-112636734D01*
X141480939Y-112659261D01*
X141503466Y-112686710D01*
X141520207Y-112718031D01*
X141530515Y-112752009D01*
X141534600Y-112793490D01*
X141534600Y-113469710D01*
X141530515Y-113511191D01*
X141520207Y-113545169D01*
X141503466Y-113576490D01*
X141480939Y-113603939D01*
X141453490Y-113626466D01*
X141422169Y-113643207D01*
X141388191Y-113653515D01*
X141346710Y-113657600D01*
X140745490Y-113657600D01*
X140704009Y-113653515D01*
X140670031Y-113643207D01*
X140638710Y-113626466D01*
X140611261Y-113603939D01*
X140588734Y-113576490D01*
X140571993Y-113545169D01*
X140561685Y-113511191D01*
X140557600Y-113469710D01*
X140557600Y-112793490D01*
X140561685Y-112752009D01*
X140571993Y-112718031D01*
X140588734Y-112686710D01*
X140611261Y-112659261D01*
X140638710Y-112636734D01*
X140670031Y-112619993D01*
X140704009Y-112609685D01*
X140745490Y-112605600D01*
X141346710Y-112605600D01*
X141388191Y-112609685D01*
G37*
G36*
X113155591Y-112647085D02*
G01*
X113189569Y-112657393D01*
X113220890Y-112674134D01*
X113248339Y-112696661D01*
X113270866Y-112724110D01*
X113287607Y-112755431D01*
X113297915Y-112789409D01*
X113302000Y-112830890D01*
X113302000Y-113432110D01*
X113297915Y-113473591D01*
X113287607Y-113507569D01*
X113270866Y-113538890D01*
X113248339Y-113566339D01*
X113220890Y-113588866D01*
X113189569Y-113605607D01*
X113155591Y-113615915D01*
X113114110Y-113620000D01*
X112437890Y-113620000D01*
X112396409Y-113615915D01*
X112362431Y-113605607D01*
X112331110Y-113588866D01*
X112303661Y-113566339D01*
X112281134Y-113538890D01*
X112264393Y-113507569D01*
X112254085Y-113473591D01*
X112250000Y-113432110D01*
X112250000Y-112830890D01*
X112254085Y-112789409D01*
X112264393Y-112755431D01*
X112281134Y-112724110D01*
X112303661Y-112696661D01*
X112331110Y-112674134D01*
X112362431Y-112657393D01*
X112396409Y-112647085D01*
X112437890Y-112643000D01*
X113114110Y-112643000D01*
X113155591Y-112647085D01*
G37*
G36*
X133306591Y-111654685D02*
G01*
X133340569Y-111664993D01*
X133371890Y-111681734D01*
X133399339Y-111704261D01*
X133421866Y-111731710D01*
X133438607Y-111763031D01*
X133448915Y-111797009D01*
X133453000Y-111838490D01*
X133453000Y-112514710D01*
X133448915Y-112556191D01*
X133438607Y-112590169D01*
X133421866Y-112621490D01*
X133399339Y-112648939D01*
X133371890Y-112671466D01*
X133340569Y-112688207D01*
X133306591Y-112698515D01*
X133265110Y-112702600D01*
X132663890Y-112702600D01*
X132622409Y-112698515D01*
X132588431Y-112688207D01*
X132557110Y-112671466D01*
X132529661Y-112648939D01*
X132507134Y-112621490D01*
X132490393Y-112590169D01*
X132480085Y-112556191D01*
X132476000Y-112514710D01*
X132476000Y-111838490D01*
X132480085Y-111797009D01*
X132490393Y-111763031D01*
X132507134Y-111731710D01*
X132529661Y-111704261D01*
X132557110Y-111681734D01*
X132588431Y-111664993D01*
X132622409Y-111654685D01*
X132663890Y-111650600D01*
X133265110Y-111650600D01*
X133306591Y-111654685D01*
G37*
G36*
X134881591Y-111654685D02*
G01*
X134915569Y-111664993D01*
X134946890Y-111681734D01*
X134974339Y-111704261D01*
X134996866Y-111731710D01*
X135013607Y-111763031D01*
X135023915Y-111797009D01*
X135028000Y-111838490D01*
X135028000Y-112514710D01*
X135023915Y-112556191D01*
X135013607Y-112590169D01*
X134996866Y-112621490D01*
X134974339Y-112648939D01*
X134946890Y-112671466D01*
X134915569Y-112688207D01*
X134881591Y-112698515D01*
X134840110Y-112702600D01*
X134238890Y-112702600D01*
X134197409Y-112698515D01*
X134163431Y-112688207D01*
X134132110Y-112671466D01*
X134104661Y-112648939D01*
X134082134Y-112621490D01*
X134065393Y-112590169D01*
X134055085Y-112556191D01*
X134051000Y-112514710D01*
X134051000Y-111838490D01*
X134055085Y-111797009D01*
X134065393Y-111763031D01*
X134082134Y-111731710D01*
X134104661Y-111704261D01*
X134132110Y-111681734D01*
X134163431Y-111664993D01*
X134197409Y-111654685D01*
X134238890Y-111650600D01*
X134840110Y-111650600D01*
X134881591Y-111654685D01*
G37*
G36*
X121747400Y-112094800D02*
G01*
X119095400Y-112094800D01*
X119095400Y-110932800D01*
X121747400Y-110932800D01*
X121747400Y-112094800D01*
G37*
G36*
X118159391Y-110996285D02*
G01*
X118193369Y-111006593D01*
X118224690Y-111023334D01*
X118252139Y-111045861D01*
X118274666Y-111073310D01*
X118291407Y-111104631D01*
X118301715Y-111138609D01*
X118305800Y-111180090D01*
X118305800Y-111781310D01*
X118301715Y-111822791D01*
X118291407Y-111856769D01*
X118274666Y-111888090D01*
X118252139Y-111915539D01*
X118224690Y-111938066D01*
X118193369Y-111954807D01*
X118159391Y-111965115D01*
X118117910Y-111969200D01*
X117441690Y-111969200D01*
X117400209Y-111965115D01*
X117366231Y-111954807D01*
X117334910Y-111938066D01*
X117307461Y-111915539D01*
X117284934Y-111888090D01*
X117268193Y-111856769D01*
X117257885Y-111822791D01*
X117253800Y-111781310D01*
X117253800Y-111180090D01*
X117257885Y-111138609D01*
X117268193Y-111104631D01*
X117284934Y-111073310D01*
X117307461Y-111045861D01*
X117334910Y-111023334D01*
X117366231Y-111006593D01*
X117400209Y-110996285D01*
X117441690Y-110992200D01*
X118117910Y-110992200D01*
X118159391Y-110996285D01*
G37*
G36*
X123417191Y-110361285D02*
G01*
X123451169Y-110371593D01*
X123482490Y-110388334D01*
X123509939Y-110410861D01*
X123532466Y-110438310D01*
X123549207Y-110469631D01*
X123559515Y-110503609D01*
X123563600Y-110545090D01*
X123563600Y-111146310D01*
X123559515Y-111187791D01*
X123549207Y-111221769D01*
X123532466Y-111253090D01*
X123509939Y-111280539D01*
X123482490Y-111303066D01*
X123451169Y-111319807D01*
X123417191Y-111330115D01*
X123375710Y-111334200D01*
X122699490Y-111334200D01*
X122658009Y-111330115D01*
X122624031Y-111319807D01*
X122592710Y-111303066D01*
X122565261Y-111280539D01*
X122542734Y-111253090D01*
X122525993Y-111221769D01*
X122515685Y-111187791D01*
X122511600Y-111146310D01*
X122511600Y-110545090D01*
X122515685Y-110503609D01*
X122525993Y-110469631D01*
X122542734Y-110438310D01*
X122565261Y-110410861D01*
X122592710Y-110388334D01*
X122624031Y-110371593D01*
X122658009Y-110361285D01*
X122699490Y-110357200D01*
X123375710Y-110357200D01*
X123417191Y-110361285D01*
G37*
G36*
X113797740Y-110008626D02*
G01*
X113846136Y-110018253D01*
X113883902Y-110033896D01*
X113937311Y-110056019D01*
X113937312Y-110056020D01*
X114019369Y-110110848D01*
X114089152Y-110180631D01*
X114089153Y-110180633D01*
X114143981Y-110262689D01*
X114151884Y-110281769D01*
X114181747Y-110353864D01*
X114183223Y-110361285D01*
X114201000Y-110450655D01*
X114201000Y-110549345D01*
X114181747Y-110646135D01*
X114143981Y-110737311D01*
X114143980Y-110737312D01*
X114089152Y-110819369D01*
X114019369Y-110889152D01*
X113978062Y-110916752D01*
X113937311Y-110943981D01*
X113883902Y-110966104D01*
X113846136Y-110981747D01*
X113797740Y-110991373D01*
X113749345Y-111001000D01*
X113650655Y-111001000D01*
X113602260Y-110991373D01*
X113553864Y-110981747D01*
X113516098Y-110966104D01*
X113462689Y-110943981D01*
X113421938Y-110916752D01*
X113380631Y-110889152D01*
X113310848Y-110819369D01*
X113256020Y-110737312D01*
X113256019Y-110737311D01*
X113218253Y-110646135D01*
X113199000Y-110549345D01*
X113199000Y-110450655D01*
X113216777Y-110361285D01*
X113218253Y-110353864D01*
X113248116Y-110281769D01*
X113256019Y-110262689D01*
X113310847Y-110180633D01*
X113310848Y-110180631D01*
X113380631Y-110110848D01*
X113462688Y-110056020D01*
X113462689Y-110056019D01*
X113516098Y-110033896D01*
X113553864Y-110018253D01*
X113602260Y-110008626D01*
X113650655Y-109999000D01*
X113749345Y-109999000D01*
X113797740Y-110008626D01*
G37*
G36*
X118159391Y-109421285D02*
G01*
X118193369Y-109431593D01*
X118224690Y-109448334D01*
X118252139Y-109470861D01*
X118274666Y-109498310D01*
X118291407Y-109529631D01*
X118301715Y-109563609D01*
X118305800Y-109605090D01*
X118305800Y-110206310D01*
X118301715Y-110247791D01*
X118291407Y-110281769D01*
X118274666Y-110313090D01*
X118252139Y-110340539D01*
X118224690Y-110363066D01*
X118193369Y-110379807D01*
X118159391Y-110390115D01*
X118117910Y-110394200D01*
X117441690Y-110394200D01*
X117400209Y-110390115D01*
X117366231Y-110379807D01*
X117334910Y-110363066D01*
X117307461Y-110340539D01*
X117284934Y-110313090D01*
X117268193Y-110281769D01*
X117257885Y-110247791D01*
X117253800Y-110206310D01*
X117253800Y-109605090D01*
X117257885Y-109563609D01*
X117268193Y-109529631D01*
X117284934Y-109498310D01*
X117307461Y-109470861D01*
X117334910Y-109448334D01*
X117366231Y-109431593D01*
X117400209Y-109421285D01*
X117441690Y-109417200D01*
X118117910Y-109417200D01*
X118159391Y-109421285D01*
G37*
G36*
X121747400Y-109894800D02*
G01*
X120995400Y-109894800D01*
X120995400Y-108732800D01*
X121747400Y-108732800D01*
X121747400Y-109894800D01*
G37*
G36*
X119847400Y-109894800D02*
G01*
X119095400Y-109894800D01*
X119095400Y-108732800D01*
X119847400Y-108732800D01*
X119847400Y-109894800D01*
G37*
G36*
X123417191Y-108786285D02*
G01*
X123451169Y-108796593D01*
X123482490Y-108813334D01*
X123509939Y-108835861D01*
X123532466Y-108863310D01*
X123549207Y-108894631D01*
X123559515Y-108928609D01*
X123563600Y-108970090D01*
X123563600Y-109571310D01*
X123559515Y-109612791D01*
X123549207Y-109646769D01*
X123532466Y-109678090D01*
X123509939Y-109705539D01*
X123482490Y-109728066D01*
X123451169Y-109744807D01*
X123417191Y-109755115D01*
X123375710Y-109759200D01*
X122699490Y-109759200D01*
X122658009Y-109755115D01*
X122624031Y-109744807D01*
X122592710Y-109728066D01*
X122565261Y-109705539D01*
X122542734Y-109678090D01*
X122525993Y-109646769D01*
X122515685Y-109612791D01*
X122511600Y-109571310D01*
X122511600Y-108970090D01*
X122515685Y-108928609D01*
X122525993Y-108894631D01*
X122542734Y-108863310D01*
X122565261Y-108835861D01*
X122592710Y-108813334D01*
X122624031Y-108796593D01*
X122658009Y-108786285D01*
X122699490Y-108782200D01*
X123375710Y-108782200D01*
X123417191Y-108786285D01*
G37*
G36*
X124873791Y-107997085D02*
G01*
X124907769Y-108007393D01*
X124939090Y-108024134D01*
X124966539Y-108046661D01*
X124989066Y-108074110D01*
X125005807Y-108105431D01*
X125016115Y-108139409D01*
X125020200Y-108180890D01*
X125020200Y-108857110D01*
X125016115Y-108898591D01*
X125005807Y-108932569D01*
X124989066Y-108963890D01*
X124966539Y-108991339D01*
X124939090Y-109013866D01*
X124907769Y-109030607D01*
X124873791Y-109040915D01*
X124832310Y-109045000D01*
X124231090Y-109045000D01*
X124189609Y-109040915D01*
X124155631Y-109030607D01*
X124124310Y-109013866D01*
X124096861Y-108991339D01*
X124074334Y-108963890D01*
X124057593Y-108932569D01*
X124047285Y-108898591D01*
X124043200Y-108857110D01*
X124043200Y-108180890D01*
X124047285Y-108139409D01*
X124057593Y-108105431D01*
X124074334Y-108074110D01*
X124096861Y-108046661D01*
X124124310Y-108024134D01*
X124155631Y-108007393D01*
X124189609Y-107997085D01*
X124231090Y-107993000D01*
X124832310Y-107993000D01*
X124873791Y-107997085D01*
G37*
G36*
X126448791Y-107997085D02*
G01*
X126482769Y-108007393D01*
X126514090Y-108024134D01*
X126541539Y-108046661D01*
X126564066Y-108074110D01*
X126580807Y-108105431D01*
X126591115Y-108139409D01*
X126595200Y-108180890D01*
X126595200Y-108857110D01*
X126591115Y-108898591D01*
X126580807Y-108932569D01*
X126564066Y-108963890D01*
X126541539Y-108991339D01*
X126514090Y-109013866D01*
X126482769Y-109030607D01*
X126448791Y-109040915D01*
X126407310Y-109045000D01*
X125806090Y-109045000D01*
X125764609Y-109040915D01*
X125730631Y-109030607D01*
X125699310Y-109013866D01*
X125671861Y-108991339D01*
X125649334Y-108963890D01*
X125632593Y-108932569D01*
X125622285Y-108898591D01*
X125618200Y-108857110D01*
X125618200Y-108180890D01*
X125622285Y-108139409D01*
X125632593Y-108105431D01*
X125649334Y-108074110D01*
X125671861Y-108046661D01*
X125699310Y-108024134D01*
X125730631Y-108007393D01*
X125764609Y-107997085D01*
X125806090Y-107993000D01*
X126407310Y-107993000D01*
X126448791Y-107997085D01*
G37*
G36*
X118172791Y-107859885D02*
G01*
X118206769Y-107870193D01*
X118238090Y-107886934D01*
X118265539Y-107909461D01*
X118288066Y-107936910D01*
X118304807Y-107968231D01*
X118315115Y-108002209D01*
X118319200Y-108043690D01*
X118319200Y-108719910D01*
X118315115Y-108761391D01*
X118304807Y-108795369D01*
X118288066Y-108826690D01*
X118265539Y-108854139D01*
X118238090Y-108876666D01*
X118206769Y-108893407D01*
X118172791Y-108903715D01*
X118131310Y-108907800D01*
X117530090Y-108907800D01*
X117488609Y-108903715D01*
X117454631Y-108893407D01*
X117423310Y-108876666D01*
X117395861Y-108854139D01*
X117373334Y-108826690D01*
X117356593Y-108795369D01*
X117346285Y-108761391D01*
X117342200Y-108719910D01*
X117342200Y-108043690D01*
X117346285Y-108002209D01*
X117356593Y-107968231D01*
X117373334Y-107936910D01*
X117395861Y-107909461D01*
X117423310Y-107886934D01*
X117454631Y-107870193D01*
X117488609Y-107859885D01*
X117530090Y-107855800D01*
X118131310Y-107855800D01*
X118172791Y-107859885D01*
G37*
G36*
X116597791Y-107859885D02*
G01*
X116631769Y-107870193D01*
X116663090Y-107886934D01*
X116690539Y-107909461D01*
X116713066Y-107936910D01*
X116729807Y-107968231D01*
X116740115Y-108002209D01*
X116744200Y-108043690D01*
X116744200Y-108719910D01*
X116740115Y-108761391D01*
X116729807Y-108795369D01*
X116713066Y-108826690D01*
X116690539Y-108854139D01*
X116663090Y-108876666D01*
X116631769Y-108893407D01*
X116597791Y-108903715D01*
X116556310Y-108907800D01*
X115955090Y-108907800D01*
X115913609Y-108903715D01*
X115879631Y-108893407D01*
X115848310Y-108876666D01*
X115820861Y-108854139D01*
X115798334Y-108826690D01*
X115781593Y-108795369D01*
X115771285Y-108761391D01*
X115767200Y-108719910D01*
X115767200Y-108043690D01*
X115771285Y-108002209D01*
X115781593Y-107968231D01*
X115798334Y-107936910D01*
X115820861Y-107909461D01*
X115848310Y-107886934D01*
X115879631Y-107870193D01*
X115913609Y-107859885D01*
X115955090Y-107855800D01*
X116556310Y-107855800D01*
X116597791Y-107859885D01*
G37*
G36*
X142515268Y-107779565D02*
G01*
X142553938Y-107791296D01*
X142589577Y-107810346D01*
X142620817Y-107835983D01*
X142646454Y-107867223D01*
X142665504Y-107902862D01*
X142677235Y-107941532D01*
X142681800Y-107987888D01*
X142681800Y-108639112D01*
X142677235Y-108685468D01*
X142665504Y-108724138D01*
X142646454Y-108759777D01*
X142620817Y-108791017D01*
X142589577Y-108816654D01*
X142553938Y-108835704D01*
X142515268Y-108847435D01*
X142468912Y-108852000D01*
X141392688Y-108852000D01*
X141346332Y-108847435D01*
X141307662Y-108835704D01*
X141272023Y-108816654D01*
X141240783Y-108791017D01*
X141215146Y-108759777D01*
X141196096Y-108724138D01*
X141184365Y-108685468D01*
X141179800Y-108639112D01*
X141179800Y-107987888D01*
X141184365Y-107941532D01*
X141196096Y-107902862D01*
X141215146Y-107867223D01*
X141240783Y-107835983D01*
X141272023Y-107810346D01*
X141307662Y-107791296D01*
X141346332Y-107779565D01*
X141392688Y-107775000D01*
X142468912Y-107775000D01*
X142515268Y-107779565D01*
G37*
G36*
X137599999Y-105486137D02*
G01*
X137609608Y-105489052D01*
X137618472Y-105493790D01*
X137626237Y-105500163D01*
X137636448Y-105512606D01*
X137643378Y-105522975D01*
X137660705Y-105540302D01*
X137681080Y-105553915D01*
X137703720Y-105563291D01*
X137727753Y-105568071D01*
X137752257Y-105568070D01*
X137776290Y-105563288D01*
X137798929Y-105553910D01*
X137819302Y-105540295D01*
X137836629Y-105522968D01*
X137843558Y-105512598D01*
X137853763Y-105500163D01*
X137861528Y-105493790D01*
X137870392Y-105489052D01*
X137880001Y-105486137D01*
X137896140Y-105484548D01*
X138233860Y-105484548D01*
X138249999Y-105486137D01*
X138259608Y-105489052D01*
X138268472Y-105493790D01*
X138276237Y-105500163D01*
X138282610Y-105507928D01*
X138287348Y-105516792D01*
X138290263Y-105526401D01*
X138291852Y-105542540D01*
X138291852Y-106755262D01*
X138291611Y-106757709D01*
X138291009Y-106769960D01*
X138291009Y-106772418D01*
X138288816Y-106794685D01*
X138284520Y-106816289D01*
X138282729Y-106822194D01*
X138282728Y-106822197D01*
X138279811Y-106831813D01*
X138279809Y-106831818D01*
X138278019Y-106837718D01*
X138269588Y-106858071D01*
X138259041Y-106877803D01*
X138246800Y-106896123D01*
X138232604Y-106913422D01*
X138217022Y-106929004D01*
X138199723Y-106943200D01*
X138181403Y-106955441D01*
X138161671Y-106965988D01*
X138141320Y-106974418D01*
X138135498Y-106976184D01*
X138112860Y-106985562D01*
X138092486Y-106999177D01*
X138075159Y-107016504D01*
X138065000Y-107031709D01*
X138054836Y-107016499D01*
X138037509Y-106999172D01*
X138017134Y-106985559D01*
X137994502Y-106976184D01*
X137988680Y-106974418D01*
X137968329Y-106965988D01*
X137948597Y-106955441D01*
X137930277Y-106943200D01*
X137912978Y-106929004D01*
X137897396Y-106913422D01*
X137883200Y-106896123D01*
X137870959Y-106877803D01*
X137860412Y-106858071D01*
X137855483Y-106846171D01*
X137843931Y-106824561D01*
X137828385Y-106805619D01*
X137809443Y-106790074D01*
X137787832Y-106778524D01*
X137764383Y-106771411D01*
X137739997Y-106769010D01*
X137715611Y-106771412D01*
X137692162Y-106778526D01*
X137670552Y-106790078D01*
X137651610Y-106805624D01*
X137636065Y-106824566D01*
X137624517Y-106846171D01*
X137619588Y-106858071D01*
X137609041Y-106877803D01*
X137596800Y-106896123D01*
X137582604Y-106913422D01*
X137567022Y-106929004D01*
X137549723Y-106943200D01*
X137531403Y-106955441D01*
X137511671Y-106965988D01*
X137491320Y-106974418D01*
X137485498Y-106976184D01*
X137462860Y-106985562D01*
X137442486Y-106999177D01*
X137425159Y-107016504D01*
X137415000Y-107031709D01*
X137404836Y-107016499D01*
X137387509Y-106999172D01*
X137367134Y-106985559D01*
X137344502Y-106976184D01*
X137338680Y-106974418D01*
X137318329Y-106965988D01*
X137298597Y-106955441D01*
X137280277Y-106943200D01*
X137262978Y-106929004D01*
X137247396Y-106913422D01*
X137233203Y-106896127D01*
X137219933Y-106876266D01*
X137204388Y-106857324D01*
X137185446Y-106841779D01*
X137163835Y-106830228D01*
X137140386Y-106823114D01*
X137116000Y-106820712D01*
X137091614Y-106823114D01*
X137068165Y-106830226D01*
X137046554Y-106841777D01*
X137027612Y-106857322D01*
X137012067Y-106876264D01*
X137000516Y-106897875D01*
X136993402Y-106921324D01*
X136991000Y-106945711D01*
X136991000Y-106987400D01*
X136914988Y-106987400D01*
X136890602Y-106989802D01*
X136867153Y-106996915D01*
X136845542Y-107008466D01*
X136826600Y-107024011D01*
X136811055Y-107042953D01*
X136799504Y-107064564D01*
X136792391Y-107088013D01*
X136789989Y-107112399D01*
X136792391Y-107136785D01*
X136799504Y-107160234D01*
X136811055Y-107181845D01*
X136826600Y-107200787D01*
X136845542Y-107216332D01*
X136856525Y-107222206D01*
X136856252Y-107222716D01*
X136881403Y-107236159D01*
X136899723Y-107248400D01*
X136917022Y-107262596D01*
X136932604Y-107278178D01*
X136946800Y-107295477D01*
X136959041Y-107313797D01*
X136969588Y-107333529D01*
X136974517Y-107345429D01*
X136986069Y-107367039D01*
X137001615Y-107385981D01*
X137020557Y-107401526D01*
X137042168Y-107413076D01*
X137065617Y-107420189D01*
X137090003Y-107422590D01*
X137114389Y-107420188D01*
X137137838Y-107413074D01*
X137159448Y-107401522D01*
X137178390Y-107385976D01*
X137193935Y-107367034D01*
X137205483Y-107345429D01*
X137210412Y-107333529D01*
X137220959Y-107313797D01*
X137233200Y-107295477D01*
X137247396Y-107278178D01*
X137262978Y-107262596D01*
X137280277Y-107248400D01*
X137298597Y-107236159D01*
X137318329Y-107225612D01*
X137338680Y-107217182D01*
X137344502Y-107215416D01*
X137367140Y-107206038D01*
X137387514Y-107192423D01*
X137404841Y-107175096D01*
X137415000Y-107159891D01*
X137425164Y-107175101D01*
X137442491Y-107192428D01*
X137462866Y-107206041D01*
X137485498Y-107215416D01*
X137491320Y-107217182D01*
X137511671Y-107225612D01*
X137531403Y-107236159D01*
X137549723Y-107248400D01*
X137567022Y-107262596D01*
X137582604Y-107278178D01*
X137596800Y-107295477D01*
X137609041Y-107313797D01*
X137619588Y-107333529D01*
X137624517Y-107345429D01*
X137636069Y-107367039D01*
X137651615Y-107385981D01*
X137670557Y-107401526D01*
X137692168Y-107413076D01*
X137715617Y-107420189D01*
X137740003Y-107422590D01*
X137764389Y-107420188D01*
X137787838Y-107413074D01*
X137809448Y-107401522D01*
X137828390Y-107385976D01*
X137843935Y-107367034D01*
X137855483Y-107345429D01*
X137860412Y-107333529D01*
X137870959Y-107313797D01*
X137883200Y-107295477D01*
X137897396Y-107278178D01*
X137912978Y-107262596D01*
X137930277Y-107248400D01*
X137948597Y-107236159D01*
X137968329Y-107225612D01*
X137988680Y-107217182D01*
X137994502Y-107215416D01*
X138017140Y-107206038D01*
X138037514Y-107192423D01*
X138054841Y-107175096D01*
X138065000Y-107159891D01*
X138075164Y-107175101D01*
X138092491Y-107192428D01*
X138112866Y-107206041D01*
X138135498Y-107215416D01*
X138141320Y-107217182D01*
X138161671Y-107225612D01*
X138181403Y-107236159D01*
X138199723Y-107248400D01*
X138217022Y-107262596D01*
X138232604Y-107278178D01*
X138246800Y-107295477D01*
X138259041Y-107313797D01*
X138269588Y-107333529D01*
X138278019Y-107353882D01*
X138279809Y-107359782D01*
X138279811Y-107359787D01*
X138282728Y-107369403D01*
X138284520Y-107375311D01*
X138288816Y-107396915D01*
X138291009Y-107419182D01*
X138291009Y-107421640D01*
X138291611Y-107433891D01*
X138291852Y-107436338D01*
X138291852Y-108649060D01*
X138290263Y-108665199D01*
X138287348Y-108674808D01*
X138282610Y-108683672D01*
X138276237Y-108691437D01*
X138268472Y-108697810D01*
X138259608Y-108702548D01*
X138249999Y-108705463D01*
X138233860Y-108707052D01*
X137896140Y-108707052D01*
X137880001Y-108705463D01*
X137870392Y-108702548D01*
X137861528Y-108697810D01*
X137853763Y-108691437D01*
X137843552Y-108678994D01*
X137836622Y-108668625D01*
X137819295Y-108651298D01*
X137798920Y-108637685D01*
X137776280Y-108628309D01*
X137752247Y-108623529D01*
X137727743Y-108623530D01*
X137703710Y-108628312D01*
X137681071Y-108637690D01*
X137660698Y-108651305D01*
X137643371Y-108668632D01*
X137636442Y-108679002D01*
X137626237Y-108691437D01*
X137618472Y-108697810D01*
X137609608Y-108702548D01*
X137599999Y-108705463D01*
X137583860Y-108707052D01*
X137246140Y-108707052D01*
X137230001Y-108705463D01*
X137220392Y-108702548D01*
X137211528Y-108697810D01*
X137203763Y-108691437D01*
X137193552Y-108678994D01*
X137186622Y-108668625D01*
X137169295Y-108651298D01*
X137148920Y-108637685D01*
X137126280Y-108628309D01*
X137102247Y-108623529D01*
X137077743Y-108623530D01*
X137053710Y-108628312D01*
X137031071Y-108637690D01*
X137010698Y-108651305D01*
X136993371Y-108668632D01*
X136986442Y-108679002D01*
X136976237Y-108691437D01*
X136968472Y-108697810D01*
X136959608Y-108702548D01*
X136949999Y-108705463D01*
X136933860Y-108707052D01*
X136596140Y-108707052D01*
X136580001Y-108705463D01*
X136570392Y-108702548D01*
X136561528Y-108697810D01*
X136553763Y-108691437D01*
X136547390Y-108683672D01*
X136542652Y-108674808D01*
X136539737Y-108665199D01*
X136538148Y-108649060D01*
X136538148Y-107436338D01*
X136538389Y-107433891D01*
X136538991Y-107421640D01*
X136538991Y-107419182D01*
X136541184Y-107396915D01*
X136545480Y-107375311D01*
X136547272Y-107369403D01*
X136550189Y-107359787D01*
X136550191Y-107359782D01*
X136551981Y-107353882D01*
X136560412Y-107333529D01*
X136570959Y-107313797D01*
X136583200Y-107295477D01*
X136597396Y-107278178D01*
X136612978Y-107262596D01*
X136630277Y-107248400D01*
X136648597Y-107236159D01*
X136673748Y-107222716D01*
X136673474Y-107222203D01*
X136684518Y-107216292D01*
X136703451Y-107200735D01*
X136718985Y-107181784D01*
X136730524Y-107160167D01*
X136737623Y-107136714D01*
X136740011Y-107112326D01*
X136737595Y-107087942D01*
X136730468Y-107064497D01*
X136718905Y-107042893D01*
X136703348Y-107023960D01*
X136684397Y-107008426D01*
X136662780Y-106996887D01*
X136639327Y-106989788D01*
X136615012Y-106987400D01*
X136539000Y-106987400D01*
X136539000Y-105485400D01*
X137016555Y-105485400D01*
X137027611Y-105498872D01*
X137046553Y-105514417D01*
X137068164Y-105525968D01*
X137091613Y-105533081D01*
X137115999Y-105535483D01*
X137140385Y-105533081D01*
X137163834Y-105525968D01*
X137195296Y-105507111D01*
X137211528Y-105493790D01*
X137220392Y-105489052D01*
X137230001Y-105486137D01*
X137246140Y-105484548D01*
X137583860Y-105484548D01*
X137599999Y-105486137D01*
G37*
G36*
X134999999Y-105486137D02*
G01*
X135009608Y-105489052D01*
X135018472Y-105493790D01*
X135026237Y-105500163D01*
X135036448Y-105512606D01*
X135043378Y-105522975D01*
X135060705Y-105540302D01*
X135081080Y-105553915D01*
X135103720Y-105563291D01*
X135127753Y-105568071D01*
X135152257Y-105568070D01*
X135176290Y-105563288D01*
X135198929Y-105553910D01*
X135219302Y-105540295D01*
X135236629Y-105522968D01*
X135243558Y-105512598D01*
X135253763Y-105500163D01*
X135261528Y-105493790D01*
X135270392Y-105489052D01*
X135280001Y-105486137D01*
X135296140Y-105484548D01*
X135633860Y-105484548D01*
X135649999Y-105486137D01*
X135659608Y-105489052D01*
X135668472Y-105493790D01*
X135676237Y-105500163D01*
X135682610Y-105507928D01*
X135687348Y-105516792D01*
X135690263Y-105526401D01*
X135691852Y-105542540D01*
X135691852Y-106755262D01*
X135691611Y-106757709D01*
X135691009Y-106769960D01*
X135691009Y-106772418D01*
X135688816Y-106794685D01*
X135684520Y-106816289D01*
X135682729Y-106822194D01*
X135682728Y-106822197D01*
X135679811Y-106831813D01*
X135679809Y-106831818D01*
X135678019Y-106837718D01*
X135669588Y-106858071D01*
X135659041Y-106877803D01*
X135646800Y-106896123D01*
X135632604Y-106913422D01*
X135617022Y-106929004D01*
X135599723Y-106943200D01*
X135581403Y-106955441D01*
X135561671Y-106965988D01*
X135541320Y-106974418D01*
X135535498Y-106976184D01*
X135512860Y-106985562D01*
X135492486Y-106999177D01*
X135475159Y-107016504D01*
X135465000Y-107031709D01*
X135454836Y-107016499D01*
X135437509Y-106999172D01*
X135417134Y-106985559D01*
X135394502Y-106976184D01*
X135388680Y-106974418D01*
X135368329Y-106965988D01*
X135348597Y-106955441D01*
X135330277Y-106943200D01*
X135312978Y-106929004D01*
X135297396Y-106913422D01*
X135283200Y-106896123D01*
X135270959Y-106877803D01*
X135260412Y-106858071D01*
X135255483Y-106846171D01*
X135243931Y-106824561D01*
X135228385Y-106805619D01*
X135209443Y-106790074D01*
X135187832Y-106778524D01*
X135164383Y-106771411D01*
X135139997Y-106769010D01*
X135115611Y-106771412D01*
X135092162Y-106778526D01*
X135070552Y-106790078D01*
X135051610Y-106805624D01*
X135036065Y-106824566D01*
X135024517Y-106846171D01*
X135019588Y-106858071D01*
X135009041Y-106877803D01*
X134996800Y-106896123D01*
X134982604Y-106913422D01*
X134967022Y-106929004D01*
X134949723Y-106943200D01*
X134931403Y-106955441D01*
X134911671Y-106965988D01*
X134891320Y-106974418D01*
X134885498Y-106976184D01*
X134862860Y-106985562D01*
X134842486Y-106999177D01*
X134825159Y-107016504D01*
X134815000Y-107031709D01*
X134804836Y-107016499D01*
X134787509Y-106999172D01*
X134767134Y-106985559D01*
X134744502Y-106976184D01*
X134738680Y-106974418D01*
X134718329Y-106965988D01*
X134698597Y-106955441D01*
X134680277Y-106943200D01*
X134662978Y-106929004D01*
X134647396Y-106913422D01*
X134633203Y-106896127D01*
X134619933Y-106876266D01*
X134604388Y-106857324D01*
X134585446Y-106841779D01*
X134563835Y-106830228D01*
X134540386Y-106823114D01*
X134516000Y-106820712D01*
X134491614Y-106823114D01*
X134468165Y-106830226D01*
X134446554Y-106841777D01*
X134427612Y-106857322D01*
X134412067Y-106876264D01*
X134400516Y-106897875D01*
X134393402Y-106921324D01*
X134391000Y-106945711D01*
X134391000Y-106987400D01*
X134314988Y-106987400D01*
X134290602Y-106989802D01*
X134267153Y-106996915D01*
X134245542Y-107008466D01*
X134226600Y-107024011D01*
X134211055Y-107042953D01*
X134199504Y-107064564D01*
X134192391Y-107088013D01*
X134189989Y-107112399D01*
X134192391Y-107136785D01*
X134199504Y-107160234D01*
X134211055Y-107181845D01*
X134226600Y-107200787D01*
X134245542Y-107216332D01*
X134256525Y-107222206D01*
X134256252Y-107222716D01*
X134281403Y-107236159D01*
X134299723Y-107248400D01*
X134317022Y-107262596D01*
X134332604Y-107278178D01*
X134346800Y-107295477D01*
X134359041Y-107313797D01*
X134369588Y-107333529D01*
X134374517Y-107345429D01*
X134386069Y-107367039D01*
X134401615Y-107385981D01*
X134420557Y-107401526D01*
X134442168Y-107413076D01*
X134465617Y-107420189D01*
X134490003Y-107422590D01*
X134514389Y-107420188D01*
X134537838Y-107413074D01*
X134559448Y-107401522D01*
X134578390Y-107385976D01*
X134593935Y-107367034D01*
X134605483Y-107345429D01*
X134610412Y-107333529D01*
X134620959Y-107313797D01*
X134633200Y-107295477D01*
X134647396Y-107278178D01*
X134662978Y-107262596D01*
X134680277Y-107248400D01*
X134698597Y-107236159D01*
X134718329Y-107225612D01*
X134738680Y-107217182D01*
X134744502Y-107215416D01*
X134767140Y-107206038D01*
X134787514Y-107192423D01*
X134804841Y-107175096D01*
X134815000Y-107159891D01*
X134825164Y-107175101D01*
X134842491Y-107192428D01*
X134862866Y-107206041D01*
X134885498Y-107215416D01*
X134891320Y-107217182D01*
X134911671Y-107225612D01*
X134931403Y-107236159D01*
X134949723Y-107248400D01*
X134967022Y-107262596D01*
X134982604Y-107278178D01*
X134996800Y-107295477D01*
X135009041Y-107313797D01*
X135019588Y-107333529D01*
X135024517Y-107345429D01*
X135036069Y-107367039D01*
X135051615Y-107385981D01*
X135070557Y-107401526D01*
X135092168Y-107413076D01*
X135115617Y-107420189D01*
X135140003Y-107422590D01*
X135164389Y-107420188D01*
X135187838Y-107413074D01*
X135209448Y-107401522D01*
X135228390Y-107385976D01*
X135243935Y-107367034D01*
X135255483Y-107345429D01*
X135260412Y-107333529D01*
X135270959Y-107313797D01*
X135283200Y-107295477D01*
X135297396Y-107278178D01*
X135312978Y-107262596D01*
X135330277Y-107248400D01*
X135348597Y-107236159D01*
X135368329Y-107225612D01*
X135388680Y-107217182D01*
X135394502Y-107215416D01*
X135417140Y-107206038D01*
X135437514Y-107192423D01*
X135454841Y-107175096D01*
X135465000Y-107159891D01*
X135475164Y-107175101D01*
X135492491Y-107192428D01*
X135512866Y-107206041D01*
X135535498Y-107215416D01*
X135541320Y-107217182D01*
X135561671Y-107225612D01*
X135581403Y-107236159D01*
X135599723Y-107248400D01*
X135617022Y-107262596D01*
X135632604Y-107278178D01*
X135646800Y-107295477D01*
X135659041Y-107313797D01*
X135669588Y-107333529D01*
X135678019Y-107353882D01*
X135679809Y-107359782D01*
X135679811Y-107359787D01*
X135682728Y-107369403D01*
X135684520Y-107375311D01*
X135688816Y-107396915D01*
X135691009Y-107419182D01*
X135691009Y-107421640D01*
X135691611Y-107433891D01*
X135691852Y-107436338D01*
X135691852Y-108649060D01*
X135690263Y-108665199D01*
X135687348Y-108674808D01*
X135682610Y-108683672D01*
X135676237Y-108691437D01*
X135668472Y-108697810D01*
X135659608Y-108702548D01*
X135649999Y-108705463D01*
X135633860Y-108707052D01*
X135296140Y-108707052D01*
X135280001Y-108705463D01*
X135270392Y-108702548D01*
X135261528Y-108697810D01*
X135253763Y-108691437D01*
X135243552Y-108678994D01*
X135236622Y-108668625D01*
X135219295Y-108651298D01*
X135198920Y-108637685D01*
X135176280Y-108628309D01*
X135152247Y-108623529D01*
X135127743Y-108623530D01*
X135103710Y-108628312D01*
X135081071Y-108637690D01*
X135060698Y-108651305D01*
X135043371Y-108668632D01*
X135036442Y-108679002D01*
X135026237Y-108691437D01*
X135018472Y-108697810D01*
X135009608Y-108702548D01*
X134999999Y-108705463D01*
X134983860Y-108707052D01*
X134646140Y-108707052D01*
X134630001Y-108705463D01*
X134620392Y-108702548D01*
X134611528Y-108697810D01*
X134603763Y-108691437D01*
X134593552Y-108678994D01*
X134586622Y-108668625D01*
X134569295Y-108651298D01*
X134548920Y-108637685D01*
X134526280Y-108628309D01*
X134502247Y-108623529D01*
X134477743Y-108623530D01*
X134453710Y-108628312D01*
X134431071Y-108637690D01*
X134410698Y-108651305D01*
X134393371Y-108668632D01*
X134386442Y-108679002D01*
X134376237Y-108691437D01*
X134368472Y-108697810D01*
X134359608Y-108702548D01*
X134349999Y-108705463D01*
X134333860Y-108707052D01*
X133996140Y-108707052D01*
X133980001Y-108705463D01*
X133970392Y-108702548D01*
X133961528Y-108697810D01*
X133953763Y-108691437D01*
X133947390Y-108683672D01*
X133942652Y-108674808D01*
X133939737Y-108665199D01*
X133938148Y-108649060D01*
X133938148Y-107436338D01*
X133938389Y-107433891D01*
X133938991Y-107421640D01*
X133938991Y-107419182D01*
X133941184Y-107396915D01*
X133945480Y-107375311D01*
X133947272Y-107369403D01*
X133950189Y-107359787D01*
X133950191Y-107359782D01*
X133951981Y-107353882D01*
X133960412Y-107333529D01*
X133970959Y-107313797D01*
X133983200Y-107295477D01*
X133997396Y-107278178D01*
X134012978Y-107262596D01*
X134030277Y-107248400D01*
X134048597Y-107236159D01*
X134073748Y-107222716D01*
X134073474Y-107222203D01*
X134084518Y-107216292D01*
X134103451Y-107200735D01*
X134118985Y-107181784D01*
X134130524Y-107160167D01*
X134137623Y-107136714D01*
X134140011Y-107112326D01*
X134137595Y-107087942D01*
X134130468Y-107064497D01*
X134118905Y-107042893D01*
X134103348Y-107023960D01*
X134084397Y-107008426D01*
X134062780Y-106996887D01*
X134039327Y-106989788D01*
X134015012Y-106987400D01*
X133939000Y-106987400D01*
X133939000Y-105485400D01*
X134416555Y-105485400D01*
X134427611Y-105498872D01*
X134446553Y-105514417D01*
X134468164Y-105525968D01*
X134491613Y-105533081D01*
X134515999Y-105535483D01*
X134540385Y-105533081D01*
X134563834Y-105525968D01*
X134595296Y-105507111D01*
X134611528Y-105493790D01*
X134620392Y-105489052D01*
X134630001Y-105486137D01*
X134646140Y-105484548D01*
X134983860Y-105484548D01*
X134999999Y-105486137D01*
G37*
G36*
X140506991Y-107679085D02*
G01*
X140540969Y-107689393D01*
X140572290Y-107706134D01*
X140599739Y-107728661D01*
X140622266Y-107756110D01*
X140639007Y-107787431D01*
X140649315Y-107821409D01*
X140653400Y-107862890D01*
X140653400Y-108464110D01*
X140649315Y-108505591D01*
X140639007Y-108539569D01*
X140622266Y-108570890D01*
X140599739Y-108598339D01*
X140572290Y-108620866D01*
X140540969Y-108637607D01*
X140506991Y-108647915D01*
X140465510Y-108652000D01*
X139789290Y-108652000D01*
X139747809Y-108647915D01*
X139713831Y-108637607D01*
X139682510Y-108620866D01*
X139655061Y-108598339D01*
X139632534Y-108570890D01*
X139615793Y-108539569D01*
X139605485Y-108505591D01*
X139601400Y-108464110D01*
X139601400Y-107862890D01*
X139605485Y-107821409D01*
X139615793Y-107787431D01*
X139632534Y-107756110D01*
X139655061Y-107728661D01*
X139682510Y-107706134D01*
X139713831Y-107689393D01*
X139747809Y-107679085D01*
X139789290Y-107675000D01*
X140465510Y-107675000D01*
X140506991Y-107679085D01*
G37*
G36*
X123412791Y-107298085D02*
G01*
X123446769Y-107308393D01*
X123478090Y-107325134D01*
X123505539Y-107347661D01*
X123528066Y-107375110D01*
X123544807Y-107406431D01*
X123555115Y-107440409D01*
X123559200Y-107481890D01*
X123559200Y-108083110D01*
X123555115Y-108124591D01*
X123544807Y-108158569D01*
X123528066Y-108189890D01*
X123505539Y-108217339D01*
X123478090Y-108239866D01*
X123446769Y-108256607D01*
X123412791Y-108266915D01*
X123371310Y-108271000D01*
X122695090Y-108271000D01*
X122653609Y-108266915D01*
X122619631Y-108256607D01*
X122588310Y-108239866D01*
X122560861Y-108217339D01*
X122538334Y-108189890D01*
X122521593Y-108158569D01*
X122511285Y-108124591D01*
X122507200Y-108083110D01*
X122507200Y-107481890D01*
X122511285Y-107440409D01*
X122521593Y-107406431D01*
X122538334Y-107375110D01*
X122560861Y-107347661D01*
X122588310Y-107325134D01*
X122619631Y-107308393D01*
X122653609Y-107298085D01*
X122695090Y-107294000D01*
X123371310Y-107294000D01*
X123412791Y-107298085D01*
G37*
G36*
X159324549Y-105471116D02*
G01*
X159435734Y-105493232D01*
X159645203Y-105579997D01*
X159833720Y-105705960D01*
X159994040Y-105866280D01*
X160120003Y-106054797D01*
X160120004Y-106054799D01*
X160145416Y-106116150D01*
X160172324Y-106181110D01*
X160206768Y-106264267D01*
X160251000Y-106486635D01*
X160251000Y-106713365D01*
X160235741Y-106790078D01*
X160206768Y-106935734D01*
X160120003Y-107145203D01*
X159994040Y-107333720D01*
X159833720Y-107494040D01*
X159645203Y-107620003D01*
X159435734Y-107706768D01*
X159325670Y-107728661D01*
X159213365Y-107751000D01*
X158986635Y-107751000D01*
X158874330Y-107728661D01*
X158764266Y-107706768D01*
X158554797Y-107620003D01*
X158366280Y-107494040D01*
X158205960Y-107333720D01*
X158079997Y-107145203D01*
X157993232Y-106935734D01*
X157964259Y-106790078D01*
X157949000Y-106713365D01*
X157949000Y-106486635D01*
X157993232Y-106264267D01*
X158027677Y-106181110D01*
X158054584Y-106116150D01*
X158079996Y-106054799D01*
X158079997Y-106054797D01*
X158205960Y-105866280D01*
X158366280Y-105705960D01*
X158554797Y-105579997D01*
X158764266Y-105493232D01*
X158875451Y-105471116D01*
X158986635Y-105449000D01*
X159213365Y-105449000D01*
X159324549Y-105471116D01*
G37*
G36*
X113924549Y-105471116D02*
G01*
X114035734Y-105493232D01*
X114245203Y-105579997D01*
X114433720Y-105705960D01*
X114594040Y-105866280D01*
X114720003Y-106054797D01*
X114720004Y-106054799D01*
X114745416Y-106116150D01*
X114772324Y-106181110D01*
X114806768Y-106264267D01*
X114851000Y-106486635D01*
X114851000Y-106713365D01*
X114835741Y-106790078D01*
X114806768Y-106935734D01*
X114720003Y-107145203D01*
X114594040Y-107333720D01*
X114433720Y-107494040D01*
X114245203Y-107620003D01*
X114035734Y-107706768D01*
X113925670Y-107728661D01*
X113813365Y-107751000D01*
X113586635Y-107751000D01*
X113474330Y-107728661D01*
X113364266Y-107706768D01*
X113154797Y-107620003D01*
X112966280Y-107494040D01*
X112805960Y-107333720D01*
X112679997Y-107145203D01*
X112593232Y-106935734D01*
X112564259Y-106790078D01*
X112549000Y-106713365D01*
X112549000Y-106486635D01*
X112593232Y-106264267D01*
X112627677Y-106181110D01*
X112654584Y-106116150D01*
X112679996Y-106054799D01*
X112679997Y-106054797D01*
X112805960Y-105866280D01*
X112966280Y-105705960D01*
X113154797Y-105579997D01*
X113364266Y-105493232D01*
X113475451Y-105471116D01*
X113586635Y-105449000D01*
X113813365Y-105449000D01*
X113924549Y-105471116D01*
G37*
G36*
X140506991Y-106104085D02*
G01*
X140540969Y-106114393D01*
X140572290Y-106131134D01*
X140599739Y-106153661D01*
X140622266Y-106181110D01*
X140639007Y-106212431D01*
X140649315Y-106246409D01*
X140653400Y-106287890D01*
X140653400Y-106889110D01*
X140649315Y-106930591D01*
X140639007Y-106964569D01*
X140622266Y-106995890D01*
X140599739Y-107023339D01*
X140572290Y-107045866D01*
X140540969Y-107062607D01*
X140506991Y-107072915D01*
X140465510Y-107077000D01*
X139789290Y-107077000D01*
X139747809Y-107072915D01*
X139713831Y-107062607D01*
X139682510Y-107045866D01*
X139655061Y-107023339D01*
X139632534Y-106995890D01*
X139615793Y-106964569D01*
X139605485Y-106930591D01*
X139601400Y-106889110D01*
X139601400Y-106287890D01*
X139605485Y-106246409D01*
X139615793Y-106212431D01*
X139632534Y-106181110D01*
X139655061Y-106153661D01*
X139682510Y-106131134D01*
X139713831Y-106114393D01*
X139747809Y-106104085D01*
X139789290Y-106100000D01*
X140465510Y-106100000D01*
X140506991Y-106104085D01*
G37*
G36*
X120553512Y-105203927D02*
G01*
X120702812Y-105233624D01*
X120866784Y-105301544D01*
X121014354Y-105400147D01*
X121139853Y-105525646D01*
X121238456Y-105673216D01*
X121306376Y-105837188D01*
X121341000Y-106011259D01*
X121341000Y-106188741D01*
X121306376Y-106362812D01*
X121238456Y-106526784D01*
X121139853Y-106674354D01*
X121014354Y-106799853D01*
X120866784Y-106898456D01*
X120702812Y-106966376D01*
X120554431Y-106995890D01*
X120528742Y-107001000D01*
X120351258Y-107001000D01*
X120325569Y-106995890D01*
X120177188Y-106966376D01*
X120013216Y-106898456D01*
X119865646Y-106799853D01*
X119740147Y-106674354D01*
X119641544Y-106526784D01*
X119573624Y-106362812D01*
X119539000Y-106188741D01*
X119539000Y-106011259D01*
X119573624Y-105837188D01*
X119641544Y-105673216D01*
X119740147Y-105525646D01*
X119865646Y-105400147D01*
X120013216Y-105301544D01*
X120177188Y-105233624D01*
X120326488Y-105203927D01*
X120351258Y-105199000D01*
X120528742Y-105199000D01*
X120553512Y-105203927D01*
G37*
G36*
X118801000Y-107001000D02*
G01*
X116999000Y-107001000D01*
X116999000Y-105199000D01*
X118801000Y-105199000D01*
X118801000Y-107001000D01*
G37*
G36*
X142515268Y-105904565D02*
G01*
X142553938Y-105916296D01*
X142589577Y-105935346D01*
X142620817Y-105960983D01*
X142646454Y-105992223D01*
X142665504Y-106027862D01*
X142677235Y-106066532D01*
X142681800Y-106112888D01*
X142681800Y-106764112D01*
X142677235Y-106810468D01*
X142665504Y-106849138D01*
X142646454Y-106884777D01*
X142620817Y-106916017D01*
X142589577Y-106941654D01*
X142553938Y-106960704D01*
X142515268Y-106972435D01*
X142468912Y-106977000D01*
X141392688Y-106977000D01*
X141346332Y-106972435D01*
X141307662Y-106960704D01*
X141272023Y-106941654D01*
X141240783Y-106916017D01*
X141215146Y-106884777D01*
X141196096Y-106849138D01*
X141184365Y-106810468D01*
X141179800Y-106764112D01*
X141179800Y-106112888D01*
X141184365Y-106066532D01*
X141196096Y-106027862D01*
X141215146Y-105992223D01*
X141240783Y-105960983D01*
X141272023Y-105935346D01*
X141307662Y-105916296D01*
X141346332Y-105904565D01*
X141392688Y-105900000D01*
X142468912Y-105900000D01*
X142515268Y-105904565D01*
G37*
G36*
X132925791Y-105685685D02*
G01*
X132959769Y-105695993D01*
X132991090Y-105712734D01*
X133018539Y-105735261D01*
X133041066Y-105762710D01*
X133057807Y-105794031D01*
X133068115Y-105828009D01*
X133072200Y-105869490D01*
X133072200Y-106545710D01*
X133068115Y-106587191D01*
X133057807Y-106621169D01*
X133041066Y-106652490D01*
X133018539Y-106679939D01*
X132991090Y-106702466D01*
X132959769Y-106719207D01*
X132925791Y-106729515D01*
X132884310Y-106733600D01*
X132283090Y-106733600D01*
X132241609Y-106729515D01*
X132207631Y-106719207D01*
X132176310Y-106702466D01*
X132148861Y-106679939D01*
X132126334Y-106652490D01*
X132109593Y-106621169D01*
X132099285Y-106587191D01*
X132095200Y-106545710D01*
X132095200Y-105869490D01*
X132099285Y-105828009D01*
X132109593Y-105794031D01*
X132126334Y-105762710D01*
X132148861Y-105735261D01*
X132176310Y-105712734D01*
X132207631Y-105695993D01*
X132241609Y-105685685D01*
X132283090Y-105681600D01*
X132884310Y-105681600D01*
X132925791Y-105685685D01*
G37*
G36*
X131350791Y-105685685D02*
G01*
X131384769Y-105695993D01*
X131416090Y-105712734D01*
X131443539Y-105735261D01*
X131466066Y-105762710D01*
X131482807Y-105794031D01*
X131493115Y-105828009D01*
X131497200Y-105869490D01*
X131497200Y-106545710D01*
X131493115Y-106587191D01*
X131482807Y-106621169D01*
X131466066Y-106652490D01*
X131443539Y-106679939D01*
X131416090Y-106702466D01*
X131384769Y-106719207D01*
X131350791Y-106729515D01*
X131309310Y-106733600D01*
X130708090Y-106733600D01*
X130666609Y-106729515D01*
X130632631Y-106719207D01*
X130601310Y-106702466D01*
X130573861Y-106679939D01*
X130551334Y-106652490D01*
X130534593Y-106621169D01*
X130524285Y-106587191D01*
X130520200Y-106545710D01*
X130520200Y-105869490D01*
X130524285Y-105828009D01*
X130534593Y-105794031D01*
X130551334Y-105762710D01*
X130573861Y-105735261D01*
X130601310Y-105712734D01*
X130632631Y-105695993D01*
X130666609Y-105685685D01*
X130708090Y-105681600D01*
X131309310Y-105681600D01*
X131350791Y-105685685D01*
G37*
G36*
X123412791Y-105723085D02*
G01*
X123446769Y-105733393D01*
X123478090Y-105750134D01*
X123505539Y-105772661D01*
X123528066Y-105800110D01*
X123544807Y-105831431D01*
X123555115Y-105865409D01*
X123559200Y-105906890D01*
X123559200Y-106508110D01*
X123555115Y-106549591D01*
X123544807Y-106583569D01*
X123528066Y-106614890D01*
X123505539Y-106642339D01*
X123478090Y-106664866D01*
X123446769Y-106681607D01*
X123412791Y-106691915D01*
X123371310Y-106696000D01*
X122695090Y-106696000D01*
X122653609Y-106691915D01*
X122619631Y-106681607D01*
X122588310Y-106664866D01*
X122560861Y-106642339D01*
X122538334Y-106614890D01*
X122521593Y-106583569D01*
X122511285Y-106549591D01*
X122507200Y-106508110D01*
X122507200Y-105906890D01*
X122511285Y-105865409D01*
X122521593Y-105831431D01*
X122538334Y-105800110D01*
X122560861Y-105772661D01*
X122588310Y-105750134D01*
X122619631Y-105733393D01*
X122653609Y-105723085D01*
X122695090Y-105719000D01*
X123371310Y-105719000D01*
X123412791Y-105723085D01*
G37*
M02*
