M48
; DRILL file {KiCad (5.1.5)-2} date 2020/3/24 14:37:45
; FORMAT={-:-/ absolute / metric / decimal}
; #@! TF.CreationDate,2020-03-24T14:37:45+08:00
; #@! TF.GenerationSoftware,Kicad,Pcbnew,(5.1.5)-2
; #@! TF.FileFunction,Plated,1,2,PTH
FMAT,2
METRIC
T1C0.300
T2C0.400
T3C0.550
T4C0.850
T5C1.000
%
G90
G05
T1
X114.397Y-111.491
X114.727Y-116.418
X122.199Y-114.351
X123.897Y-106.639
X124.481Y-113.523
X126.767Y-105.496
X129.409Y-121.702
X130.196Y-129.068
X134.158Y-118.349
X134.336Y-109.51
X134.819Y-105.09
X135.022Y-118.374
X135.454Y-119.238
X135.759Y-116.215
X135.911Y-106.233
X136.952Y-123.581
X137.435Y-112.659
X138.426Y-125.435
X138.832Y-106.233
X139.573Y-113.69
X139.598Y-115.697
X139.772Y-120.701
X142.642Y-122.616
X144.094Y-117.094
X144.12Y-120.269
X144.12Y-119.227
X148.031Y-123.19
X153.34Y-120.675
X153.767Y-107.579
X157.709Y-120.675
T2
X117.653Y-118.186
X119.126Y-118.466
X120.701Y-118.161
X123.241Y-117.704
X159.55Y-128.283
T5
X159.584Y-115.479
X159.584Y-118.019
X159.584Y-120.559
X159.584Y-123.099
X117.9Y-106.1
X120.44Y-106.1
T3
G00X113.675Y-120.204
M15
G01X113.025Y-120.204
M16
G05
G00X113.675Y-127.954
M15
G01X113.025Y-127.954
M16
G05
T4
G00X117.425Y-120.354
M15
G01X116.875Y-120.354
M16
G05
G00X117.425Y-127.804
M15
G01X116.875Y-127.804
M16
G05
T0
M30
