G04 #@! TF.GenerationSoftware,KiCad,Pcbnew,(5.1.5)-2*
G04 #@! TF.CreationDate,2020-06-18T10:42:50+08:00*
G04 #@! TF.ProjectId,EVMeter_V2.0,45564d65-7465-4725-9f56-322e302e6b69,rev?*
G04 #@! TF.SameCoordinates,Original*
G04 #@! TF.FileFunction,Paste,Top*
G04 #@! TF.FilePolarity,Positive*
%FSLAX46Y46*%
G04 Gerber Fmt 4.6, Leading zero omitted, Abs format (unit mm)*
G04 Created by KiCad (PCBNEW (5.1.5)-2) date 2020-06-18 10:42:50*
%MOMM*%
%LPD*%
G04 APERTURE LIST*
%ADD10R,1.270000X0.760000*%
%ADD11C,0.100000*%
%ADD12R,2.500000X1.250000*%
%ADD13R,1.000000X1.550000*%
%ADD14R,1.550000X1.000000*%
G04 APERTURE END LIST*
D10*
X116014500Y-68199000D03*
X123634500Y-68199000D03*
X116014500Y-69469000D03*
X123634500Y-69469000D03*
D11*
G36*
X135088191Y-62454053D02*
G01*
X135109426Y-62457203D01*
X135130250Y-62462419D01*
X135150462Y-62469651D01*
X135169868Y-62478830D01*
X135188281Y-62489866D01*
X135205524Y-62502654D01*
X135221430Y-62517070D01*
X135235846Y-62532976D01*
X135248634Y-62550219D01*
X135259670Y-62568632D01*
X135268849Y-62588038D01*
X135276081Y-62608250D01*
X135281297Y-62629074D01*
X135284447Y-62650309D01*
X135285500Y-62671750D01*
X135285500Y-63109250D01*
X135284447Y-63130691D01*
X135281297Y-63151926D01*
X135276081Y-63172750D01*
X135268849Y-63192962D01*
X135259670Y-63212368D01*
X135248634Y-63230781D01*
X135235846Y-63248024D01*
X135221430Y-63263930D01*
X135205524Y-63278346D01*
X135188281Y-63291134D01*
X135169868Y-63302170D01*
X135150462Y-63311349D01*
X135130250Y-63318581D01*
X135109426Y-63323797D01*
X135088191Y-63326947D01*
X135066750Y-63328000D01*
X134554250Y-63328000D01*
X134532809Y-63326947D01*
X134511574Y-63323797D01*
X134490750Y-63318581D01*
X134470538Y-63311349D01*
X134451132Y-63302170D01*
X134432719Y-63291134D01*
X134415476Y-63278346D01*
X134399570Y-63263930D01*
X134385154Y-63248024D01*
X134372366Y-63230781D01*
X134361330Y-63212368D01*
X134352151Y-63192962D01*
X134344919Y-63172750D01*
X134339703Y-63151926D01*
X134336553Y-63130691D01*
X134335500Y-63109250D01*
X134335500Y-62671750D01*
X134336553Y-62650309D01*
X134339703Y-62629074D01*
X134344919Y-62608250D01*
X134352151Y-62588038D01*
X134361330Y-62568632D01*
X134372366Y-62550219D01*
X134385154Y-62532976D01*
X134399570Y-62517070D01*
X134415476Y-62502654D01*
X134432719Y-62489866D01*
X134451132Y-62478830D01*
X134470538Y-62469651D01*
X134490750Y-62462419D01*
X134511574Y-62457203D01*
X134532809Y-62454053D01*
X134554250Y-62453000D01*
X135066750Y-62453000D01*
X135088191Y-62454053D01*
G37*
G36*
X135088191Y-60879053D02*
G01*
X135109426Y-60882203D01*
X135130250Y-60887419D01*
X135150462Y-60894651D01*
X135169868Y-60903830D01*
X135188281Y-60914866D01*
X135205524Y-60927654D01*
X135221430Y-60942070D01*
X135235846Y-60957976D01*
X135248634Y-60975219D01*
X135259670Y-60993632D01*
X135268849Y-61013038D01*
X135276081Y-61033250D01*
X135281297Y-61054074D01*
X135284447Y-61075309D01*
X135285500Y-61096750D01*
X135285500Y-61534250D01*
X135284447Y-61555691D01*
X135281297Y-61576926D01*
X135276081Y-61597750D01*
X135268849Y-61617962D01*
X135259670Y-61637368D01*
X135248634Y-61655781D01*
X135235846Y-61673024D01*
X135221430Y-61688930D01*
X135205524Y-61703346D01*
X135188281Y-61716134D01*
X135169868Y-61727170D01*
X135150462Y-61736349D01*
X135130250Y-61743581D01*
X135109426Y-61748797D01*
X135088191Y-61751947D01*
X135066750Y-61753000D01*
X134554250Y-61753000D01*
X134532809Y-61751947D01*
X134511574Y-61748797D01*
X134490750Y-61743581D01*
X134470538Y-61736349D01*
X134451132Y-61727170D01*
X134432719Y-61716134D01*
X134415476Y-61703346D01*
X134399570Y-61688930D01*
X134385154Y-61673024D01*
X134372366Y-61655781D01*
X134361330Y-61637368D01*
X134352151Y-61617962D01*
X134344919Y-61597750D01*
X134339703Y-61576926D01*
X134336553Y-61555691D01*
X134335500Y-61534250D01*
X134335500Y-61096750D01*
X134336553Y-61075309D01*
X134339703Y-61054074D01*
X134344919Y-61033250D01*
X134352151Y-61013038D01*
X134361330Y-60993632D01*
X134372366Y-60975219D01*
X134385154Y-60957976D01*
X134399570Y-60942070D01*
X134415476Y-60927654D01*
X134432719Y-60914866D01*
X134451132Y-60903830D01*
X134470538Y-60894651D01*
X134490750Y-60887419D01*
X134511574Y-60882203D01*
X134532809Y-60879053D01*
X134554250Y-60878000D01*
X135066750Y-60878000D01*
X135088191Y-60879053D01*
G37*
G36*
X127150691Y-62454053D02*
G01*
X127171926Y-62457203D01*
X127192750Y-62462419D01*
X127212962Y-62469651D01*
X127232368Y-62478830D01*
X127250781Y-62489866D01*
X127268024Y-62502654D01*
X127283930Y-62517070D01*
X127298346Y-62532976D01*
X127311134Y-62550219D01*
X127322170Y-62568632D01*
X127331349Y-62588038D01*
X127338581Y-62608250D01*
X127343797Y-62629074D01*
X127346947Y-62650309D01*
X127348000Y-62671750D01*
X127348000Y-63109250D01*
X127346947Y-63130691D01*
X127343797Y-63151926D01*
X127338581Y-63172750D01*
X127331349Y-63192962D01*
X127322170Y-63212368D01*
X127311134Y-63230781D01*
X127298346Y-63248024D01*
X127283930Y-63263930D01*
X127268024Y-63278346D01*
X127250781Y-63291134D01*
X127232368Y-63302170D01*
X127212962Y-63311349D01*
X127192750Y-63318581D01*
X127171926Y-63323797D01*
X127150691Y-63326947D01*
X127129250Y-63328000D01*
X126616750Y-63328000D01*
X126595309Y-63326947D01*
X126574074Y-63323797D01*
X126553250Y-63318581D01*
X126533038Y-63311349D01*
X126513632Y-63302170D01*
X126495219Y-63291134D01*
X126477976Y-63278346D01*
X126462070Y-63263930D01*
X126447654Y-63248024D01*
X126434866Y-63230781D01*
X126423830Y-63212368D01*
X126414651Y-63192962D01*
X126407419Y-63172750D01*
X126402203Y-63151926D01*
X126399053Y-63130691D01*
X126398000Y-63109250D01*
X126398000Y-62671750D01*
X126399053Y-62650309D01*
X126402203Y-62629074D01*
X126407419Y-62608250D01*
X126414651Y-62588038D01*
X126423830Y-62568632D01*
X126434866Y-62550219D01*
X126447654Y-62532976D01*
X126462070Y-62517070D01*
X126477976Y-62502654D01*
X126495219Y-62489866D01*
X126513632Y-62478830D01*
X126533038Y-62469651D01*
X126553250Y-62462419D01*
X126574074Y-62457203D01*
X126595309Y-62454053D01*
X126616750Y-62453000D01*
X127129250Y-62453000D01*
X127150691Y-62454053D01*
G37*
G36*
X127150691Y-60879053D02*
G01*
X127171926Y-60882203D01*
X127192750Y-60887419D01*
X127212962Y-60894651D01*
X127232368Y-60903830D01*
X127250781Y-60914866D01*
X127268024Y-60927654D01*
X127283930Y-60942070D01*
X127298346Y-60957976D01*
X127311134Y-60975219D01*
X127322170Y-60993632D01*
X127331349Y-61013038D01*
X127338581Y-61033250D01*
X127343797Y-61054074D01*
X127346947Y-61075309D01*
X127348000Y-61096750D01*
X127348000Y-61534250D01*
X127346947Y-61555691D01*
X127343797Y-61576926D01*
X127338581Y-61597750D01*
X127331349Y-61617962D01*
X127322170Y-61637368D01*
X127311134Y-61655781D01*
X127298346Y-61673024D01*
X127283930Y-61688930D01*
X127268024Y-61703346D01*
X127250781Y-61716134D01*
X127232368Y-61727170D01*
X127212962Y-61736349D01*
X127192750Y-61743581D01*
X127171926Y-61748797D01*
X127150691Y-61751947D01*
X127129250Y-61753000D01*
X126616750Y-61753000D01*
X126595309Y-61751947D01*
X126574074Y-61748797D01*
X126553250Y-61743581D01*
X126533038Y-61736349D01*
X126513632Y-61727170D01*
X126495219Y-61716134D01*
X126477976Y-61703346D01*
X126462070Y-61688930D01*
X126447654Y-61673024D01*
X126434866Y-61655781D01*
X126423830Y-61637368D01*
X126414651Y-61617962D01*
X126407419Y-61597750D01*
X126402203Y-61576926D01*
X126399053Y-61555691D01*
X126398000Y-61534250D01*
X126398000Y-61096750D01*
X126399053Y-61075309D01*
X126402203Y-61054074D01*
X126407419Y-61033250D01*
X126414651Y-61013038D01*
X126423830Y-60993632D01*
X126434866Y-60975219D01*
X126447654Y-60957976D01*
X126462070Y-60942070D01*
X126477976Y-60927654D01*
X126495219Y-60914866D01*
X126513632Y-60903830D01*
X126533038Y-60894651D01*
X126553250Y-60887419D01*
X126574074Y-60882203D01*
X126595309Y-60879053D01*
X126616750Y-60878000D01*
X127129250Y-60878000D01*
X127150691Y-60879053D01*
G37*
G36*
X145121191Y-85568053D02*
G01*
X145142426Y-85571203D01*
X145163250Y-85576419D01*
X145183462Y-85583651D01*
X145202868Y-85592830D01*
X145221281Y-85603866D01*
X145238524Y-85616654D01*
X145254430Y-85631070D01*
X145268846Y-85646976D01*
X145281634Y-85664219D01*
X145292670Y-85682632D01*
X145301849Y-85702038D01*
X145309081Y-85722250D01*
X145314297Y-85743074D01*
X145317447Y-85764309D01*
X145318500Y-85785750D01*
X145318500Y-86223250D01*
X145317447Y-86244691D01*
X145314297Y-86265926D01*
X145309081Y-86286750D01*
X145301849Y-86306962D01*
X145292670Y-86326368D01*
X145281634Y-86344781D01*
X145268846Y-86362024D01*
X145254430Y-86377930D01*
X145238524Y-86392346D01*
X145221281Y-86405134D01*
X145202868Y-86416170D01*
X145183462Y-86425349D01*
X145163250Y-86432581D01*
X145142426Y-86437797D01*
X145121191Y-86440947D01*
X145099750Y-86442000D01*
X144587250Y-86442000D01*
X144565809Y-86440947D01*
X144544574Y-86437797D01*
X144523750Y-86432581D01*
X144503538Y-86425349D01*
X144484132Y-86416170D01*
X144465719Y-86405134D01*
X144448476Y-86392346D01*
X144432570Y-86377930D01*
X144418154Y-86362024D01*
X144405366Y-86344781D01*
X144394330Y-86326368D01*
X144385151Y-86306962D01*
X144377919Y-86286750D01*
X144372703Y-86265926D01*
X144369553Y-86244691D01*
X144368500Y-86223250D01*
X144368500Y-85785750D01*
X144369553Y-85764309D01*
X144372703Y-85743074D01*
X144377919Y-85722250D01*
X144385151Y-85702038D01*
X144394330Y-85682632D01*
X144405366Y-85664219D01*
X144418154Y-85646976D01*
X144432570Y-85631070D01*
X144448476Y-85616654D01*
X144465719Y-85603866D01*
X144484132Y-85592830D01*
X144503538Y-85583651D01*
X144523750Y-85576419D01*
X144544574Y-85571203D01*
X144565809Y-85568053D01*
X144587250Y-85567000D01*
X145099750Y-85567000D01*
X145121191Y-85568053D01*
G37*
G36*
X145121191Y-83993053D02*
G01*
X145142426Y-83996203D01*
X145163250Y-84001419D01*
X145183462Y-84008651D01*
X145202868Y-84017830D01*
X145221281Y-84028866D01*
X145238524Y-84041654D01*
X145254430Y-84056070D01*
X145268846Y-84071976D01*
X145281634Y-84089219D01*
X145292670Y-84107632D01*
X145301849Y-84127038D01*
X145309081Y-84147250D01*
X145314297Y-84168074D01*
X145317447Y-84189309D01*
X145318500Y-84210750D01*
X145318500Y-84648250D01*
X145317447Y-84669691D01*
X145314297Y-84690926D01*
X145309081Y-84711750D01*
X145301849Y-84731962D01*
X145292670Y-84751368D01*
X145281634Y-84769781D01*
X145268846Y-84787024D01*
X145254430Y-84802930D01*
X145238524Y-84817346D01*
X145221281Y-84830134D01*
X145202868Y-84841170D01*
X145183462Y-84850349D01*
X145163250Y-84857581D01*
X145142426Y-84862797D01*
X145121191Y-84865947D01*
X145099750Y-84867000D01*
X144587250Y-84867000D01*
X144565809Y-84865947D01*
X144544574Y-84862797D01*
X144523750Y-84857581D01*
X144503538Y-84850349D01*
X144484132Y-84841170D01*
X144465719Y-84830134D01*
X144448476Y-84817346D01*
X144432570Y-84802930D01*
X144418154Y-84787024D01*
X144405366Y-84769781D01*
X144394330Y-84751368D01*
X144385151Y-84731962D01*
X144377919Y-84711750D01*
X144372703Y-84690926D01*
X144369553Y-84669691D01*
X144368500Y-84648250D01*
X144368500Y-84210750D01*
X144369553Y-84189309D01*
X144372703Y-84168074D01*
X144377919Y-84147250D01*
X144385151Y-84127038D01*
X144394330Y-84107632D01*
X144405366Y-84089219D01*
X144418154Y-84071976D01*
X144432570Y-84056070D01*
X144448476Y-84041654D01*
X144465719Y-84028866D01*
X144484132Y-84017830D01*
X144503538Y-84008651D01*
X144523750Y-84001419D01*
X144544574Y-83996203D01*
X144565809Y-83993053D01*
X144587250Y-83992000D01*
X145099750Y-83992000D01*
X145121191Y-83993053D01*
G37*
G36*
X142569191Y-68360053D02*
G01*
X142590426Y-68363203D01*
X142611250Y-68368419D01*
X142631462Y-68375651D01*
X142650868Y-68384830D01*
X142669281Y-68395866D01*
X142686524Y-68408654D01*
X142702430Y-68423070D01*
X142716846Y-68438976D01*
X142729634Y-68456219D01*
X142740670Y-68474632D01*
X142749849Y-68494038D01*
X142757081Y-68514250D01*
X142762297Y-68535074D01*
X142765447Y-68556309D01*
X142766500Y-68577750D01*
X142766500Y-69090250D01*
X142765447Y-69111691D01*
X142762297Y-69132926D01*
X142757081Y-69153750D01*
X142749849Y-69173962D01*
X142740670Y-69193368D01*
X142729634Y-69211781D01*
X142716846Y-69229024D01*
X142702430Y-69244930D01*
X142686524Y-69259346D01*
X142669281Y-69272134D01*
X142650868Y-69283170D01*
X142631462Y-69292349D01*
X142611250Y-69299581D01*
X142590426Y-69304797D01*
X142569191Y-69307947D01*
X142547750Y-69309000D01*
X142110250Y-69309000D01*
X142088809Y-69307947D01*
X142067574Y-69304797D01*
X142046750Y-69299581D01*
X142026538Y-69292349D01*
X142007132Y-69283170D01*
X141988719Y-69272134D01*
X141971476Y-69259346D01*
X141955570Y-69244930D01*
X141941154Y-69229024D01*
X141928366Y-69211781D01*
X141917330Y-69193368D01*
X141908151Y-69173962D01*
X141900919Y-69153750D01*
X141895703Y-69132926D01*
X141892553Y-69111691D01*
X141891500Y-69090250D01*
X141891500Y-68577750D01*
X141892553Y-68556309D01*
X141895703Y-68535074D01*
X141900919Y-68514250D01*
X141908151Y-68494038D01*
X141917330Y-68474632D01*
X141928366Y-68456219D01*
X141941154Y-68438976D01*
X141955570Y-68423070D01*
X141971476Y-68408654D01*
X141988719Y-68395866D01*
X142007132Y-68384830D01*
X142026538Y-68375651D01*
X142046750Y-68368419D01*
X142067574Y-68363203D01*
X142088809Y-68360053D01*
X142110250Y-68359000D01*
X142547750Y-68359000D01*
X142569191Y-68360053D01*
G37*
G36*
X140994191Y-68360053D02*
G01*
X141015426Y-68363203D01*
X141036250Y-68368419D01*
X141056462Y-68375651D01*
X141075868Y-68384830D01*
X141094281Y-68395866D01*
X141111524Y-68408654D01*
X141127430Y-68423070D01*
X141141846Y-68438976D01*
X141154634Y-68456219D01*
X141165670Y-68474632D01*
X141174849Y-68494038D01*
X141182081Y-68514250D01*
X141187297Y-68535074D01*
X141190447Y-68556309D01*
X141191500Y-68577750D01*
X141191500Y-69090250D01*
X141190447Y-69111691D01*
X141187297Y-69132926D01*
X141182081Y-69153750D01*
X141174849Y-69173962D01*
X141165670Y-69193368D01*
X141154634Y-69211781D01*
X141141846Y-69229024D01*
X141127430Y-69244930D01*
X141111524Y-69259346D01*
X141094281Y-69272134D01*
X141075868Y-69283170D01*
X141056462Y-69292349D01*
X141036250Y-69299581D01*
X141015426Y-69304797D01*
X140994191Y-69307947D01*
X140972750Y-69309000D01*
X140535250Y-69309000D01*
X140513809Y-69307947D01*
X140492574Y-69304797D01*
X140471750Y-69299581D01*
X140451538Y-69292349D01*
X140432132Y-69283170D01*
X140413719Y-69272134D01*
X140396476Y-69259346D01*
X140380570Y-69244930D01*
X140366154Y-69229024D01*
X140353366Y-69211781D01*
X140342330Y-69193368D01*
X140333151Y-69173962D01*
X140325919Y-69153750D01*
X140320703Y-69132926D01*
X140317553Y-69111691D01*
X140316500Y-69090250D01*
X140316500Y-68577750D01*
X140317553Y-68556309D01*
X140320703Y-68535074D01*
X140325919Y-68514250D01*
X140333151Y-68494038D01*
X140342330Y-68474632D01*
X140353366Y-68456219D01*
X140366154Y-68438976D01*
X140380570Y-68423070D01*
X140396476Y-68408654D01*
X140413719Y-68395866D01*
X140432132Y-68384830D01*
X140451538Y-68375651D01*
X140471750Y-68368419D01*
X140492574Y-68363203D01*
X140513809Y-68360053D01*
X140535250Y-68359000D01*
X140972750Y-68359000D01*
X140994191Y-68360053D01*
G37*
G36*
X140994191Y-65185053D02*
G01*
X141015426Y-65188203D01*
X141036250Y-65193419D01*
X141056462Y-65200651D01*
X141075868Y-65209830D01*
X141094281Y-65220866D01*
X141111524Y-65233654D01*
X141127430Y-65248070D01*
X141141846Y-65263976D01*
X141154634Y-65281219D01*
X141165670Y-65299632D01*
X141174849Y-65319038D01*
X141182081Y-65339250D01*
X141187297Y-65360074D01*
X141190447Y-65381309D01*
X141191500Y-65402750D01*
X141191500Y-65915250D01*
X141190447Y-65936691D01*
X141187297Y-65957926D01*
X141182081Y-65978750D01*
X141174849Y-65998962D01*
X141165670Y-66018368D01*
X141154634Y-66036781D01*
X141141846Y-66054024D01*
X141127430Y-66069930D01*
X141111524Y-66084346D01*
X141094281Y-66097134D01*
X141075868Y-66108170D01*
X141056462Y-66117349D01*
X141036250Y-66124581D01*
X141015426Y-66129797D01*
X140994191Y-66132947D01*
X140972750Y-66134000D01*
X140535250Y-66134000D01*
X140513809Y-66132947D01*
X140492574Y-66129797D01*
X140471750Y-66124581D01*
X140451538Y-66117349D01*
X140432132Y-66108170D01*
X140413719Y-66097134D01*
X140396476Y-66084346D01*
X140380570Y-66069930D01*
X140366154Y-66054024D01*
X140353366Y-66036781D01*
X140342330Y-66018368D01*
X140333151Y-65998962D01*
X140325919Y-65978750D01*
X140320703Y-65957926D01*
X140317553Y-65936691D01*
X140316500Y-65915250D01*
X140316500Y-65402750D01*
X140317553Y-65381309D01*
X140320703Y-65360074D01*
X140325919Y-65339250D01*
X140333151Y-65319038D01*
X140342330Y-65299632D01*
X140353366Y-65281219D01*
X140366154Y-65263976D01*
X140380570Y-65248070D01*
X140396476Y-65233654D01*
X140413719Y-65220866D01*
X140432132Y-65209830D01*
X140451538Y-65200651D01*
X140471750Y-65193419D01*
X140492574Y-65188203D01*
X140513809Y-65185053D01*
X140535250Y-65184000D01*
X140972750Y-65184000D01*
X140994191Y-65185053D01*
G37*
G36*
X142569191Y-65185053D02*
G01*
X142590426Y-65188203D01*
X142611250Y-65193419D01*
X142631462Y-65200651D01*
X142650868Y-65209830D01*
X142669281Y-65220866D01*
X142686524Y-65233654D01*
X142702430Y-65248070D01*
X142716846Y-65263976D01*
X142729634Y-65281219D01*
X142740670Y-65299632D01*
X142749849Y-65319038D01*
X142757081Y-65339250D01*
X142762297Y-65360074D01*
X142765447Y-65381309D01*
X142766500Y-65402750D01*
X142766500Y-65915250D01*
X142765447Y-65936691D01*
X142762297Y-65957926D01*
X142757081Y-65978750D01*
X142749849Y-65998962D01*
X142740670Y-66018368D01*
X142729634Y-66036781D01*
X142716846Y-66054024D01*
X142702430Y-66069930D01*
X142686524Y-66084346D01*
X142669281Y-66097134D01*
X142650868Y-66108170D01*
X142631462Y-66117349D01*
X142611250Y-66124581D01*
X142590426Y-66129797D01*
X142569191Y-66132947D01*
X142547750Y-66134000D01*
X142110250Y-66134000D01*
X142088809Y-66132947D01*
X142067574Y-66129797D01*
X142046750Y-66124581D01*
X142026538Y-66117349D01*
X142007132Y-66108170D01*
X141988719Y-66097134D01*
X141971476Y-66084346D01*
X141955570Y-66069930D01*
X141941154Y-66054024D01*
X141928366Y-66036781D01*
X141917330Y-66018368D01*
X141908151Y-65998962D01*
X141900919Y-65978750D01*
X141895703Y-65957926D01*
X141892553Y-65936691D01*
X141891500Y-65915250D01*
X141891500Y-65402750D01*
X141892553Y-65381309D01*
X141895703Y-65360074D01*
X141900919Y-65339250D01*
X141908151Y-65319038D01*
X141917330Y-65299632D01*
X141928366Y-65281219D01*
X141941154Y-65263976D01*
X141955570Y-65248070D01*
X141971476Y-65233654D01*
X141988719Y-65220866D01*
X142007132Y-65209830D01*
X142026538Y-65200651D01*
X142046750Y-65193419D01*
X142067574Y-65188203D01*
X142088809Y-65185053D01*
X142110250Y-65184000D01*
X142547750Y-65184000D01*
X142569191Y-65185053D01*
G37*
G36*
X149233329Y-80776023D02*
G01*
X149253957Y-80779083D01*
X149274185Y-80784150D01*
X149293820Y-80791176D01*
X149312672Y-80800092D01*
X149330559Y-80810813D01*
X149347309Y-80823235D01*
X149362760Y-80837240D01*
X149376765Y-80852691D01*
X149389187Y-80869441D01*
X149399908Y-80887328D01*
X149408824Y-80906180D01*
X149415850Y-80925815D01*
X149420917Y-80946043D01*
X149423977Y-80966671D01*
X149425000Y-80987500D01*
X149425000Y-81412500D01*
X149423977Y-81433329D01*
X149420917Y-81453957D01*
X149415850Y-81474185D01*
X149408824Y-81493820D01*
X149399908Y-81512672D01*
X149389187Y-81530559D01*
X149376765Y-81547309D01*
X149362760Y-81562760D01*
X149347309Y-81576765D01*
X149330559Y-81589187D01*
X149312672Y-81599908D01*
X149293820Y-81608824D01*
X149274185Y-81615850D01*
X149253957Y-81620917D01*
X149233329Y-81623977D01*
X149212500Y-81625000D01*
X148412500Y-81625000D01*
X148391671Y-81623977D01*
X148371043Y-81620917D01*
X148350815Y-81615850D01*
X148331180Y-81608824D01*
X148312328Y-81599908D01*
X148294441Y-81589187D01*
X148277691Y-81576765D01*
X148262240Y-81562760D01*
X148248235Y-81547309D01*
X148235813Y-81530559D01*
X148225092Y-81512672D01*
X148216176Y-81493820D01*
X148209150Y-81474185D01*
X148204083Y-81453957D01*
X148201023Y-81433329D01*
X148200000Y-81412500D01*
X148200000Y-80987500D01*
X148201023Y-80966671D01*
X148204083Y-80946043D01*
X148209150Y-80925815D01*
X148216176Y-80906180D01*
X148225092Y-80887328D01*
X148235813Y-80869441D01*
X148248235Y-80852691D01*
X148262240Y-80837240D01*
X148277691Y-80823235D01*
X148294441Y-80810813D01*
X148312328Y-80800092D01*
X148331180Y-80791176D01*
X148350815Y-80784150D01*
X148371043Y-80779083D01*
X148391671Y-80776023D01*
X148412500Y-80775000D01*
X149212500Y-80775000D01*
X149233329Y-80776023D01*
G37*
G36*
X147608329Y-80776023D02*
G01*
X147628957Y-80779083D01*
X147649185Y-80784150D01*
X147668820Y-80791176D01*
X147687672Y-80800092D01*
X147705559Y-80810813D01*
X147722309Y-80823235D01*
X147737760Y-80837240D01*
X147751765Y-80852691D01*
X147764187Y-80869441D01*
X147774908Y-80887328D01*
X147783824Y-80906180D01*
X147790850Y-80925815D01*
X147795917Y-80946043D01*
X147798977Y-80966671D01*
X147800000Y-80987500D01*
X147800000Y-81412500D01*
X147798977Y-81433329D01*
X147795917Y-81453957D01*
X147790850Y-81474185D01*
X147783824Y-81493820D01*
X147774908Y-81512672D01*
X147764187Y-81530559D01*
X147751765Y-81547309D01*
X147737760Y-81562760D01*
X147722309Y-81576765D01*
X147705559Y-81589187D01*
X147687672Y-81599908D01*
X147668820Y-81608824D01*
X147649185Y-81615850D01*
X147628957Y-81620917D01*
X147608329Y-81623977D01*
X147587500Y-81625000D01*
X146787500Y-81625000D01*
X146766671Y-81623977D01*
X146746043Y-81620917D01*
X146725815Y-81615850D01*
X146706180Y-81608824D01*
X146687328Y-81599908D01*
X146669441Y-81589187D01*
X146652691Y-81576765D01*
X146637240Y-81562760D01*
X146623235Y-81547309D01*
X146610813Y-81530559D01*
X146600092Y-81512672D01*
X146591176Y-81493820D01*
X146584150Y-81474185D01*
X146579083Y-81453957D01*
X146576023Y-81433329D01*
X146575000Y-81412500D01*
X146575000Y-80987500D01*
X146576023Y-80966671D01*
X146579083Y-80946043D01*
X146584150Y-80925815D01*
X146591176Y-80906180D01*
X146600092Y-80887328D01*
X146610813Y-80869441D01*
X146623235Y-80852691D01*
X146637240Y-80837240D01*
X146652691Y-80823235D01*
X146669441Y-80810813D01*
X146687328Y-80800092D01*
X146706180Y-80791176D01*
X146725815Y-80784150D01*
X146746043Y-80779083D01*
X146766671Y-80776023D01*
X146787500Y-80775000D01*
X147587500Y-80775000D01*
X147608329Y-80776023D01*
G37*
G36*
X149233329Y-82576023D02*
G01*
X149253957Y-82579083D01*
X149274185Y-82584150D01*
X149293820Y-82591176D01*
X149312672Y-82600092D01*
X149330559Y-82610813D01*
X149347309Y-82623235D01*
X149362760Y-82637240D01*
X149376765Y-82652691D01*
X149389187Y-82669441D01*
X149399908Y-82687328D01*
X149408824Y-82706180D01*
X149415850Y-82725815D01*
X149420917Y-82746043D01*
X149423977Y-82766671D01*
X149425000Y-82787500D01*
X149425000Y-83212500D01*
X149423977Y-83233329D01*
X149420917Y-83253957D01*
X149415850Y-83274185D01*
X149408824Y-83293820D01*
X149399908Y-83312672D01*
X149389187Y-83330559D01*
X149376765Y-83347309D01*
X149362760Y-83362760D01*
X149347309Y-83376765D01*
X149330559Y-83389187D01*
X149312672Y-83399908D01*
X149293820Y-83408824D01*
X149274185Y-83415850D01*
X149253957Y-83420917D01*
X149233329Y-83423977D01*
X149212500Y-83425000D01*
X148412500Y-83425000D01*
X148391671Y-83423977D01*
X148371043Y-83420917D01*
X148350815Y-83415850D01*
X148331180Y-83408824D01*
X148312328Y-83399908D01*
X148294441Y-83389187D01*
X148277691Y-83376765D01*
X148262240Y-83362760D01*
X148248235Y-83347309D01*
X148235813Y-83330559D01*
X148225092Y-83312672D01*
X148216176Y-83293820D01*
X148209150Y-83274185D01*
X148204083Y-83253957D01*
X148201023Y-83233329D01*
X148200000Y-83212500D01*
X148200000Y-82787500D01*
X148201023Y-82766671D01*
X148204083Y-82746043D01*
X148209150Y-82725815D01*
X148216176Y-82706180D01*
X148225092Y-82687328D01*
X148235813Y-82669441D01*
X148248235Y-82652691D01*
X148262240Y-82637240D01*
X148277691Y-82623235D01*
X148294441Y-82610813D01*
X148312328Y-82600092D01*
X148331180Y-82591176D01*
X148350815Y-82584150D01*
X148371043Y-82579083D01*
X148391671Y-82576023D01*
X148412500Y-82575000D01*
X149212500Y-82575000D01*
X149233329Y-82576023D01*
G37*
G36*
X147608329Y-82576023D02*
G01*
X147628957Y-82579083D01*
X147649185Y-82584150D01*
X147668820Y-82591176D01*
X147687672Y-82600092D01*
X147705559Y-82610813D01*
X147722309Y-82623235D01*
X147737760Y-82637240D01*
X147751765Y-82652691D01*
X147764187Y-82669441D01*
X147774908Y-82687328D01*
X147783824Y-82706180D01*
X147790850Y-82725815D01*
X147795917Y-82746043D01*
X147798977Y-82766671D01*
X147800000Y-82787500D01*
X147800000Y-83212500D01*
X147798977Y-83233329D01*
X147795917Y-83253957D01*
X147790850Y-83274185D01*
X147783824Y-83293820D01*
X147774908Y-83312672D01*
X147764187Y-83330559D01*
X147751765Y-83347309D01*
X147737760Y-83362760D01*
X147722309Y-83376765D01*
X147705559Y-83389187D01*
X147687672Y-83399908D01*
X147668820Y-83408824D01*
X147649185Y-83415850D01*
X147628957Y-83420917D01*
X147608329Y-83423977D01*
X147587500Y-83425000D01*
X146787500Y-83425000D01*
X146766671Y-83423977D01*
X146746043Y-83420917D01*
X146725815Y-83415850D01*
X146706180Y-83408824D01*
X146687328Y-83399908D01*
X146669441Y-83389187D01*
X146652691Y-83376765D01*
X146637240Y-83362760D01*
X146623235Y-83347309D01*
X146610813Y-83330559D01*
X146600092Y-83312672D01*
X146591176Y-83293820D01*
X146584150Y-83274185D01*
X146579083Y-83253957D01*
X146576023Y-83233329D01*
X146575000Y-83212500D01*
X146575000Y-82787500D01*
X146576023Y-82766671D01*
X146579083Y-82746043D01*
X146584150Y-82725815D01*
X146591176Y-82706180D01*
X146600092Y-82687328D01*
X146610813Y-82669441D01*
X146623235Y-82652691D01*
X146637240Y-82637240D01*
X146652691Y-82623235D01*
X146669441Y-82610813D01*
X146687328Y-82600092D01*
X146706180Y-82591176D01*
X146725815Y-82584150D01*
X146746043Y-82579083D01*
X146766671Y-82576023D01*
X146787500Y-82575000D01*
X147587500Y-82575000D01*
X147608329Y-82576023D01*
G37*
G36*
X147452691Y-84226053D02*
G01*
X147473926Y-84229203D01*
X147494750Y-84234419D01*
X147514962Y-84241651D01*
X147534368Y-84250830D01*
X147552781Y-84261866D01*
X147570024Y-84274654D01*
X147585930Y-84289070D01*
X147600346Y-84304976D01*
X147613134Y-84322219D01*
X147624170Y-84340632D01*
X147633349Y-84360038D01*
X147640581Y-84380250D01*
X147645797Y-84401074D01*
X147648947Y-84422309D01*
X147650000Y-84443750D01*
X147650000Y-84956250D01*
X147648947Y-84977691D01*
X147645797Y-84998926D01*
X147640581Y-85019750D01*
X147633349Y-85039962D01*
X147624170Y-85059368D01*
X147613134Y-85077781D01*
X147600346Y-85095024D01*
X147585930Y-85110930D01*
X147570024Y-85125346D01*
X147552781Y-85138134D01*
X147534368Y-85149170D01*
X147514962Y-85158349D01*
X147494750Y-85165581D01*
X147473926Y-85170797D01*
X147452691Y-85173947D01*
X147431250Y-85175000D01*
X146993750Y-85175000D01*
X146972309Y-85173947D01*
X146951074Y-85170797D01*
X146930250Y-85165581D01*
X146910038Y-85158349D01*
X146890632Y-85149170D01*
X146872219Y-85138134D01*
X146854976Y-85125346D01*
X146839070Y-85110930D01*
X146824654Y-85095024D01*
X146811866Y-85077781D01*
X146800830Y-85059368D01*
X146791651Y-85039962D01*
X146784419Y-85019750D01*
X146779203Y-84998926D01*
X146776053Y-84977691D01*
X146775000Y-84956250D01*
X146775000Y-84443750D01*
X146776053Y-84422309D01*
X146779203Y-84401074D01*
X146784419Y-84380250D01*
X146791651Y-84360038D01*
X146800830Y-84340632D01*
X146811866Y-84322219D01*
X146824654Y-84304976D01*
X146839070Y-84289070D01*
X146854976Y-84274654D01*
X146872219Y-84261866D01*
X146890632Y-84250830D01*
X146910038Y-84241651D01*
X146930250Y-84234419D01*
X146951074Y-84229203D01*
X146972309Y-84226053D01*
X146993750Y-84225000D01*
X147431250Y-84225000D01*
X147452691Y-84226053D01*
G37*
G36*
X149027691Y-84226053D02*
G01*
X149048926Y-84229203D01*
X149069750Y-84234419D01*
X149089962Y-84241651D01*
X149109368Y-84250830D01*
X149127781Y-84261866D01*
X149145024Y-84274654D01*
X149160930Y-84289070D01*
X149175346Y-84304976D01*
X149188134Y-84322219D01*
X149199170Y-84340632D01*
X149208349Y-84360038D01*
X149215581Y-84380250D01*
X149220797Y-84401074D01*
X149223947Y-84422309D01*
X149225000Y-84443750D01*
X149225000Y-84956250D01*
X149223947Y-84977691D01*
X149220797Y-84998926D01*
X149215581Y-85019750D01*
X149208349Y-85039962D01*
X149199170Y-85059368D01*
X149188134Y-85077781D01*
X149175346Y-85095024D01*
X149160930Y-85110930D01*
X149145024Y-85125346D01*
X149127781Y-85138134D01*
X149109368Y-85149170D01*
X149089962Y-85158349D01*
X149069750Y-85165581D01*
X149048926Y-85170797D01*
X149027691Y-85173947D01*
X149006250Y-85175000D01*
X148568750Y-85175000D01*
X148547309Y-85173947D01*
X148526074Y-85170797D01*
X148505250Y-85165581D01*
X148485038Y-85158349D01*
X148465632Y-85149170D01*
X148447219Y-85138134D01*
X148429976Y-85125346D01*
X148414070Y-85110930D01*
X148399654Y-85095024D01*
X148386866Y-85077781D01*
X148375830Y-85059368D01*
X148366651Y-85039962D01*
X148359419Y-85019750D01*
X148354203Y-84998926D01*
X148351053Y-84977691D01*
X148350000Y-84956250D01*
X148350000Y-84443750D01*
X148351053Y-84422309D01*
X148354203Y-84401074D01*
X148359419Y-84380250D01*
X148366651Y-84360038D01*
X148375830Y-84340632D01*
X148386866Y-84322219D01*
X148399654Y-84304976D01*
X148414070Y-84289070D01*
X148429976Y-84274654D01*
X148447219Y-84261866D01*
X148465632Y-84250830D01*
X148485038Y-84241651D01*
X148505250Y-84234419D01*
X148526074Y-84229203D01*
X148547309Y-84226053D01*
X148568750Y-84225000D01*
X149006250Y-84225000D01*
X149027691Y-84226053D01*
G37*
G36*
X143278191Y-77262553D02*
G01*
X143299426Y-77265703D01*
X143320250Y-77270919D01*
X143340462Y-77278151D01*
X143359868Y-77287330D01*
X143378281Y-77298366D01*
X143395524Y-77311154D01*
X143411430Y-77325570D01*
X143425846Y-77341476D01*
X143438634Y-77358719D01*
X143449670Y-77377132D01*
X143458849Y-77396538D01*
X143466081Y-77416750D01*
X143471297Y-77437574D01*
X143474447Y-77458809D01*
X143475500Y-77480250D01*
X143475500Y-77992750D01*
X143474447Y-78014191D01*
X143471297Y-78035426D01*
X143466081Y-78056250D01*
X143458849Y-78076462D01*
X143449670Y-78095868D01*
X143438634Y-78114281D01*
X143425846Y-78131524D01*
X143411430Y-78147430D01*
X143395524Y-78161846D01*
X143378281Y-78174634D01*
X143359868Y-78185670D01*
X143340462Y-78194849D01*
X143320250Y-78202081D01*
X143299426Y-78207297D01*
X143278191Y-78210447D01*
X143256750Y-78211500D01*
X142819250Y-78211500D01*
X142797809Y-78210447D01*
X142776574Y-78207297D01*
X142755750Y-78202081D01*
X142735538Y-78194849D01*
X142716132Y-78185670D01*
X142697719Y-78174634D01*
X142680476Y-78161846D01*
X142664570Y-78147430D01*
X142650154Y-78131524D01*
X142637366Y-78114281D01*
X142626330Y-78095868D01*
X142617151Y-78076462D01*
X142609919Y-78056250D01*
X142604703Y-78035426D01*
X142601553Y-78014191D01*
X142600500Y-77992750D01*
X142600500Y-77480250D01*
X142601553Y-77458809D01*
X142604703Y-77437574D01*
X142609919Y-77416750D01*
X142617151Y-77396538D01*
X142626330Y-77377132D01*
X142637366Y-77358719D01*
X142650154Y-77341476D01*
X142664570Y-77325570D01*
X142680476Y-77311154D01*
X142697719Y-77298366D01*
X142716132Y-77287330D01*
X142735538Y-77278151D01*
X142755750Y-77270919D01*
X142776574Y-77265703D01*
X142797809Y-77262553D01*
X142819250Y-77261500D01*
X143256750Y-77261500D01*
X143278191Y-77262553D01*
G37*
G36*
X144853191Y-77262553D02*
G01*
X144874426Y-77265703D01*
X144895250Y-77270919D01*
X144915462Y-77278151D01*
X144934868Y-77287330D01*
X144953281Y-77298366D01*
X144970524Y-77311154D01*
X144986430Y-77325570D01*
X145000846Y-77341476D01*
X145013634Y-77358719D01*
X145024670Y-77377132D01*
X145033849Y-77396538D01*
X145041081Y-77416750D01*
X145046297Y-77437574D01*
X145049447Y-77458809D01*
X145050500Y-77480250D01*
X145050500Y-77992750D01*
X145049447Y-78014191D01*
X145046297Y-78035426D01*
X145041081Y-78056250D01*
X145033849Y-78076462D01*
X145024670Y-78095868D01*
X145013634Y-78114281D01*
X145000846Y-78131524D01*
X144986430Y-78147430D01*
X144970524Y-78161846D01*
X144953281Y-78174634D01*
X144934868Y-78185670D01*
X144915462Y-78194849D01*
X144895250Y-78202081D01*
X144874426Y-78207297D01*
X144853191Y-78210447D01*
X144831750Y-78211500D01*
X144394250Y-78211500D01*
X144372809Y-78210447D01*
X144351574Y-78207297D01*
X144330750Y-78202081D01*
X144310538Y-78194849D01*
X144291132Y-78185670D01*
X144272719Y-78174634D01*
X144255476Y-78161846D01*
X144239570Y-78147430D01*
X144225154Y-78131524D01*
X144212366Y-78114281D01*
X144201330Y-78095868D01*
X144192151Y-78076462D01*
X144184919Y-78056250D01*
X144179703Y-78035426D01*
X144176553Y-78014191D01*
X144175500Y-77992750D01*
X144175500Y-77480250D01*
X144176553Y-77458809D01*
X144179703Y-77437574D01*
X144184919Y-77416750D01*
X144192151Y-77396538D01*
X144201330Y-77377132D01*
X144212366Y-77358719D01*
X144225154Y-77341476D01*
X144239570Y-77325570D01*
X144255476Y-77311154D01*
X144272719Y-77298366D01*
X144291132Y-77287330D01*
X144310538Y-77278151D01*
X144330750Y-77270919D01*
X144351574Y-77265703D01*
X144372809Y-77262553D01*
X144394250Y-77261500D01*
X144831750Y-77261500D01*
X144853191Y-77262553D01*
G37*
G36*
X131913191Y-62454053D02*
G01*
X131934426Y-62457203D01*
X131955250Y-62462419D01*
X131975462Y-62469651D01*
X131994868Y-62478830D01*
X132013281Y-62489866D01*
X132030524Y-62502654D01*
X132046430Y-62517070D01*
X132060846Y-62532976D01*
X132073634Y-62550219D01*
X132084670Y-62568632D01*
X132093849Y-62588038D01*
X132101081Y-62608250D01*
X132106297Y-62629074D01*
X132109447Y-62650309D01*
X132110500Y-62671750D01*
X132110500Y-63109250D01*
X132109447Y-63130691D01*
X132106297Y-63151926D01*
X132101081Y-63172750D01*
X132093849Y-63192962D01*
X132084670Y-63212368D01*
X132073634Y-63230781D01*
X132060846Y-63248024D01*
X132046430Y-63263930D01*
X132030524Y-63278346D01*
X132013281Y-63291134D01*
X131994868Y-63302170D01*
X131975462Y-63311349D01*
X131955250Y-63318581D01*
X131934426Y-63323797D01*
X131913191Y-63326947D01*
X131891750Y-63328000D01*
X131379250Y-63328000D01*
X131357809Y-63326947D01*
X131336574Y-63323797D01*
X131315750Y-63318581D01*
X131295538Y-63311349D01*
X131276132Y-63302170D01*
X131257719Y-63291134D01*
X131240476Y-63278346D01*
X131224570Y-63263930D01*
X131210154Y-63248024D01*
X131197366Y-63230781D01*
X131186330Y-63212368D01*
X131177151Y-63192962D01*
X131169919Y-63172750D01*
X131164703Y-63151926D01*
X131161553Y-63130691D01*
X131160500Y-63109250D01*
X131160500Y-62671750D01*
X131161553Y-62650309D01*
X131164703Y-62629074D01*
X131169919Y-62608250D01*
X131177151Y-62588038D01*
X131186330Y-62568632D01*
X131197366Y-62550219D01*
X131210154Y-62532976D01*
X131224570Y-62517070D01*
X131240476Y-62502654D01*
X131257719Y-62489866D01*
X131276132Y-62478830D01*
X131295538Y-62469651D01*
X131315750Y-62462419D01*
X131336574Y-62457203D01*
X131357809Y-62454053D01*
X131379250Y-62453000D01*
X131891750Y-62453000D01*
X131913191Y-62454053D01*
G37*
G36*
X131913191Y-60879053D02*
G01*
X131934426Y-60882203D01*
X131955250Y-60887419D01*
X131975462Y-60894651D01*
X131994868Y-60903830D01*
X132013281Y-60914866D01*
X132030524Y-60927654D01*
X132046430Y-60942070D01*
X132060846Y-60957976D01*
X132073634Y-60975219D01*
X132084670Y-60993632D01*
X132093849Y-61013038D01*
X132101081Y-61033250D01*
X132106297Y-61054074D01*
X132109447Y-61075309D01*
X132110500Y-61096750D01*
X132110500Y-61534250D01*
X132109447Y-61555691D01*
X132106297Y-61576926D01*
X132101081Y-61597750D01*
X132093849Y-61617962D01*
X132084670Y-61637368D01*
X132073634Y-61655781D01*
X132060846Y-61673024D01*
X132046430Y-61688930D01*
X132030524Y-61703346D01*
X132013281Y-61716134D01*
X131994868Y-61727170D01*
X131975462Y-61736349D01*
X131955250Y-61743581D01*
X131934426Y-61748797D01*
X131913191Y-61751947D01*
X131891750Y-61753000D01*
X131379250Y-61753000D01*
X131357809Y-61751947D01*
X131336574Y-61748797D01*
X131315750Y-61743581D01*
X131295538Y-61736349D01*
X131276132Y-61727170D01*
X131257719Y-61716134D01*
X131240476Y-61703346D01*
X131224570Y-61688930D01*
X131210154Y-61673024D01*
X131197366Y-61655781D01*
X131186330Y-61637368D01*
X131177151Y-61617962D01*
X131169919Y-61597750D01*
X131164703Y-61576926D01*
X131161553Y-61555691D01*
X131160500Y-61534250D01*
X131160500Y-61096750D01*
X131161553Y-61075309D01*
X131164703Y-61054074D01*
X131169919Y-61033250D01*
X131177151Y-61013038D01*
X131186330Y-60993632D01*
X131197366Y-60975219D01*
X131210154Y-60957976D01*
X131224570Y-60942070D01*
X131240476Y-60927654D01*
X131257719Y-60914866D01*
X131276132Y-60903830D01*
X131295538Y-60894651D01*
X131315750Y-60887419D01*
X131336574Y-60882203D01*
X131357809Y-60879053D01*
X131379250Y-60878000D01*
X131891750Y-60878000D01*
X131913191Y-60879053D01*
G37*
G36*
X133500691Y-62454053D02*
G01*
X133521926Y-62457203D01*
X133542750Y-62462419D01*
X133562962Y-62469651D01*
X133582368Y-62478830D01*
X133600781Y-62489866D01*
X133618024Y-62502654D01*
X133633930Y-62517070D01*
X133648346Y-62532976D01*
X133661134Y-62550219D01*
X133672170Y-62568632D01*
X133681349Y-62588038D01*
X133688581Y-62608250D01*
X133693797Y-62629074D01*
X133696947Y-62650309D01*
X133698000Y-62671750D01*
X133698000Y-63109250D01*
X133696947Y-63130691D01*
X133693797Y-63151926D01*
X133688581Y-63172750D01*
X133681349Y-63192962D01*
X133672170Y-63212368D01*
X133661134Y-63230781D01*
X133648346Y-63248024D01*
X133633930Y-63263930D01*
X133618024Y-63278346D01*
X133600781Y-63291134D01*
X133582368Y-63302170D01*
X133562962Y-63311349D01*
X133542750Y-63318581D01*
X133521926Y-63323797D01*
X133500691Y-63326947D01*
X133479250Y-63328000D01*
X132966750Y-63328000D01*
X132945309Y-63326947D01*
X132924074Y-63323797D01*
X132903250Y-63318581D01*
X132883038Y-63311349D01*
X132863632Y-63302170D01*
X132845219Y-63291134D01*
X132827976Y-63278346D01*
X132812070Y-63263930D01*
X132797654Y-63248024D01*
X132784866Y-63230781D01*
X132773830Y-63212368D01*
X132764651Y-63192962D01*
X132757419Y-63172750D01*
X132752203Y-63151926D01*
X132749053Y-63130691D01*
X132748000Y-63109250D01*
X132748000Y-62671750D01*
X132749053Y-62650309D01*
X132752203Y-62629074D01*
X132757419Y-62608250D01*
X132764651Y-62588038D01*
X132773830Y-62568632D01*
X132784866Y-62550219D01*
X132797654Y-62532976D01*
X132812070Y-62517070D01*
X132827976Y-62502654D01*
X132845219Y-62489866D01*
X132863632Y-62478830D01*
X132883038Y-62469651D01*
X132903250Y-62462419D01*
X132924074Y-62457203D01*
X132945309Y-62454053D01*
X132966750Y-62453000D01*
X133479250Y-62453000D01*
X133500691Y-62454053D01*
G37*
G36*
X133500691Y-60879053D02*
G01*
X133521926Y-60882203D01*
X133542750Y-60887419D01*
X133562962Y-60894651D01*
X133582368Y-60903830D01*
X133600781Y-60914866D01*
X133618024Y-60927654D01*
X133633930Y-60942070D01*
X133648346Y-60957976D01*
X133661134Y-60975219D01*
X133672170Y-60993632D01*
X133681349Y-61013038D01*
X133688581Y-61033250D01*
X133693797Y-61054074D01*
X133696947Y-61075309D01*
X133698000Y-61096750D01*
X133698000Y-61534250D01*
X133696947Y-61555691D01*
X133693797Y-61576926D01*
X133688581Y-61597750D01*
X133681349Y-61617962D01*
X133672170Y-61637368D01*
X133661134Y-61655781D01*
X133648346Y-61673024D01*
X133633930Y-61688930D01*
X133618024Y-61703346D01*
X133600781Y-61716134D01*
X133582368Y-61727170D01*
X133562962Y-61736349D01*
X133542750Y-61743581D01*
X133521926Y-61748797D01*
X133500691Y-61751947D01*
X133479250Y-61753000D01*
X132966750Y-61753000D01*
X132945309Y-61751947D01*
X132924074Y-61748797D01*
X132903250Y-61743581D01*
X132883038Y-61736349D01*
X132863632Y-61727170D01*
X132845219Y-61716134D01*
X132827976Y-61703346D01*
X132812070Y-61688930D01*
X132797654Y-61673024D01*
X132784866Y-61655781D01*
X132773830Y-61637368D01*
X132764651Y-61617962D01*
X132757419Y-61597750D01*
X132752203Y-61576926D01*
X132749053Y-61555691D01*
X132748000Y-61534250D01*
X132748000Y-61096750D01*
X132749053Y-61075309D01*
X132752203Y-61054074D01*
X132757419Y-61033250D01*
X132764651Y-61013038D01*
X132773830Y-60993632D01*
X132784866Y-60975219D01*
X132797654Y-60957976D01*
X132812070Y-60942070D01*
X132827976Y-60927654D01*
X132845219Y-60914866D01*
X132863632Y-60903830D01*
X132883038Y-60894651D01*
X132903250Y-60887419D01*
X132924074Y-60882203D01*
X132945309Y-60879053D01*
X132966750Y-60878000D01*
X133479250Y-60878000D01*
X133500691Y-60879053D01*
G37*
G36*
X128738191Y-62454053D02*
G01*
X128759426Y-62457203D01*
X128780250Y-62462419D01*
X128800462Y-62469651D01*
X128819868Y-62478830D01*
X128838281Y-62489866D01*
X128855524Y-62502654D01*
X128871430Y-62517070D01*
X128885846Y-62532976D01*
X128898634Y-62550219D01*
X128909670Y-62568632D01*
X128918849Y-62588038D01*
X128926081Y-62608250D01*
X128931297Y-62629074D01*
X128934447Y-62650309D01*
X128935500Y-62671750D01*
X128935500Y-63109250D01*
X128934447Y-63130691D01*
X128931297Y-63151926D01*
X128926081Y-63172750D01*
X128918849Y-63192962D01*
X128909670Y-63212368D01*
X128898634Y-63230781D01*
X128885846Y-63248024D01*
X128871430Y-63263930D01*
X128855524Y-63278346D01*
X128838281Y-63291134D01*
X128819868Y-63302170D01*
X128800462Y-63311349D01*
X128780250Y-63318581D01*
X128759426Y-63323797D01*
X128738191Y-63326947D01*
X128716750Y-63328000D01*
X128204250Y-63328000D01*
X128182809Y-63326947D01*
X128161574Y-63323797D01*
X128140750Y-63318581D01*
X128120538Y-63311349D01*
X128101132Y-63302170D01*
X128082719Y-63291134D01*
X128065476Y-63278346D01*
X128049570Y-63263930D01*
X128035154Y-63248024D01*
X128022366Y-63230781D01*
X128011330Y-63212368D01*
X128002151Y-63192962D01*
X127994919Y-63172750D01*
X127989703Y-63151926D01*
X127986553Y-63130691D01*
X127985500Y-63109250D01*
X127985500Y-62671750D01*
X127986553Y-62650309D01*
X127989703Y-62629074D01*
X127994919Y-62608250D01*
X128002151Y-62588038D01*
X128011330Y-62568632D01*
X128022366Y-62550219D01*
X128035154Y-62532976D01*
X128049570Y-62517070D01*
X128065476Y-62502654D01*
X128082719Y-62489866D01*
X128101132Y-62478830D01*
X128120538Y-62469651D01*
X128140750Y-62462419D01*
X128161574Y-62457203D01*
X128182809Y-62454053D01*
X128204250Y-62453000D01*
X128716750Y-62453000D01*
X128738191Y-62454053D01*
G37*
G36*
X128738191Y-60879053D02*
G01*
X128759426Y-60882203D01*
X128780250Y-60887419D01*
X128800462Y-60894651D01*
X128819868Y-60903830D01*
X128838281Y-60914866D01*
X128855524Y-60927654D01*
X128871430Y-60942070D01*
X128885846Y-60957976D01*
X128898634Y-60975219D01*
X128909670Y-60993632D01*
X128918849Y-61013038D01*
X128926081Y-61033250D01*
X128931297Y-61054074D01*
X128934447Y-61075309D01*
X128935500Y-61096750D01*
X128935500Y-61534250D01*
X128934447Y-61555691D01*
X128931297Y-61576926D01*
X128926081Y-61597750D01*
X128918849Y-61617962D01*
X128909670Y-61637368D01*
X128898634Y-61655781D01*
X128885846Y-61673024D01*
X128871430Y-61688930D01*
X128855524Y-61703346D01*
X128838281Y-61716134D01*
X128819868Y-61727170D01*
X128800462Y-61736349D01*
X128780250Y-61743581D01*
X128759426Y-61748797D01*
X128738191Y-61751947D01*
X128716750Y-61753000D01*
X128204250Y-61753000D01*
X128182809Y-61751947D01*
X128161574Y-61748797D01*
X128140750Y-61743581D01*
X128120538Y-61736349D01*
X128101132Y-61727170D01*
X128082719Y-61716134D01*
X128065476Y-61703346D01*
X128049570Y-61688930D01*
X128035154Y-61673024D01*
X128022366Y-61655781D01*
X128011330Y-61637368D01*
X128002151Y-61617962D01*
X127994919Y-61597750D01*
X127989703Y-61576926D01*
X127986553Y-61555691D01*
X127985500Y-61534250D01*
X127985500Y-61096750D01*
X127986553Y-61075309D01*
X127989703Y-61054074D01*
X127994919Y-61033250D01*
X128002151Y-61013038D01*
X128011330Y-60993632D01*
X128022366Y-60975219D01*
X128035154Y-60957976D01*
X128049570Y-60942070D01*
X128065476Y-60927654D01*
X128082719Y-60914866D01*
X128101132Y-60903830D01*
X128120538Y-60894651D01*
X128140750Y-60887419D01*
X128161574Y-60882203D01*
X128182809Y-60879053D01*
X128204250Y-60878000D01*
X128716750Y-60878000D01*
X128738191Y-60879053D01*
G37*
G36*
X130325691Y-62454053D02*
G01*
X130346926Y-62457203D01*
X130367750Y-62462419D01*
X130387962Y-62469651D01*
X130407368Y-62478830D01*
X130425781Y-62489866D01*
X130443024Y-62502654D01*
X130458930Y-62517070D01*
X130473346Y-62532976D01*
X130486134Y-62550219D01*
X130497170Y-62568632D01*
X130506349Y-62588038D01*
X130513581Y-62608250D01*
X130518797Y-62629074D01*
X130521947Y-62650309D01*
X130523000Y-62671750D01*
X130523000Y-63109250D01*
X130521947Y-63130691D01*
X130518797Y-63151926D01*
X130513581Y-63172750D01*
X130506349Y-63192962D01*
X130497170Y-63212368D01*
X130486134Y-63230781D01*
X130473346Y-63248024D01*
X130458930Y-63263930D01*
X130443024Y-63278346D01*
X130425781Y-63291134D01*
X130407368Y-63302170D01*
X130387962Y-63311349D01*
X130367750Y-63318581D01*
X130346926Y-63323797D01*
X130325691Y-63326947D01*
X130304250Y-63328000D01*
X129791750Y-63328000D01*
X129770309Y-63326947D01*
X129749074Y-63323797D01*
X129728250Y-63318581D01*
X129708038Y-63311349D01*
X129688632Y-63302170D01*
X129670219Y-63291134D01*
X129652976Y-63278346D01*
X129637070Y-63263930D01*
X129622654Y-63248024D01*
X129609866Y-63230781D01*
X129598830Y-63212368D01*
X129589651Y-63192962D01*
X129582419Y-63172750D01*
X129577203Y-63151926D01*
X129574053Y-63130691D01*
X129573000Y-63109250D01*
X129573000Y-62671750D01*
X129574053Y-62650309D01*
X129577203Y-62629074D01*
X129582419Y-62608250D01*
X129589651Y-62588038D01*
X129598830Y-62568632D01*
X129609866Y-62550219D01*
X129622654Y-62532976D01*
X129637070Y-62517070D01*
X129652976Y-62502654D01*
X129670219Y-62489866D01*
X129688632Y-62478830D01*
X129708038Y-62469651D01*
X129728250Y-62462419D01*
X129749074Y-62457203D01*
X129770309Y-62454053D01*
X129791750Y-62453000D01*
X130304250Y-62453000D01*
X130325691Y-62454053D01*
G37*
G36*
X130325691Y-60879053D02*
G01*
X130346926Y-60882203D01*
X130367750Y-60887419D01*
X130387962Y-60894651D01*
X130407368Y-60903830D01*
X130425781Y-60914866D01*
X130443024Y-60927654D01*
X130458930Y-60942070D01*
X130473346Y-60957976D01*
X130486134Y-60975219D01*
X130497170Y-60993632D01*
X130506349Y-61013038D01*
X130513581Y-61033250D01*
X130518797Y-61054074D01*
X130521947Y-61075309D01*
X130523000Y-61096750D01*
X130523000Y-61534250D01*
X130521947Y-61555691D01*
X130518797Y-61576926D01*
X130513581Y-61597750D01*
X130506349Y-61617962D01*
X130497170Y-61637368D01*
X130486134Y-61655781D01*
X130473346Y-61673024D01*
X130458930Y-61688930D01*
X130443024Y-61703346D01*
X130425781Y-61716134D01*
X130407368Y-61727170D01*
X130387962Y-61736349D01*
X130367750Y-61743581D01*
X130346926Y-61748797D01*
X130325691Y-61751947D01*
X130304250Y-61753000D01*
X129791750Y-61753000D01*
X129770309Y-61751947D01*
X129749074Y-61748797D01*
X129728250Y-61743581D01*
X129708038Y-61736349D01*
X129688632Y-61727170D01*
X129670219Y-61716134D01*
X129652976Y-61703346D01*
X129637070Y-61688930D01*
X129622654Y-61673024D01*
X129609866Y-61655781D01*
X129598830Y-61637368D01*
X129589651Y-61617962D01*
X129582419Y-61597750D01*
X129577203Y-61576926D01*
X129574053Y-61555691D01*
X129573000Y-61534250D01*
X129573000Y-61096750D01*
X129574053Y-61075309D01*
X129577203Y-61054074D01*
X129582419Y-61033250D01*
X129589651Y-61013038D01*
X129598830Y-60993632D01*
X129609866Y-60975219D01*
X129622654Y-60957976D01*
X129637070Y-60942070D01*
X129652976Y-60927654D01*
X129670219Y-60914866D01*
X129688632Y-60903830D01*
X129708038Y-60894651D01*
X129728250Y-60887419D01*
X129749074Y-60882203D01*
X129770309Y-60879053D01*
X129791750Y-60878000D01*
X130304250Y-60878000D01*
X130325691Y-60879053D01*
G37*
G36*
X142569191Y-71408053D02*
G01*
X142590426Y-71411203D01*
X142611250Y-71416419D01*
X142631462Y-71423651D01*
X142650868Y-71432830D01*
X142669281Y-71443866D01*
X142686524Y-71456654D01*
X142702430Y-71471070D01*
X142716846Y-71486976D01*
X142729634Y-71504219D01*
X142740670Y-71522632D01*
X142749849Y-71542038D01*
X142757081Y-71562250D01*
X142762297Y-71583074D01*
X142765447Y-71604309D01*
X142766500Y-71625750D01*
X142766500Y-72138250D01*
X142765447Y-72159691D01*
X142762297Y-72180926D01*
X142757081Y-72201750D01*
X142749849Y-72221962D01*
X142740670Y-72241368D01*
X142729634Y-72259781D01*
X142716846Y-72277024D01*
X142702430Y-72292930D01*
X142686524Y-72307346D01*
X142669281Y-72320134D01*
X142650868Y-72331170D01*
X142631462Y-72340349D01*
X142611250Y-72347581D01*
X142590426Y-72352797D01*
X142569191Y-72355947D01*
X142547750Y-72357000D01*
X142110250Y-72357000D01*
X142088809Y-72355947D01*
X142067574Y-72352797D01*
X142046750Y-72347581D01*
X142026538Y-72340349D01*
X142007132Y-72331170D01*
X141988719Y-72320134D01*
X141971476Y-72307346D01*
X141955570Y-72292930D01*
X141941154Y-72277024D01*
X141928366Y-72259781D01*
X141917330Y-72241368D01*
X141908151Y-72221962D01*
X141900919Y-72201750D01*
X141895703Y-72180926D01*
X141892553Y-72159691D01*
X141891500Y-72138250D01*
X141891500Y-71625750D01*
X141892553Y-71604309D01*
X141895703Y-71583074D01*
X141900919Y-71562250D01*
X141908151Y-71542038D01*
X141917330Y-71522632D01*
X141928366Y-71504219D01*
X141941154Y-71486976D01*
X141955570Y-71471070D01*
X141971476Y-71456654D01*
X141988719Y-71443866D01*
X142007132Y-71432830D01*
X142026538Y-71423651D01*
X142046750Y-71416419D01*
X142067574Y-71411203D01*
X142088809Y-71408053D01*
X142110250Y-71407000D01*
X142547750Y-71407000D01*
X142569191Y-71408053D01*
G37*
G36*
X140994191Y-71408053D02*
G01*
X141015426Y-71411203D01*
X141036250Y-71416419D01*
X141056462Y-71423651D01*
X141075868Y-71432830D01*
X141094281Y-71443866D01*
X141111524Y-71456654D01*
X141127430Y-71471070D01*
X141141846Y-71486976D01*
X141154634Y-71504219D01*
X141165670Y-71522632D01*
X141174849Y-71542038D01*
X141182081Y-71562250D01*
X141187297Y-71583074D01*
X141190447Y-71604309D01*
X141191500Y-71625750D01*
X141191500Y-72138250D01*
X141190447Y-72159691D01*
X141187297Y-72180926D01*
X141182081Y-72201750D01*
X141174849Y-72221962D01*
X141165670Y-72241368D01*
X141154634Y-72259781D01*
X141141846Y-72277024D01*
X141127430Y-72292930D01*
X141111524Y-72307346D01*
X141094281Y-72320134D01*
X141075868Y-72331170D01*
X141056462Y-72340349D01*
X141036250Y-72347581D01*
X141015426Y-72352797D01*
X140994191Y-72355947D01*
X140972750Y-72357000D01*
X140535250Y-72357000D01*
X140513809Y-72355947D01*
X140492574Y-72352797D01*
X140471750Y-72347581D01*
X140451538Y-72340349D01*
X140432132Y-72331170D01*
X140413719Y-72320134D01*
X140396476Y-72307346D01*
X140380570Y-72292930D01*
X140366154Y-72277024D01*
X140353366Y-72259781D01*
X140342330Y-72241368D01*
X140333151Y-72221962D01*
X140325919Y-72201750D01*
X140320703Y-72180926D01*
X140317553Y-72159691D01*
X140316500Y-72138250D01*
X140316500Y-71625750D01*
X140317553Y-71604309D01*
X140320703Y-71583074D01*
X140325919Y-71562250D01*
X140333151Y-71542038D01*
X140342330Y-71522632D01*
X140353366Y-71504219D01*
X140366154Y-71486976D01*
X140380570Y-71471070D01*
X140396476Y-71456654D01*
X140413719Y-71443866D01*
X140432132Y-71432830D01*
X140451538Y-71423651D01*
X140471750Y-71416419D01*
X140492574Y-71411203D01*
X140513809Y-71408053D01*
X140535250Y-71407000D01*
X140972750Y-71407000D01*
X140994191Y-71408053D01*
G37*
G36*
X140994191Y-69884053D02*
G01*
X141015426Y-69887203D01*
X141036250Y-69892419D01*
X141056462Y-69899651D01*
X141075868Y-69908830D01*
X141094281Y-69919866D01*
X141111524Y-69932654D01*
X141127430Y-69947070D01*
X141141846Y-69962976D01*
X141154634Y-69980219D01*
X141165670Y-69998632D01*
X141174849Y-70018038D01*
X141182081Y-70038250D01*
X141187297Y-70059074D01*
X141190447Y-70080309D01*
X141191500Y-70101750D01*
X141191500Y-70614250D01*
X141190447Y-70635691D01*
X141187297Y-70656926D01*
X141182081Y-70677750D01*
X141174849Y-70697962D01*
X141165670Y-70717368D01*
X141154634Y-70735781D01*
X141141846Y-70753024D01*
X141127430Y-70768930D01*
X141111524Y-70783346D01*
X141094281Y-70796134D01*
X141075868Y-70807170D01*
X141056462Y-70816349D01*
X141036250Y-70823581D01*
X141015426Y-70828797D01*
X140994191Y-70831947D01*
X140972750Y-70833000D01*
X140535250Y-70833000D01*
X140513809Y-70831947D01*
X140492574Y-70828797D01*
X140471750Y-70823581D01*
X140451538Y-70816349D01*
X140432132Y-70807170D01*
X140413719Y-70796134D01*
X140396476Y-70783346D01*
X140380570Y-70768930D01*
X140366154Y-70753024D01*
X140353366Y-70735781D01*
X140342330Y-70717368D01*
X140333151Y-70697962D01*
X140325919Y-70677750D01*
X140320703Y-70656926D01*
X140317553Y-70635691D01*
X140316500Y-70614250D01*
X140316500Y-70101750D01*
X140317553Y-70080309D01*
X140320703Y-70059074D01*
X140325919Y-70038250D01*
X140333151Y-70018038D01*
X140342330Y-69998632D01*
X140353366Y-69980219D01*
X140366154Y-69962976D01*
X140380570Y-69947070D01*
X140396476Y-69932654D01*
X140413719Y-69919866D01*
X140432132Y-69908830D01*
X140451538Y-69899651D01*
X140471750Y-69892419D01*
X140492574Y-69887203D01*
X140513809Y-69884053D01*
X140535250Y-69883000D01*
X140972750Y-69883000D01*
X140994191Y-69884053D01*
G37*
G36*
X142569191Y-69884053D02*
G01*
X142590426Y-69887203D01*
X142611250Y-69892419D01*
X142631462Y-69899651D01*
X142650868Y-69908830D01*
X142669281Y-69919866D01*
X142686524Y-69932654D01*
X142702430Y-69947070D01*
X142716846Y-69962976D01*
X142729634Y-69980219D01*
X142740670Y-69998632D01*
X142749849Y-70018038D01*
X142757081Y-70038250D01*
X142762297Y-70059074D01*
X142765447Y-70080309D01*
X142766500Y-70101750D01*
X142766500Y-70614250D01*
X142765447Y-70635691D01*
X142762297Y-70656926D01*
X142757081Y-70677750D01*
X142749849Y-70697962D01*
X142740670Y-70717368D01*
X142729634Y-70735781D01*
X142716846Y-70753024D01*
X142702430Y-70768930D01*
X142686524Y-70783346D01*
X142669281Y-70796134D01*
X142650868Y-70807170D01*
X142631462Y-70816349D01*
X142611250Y-70823581D01*
X142590426Y-70828797D01*
X142569191Y-70831947D01*
X142547750Y-70833000D01*
X142110250Y-70833000D01*
X142088809Y-70831947D01*
X142067574Y-70828797D01*
X142046750Y-70823581D01*
X142026538Y-70816349D01*
X142007132Y-70807170D01*
X141988719Y-70796134D01*
X141971476Y-70783346D01*
X141955570Y-70768930D01*
X141941154Y-70753024D01*
X141928366Y-70735781D01*
X141917330Y-70717368D01*
X141908151Y-70697962D01*
X141900919Y-70677750D01*
X141895703Y-70656926D01*
X141892553Y-70635691D01*
X141891500Y-70614250D01*
X141891500Y-70101750D01*
X141892553Y-70080309D01*
X141895703Y-70059074D01*
X141900919Y-70038250D01*
X141908151Y-70018038D01*
X141917330Y-69998632D01*
X141928366Y-69980219D01*
X141941154Y-69962976D01*
X141955570Y-69947070D01*
X141971476Y-69932654D01*
X141988719Y-69919866D01*
X142007132Y-69908830D01*
X142026538Y-69899651D01*
X142046750Y-69892419D01*
X142067574Y-69887203D01*
X142088809Y-69884053D01*
X142110250Y-69883000D01*
X142547750Y-69883000D01*
X142569191Y-69884053D01*
G37*
G36*
X142569191Y-66772553D02*
G01*
X142590426Y-66775703D01*
X142611250Y-66780919D01*
X142631462Y-66788151D01*
X142650868Y-66797330D01*
X142669281Y-66808366D01*
X142686524Y-66821154D01*
X142702430Y-66835570D01*
X142716846Y-66851476D01*
X142729634Y-66868719D01*
X142740670Y-66887132D01*
X142749849Y-66906538D01*
X142757081Y-66926750D01*
X142762297Y-66947574D01*
X142765447Y-66968809D01*
X142766500Y-66990250D01*
X142766500Y-67502750D01*
X142765447Y-67524191D01*
X142762297Y-67545426D01*
X142757081Y-67566250D01*
X142749849Y-67586462D01*
X142740670Y-67605868D01*
X142729634Y-67624281D01*
X142716846Y-67641524D01*
X142702430Y-67657430D01*
X142686524Y-67671846D01*
X142669281Y-67684634D01*
X142650868Y-67695670D01*
X142631462Y-67704849D01*
X142611250Y-67712081D01*
X142590426Y-67717297D01*
X142569191Y-67720447D01*
X142547750Y-67721500D01*
X142110250Y-67721500D01*
X142088809Y-67720447D01*
X142067574Y-67717297D01*
X142046750Y-67712081D01*
X142026538Y-67704849D01*
X142007132Y-67695670D01*
X141988719Y-67684634D01*
X141971476Y-67671846D01*
X141955570Y-67657430D01*
X141941154Y-67641524D01*
X141928366Y-67624281D01*
X141917330Y-67605868D01*
X141908151Y-67586462D01*
X141900919Y-67566250D01*
X141895703Y-67545426D01*
X141892553Y-67524191D01*
X141891500Y-67502750D01*
X141891500Y-66990250D01*
X141892553Y-66968809D01*
X141895703Y-66947574D01*
X141900919Y-66926750D01*
X141908151Y-66906538D01*
X141917330Y-66887132D01*
X141928366Y-66868719D01*
X141941154Y-66851476D01*
X141955570Y-66835570D01*
X141971476Y-66821154D01*
X141988719Y-66808366D01*
X142007132Y-66797330D01*
X142026538Y-66788151D01*
X142046750Y-66780919D01*
X142067574Y-66775703D01*
X142088809Y-66772553D01*
X142110250Y-66771500D01*
X142547750Y-66771500D01*
X142569191Y-66772553D01*
G37*
G36*
X140994191Y-66772553D02*
G01*
X141015426Y-66775703D01*
X141036250Y-66780919D01*
X141056462Y-66788151D01*
X141075868Y-66797330D01*
X141094281Y-66808366D01*
X141111524Y-66821154D01*
X141127430Y-66835570D01*
X141141846Y-66851476D01*
X141154634Y-66868719D01*
X141165670Y-66887132D01*
X141174849Y-66906538D01*
X141182081Y-66926750D01*
X141187297Y-66947574D01*
X141190447Y-66968809D01*
X141191500Y-66990250D01*
X141191500Y-67502750D01*
X141190447Y-67524191D01*
X141187297Y-67545426D01*
X141182081Y-67566250D01*
X141174849Y-67586462D01*
X141165670Y-67605868D01*
X141154634Y-67624281D01*
X141141846Y-67641524D01*
X141127430Y-67657430D01*
X141111524Y-67671846D01*
X141094281Y-67684634D01*
X141075868Y-67695670D01*
X141056462Y-67704849D01*
X141036250Y-67712081D01*
X141015426Y-67717297D01*
X140994191Y-67720447D01*
X140972750Y-67721500D01*
X140535250Y-67721500D01*
X140513809Y-67720447D01*
X140492574Y-67717297D01*
X140471750Y-67712081D01*
X140451538Y-67704849D01*
X140432132Y-67695670D01*
X140413719Y-67684634D01*
X140396476Y-67671846D01*
X140380570Y-67657430D01*
X140366154Y-67641524D01*
X140353366Y-67624281D01*
X140342330Y-67605868D01*
X140333151Y-67586462D01*
X140325919Y-67566250D01*
X140320703Y-67545426D01*
X140317553Y-67524191D01*
X140316500Y-67502750D01*
X140316500Y-66990250D01*
X140317553Y-66968809D01*
X140320703Y-66947574D01*
X140325919Y-66926750D01*
X140333151Y-66906538D01*
X140342330Y-66887132D01*
X140353366Y-66868719D01*
X140366154Y-66851476D01*
X140380570Y-66835570D01*
X140396476Y-66821154D01*
X140413719Y-66808366D01*
X140432132Y-66797330D01*
X140451538Y-66788151D01*
X140471750Y-66780919D01*
X140492574Y-66775703D01*
X140513809Y-66772553D01*
X140535250Y-66771500D01*
X140972750Y-66771500D01*
X140994191Y-66772553D01*
G37*
G36*
X145121191Y-82451053D02*
G01*
X145142426Y-82454203D01*
X145163250Y-82459419D01*
X145183462Y-82466651D01*
X145202868Y-82475830D01*
X145221281Y-82486866D01*
X145238524Y-82499654D01*
X145254430Y-82514070D01*
X145268846Y-82529976D01*
X145281634Y-82547219D01*
X145292670Y-82565632D01*
X145301849Y-82585038D01*
X145309081Y-82605250D01*
X145314297Y-82626074D01*
X145317447Y-82647309D01*
X145318500Y-82668750D01*
X145318500Y-83106250D01*
X145317447Y-83127691D01*
X145314297Y-83148926D01*
X145309081Y-83169750D01*
X145301849Y-83189962D01*
X145292670Y-83209368D01*
X145281634Y-83227781D01*
X145268846Y-83245024D01*
X145254430Y-83260930D01*
X145238524Y-83275346D01*
X145221281Y-83288134D01*
X145202868Y-83299170D01*
X145183462Y-83308349D01*
X145163250Y-83315581D01*
X145142426Y-83320797D01*
X145121191Y-83323947D01*
X145099750Y-83325000D01*
X144587250Y-83325000D01*
X144565809Y-83323947D01*
X144544574Y-83320797D01*
X144523750Y-83315581D01*
X144503538Y-83308349D01*
X144484132Y-83299170D01*
X144465719Y-83288134D01*
X144448476Y-83275346D01*
X144432570Y-83260930D01*
X144418154Y-83245024D01*
X144405366Y-83227781D01*
X144394330Y-83209368D01*
X144385151Y-83189962D01*
X144377919Y-83169750D01*
X144372703Y-83148926D01*
X144369553Y-83127691D01*
X144368500Y-83106250D01*
X144368500Y-82668750D01*
X144369553Y-82647309D01*
X144372703Y-82626074D01*
X144377919Y-82605250D01*
X144385151Y-82585038D01*
X144394330Y-82565632D01*
X144405366Y-82547219D01*
X144418154Y-82529976D01*
X144432570Y-82514070D01*
X144448476Y-82499654D01*
X144465719Y-82486866D01*
X144484132Y-82475830D01*
X144503538Y-82466651D01*
X144523750Y-82459419D01*
X144544574Y-82454203D01*
X144565809Y-82451053D01*
X144587250Y-82450000D01*
X145099750Y-82450000D01*
X145121191Y-82451053D01*
G37*
G36*
X145121191Y-80876053D02*
G01*
X145142426Y-80879203D01*
X145163250Y-80884419D01*
X145183462Y-80891651D01*
X145202868Y-80900830D01*
X145221281Y-80911866D01*
X145238524Y-80924654D01*
X145254430Y-80939070D01*
X145268846Y-80954976D01*
X145281634Y-80972219D01*
X145292670Y-80990632D01*
X145301849Y-81010038D01*
X145309081Y-81030250D01*
X145314297Y-81051074D01*
X145317447Y-81072309D01*
X145318500Y-81093750D01*
X145318500Y-81531250D01*
X145317447Y-81552691D01*
X145314297Y-81573926D01*
X145309081Y-81594750D01*
X145301849Y-81614962D01*
X145292670Y-81634368D01*
X145281634Y-81652781D01*
X145268846Y-81670024D01*
X145254430Y-81685930D01*
X145238524Y-81700346D01*
X145221281Y-81713134D01*
X145202868Y-81724170D01*
X145183462Y-81733349D01*
X145163250Y-81740581D01*
X145142426Y-81745797D01*
X145121191Y-81748947D01*
X145099750Y-81750000D01*
X144587250Y-81750000D01*
X144565809Y-81748947D01*
X144544574Y-81745797D01*
X144523750Y-81740581D01*
X144503538Y-81733349D01*
X144484132Y-81724170D01*
X144465719Y-81713134D01*
X144448476Y-81700346D01*
X144432570Y-81685930D01*
X144418154Y-81670024D01*
X144405366Y-81652781D01*
X144394330Y-81634368D01*
X144385151Y-81614962D01*
X144377919Y-81594750D01*
X144372703Y-81573926D01*
X144369553Y-81552691D01*
X144368500Y-81531250D01*
X144368500Y-81093750D01*
X144369553Y-81072309D01*
X144372703Y-81051074D01*
X144377919Y-81030250D01*
X144385151Y-81010038D01*
X144394330Y-80990632D01*
X144405366Y-80972219D01*
X144418154Y-80954976D01*
X144432570Y-80939070D01*
X144448476Y-80924654D01*
X144465719Y-80911866D01*
X144484132Y-80900830D01*
X144503538Y-80891651D01*
X144523750Y-80884419D01*
X144544574Y-80879203D01*
X144565809Y-80876053D01*
X144587250Y-80875000D01*
X145099750Y-80875000D01*
X145121191Y-80876053D01*
G37*
D12*
X144950000Y-70600000D03*
X144950000Y-73100000D03*
X144950000Y-75600000D03*
D13*
X111050000Y-82913500D03*
X111050000Y-88163500D03*
X112750000Y-88163500D03*
X112750000Y-82913500D03*
X111050000Y-74975000D03*
X111050000Y-80225000D03*
X112750000Y-80225000D03*
X112750000Y-74975000D03*
X111050000Y-67036500D03*
X111050000Y-72286500D03*
X112750000Y-72286500D03*
X112750000Y-67036500D03*
D14*
X142925000Y-61150000D03*
X137675000Y-61150000D03*
X137675000Y-62850000D03*
X142925000Y-62850000D03*
M02*
