G04 #@! TF.GenerationSoftware,KiCad,Pcbnew,(5.1.5)-2*
G04 #@! TF.CreationDate,2020-06-18T10:42:50+08:00*
G04 #@! TF.ProjectId,EVMeter_V2.0,45564d65-7465-4725-9f56-322e302e6b69,rev?*
G04 #@! TF.SameCoordinates,Original*
G04 #@! TF.FileFunction,Soldermask,Bot*
G04 #@! TF.FilePolarity,Negative*
%FSLAX46Y46*%
G04 Gerber Fmt 4.6, Leading zero omitted, Abs format (unit mm)*
G04 Created by KiCad (PCBNEW (5.1.5)-2) date 2020-06-18 10:42:50*
%MOMM*%
%LPD*%
G04 APERTURE LIST*
%ADD10C,0.100000*%
G04 APERTURE END LIST*
D10*
G36*
X147624549Y-91271116D02*
G01*
X147735734Y-91293232D01*
X147945203Y-91379997D01*
X148133720Y-91505960D01*
X148294040Y-91666280D01*
X148420003Y-91854797D01*
X148506768Y-92064266D01*
X148551000Y-92286636D01*
X148551000Y-92513364D01*
X148506768Y-92735734D01*
X148420003Y-92945203D01*
X148294040Y-93133720D01*
X148133720Y-93294040D01*
X147945203Y-93420003D01*
X147735734Y-93506768D01*
X147624549Y-93528884D01*
X147513365Y-93551000D01*
X147286635Y-93551000D01*
X147175451Y-93528884D01*
X147064266Y-93506768D01*
X146854797Y-93420003D01*
X146666280Y-93294040D01*
X146505960Y-93133720D01*
X146379997Y-92945203D01*
X146293232Y-92735734D01*
X146249000Y-92513364D01*
X146249000Y-92286636D01*
X146293232Y-92064266D01*
X146379997Y-91854797D01*
X146505960Y-91666280D01*
X146666280Y-91505960D01*
X146854797Y-91379997D01*
X147064266Y-91293232D01*
X147175451Y-91271116D01*
X147286635Y-91249000D01*
X147513365Y-91249000D01*
X147624549Y-91271116D01*
G37*
G36*
X112824549Y-91271116D02*
G01*
X112935734Y-91293232D01*
X113145203Y-91379997D01*
X113333720Y-91505960D01*
X113494040Y-91666280D01*
X113620003Y-91854797D01*
X113706768Y-92064266D01*
X113751000Y-92286636D01*
X113751000Y-92513364D01*
X113706768Y-92735734D01*
X113620003Y-92945203D01*
X113494040Y-93133720D01*
X113333720Y-93294040D01*
X113145203Y-93420003D01*
X112935734Y-93506768D01*
X112824549Y-93528884D01*
X112713365Y-93551000D01*
X112486635Y-93551000D01*
X112375451Y-93528884D01*
X112264266Y-93506768D01*
X112054797Y-93420003D01*
X111866280Y-93294040D01*
X111705960Y-93133720D01*
X111579997Y-92945203D01*
X111493232Y-92735734D01*
X111449000Y-92513364D01*
X111449000Y-92286636D01*
X111493232Y-92064266D01*
X111579997Y-91854797D01*
X111705960Y-91666280D01*
X111866280Y-91505960D01*
X112054797Y-91379997D01*
X112264266Y-91293232D01*
X112375451Y-91271116D01*
X112486635Y-91249000D01*
X112713365Y-91249000D01*
X112824549Y-91271116D01*
G37*
G36*
X139191200Y-89283600D02*
G01*
X118389200Y-89283600D01*
X118389200Y-86781600D01*
X139191200Y-86781600D01*
X139191200Y-89283600D01*
G37*
G36*
X143528015Y-78736973D02*
G01*
X143631879Y-78768479D01*
X143659055Y-78783005D01*
X143727600Y-78819643D01*
X143811501Y-78888499D01*
X143880357Y-78972400D01*
X143900727Y-79010510D01*
X143931521Y-79068121D01*
X143963027Y-79171985D01*
X143973666Y-79280000D01*
X143963027Y-79388015D01*
X143931521Y-79491879D01*
X143916995Y-79519055D01*
X143880357Y-79587600D01*
X143811501Y-79671501D01*
X143727600Y-79740357D01*
X143672014Y-79770068D01*
X143631879Y-79791521D01*
X143528015Y-79823027D01*
X143447067Y-79831000D01*
X142855999Y-79831000D01*
X142831613Y-79833402D01*
X142808164Y-79840515D01*
X142786553Y-79852066D01*
X142767611Y-79867611D01*
X142752066Y-79886553D01*
X142740515Y-79908164D01*
X142733402Y-79931613D01*
X142731000Y-79955999D01*
X142731000Y-87244001D01*
X142733402Y-87268387D01*
X142740515Y-87291836D01*
X142752066Y-87313447D01*
X142767611Y-87332389D01*
X142786553Y-87347934D01*
X142808164Y-87359485D01*
X142831613Y-87366598D01*
X142855999Y-87369000D01*
X143447067Y-87369000D01*
X143528015Y-87376973D01*
X143631879Y-87408479D01*
X143658344Y-87422625D01*
X143727600Y-87459643D01*
X143811501Y-87528499D01*
X143880357Y-87612400D01*
X143916995Y-87680945D01*
X143931521Y-87708121D01*
X143963027Y-87811985D01*
X143973666Y-87920000D01*
X143963027Y-88028015D01*
X143931521Y-88131879D01*
X143931519Y-88131882D01*
X143880357Y-88227600D01*
X143811501Y-88311501D01*
X143727600Y-88380357D01*
X143659055Y-88416995D01*
X143631879Y-88431521D01*
X143528015Y-88463027D01*
X143447067Y-88471000D01*
X142292933Y-88471000D01*
X142211985Y-88463027D01*
X142108121Y-88431521D01*
X142080945Y-88416995D01*
X142012400Y-88380357D01*
X141928499Y-88311501D01*
X141859643Y-88227600D01*
X141808481Y-88131882D01*
X141808479Y-88131879D01*
X141776973Y-88028015D01*
X141766334Y-87920000D01*
X141776973Y-87811985D01*
X141808479Y-87708121D01*
X141823005Y-87680945D01*
X141859643Y-87612400D01*
X141928499Y-87528499D01*
X142012399Y-87459645D01*
X142012398Y-87459645D01*
X142012400Y-87459644D01*
X142056193Y-87436236D01*
X142076563Y-87422625D01*
X142093890Y-87405298D01*
X142107504Y-87384924D01*
X142116881Y-87362285D01*
X142121662Y-87338252D01*
X142121662Y-87313748D01*
X142116882Y-87289714D01*
X142107505Y-87267076D01*
X142093891Y-87246701D01*
X142076564Y-87229374D01*
X142056190Y-87215760D01*
X142033551Y-87206383D01*
X142009518Y-87201602D01*
X141997265Y-87201000D01*
X141179000Y-87201000D01*
X141179000Y-79999000D01*
X141997265Y-79999000D01*
X142021651Y-79996598D01*
X142045100Y-79989485D01*
X142066711Y-79977934D01*
X142085653Y-79962389D01*
X142101198Y-79943447D01*
X142112749Y-79921836D01*
X142119862Y-79898387D01*
X142122264Y-79874001D01*
X142119862Y-79849615D01*
X142112749Y-79826166D01*
X142101198Y-79804555D01*
X142085653Y-79785613D01*
X142066711Y-79770068D01*
X142056198Y-79763767D01*
X142012400Y-79740356D01*
X141928499Y-79671501D01*
X141859643Y-79587600D01*
X141823005Y-79519055D01*
X141808479Y-79491879D01*
X141776973Y-79388015D01*
X141766334Y-79280000D01*
X141776973Y-79171985D01*
X141808479Y-79068121D01*
X141839273Y-79010510D01*
X141859643Y-78972400D01*
X141928499Y-78888499D01*
X142012400Y-78819643D01*
X142080945Y-78783005D01*
X142108121Y-78768479D01*
X142211985Y-78736973D01*
X142292933Y-78729000D01*
X143447067Y-78729000D01*
X143528015Y-78736973D01*
G37*
G36*
X147458015Y-87376973D02*
G01*
X147561879Y-87408479D01*
X147588344Y-87422625D01*
X147657600Y-87459643D01*
X147741501Y-87528499D01*
X147810357Y-87612400D01*
X147846995Y-87680945D01*
X147861521Y-87708121D01*
X147893027Y-87811985D01*
X147903666Y-87920000D01*
X147893027Y-88028015D01*
X147861521Y-88131879D01*
X147861519Y-88131882D01*
X147810357Y-88227600D01*
X147741501Y-88311501D01*
X147657600Y-88380357D01*
X147589055Y-88416995D01*
X147561879Y-88431521D01*
X147458015Y-88463027D01*
X147377067Y-88471000D01*
X146722933Y-88471000D01*
X146641985Y-88463027D01*
X146538121Y-88431521D01*
X146510945Y-88416995D01*
X146442400Y-88380357D01*
X146358499Y-88311501D01*
X146289643Y-88227600D01*
X146238481Y-88131882D01*
X146238479Y-88131879D01*
X146206973Y-88028015D01*
X146196334Y-87920000D01*
X146206973Y-87811985D01*
X146238479Y-87708121D01*
X146253005Y-87680945D01*
X146289643Y-87612400D01*
X146358499Y-87528499D01*
X146442400Y-87459643D01*
X146511656Y-87422625D01*
X146538121Y-87408479D01*
X146641985Y-87376973D01*
X146722933Y-87369000D01*
X147377067Y-87369000D01*
X147458015Y-87376973D01*
G37*
G36*
X143509672Y-86128449D02*
G01*
X143509674Y-86128450D01*
X143509675Y-86128450D01*
X143578103Y-86156793D01*
X143639686Y-86197942D01*
X143692058Y-86250314D01*
X143733207Y-86311897D01*
X143761550Y-86380325D01*
X143776000Y-86452967D01*
X143776000Y-86527033D01*
X143761550Y-86599675D01*
X143733207Y-86668103D01*
X143692058Y-86729686D01*
X143639686Y-86782058D01*
X143578103Y-86823207D01*
X143509675Y-86851550D01*
X143509674Y-86851550D01*
X143509672Y-86851551D01*
X143437034Y-86866000D01*
X143362966Y-86866000D01*
X143290328Y-86851551D01*
X143290326Y-86851550D01*
X143290325Y-86851550D01*
X143221897Y-86823207D01*
X143160314Y-86782058D01*
X143107942Y-86729686D01*
X143066793Y-86668103D01*
X143038450Y-86599675D01*
X143024000Y-86527033D01*
X143024000Y-86452967D01*
X143038450Y-86380325D01*
X143066793Y-86311897D01*
X143107942Y-86250314D01*
X143160314Y-86197942D01*
X143221897Y-86156793D01*
X143290325Y-86128450D01*
X143290326Y-86128450D01*
X143290328Y-86128449D01*
X143362966Y-86114000D01*
X143437034Y-86114000D01*
X143509672Y-86128449D01*
G37*
G36*
X112266591Y-85837585D02*
G01*
X112300569Y-85847893D01*
X112331890Y-85864634D01*
X112359339Y-85887161D01*
X112381866Y-85914610D01*
X112398607Y-85945931D01*
X112408915Y-85979909D01*
X112413000Y-86021390D01*
X112413000Y-86622610D01*
X112408915Y-86664091D01*
X112398607Y-86698069D01*
X112381866Y-86729390D01*
X112359339Y-86756839D01*
X112331890Y-86779366D01*
X112300569Y-86796107D01*
X112266591Y-86806415D01*
X112225110Y-86810500D01*
X111548890Y-86810500D01*
X111507409Y-86806415D01*
X111473431Y-86796107D01*
X111442110Y-86779366D01*
X111414661Y-86756839D01*
X111392134Y-86729390D01*
X111375393Y-86698069D01*
X111365085Y-86664091D01*
X111361000Y-86622610D01*
X111361000Y-86021390D01*
X111365085Y-85979909D01*
X111375393Y-85945931D01*
X111392134Y-85914610D01*
X111414661Y-85887161D01*
X111442110Y-85864634D01*
X111473431Y-85847893D01*
X111507409Y-85837585D01*
X111548890Y-85833500D01*
X112225110Y-85833500D01*
X112266591Y-85837585D01*
G37*
G36*
X137184468Y-85203565D02*
G01*
X137223138Y-85215296D01*
X137258777Y-85234346D01*
X137290017Y-85259983D01*
X137315654Y-85291223D01*
X137334704Y-85326862D01*
X137346435Y-85365532D01*
X137351000Y-85411888D01*
X137351000Y-86063112D01*
X137346435Y-86109468D01*
X137334704Y-86148138D01*
X137315654Y-86183777D01*
X137290017Y-86215017D01*
X137258777Y-86240654D01*
X137223138Y-86259704D01*
X137184468Y-86271435D01*
X137138112Y-86276000D01*
X136061888Y-86276000D01*
X136015532Y-86271435D01*
X135976862Y-86259704D01*
X135941223Y-86240654D01*
X135909983Y-86215017D01*
X135884346Y-86183777D01*
X135865296Y-86148138D01*
X135853565Y-86109468D01*
X135849000Y-86063112D01*
X135849000Y-85411888D01*
X135853565Y-85365532D01*
X135865296Y-85326862D01*
X135884346Y-85291223D01*
X135909983Y-85259983D01*
X135941223Y-85234346D01*
X135976862Y-85215296D01*
X136015532Y-85203565D01*
X136061888Y-85199000D01*
X137138112Y-85199000D01*
X137184468Y-85203565D01*
G37*
G36*
X139184468Y-85203565D02*
G01*
X139223138Y-85215296D01*
X139258777Y-85234346D01*
X139290017Y-85259983D01*
X139315654Y-85291223D01*
X139334704Y-85326862D01*
X139346435Y-85365532D01*
X139351000Y-85411888D01*
X139351000Y-86063112D01*
X139346435Y-86109468D01*
X139334704Y-86148138D01*
X139315654Y-86183777D01*
X139290017Y-86215017D01*
X139258777Y-86240654D01*
X139223138Y-86259704D01*
X139184468Y-86271435D01*
X139138112Y-86276000D01*
X138061888Y-86276000D01*
X138015532Y-86271435D01*
X137976862Y-86259704D01*
X137941223Y-86240654D01*
X137909983Y-86215017D01*
X137884346Y-86183777D01*
X137865296Y-86148138D01*
X137853565Y-86109468D01*
X137849000Y-86063112D01*
X137849000Y-85411888D01*
X137853565Y-85365532D01*
X137865296Y-85326862D01*
X137884346Y-85291223D01*
X137909983Y-85259983D01*
X137941223Y-85234346D01*
X137976862Y-85215296D01*
X138015532Y-85203565D01*
X138061888Y-85199000D01*
X139138112Y-85199000D01*
X139184468Y-85203565D01*
G37*
G36*
X110649260Y-85128871D02*
G01*
X110683071Y-85142876D01*
X110726784Y-85160982D01*
X110726787Y-85160984D01*
X110796559Y-85207604D01*
X110855896Y-85266941D01*
X110890455Y-85318663D01*
X110902518Y-85336716D01*
X110920624Y-85380429D01*
X110934629Y-85414240D01*
X110951000Y-85496543D01*
X110951000Y-85580457D01*
X110934629Y-85662760D01*
X110920624Y-85696571D01*
X110902518Y-85740284D01*
X110902516Y-85740287D01*
X110855896Y-85810059D01*
X110796559Y-85869396D01*
X110743215Y-85905039D01*
X110726784Y-85916018D01*
X110683071Y-85934124D01*
X110649260Y-85948129D01*
X110566957Y-85964500D01*
X110483043Y-85964500D01*
X110400740Y-85948129D01*
X110366929Y-85934124D01*
X110323216Y-85916018D01*
X110306785Y-85905039D01*
X110253441Y-85869396D01*
X110194104Y-85810059D01*
X110147484Y-85740287D01*
X110147482Y-85740284D01*
X110129376Y-85696571D01*
X110115371Y-85662760D01*
X110099000Y-85580457D01*
X110099000Y-85496543D01*
X110115371Y-85414240D01*
X110129376Y-85380429D01*
X110147482Y-85336716D01*
X110159545Y-85318663D01*
X110194104Y-85266941D01*
X110253441Y-85207604D01*
X110323213Y-85160984D01*
X110323216Y-85160982D01*
X110366929Y-85142876D01*
X110400740Y-85128871D01*
X110483043Y-85112500D01*
X110566957Y-85112500D01*
X110649260Y-85128871D01*
G37*
G36*
X113399260Y-85128871D02*
G01*
X113433071Y-85142876D01*
X113476784Y-85160982D01*
X113476787Y-85160984D01*
X113546559Y-85207604D01*
X113605896Y-85266941D01*
X113640455Y-85318663D01*
X113652518Y-85336716D01*
X113670624Y-85380429D01*
X113684629Y-85414240D01*
X113701000Y-85496543D01*
X113701000Y-85580457D01*
X113684629Y-85662760D01*
X113670624Y-85696571D01*
X113652518Y-85740284D01*
X113652516Y-85740287D01*
X113605896Y-85810059D01*
X113546559Y-85869396D01*
X113493215Y-85905039D01*
X113476784Y-85916018D01*
X113433071Y-85934124D01*
X113399260Y-85948129D01*
X113316957Y-85964500D01*
X113233043Y-85964500D01*
X113150740Y-85948129D01*
X113116929Y-85934124D01*
X113073216Y-85916018D01*
X113056785Y-85905039D01*
X113003441Y-85869396D01*
X112944104Y-85810059D01*
X112897484Y-85740287D01*
X112897482Y-85740284D01*
X112879376Y-85696571D01*
X112865371Y-85662760D01*
X112849000Y-85580457D01*
X112849000Y-85496543D01*
X112865371Y-85414240D01*
X112879376Y-85380429D01*
X112897482Y-85336716D01*
X112909545Y-85318663D01*
X112944104Y-85266941D01*
X113003441Y-85207604D01*
X113073213Y-85160984D01*
X113073216Y-85160982D01*
X113116929Y-85142876D01*
X113150740Y-85128871D01*
X113233043Y-85112500D01*
X113316957Y-85112500D01*
X113399260Y-85128871D01*
G37*
G36*
X129879591Y-84885085D02*
G01*
X129913569Y-84895393D01*
X129944890Y-84912134D01*
X129972339Y-84934661D01*
X129994866Y-84962110D01*
X130011607Y-84993431D01*
X130021915Y-85027409D01*
X130026000Y-85068890D01*
X130026000Y-85670110D01*
X130021915Y-85711591D01*
X130011607Y-85745569D01*
X129994866Y-85776890D01*
X129972339Y-85804339D01*
X129944890Y-85826866D01*
X129913569Y-85843607D01*
X129879591Y-85853915D01*
X129838110Y-85858000D01*
X129161890Y-85858000D01*
X129120409Y-85853915D01*
X129086431Y-85843607D01*
X129055110Y-85826866D01*
X129027661Y-85804339D01*
X129005134Y-85776890D01*
X128988393Y-85745569D01*
X128978085Y-85711591D01*
X128974000Y-85670110D01*
X128974000Y-85068890D01*
X128978085Y-85027409D01*
X128988393Y-84993431D01*
X129005134Y-84962110D01*
X129027661Y-84934661D01*
X129055110Y-84912134D01*
X129086431Y-84895393D01*
X129120409Y-84885085D01*
X129161890Y-84881000D01*
X129838110Y-84881000D01*
X129879591Y-84885085D01*
G37*
G36*
X131443591Y-84885085D02*
G01*
X131477569Y-84895393D01*
X131508890Y-84912134D01*
X131536339Y-84934661D01*
X131558866Y-84962110D01*
X131575607Y-84993431D01*
X131585915Y-85027409D01*
X131590000Y-85068890D01*
X131590000Y-85670110D01*
X131585915Y-85711591D01*
X131575607Y-85745569D01*
X131558866Y-85776890D01*
X131536339Y-85804339D01*
X131508890Y-85826866D01*
X131477569Y-85843607D01*
X131443591Y-85853915D01*
X131402110Y-85858000D01*
X130725890Y-85858000D01*
X130684409Y-85853915D01*
X130650431Y-85843607D01*
X130619110Y-85826866D01*
X130591661Y-85804339D01*
X130569134Y-85776890D01*
X130552393Y-85745569D01*
X130542085Y-85711591D01*
X130538000Y-85670110D01*
X130538000Y-85068890D01*
X130542085Y-85027409D01*
X130552393Y-84993431D01*
X130569134Y-84962110D01*
X130591661Y-84934661D01*
X130619110Y-84912134D01*
X130650431Y-84895393D01*
X130684409Y-84885085D01*
X130725890Y-84881000D01*
X131402110Y-84881000D01*
X131443591Y-84885085D01*
G37*
G36*
X133602591Y-84885085D02*
G01*
X133636569Y-84895393D01*
X133667890Y-84912134D01*
X133695339Y-84934661D01*
X133717866Y-84962110D01*
X133734607Y-84993431D01*
X133744915Y-85027409D01*
X133749000Y-85068890D01*
X133749000Y-85670110D01*
X133744915Y-85711591D01*
X133734607Y-85745569D01*
X133717866Y-85776890D01*
X133695339Y-85804339D01*
X133667890Y-85826866D01*
X133636569Y-85843607D01*
X133602591Y-85853915D01*
X133561110Y-85858000D01*
X132884890Y-85858000D01*
X132843409Y-85853915D01*
X132809431Y-85843607D01*
X132778110Y-85826866D01*
X132750661Y-85804339D01*
X132728134Y-85776890D01*
X132711393Y-85745569D01*
X132701085Y-85711591D01*
X132697000Y-85670110D01*
X132697000Y-85068890D01*
X132701085Y-85027409D01*
X132711393Y-84993431D01*
X132728134Y-84962110D01*
X132750661Y-84934661D01*
X132778110Y-84912134D01*
X132809431Y-84895393D01*
X132843409Y-84885085D01*
X132884890Y-84881000D01*
X133561110Y-84881000D01*
X133602591Y-84885085D01*
G37*
G36*
X135190091Y-84885085D02*
G01*
X135224069Y-84895393D01*
X135255390Y-84912134D01*
X135282839Y-84934661D01*
X135305366Y-84962110D01*
X135322107Y-84993431D01*
X135332415Y-85027409D01*
X135336500Y-85068890D01*
X135336500Y-85670110D01*
X135332415Y-85711591D01*
X135322107Y-85745569D01*
X135305366Y-85776890D01*
X135282839Y-85804339D01*
X135255390Y-85826866D01*
X135224069Y-85843607D01*
X135190091Y-85853915D01*
X135148610Y-85858000D01*
X134472390Y-85858000D01*
X134430909Y-85853915D01*
X134396931Y-85843607D01*
X134365610Y-85826866D01*
X134338161Y-85804339D01*
X134315634Y-85776890D01*
X134298893Y-85745569D01*
X134288585Y-85711591D01*
X134284500Y-85670110D01*
X134284500Y-85068890D01*
X134288585Y-85027409D01*
X134298893Y-84993431D01*
X134315634Y-84962110D01*
X134338161Y-84934661D01*
X134365610Y-84912134D01*
X134396931Y-84895393D01*
X134430909Y-84885085D01*
X134472390Y-84881000D01*
X135148610Y-84881000D01*
X135190091Y-84885085D01*
G37*
G36*
X117093091Y-84660585D02*
G01*
X117127069Y-84670893D01*
X117158390Y-84687634D01*
X117185839Y-84710161D01*
X117208366Y-84737610D01*
X117225107Y-84768931D01*
X117235415Y-84802909D01*
X117239500Y-84844390D01*
X117239500Y-85520610D01*
X117235415Y-85562091D01*
X117225107Y-85596069D01*
X117208366Y-85627390D01*
X117185839Y-85654839D01*
X117158390Y-85677366D01*
X117127069Y-85694107D01*
X117093091Y-85704415D01*
X117051610Y-85708500D01*
X116450390Y-85708500D01*
X116408909Y-85704415D01*
X116374931Y-85694107D01*
X116343610Y-85677366D01*
X116316161Y-85654839D01*
X116293634Y-85627390D01*
X116276893Y-85596069D01*
X116266585Y-85562091D01*
X116262500Y-85520610D01*
X116262500Y-84844390D01*
X116266585Y-84802909D01*
X116276893Y-84768931D01*
X116293634Y-84737610D01*
X116316161Y-84710161D01*
X116343610Y-84687634D01*
X116374931Y-84670893D01*
X116408909Y-84660585D01*
X116450390Y-84656500D01*
X117051610Y-84656500D01*
X117093091Y-84660585D01*
G37*
G36*
X120141091Y-84660585D02*
G01*
X120175069Y-84670893D01*
X120206390Y-84687634D01*
X120233839Y-84710161D01*
X120256366Y-84737610D01*
X120273107Y-84768931D01*
X120283415Y-84802909D01*
X120287500Y-84844390D01*
X120287500Y-85520610D01*
X120283415Y-85562091D01*
X120273107Y-85596069D01*
X120256366Y-85627390D01*
X120233839Y-85654839D01*
X120206390Y-85677366D01*
X120175069Y-85694107D01*
X120141091Y-85704415D01*
X120099610Y-85708500D01*
X119498390Y-85708500D01*
X119456909Y-85704415D01*
X119422931Y-85694107D01*
X119391610Y-85677366D01*
X119364161Y-85654839D01*
X119341634Y-85627390D01*
X119324893Y-85596069D01*
X119314585Y-85562091D01*
X119310500Y-85520610D01*
X119310500Y-84844390D01*
X119314585Y-84802909D01*
X119324893Y-84768931D01*
X119341634Y-84737610D01*
X119364161Y-84710161D01*
X119391610Y-84687634D01*
X119422931Y-84670893D01*
X119456909Y-84660585D01*
X119498390Y-84656500D01*
X120099610Y-84656500D01*
X120141091Y-84660585D01*
G37*
G36*
X118668091Y-84660585D02*
G01*
X118702069Y-84670893D01*
X118733390Y-84687634D01*
X118760839Y-84710161D01*
X118783366Y-84737610D01*
X118800107Y-84768931D01*
X118810415Y-84802909D01*
X118814500Y-84844390D01*
X118814500Y-85520610D01*
X118810415Y-85562091D01*
X118800107Y-85596069D01*
X118783366Y-85627390D01*
X118760839Y-85654839D01*
X118733390Y-85677366D01*
X118702069Y-85694107D01*
X118668091Y-85704415D01*
X118626610Y-85708500D01*
X118025390Y-85708500D01*
X117983909Y-85704415D01*
X117949931Y-85694107D01*
X117918610Y-85677366D01*
X117891161Y-85654839D01*
X117868634Y-85627390D01*
X117851893Y-85596069D01*
X117841585Y-85562091D01*
X117837500Y-85520610D01*
X117837500Y-84844390D01*
X117841585Y-84802909D01*
X117851893Y-84768931D01*
X117868634Y-84737610D01*
X117891161Y-84710161D01*
X117918610Y-84687634D01*
X117949931Y-84670893D01*
X117983909Y-84660585D01*
X118025390Y-84656500D01*
X118626610Y-84656500D01*
X118668091Y-84660585D01*
G37*
G36*
X121716091Y-84660585D02*
G01*
X121750069Y-84670893D01*
X121781390Y-84687634D01*
X121808839Y-84710161D01*
X121831366Y-84737610D01*
X121848107Y-84768931D01*
X121858415Y-84802909D01*
X121862500Y-84844390D01*
X121862500Y-85520610D01*
X121858415Y-85562091D01*
X121848107Y-85596069D01*
X121831366Y-85627390D01*
X121808839Y-85654839D01*
X121781390Y-85677366D01*
X121750069Y-85694107D01*
X121716091Y-85704415D01*
X121674610Y-85708500D01*
X121073390Y-85708500D01*
X121031909Y-85704415D01*
X120997931Y-85694107D01*
X120966610Y-85677366D01*
X120939161Y-85654839D01*
X120916634Y-85627390D01*
X120899893Y-85596069D01*
X120889585Y-85562091D01*
X120885500Y-85520610D01*
X120885500Y-84844390D01*
X120889585Y-84802909D01*
X120899893Y-84768931D01*
X120916634Y-84737610D01*
X120939161Y-84710161D01*
X120966610Y-84687634D01*
X120997931Y-84670893D01*
X121031909Y-84660585D01*
X121073390Y-84656500D01*
X121674610Y-84656500D01*
X121716091Y-84660585D01*
G37*
G36*
X127766000Y-85683500D02*
G01*
X127064000Y-85683500D01*
X127064000Y-85131500D01*
X127766000Y-85131500D01*
X127766000Y-85683500D01*
G37*
G36*
X125666000Y-85683500D02*
G01*
X124964000Y-85683500D01*
X124964000Y-85131500D01*
X125666000Y-85131500D01*
X125666000Y-85683500D01*
G37*
G36*
X112266591Y-84262585D02*
G01*
X112300569Y-84272893D01*
X112331890Y-84289634D01*
X112359339Y-84312161D01*
X112381866Y-84339610D01*
X112398607Y-84370931D01*
X112408915Y-84404909D01*
X112413000Y-84446390D01*
X112413000Y-85047610D01*
X112408915Y-85089091D01*
X112398607Y-85123069D01*
X112381866Y-85154390D01*
X112359339Y-85181839D01*
X112331890Y-85204366D01*
X112300569Y-85221107D01*
X112266591Y-85231415D01*
X112225110Y-85235500D01*
X111548890Y-85235500D01*
X111507409Y-85231415D01*
X111473431Y-85221107D01*
X111442110Y-85204366D01*
X111414661Y-85181839D01*
X111392134Y-85154390D01*
X111375393Y-85123069D01*
X111365085Y-85089091D01*
X111361000Y-85047610D01*
X111361000Y-84446390D01*
X111365085Y-84404909D01*
X111375393Y-84370931D01*
X111392134Y-84339610D01*
X111414661Y-84312161D01*
X111442110Y-84289634D01*
X111473431Y-84272893D01*
X111507409Y-84262585D01*
X111548890Y-84258500D01*
X112225110Y-84258500D01*
X112266591Y-84262585D01*
G37*
G36*
X137184468Y-83328565D02*
G01*
X137223138Y-83340296D01*
X137258777Y-83359346D01*
X137290017Y-83384983D01*
X137315654Y-83416223D01*
X137334704Y-83451862D01*
X137346435Y-83490532D01*
X137351000Y-83536888D01*
X137351000Y-84188112D01*
X137346435Y-84234468D01*
X137334704Y-84273138D01*
X137315654Y-84308777D01*
X137290017Y-84340017D01*
X137258777Y-84365654D01*
X137223138Y-84384704D01*
X137184468Y-84396435D01*
X137138112Y-84401000D01*
X136061888Y-84401000D01*
X136015532Y-84396435D01*
X135976862Y-84384704D01*
X135941223Y-84365654D01*
X135909983Y-84340017D01*
X135884346Y-84308777D01*
X135865296Y-84273138D01*
X135853565Y-84234468D01*
X135849000Y-84188112D01*
X135849000Y-83536888D01*
X135853565Y-83490532D01*
X135865296Y-83451862D01*
X135884346Y-83416223D01*
X135909983Y-83384983D01*
X135941223Y-83359346D01*
X135976862Y-83340296D01*
X136015532Y-83328565D01*
X136061888Y-83324000D01*
X137138112Y-83324000D01*
X137184468Y-83328565D01*
G37*
G36*
X139184468Y-83328565D02*
G01*
X139223138Y-83340296D01*
X139258777Y-83359346D01*
X139290017Y-83384983D01*
X139315654Y-83416223D01*
X139334704Y-83451862D01*
X139346435Y-83490532D01*
X139351000Y-83536888D01*
X139351000Y-84188112D01*
X139346435Y-84234468D01*
X139334704Y-84273138D01*
X139315654Y-84308777D01*
X139290017Y-84340017D01*
X139258777Y-84365654D01*
X139223138Y-84384704D01*
X139184468Y-84396435D01*
X139138112Y-84401000D01*
X138061888Y-84401000D01*
X138015532Y-84396435D01*
X137976862Y-84384704D01*
X137941223Y-84365654D01*
X137909983Y-84340017D01*
X137884346Y-84308777D01*
X137865296Y-84273138D01*
X137853565Y-84234468D01*
X137849000Y-84188112D01*
X137849000Y-83536888D01*
X137853565Y-83490532D01*
X137865296Y-83451862D01*
X137884346Y-83416223D01*
X137909983Y-83384983D01*
X137941223Y-83359346D01*
X137976862Y-83340296D01*
X138015532Y-83328565D01*
X138061888Y-83324000D01*
X139138112Y-83324000D01*
X139184468Y-83328565D01*
G37*
G36*
X129879591Y-83310085D02*
G01*
X129913569Y-83320393D01*
X129944890Y-83337134D01*
X129972339Y-83359661D01*
X129994866Y-83387110D01*
X130011607Y-83418431D01*
X130021915Y-83452409D01*
X130026000Y-83493890D01*
X130026000Y-84095110D01*
X130021915Y-84136591D01*
X130011607Y-84170569D01*
X129994866Y-84201890D01*
X129972339Y-84229339D01*
X129944890Y-84251866D01*
X129913569Y-84268607D01*
X129879591Y-84278915D01*
X129838110Y-84283000D01*
X129161890Y-84283000D01*
X129120409Y-84278915D01*
X129086431Y-84268607D01*
X129055110Y-84251866D01*
X129027661Y-84229339D01*
X129005134Y-84201890D01*
X128988393Y-84170569D01*
X128978085Y-84136591D01*
X128974000Y-84095110D01*
X128974000Y-83493890D01*
X128978085Y-83452409D01*
X128988393Y-83418431D01*
X129005134Y-83387110D01*
X129027661Y-83359661D01*
X129055110Y-83337134D01*
X129086431Y-83320393D01*
X129120409Y-83310085D01*
X129161890Y-83306000D01*
X129838110Y-83306000D01*
X129879591Y-83310085D01*
G37*
G36*
X135190091Y-83310085D02*
G01*
X135224069Y-83320393D01*
X135255390Y-83337134D01*
X135282839Y-83359661D01*
X135305366Y-83387110D01*
X135322107Y-83418431D01*
X135332415Y-83452409D01*
X135336500Y-83493890D01*
X135336500Y-84095110D01*
X135332415Y-84136591D01*
X135322107Y-84170569D01*
X135305366Y-84201890D01*
X135282839Y-84229339D01*
X135255390Y-84251866D01*
X135224069Y-84268607D01*
X135190091Y-84278915D01*
X135148610Y-84283000D01*
X134472390Y-84283000D01*
X134430909Y-84278915D01*
X134396931Y-84268607D01*
X134365610Y-84251866D01*
X134338161Y-84229339D01*
X134315634Y-84201890D01*
X134298893Y-84170569D01*
X134288585Y-84136591D01*
X134284500Y-84095110D01*
X134284500Y-83493890D01*
X134288585Y-83452409D01*
X134298893Y-83418431D01*
X134315634Y-83387110D01*
X134338161Y-83359661D01*
X134365610Y-83337134D01*
X134396931Y-83320393D01*
X134430909Y-83310085D01*
X134472390Y-83306000D01*
X135148610Y-83306000D01*
X135190091Y-83310085D01*
G37*
G36*
X131443591Y-83310085D02*
G01*
X131477569Y-83320393D01*
X131508890Y-83337134D01*
X131536339Y-83359661D01*
X131558866Y-83387110D01*
X131575607Y-83418431D01*
X131585915Y-83452409D01*
X131590000Y-83493890D01*
X131590000Y-84095110D01*
X131585915Y-84136591D01*
X131575607Y-84170569D01*
X131558866Y-84201890D01*
X131536339Y-84229339D01*
X131508890Y-84251866D01*
X131477569Y-84268607D01*
X131443591Y-84278915D01*
X131402110Y-84283000D01*
X130725890Y-84283000D01*
X130684409Y-84278915D01*
X130650431Y-84268607D01*
X130619110Y-84251866D01*
X130591661Y-84229339D01*
X130569134Y-84201890D01*
X130552393Y-84170569D01*
X130542085Y-84136591D01*
X130538000Y-84095110D01*
X130538000Y-83493890D01*
X130542085Y-83452409D01*
X130552393Y-83418431D01*
X130569134Y-83387110D01*
X130591661Y-83359661D01*
X130619110Y-83337134D01*
X130650431Y-83320393D01*
X130684409Y-83310085D01*
X130725890Y-83306000D01*
X131402110Y-83306000D01*
X131443591Y-83310085D01*
G37*
G36*
X133602591Y-83310085D02*
G01*
X133636569Y-83320393D01*
X133667890Y-83337134D01*
X133695339Y-83359661D01*
X133717866Y-83387110D01*
X133734607Y-83418431D01*
X133744915Y-83452409D01*
X133749000Y-83493890D01*
X133749000Y-84095110D01*
X133744915Y-84136591D01*
X133734607Y-84170569D01*
X133717866Y-84201890D01*
X133695339Y-84229339D01*
X133667890Y-84251866D01*
X133636569Y-84268607D01*
X133602591Y-84278915D01*
X133561110Y-84283000D01*
X132884890Y-84283000D01*
X132843409Y-84278915D01*
X132809431Y-84268607D01*
X132778110Y-84251866D01*
X132750661Y-84229339D01*
X132728134Y-84201890D01*
X132711393Y-84170569D01*
X132701085Y-84136591D01*
X132697000Y-84095110D01*
X132697000Y-83493890D01*
X132701085Y-83452409D01*
X132711393Y-83418431D01*
X132728134Y-83387110D01*
X132750661Y-83359661D01*
X132778110Y-83337134D01*
X132809431Y-83320393D01*
X132843409Y-83310085D01*
X132884890Y-83306000D01*
X133561110Y-83306000D01*
X133602591Y-83310085D01*
G37*
G36*
X120649091Y-83044085D02*
G01*
X120683069Y-83054393D01*
X120714390Y-83071134D01*
X120741839Y-83093661D01*
X120764366Y-83121110D01*
X120781107Y-83152431D01*
X120791415Y-83186409D01*
X120795500Y-83227890D01*
X120795500Y-83904110D01*
X120791415Y-83945591D01*
X120781107Y-83979569D01*
X120764366Y-84010890D01*
X120741839Y-84038339D01*
X120714390Y-84060866D01*
X120683069Y-84077607D01*
X120649091Y-84087915D01*
X120607610Y-84092000D01*
X120006390Y-84092000D01*
X119964909Y-84087915D01*
X119930931Y-84077607D01*
X119899610Y-84060866D01*
X119872161Y-84038339D01*
X119849634Y-84010890D01*
X119832893Y-83979569D01*
X119822585Y-83945591D01*
X119818500Y-83904110D01*
X119818500Y-83227890D01*
X119822585Y-83186409D01*
X119832893Y-83152431D01*
X119849634Y-83121110D01*
X119872161Y-83093661D01*
X119899610Y-83071134D01*
X119930931Y-83054393D01*
X119964909Y-83044085D01*
X120006390Y-83040000D01*
X120607610Y-83040000D01*
X120649091Y-83044085D01*
G37*
G36*
X128320091Y-83044085D02*
G01*
X128354069Y-83054393D01*
X128385390Y-83071134D01*
X128412839Y-83093661D01*
X128435366Y-83121110D01*
X128452107Y-83152431D01*
X128462415Y-83186409D01*
X128466500Y-83227890D01*
X128466500Y-83904110D01*
X128462415Y-83945591D01*
X128452107Y-83979569D01*
X128435366Y-84010890D01*
X128412839Y-84038339D01*
X128385390Y-84060866D01*
X128354069Y-84077607D01*
X128320091Y-84087915D01*
X128278610Y-84092000D01*
X127677390Y-84092000D01*
X127635909Y-84087915D01*
X127601931Y-84077607D01*
X127570610Y-84060866D01*
X127543161Y-84038339D01*
X127520634Y-84010890D01*
X127503893Y-83979569D01*
X127493585Y-83945591D01*
X127489500Y-83904110D01*
X127489500Y-83227890D01*
X127493585Y-83186409D01*
X127503893Y-83152431D01*
X127520634Y-83121110D01*
X127543161Y-83093661D01*
X127570610Y-83071134D01*
X127601931Y-83054393D01*
X127635909Y-83044085D01*
X127677390Y-83040000D01*
X128278610Y-83040000D01*
X128320091Y-83044085D01*
G37*
G36*
X126745091Y-83044085D02*
G01*
X126779069Y-83054393D01*
X126810390Y-83071134D01*
X126837839Y-83093661D01*
X126860366Y-83121110D01*
X126877107Y-83152431D01*
X126887415Y-83186409D01*
X126891500Y-83227890D01*
X126891500Y-83904110D01*
X126887415Y-83945591D01*
X126877107Y-83979569D01*
X126860366Y-84010890D01*
X126837839Y-84038339D01*
X126810390Y-84060866D01*
X126779069Y-84077607D01*
X126745091Y-84087915D01*
X126703610Y-84092000D01*
X126102390Y-84092000D01*
X126060909Y-84087915D01*
X126026931Y-84077607D01*
X125995610Y-84060866D01*
X125968161Y-84038339D01*
X125945634Y-84010890D01*
X125928893Y-83979569D01*
X125918585Y-83945591D01*
X125914500Y-83904110D01*
X125914500Y-83227890D01*
X125918585Y-83186409D01*
X125928893Y-83152431D01*
X125945634Y-83121110D01*
X125968161Y-83093661D01*
X125995610Y-83071134D01*
X126026931Y-83054393D01*
X126060909Y-83044085D01*
X126102390Y-83040000D01*
X126703610Y-83040000D01*
X126745091Y-83044085D01*
G37*
G36*
X125272091Y-83044085D02*
G01*
X125306069Y-83054393D01*
X125337390Y-83071134D01*
X125364839Y-83093661D01*
X125387366Y-83121110D01*
X125404107Y-83152431D01*
X125414415Y-83186409D01*
X125418500Y-83227890D01*
X125418500Y-83904110D01*
X125414415Y-83945591D01*
X125404107Y-83979569D01*
X125387366Y-84010890D01*
X125364839Y-84038339D01*
X125337390Y-84060866D01*
X125306069Y-84077607D01*
X125272091Y-84087915D01*
X125230610Y-84092000D01*
X124629390Y-84092000D01*
X124587909Y-84087915D01*
X124553931Y-84077607D01*
X124522610Y-84060866D01*
X124495161Y-84038339D01*
X124472634Y-84010890D01*
X124455893Y-83979569D01*
X124445585Y-83945591D01*
X124441500Y-83904110D01*
X124441500Y-83227890D01*
X124445585Y-83186409D01*
X124455893Y-83152431D01*
X124472634Y-83121110D01*
X124495161Y-83093661D01*
X124522610Y-83071134D01*
X124553931Y-83054393D01*
X124587909Y-83044085D01*
X124629390Y-83040000D01*
X125230610Y-83040000D01*
X125272091Y-83044085D01*
G37*
G36*
X123697091Y-83044085D02*
G01*
X123731069Y-83054393D01*
X123762390Y-83071134D01*
X123789839Y-83093661D01*
X123812366Y-83121110D01*
X123829107Y-83152431D01*
X123839415Y-83186409D01*
X123843500Y-83227890D01*
X123843500Y-83904110D01*
X123839415Y-83945591D01*
X123829107Y-83979569D01*
X123812366Y-84010890D01*
X123789839Y-84038339D01*
X123762390Y-84060866D01*
X123731069Y-84077607D01*
X123697091Y-84087915D01*
X123655610Y-84092000D01*
X123054390Y-84092000D01*
X123012909Y-84087915D01*
X122978931Y-84077607D01*
X122947610Y-84060866D01*
X122920161Y-84038339D01*
X122897634Y-84010890D01*
X122880893Y-83979569D01*
X122870585Y-83945591D01*
X122866500Y-83904110D01*
X122866500Y-83227890D01*
X122870585Y-83186409D01*
X122880893Y-83152431D01*
X122897634Y-83121110D01*
X122920161Y-83093661D01*
X122947610Y-83071134D01*
X122978931Y-83054393D01*
X123012909Y-83044085D01*
X123054390Y-83040000D01*
X123655610Y-83040000D01*
X123697091Y-83044085D01*
G37*
G36*
X122224091Y-83044085D02*
G01*
X122258069Y-83054393D01*
X122289390Y-83071134D01*
X122316839Y-83093661D01*
X122339366Y-83121110D01*
X122356107Y-83152431D01*
X122366415Y-83186409D01*
X122370500Y-83227890D01*
X122370500Y-83904110D01*
X122366415Y-83945591D01*
X122356107Y-83979569D01*
X122339366Y-84010890D01*
X122316839Y-84038339D01*
X122289390Y-84060866D01*
X122258069Y-84077607D01*
X122224091Y-84087915D01*
X122182610Y-84092000D01*
X121581390Y-84092000D01*
X121539909Y-84087915D01*
X121505931Y-84077607D01*
X121474610Y-84060866D01*
X121447161Y-84038339D01*
X121424634Y-84010890D01*
X121407893Y-83979569D01*
X121397585Y-83945591D01*
X121393500Y-83904110D01*
X121393500Y-83227890D01*
X121397585Y-83186409D01*
X121407893Y-83152431D01*
X121424634Y-83121110D01*
X121447161Y-83093661D01*
X121474610Y-83071134D01*
X121505931Y-83054393D01*
X121539909Y-83044085D01*
X121581390Y-83040000D01*
X122182610Y-83040000D01*
X122224091Y-83044085D01*
G37*
G36*
X134428591Y-81710585D02*
G01*
X134462569Y-81720893D01*
X134493890Y-81737634D01*
X134521339Y-81760161D01*
X134543866Y-81787610D01*
X134560607Y-81818931D01*
X134570915Y-81852909D01*
X134575000Y-81894390D01*
X134575000Y-82570610D01*
X134570915Y-82612091D01*
X134560607Y-82646069D01*
X134543866Y-82677390D01*
X134521339Y-82704839D01*
X134493890Y-82727366D01*
X134462569Y-82744107D01*
X134428591Y-82754415D01*
X134387110Y-82758500D01*
X133785890Y-82758500D01*
X133744409Y-82754415D01*
X133710431Y-82744107D01*
X133679110Y-82727366D01*
X133651661Y-82704839D01*
X133629134Y-82677390D01*
X133612393Y-82646069D01*
X133602085Y-82612091D01*
X133598000Y-82570610D01*
X133598000Y-81894390D01*
X133602085Y-81852909D01*
X133612393Y-81818931D01*
X133629134Y-81787610D01*
X133651661Y-81760161D01*
X133679110Y-81737634D01*
X133710431Y-81720893D01*
X133744409Y-81710585D01*
X133785890Y-81706500D01*
X134387110Y-81706500D01*
X134428591Y-81710585D01*
G37*
G36*
X136003591Y-81710585D02*
G01*
X136037569Y-81720893D01*
X136068890Y-81737634D01*
X136096339Y-81760161D01*
X136118866Y-81787610D01*
X136135607Y-81818931D01*
X136145915Y-81852909D01*
X136150000Y-81894390D01*
X136150000Y-82570610D01*
X136145915Y-82612091D01*
X136135607Y-82646069D01*
X136118866Y-82677390D01*
X136096339Y-82704839D01*
X136068890Y-82727366D01*
X136037569Y-82744107D01*
X136003591Y-82754415D01*
X135962110Y-82758500D01*
X135360890Y-82758500D01*
X135319409Y-82754415D01*
X135285431Y-82744107D01*
X135254110Y-82727366D01*
X135226661Y-82704839D01*
X135204134Y-82677390D01*
X135187393Y-82646069D01*
X135177085Y-82612091D01*
X135173000Y-82570610D01*
X135173000Y-81894390D01*
X135177085Y-81852909D01*
X135187393Y-81818931D01*
X135204134Y-81787610D01*
X135226661Y-81760161D01*
X135254110Y-81737634D01*
X135285431Y-81720893D01*
X135319409Y-81710585D01*
X135360890Y-81706500D01*
X135962110Y-81706500D01*
X136003591Y-81710585D01*
G37*
G36*
X125272091Y-81520085D02*
G01*
X125306069Y-81530393D01*
X125337390Y-81547134D01*
X125364839Y-81569661D01*
X125387366Y-81597110D01*
X125404107Y-81628431D01*
X125414415Y-81662409D01*
X125418500Y-81703890D01*
X125418500Y-82380110D01*
X125414415Y-82421591D01*
X125404107Y-82455569D01*
X125387366Y-82486890D01*
X125364839Y-82514339D01*
X125337390Y-82536866D01*
X125306069Y-82553607D01*
X125272091Y-82563915D01*
X125230610Y-82568000D01*
X124629390Y-82568000D01*
X124587909Y-82563915D01*
X124553931Y-82553607D01*
X124522610Y-82536866D01*
X124495161Y-82514339D01*
X124472634Y-82486890D01*
X124455893Y-82455569D01*
X124445585Y-82421591D01*
X124441500Y-82380110D01*
X124441500Y-81703890D01*
X124445585Y-81662409D01*
X124455893Y-81628431D01*
X124472634Y-81597110D01*
X124495161Y-81569661D01*
X124522610Y-81547134D01*
X124553931Y-81530393D01*
X124587909Y-81520085D01*
X124629390Y-81516000D01*
X125230610Y-81516000D01*
X125272091Y-81520085D01*
G37*
G36*
X123697091Y-81520085D02*
G01*
X123731069Y-81530393D01*
X123762390Y-81547134D01*
X123789839Y-81569661D01*
X123812366Y-81597110D01*
X123829107Y-81628431D01*
X123839415Y-81662409D01*
X123843500Y-81703890D01*
X123843500Y-82380110D01*
X123839415Y-82421591D01*
X123829107Y-82455569D01*
X123812366Y-82486890D01*
X123789839Y-82514339D01*
X123762390Y-82536866D01*
X123731069Y-82553607D01*
X123697091Y-82563915D01*
X123655610Y-82568000D01*
X123054390Y-82568000D01*
X123012909Y-82563915D01*
X122978931Y-82553607D01*
X122947610Y-82536866D01*
X122920161Y-82514339D01*
X122897634Y-82486890D01*
X122880893Y-82455569D01*
X122870585Y-82421591D01*
X122866500Y-82380110D01*
X122866500Y-81703890D01*
X122870585Y-81662409D01*
X122880893Y-81628431D01*
X122897634Y-81597110D01*
X122920161Y-81569661D01*
X122947610Y-81547134D01*
X122978931Y-81530393D01*
X123012909Y-81520085D01*
X123054390Y-81516000D01*
X123655610Y-81516000D01*
X123697091Y-81520085D01*
G37*
G36*
X128320091Y-81520085D02*
G01*
X128354069Y-81530393D01*
X128385390Y-81547134D01*
X128412839Y-81569661D01*
X128435366Y-81597110D01*
X128452107Y-81628431D01*
X128462415Y-81662409D01*
X128466500Y-81703890D01*
X128466500Y-82380110D01*
X128462415Y-82421591D01*
X128452107Y-82455569D01*
X128435366Y-82486890D01*
X128412839Y-82514339D01*
X128385390Y-82536866D01*
X128354069Y-82553607D01*
X128320091Y-82563915D01*
X128278610Y-82568000D01*
X127677390Y-82568000D01*
X127635909Y-82563915D01*
X127601931Y-82553607D01*
X127570610Y-82536866D01*
X127543161Y-82514339D01*
X127520634Y-82486890D01*
X127503893Y-82455569D01*
X127493585Y-82421591D01*
X127489500Y-82380110D01*
X127489500Y-81703890D01*
X127493585Y-81662409D01*
X127503893Y-81628431D01*
X127520634Y-81597110D01*
X127543161Y-81569661D01*
X127570610Y-81547134D01*
X127601931Y-81530393D01*
X127635909Y-81520085D01*
X127677390Y-81516000D01*
X128278610Y-81516000D01*
X128320091Y-81520085D01*
G37*
G36*
X126745091Y-81520085D02*
G01*
X126779069Y-81530393D01*
X126810390Y-81547134D01*
X126837839Y-81569661D01*
X126860366Y-81597110D01*
X126877107Y-81628431D01*
X126887415Y-81662409D01*
X126891500Y-81703890D01*
X126891500Y-82380110D01*
X126887415Y-82421591D01*
X126877107Y-82455569D01*
X126860366Y-82486890D01*
X126837839Y-82514339D01*
X126810390Y-82536866D01*
X126779069Y-82553607D01*
X126745091Y-82563915D01*
X126703610Y-82568000D01*
X126102390Y-82568000D01*
X126060909Y-82563915D01*
X126026931Y-82553607D01*
X125995610Y-82536866D01*
X125968161Y-82514339D01*
X125945634Y-82486890D01*
X125928893Y-82455569D01*
X125918585Y-82421591D01*
X125914500Y-82380110D01*
X125914500Y-81703890D01*
X125918585Y-81662409D01*
X125928893Y-81628431D01*
X125945634Y-81597110D01*
X125968161Y-81569661D01*
X125995610Y-81547134D01*
X126026931Y-81530393D01*
X126060909Y-81520085D01*
X126102390Y-81516000D01*
X126703610Y-81516000D01*
X126745091Y-81520085D01*
G37*
G36*
X140238000Y-82479000D02*
G01*
X139076000Y-82479000D01*
X139076000Y-79827000D01*
X140238000Y-79827000D01*
X140238000Y-82479000D01*
G37*
G36*
X138038000Y-82479000D02*
G01*
X136876000Y-82479000D01*
X136876000Y-79827000D01*
X138038000Y-79827000D01*
X138038000Y-82479000D01*
G37*
G36*
X143509672Y-80348449D02*
G01*
X143509674Y-80348450D01*
X143509675Y-80348450D01*
X143578103Y-80376793D01*
X143639686Y-80417942D01*
X143692058Y-80470314D01*
X143733207Y-80531897D01*
X143752717Y-80579000D01*
X143761551Y-80600328D01*
X143776000Y-80672966D01*
X143776000Y-80747034D01*
X143771432Y-80770000D01*
X143761550Y-80819675D01*
X143733207Y-80888103D01*
X143692058Y-80949686D01*
X143639686Y-81002058D01*
X143578103Y-81043207D01*
X143509675Y-81071550D01*
X143509674Y-81071550D01*
X143509672Y-81071551D01*
X143437034Y-81086000D01*
X143362966Y-81086000D01*
X143290328Y-81071551D01*
X143290326Y-81071550D01*
X143290325Y-81071550D01*
X143221897Y-81043207D01*
X143160314Y-81002058D01*
X143107942Y-80949686D01*
X143066793Y-80888103D01*
X143038450Y-80819675D01*
X143028569Y-80770000D01*
X143024000Y-80747034D01*
X143024000Y-80672966D01*
X143038449Y-80600328D01*
X143047283Y-80579000D01*
X143066793Y-80531897D01*
X143107942Y-80470314D01*
X143160314Y-80417942D01*
X143221897Y-80376793D01*
X143290325Y-80348450D01*
X143290326Y-80348450D01*
X143290328Y-80348449D01*
X143362966Y-80334000D01*
X143437034Y-80334000D01*
X143509672Y-80348449D01*
G37*
G36*
X125272091Y-79932585D02*
G01*
X125306069Y-79942893D01*
X125337390Y-79959634D01*
X125364839Y-79982161D01*
X125387366Y-80009610D01*
X125404107Y-80040931D01*
X125414415Y-80074909D01*
X125418500Y-80116390D01*
X125418500Y-80792610D01*
X125414415Y-80834091D01*
X125404107Y-80868069D01*
X125387366Y-80899390D01*
X125364839Y-80926839D01*
X125337390Y-80949366D01*
X125306069Y-80966107D01*
X125272091Y-80976415D01*
X125230610Y-80980500D01*
X124629390Y-80980500D01*
X124587909Y-80976415D01*
X124553931Y-80966107D01*
X124522610Y-80949366D01*
X124495161Y-80926839D01*
X124472634Y-80899390D01*
X124455893Y-80868069D01*
X124445585Y-80834091D01*
X124441500Y-80792610D01*
X124441500Y-80116390D01*
X124445585Y-80074909D01*
X124455893Y-80040931D01*
X124472634Y-80009610D01*
X124495161Y-79982161D01*
X124522610Y-79959634D01*
X124553931Y-79942893D01*
X124587909Y-79932585D01*
X124629390Y-79928500D01*
X125230610Y-79928500D01*
X125272091Y-79932585D01*
G37*
G36*
X123697091Y-79932585D02*
G01*
X123731069Y-79942893D01*
X123762390Y-79959634D01*
X123789839Y-79982161D01*
X123812366Y-80009610D01*
X123829107Y-80040931D01*
X123839415Y-80074909D01*
X123843500Y-80116390D01*
X123843500Y-80792610D01*
X123839415Y-80834091D01*
X123829107Y-80868069D01*
X123812366Y-80899390D01*
X123789839Y-80926839D01*
X123762390Y-80949366D01*
X123731069Y-80966107D01*
X123697091Y-80976415D01*
X123655610Y-80980500D01*
X123054390Y-80980500D01*
X123012909Y-80976415D01*
X122978931Y-80966107D01*
X122947610Y-80949366D01*
X122920161Y-80926839D01*
X122897634Y-80899390D01*
X122880893Y-80868069D01*
X122870585Y-80834091D01*
X122866500Y-80792610D01*
X122866500Y-80116390D01*
X122870585Y-80074909D01*
X122880893Y-80040931D01*
X122897634Y-80009610D01*
X122920161Y-79982161D01*
X122947610Y-79959634D01*
X122978931Y-79942893D01*
X123012909Y-79932585D01*
X123054390Y-79928500D01*
X123655610Y-79928500D01*
X123697091Y-79932585D01*
G37*
G36*
X127404795Y-79194323D02*
G01*
X127411809Y-79196451D01*
X127425577Y-79203810D01*
X127448216Y-79213187D01*
X127472249Y-79217967D01*
X127496753Y-79217967D01*
X127520786Y-79213186D01*
X127543423Y-79203810D01*
X127557191Y-79196451D01*
X127564205Y-79194323D01*
X127577640Y-79193000D01*
X127891360Y-79193000D01*
X127904795Y-79194323D01*
X127911809Y-79196451D01*
X127925577Y-79203810D01*
X127948216Y-79213187D01*
X127972249Y-79217967D01*
X127996753Y-79217967D01*
X128020786Y-79213186D01*
X128043423Y-79203810D01*
X128057191Y-79196451D01*
X128064205Y-79194323D01*
X128077640Y-79193000D01*
X128391360Y-79193000D01*
X128404795Y-79194323D01*
X128411809Y-79196451D01*
X128425577Y-79203810D01*
X128448216Y-79213187D01*
X128472249Y-79217967D01*
X128496753Y-79217967D01*
X128520786Y-79213186D01*
X128543423Y-79203810D01*
X128557191Y-79196451D01*
X128564205Y-79194323D01*
X128577640Y-79193000D01*
X128891360Y-79193000D01*
X128904795Y-79194323D01*
X128911809Y-79196451D01*
X128925577Y-79203810D01*
X128948216Y-79213187D01*
X128972249Y-79217967D01*
X128996753Y-79217967D01*
X129020786Y-79213186D01*
X129043423Y-79203810D01*
X129057191Y-79196451D01*
X129064205Y-79194323D01*
X129077640Y-79193000D01*
X129391360Y-79193000D01*
X129404795Y-79194323D01*
X129411809Y-79196451D01*
X129425577Y-79203810D01*
X129448216Y-79213187D01*
X129472249Y-79217967D01*
X129496753Y-79217967D01*
X129520786Y-79213186D01*
X129543423Y-79203810D01*
X129557191Y-79196451D01*
X129564205Y-79194323D01*
X129577640Y-79193000D01*
X129891360Y-79193000D01*
X129904795Y-79194323D01*
X129911809Y-79196451D01*
X129925577Y-79203810D01*
X129948216Y-79213187D01*
X129972249Y-79217967D01*
X129996753Y-79217967D01*
X130020786Y-79213186D01*
X130043423Y-79203810D01*
X130057191Y-79196451D01*
X130064205Y-79194323D01*
X130077640Y-79193000D01*
X130391360Y-79193000D01*
X130404795Y-79194323D01*
X130411809Y-79196451D01*
X130425577Y-79203810D01*
X130448216Y-79213187D01*
X130472249Y-79217967D01*
X130496753Y-79217967D01*
X130520786Y-79213186D01*
X130543423Y-79203810D01*
X130557191Y-79196451D01*
X130564205Y-79194323D01*
X130577640Y-79193000D01*
X130891360Y-79193000D01*
X130904795Y-79194323D01*
X130911809Y-79196451D01*
X130925577Y-79203810D01*
X130948216Y-79213187D01*
X130972249Y-79217967D01*
X130996753Y-79217967D01*
X131020786Y-79213186D01*
X131043423Y-79203810D01*
X131057191Y-79196451D01*
X131064205Y-79194323D01*
X131077640Y-79193000D01*
X131391360Y-79193000D01*
X131404795Y-79194323D01*
X131411809Y-79196451D01*
X131425577Y-79203810D01*
X131448216Y-79213187D01*
X131472249Y-79217967D01*
X131496753Y-79217967D01*
X131520786Y-79213186D01*
X131543423Y-79203810D01*
X131557191Y-79196451D01*
X131564205Y-79194323D01*
X131577640Y-79193000D01*
X131891360Y-79193000D01*
X131904795Y-79194323D01*
X131911809Y-79196451D01*
X131925577Y-79203810D01*
X131948216Y-79213187D01*
X131972249Y-79217967D01*
X131996753Y-79217967D01*
X132020786Y-79213186D01*
X132043423Y-79203810D01*
X132057191Y-79196451D01*
X132064205Y-79194323D01*
X132077640Y-79193000D01*
X132391360Y-79193000D01*
X132404795Y-79194323D01*
X132411809Y-79196451D01*
X132425577Y-79203810D01*
X132448216Y-79213187D01*
X132472249Y-79217967D01*
X132496753Y-79217967D01*
X132520786Y-79213186D01*
X132543423Y-79203810D01*
X132557191Y-79196451D01*
X132564205Y-79194323D01*
X132577640Y-79193000D01*
X132891360Y-79193000D01*
X132904795Y-79194323D01*
X132911810Y-79196451D01*
X132918276Y-79199908D01*
X132923942Y-79204558D01*
X132928592Y-79210224D01*
X132932049Y-79216690D01*
X132934177Y-79223705D01*
X132935500Y-79237140D01*
X132935500Y-80725860D01*
X132934177Y-80739295D01*
X132932049Y-80746310D01*
X132928592Y-80752776D01*
X132923942Y-80758442D01*
X132918276Y-80763092D01*
X132911810Y-80766549D01*
X132904795Y-80768677D01*
X132891360Y-80770000D01*
X132577640Y-80770000D01*
X132564205Y-80768677D01*
X132557191Y-80766549D01*
X132543423Y-80759190D01*
X132520784Y-80749813D01*
X132496751Y-80745033D01*
X132472247Y-80745033D01*
X132448214Y-80749814D01*
X132425577Y-80759190D01*
X132411809Y-80766549D01*
X132404795Y-80768677D01*
X132391360Y-80770000D01*
X132077640Y-80770000D01*
X132064205Y-80768677D01*
X132057191Y-80766549D01*
X132043423Y-80759190D01*
X132020784Y-80749813D01*
X131996751Y-80745033D01*
X131972247Y-80745033D01*
X131948214Y-80749814D01*
X131925577Y-80759190D01*
X131911809Y-80766549D01*
X131904795Y-80768677D01*
X131891360Y-80770000D01*
X131577640Y-80770000D01*
X131564205Y-80768677D01*
X131557191Y-80766549D01*
X131543423Y-80759190D01*
X131520784Y-80749813D01*
X131496751Y-80745033D01*
X131472247Y-80745033D01*
X131448214Y-80749814D01*
X131425577Y-80759190D01*
X131411809Y-80766549D01*
X131404795Y-80768677D01*
X131391360Y-80770000D01*
X131077640Y-80770000D01*
X131064205Y-80768677D01*
X131057191Y-80766549D01*
X131043423Y-80759190D01*
X131020784Y-80749813D01*
X130996751Y-80745033D01*
X130972247Y-80745033D01*
X130948214Y-80749814D01*
X130925577Y-80759190D01*
X130911809Y-80766549D01*
X130904795Y-80768677D01*
X130891360Y-80770000D01*
X130577640Y-80770000D01*
X130564205Y-80768677D01*
X130557191Y-80766549D01*
X130543423Y-80759190D01*
X130520784Y-80749813D01*
X130496751Y-80745033D01*
X130472247Y-80745033D01*
X130448214Y-80749814D01*
X130425577Y-80759190D01*
X130411809Y-80766549D01*
X130404795Y-80768677D01*
X130391360Y-80770000D01*
X130077640Y-80770000D01*
X130064205Y-80768677D01*
X130057191Y-80766549D01*
X130043423Y-80759190D01*
X130020784Y-80749813D01*
X129996751Y-80745033D01*
X129972247Y-80745033D01*
X129948214Y-80749814D01*
X129925577Y-80759190D01*
X129911809Y-80766549D01*
X129904795Y-80768677D01*
X129891360Y-80770000D01*
X129577640Y-80770000D01*
X129564205Y-80768677D01*
X129557191Y-80766549D01*
X129543423Y-80759190D01*
X129520784Y-80749813D01*
X129496751Y-80745033D01*
X129472247Y-80745033D01*
X129448214Y-80749814D01*
X129425577Y-80759190D01*
X129411809Y-80766549D01*
X129404795Y-80768677D01*
X129391360Y-80770000D01*
X129077640Y-80770000D01*
X129064205Y-80768677D01*
X129057191Y-80766549D01*
X129043423Y-80759190D01*
X129020784Y-80749813D01*
X128996751Y-80745033D01*
X128972247Y-80745033D01*
X128948214Y-80749814D01*
X128925577Y-80759190D01*
X128911809Y-80766549D01*
X128904795Y-80768677D01*
X128891360Y-80770000D01*
X128577640Y-80770000D01*
X128564205Y-80768677D01*
X128557191Y-80766549D01*
X128543423Y-80759190D01*
X128520784Y-80749813D01*
X128496751Y-80745033D01*
X128472247Y-80745033D01*
X128448214Y-80749814D01*
X128425577Y-80759190D01*
X128411809Y-80766549D01*
X128404795Y-80768677D01*
X128391360Y-80770000D01*
X128077640Y-80770000D01*
X128064205Y-80768677D01*
X128057191Y-80766549D01*
X128043423Y-80759190D01*
X128020784Y-80749813D01*
X127996751Y-80745033D01*
X127972247Y-80745033D01*
X127948214Y-80749814D01*
X127925577Y-80759190D01*
X127911809Y-80766549D01*
X127904795Y-80768677D01*
X127891360Y-80770000D01*
X127577640Y-80770000D01*
X127564205Y-80768677D01*
X127557191Y-80766549D01*
X127543423Y-80759190D01*
X127520784Y-80749813D01*
X127496751Y-80745033D01*
X127472247Y-80745033D01*
X127448214Y-80749814D01*
X127425577Y-80759190D01*
X127411809Y-80766549D01*
X127404795Y-80768677D01*
X127391360Y-80770000D01*
X127077640Y-80770000D01*
X127064205Y-80768677D01*
X127057190Y-80766549D01*
X127050724Y-80763092D01*
X127045058Y-80758442D01*
X127040408Y-80752776D01*
X127036951Y-80746310D01*
X127034823Y-80739295D01*
X127033500Y-80725860D01*
X127033500Y-79237140D01*
X127034823Y-79223705D01*
X127036951Y-79216690D01*
X127040408Y-79210224D01*
X127045058Y-79204558D01*
X127050724Y-79199908D01*
X127057190Y-79196451D01*
X127064205Y-79194323D01*
X127077640Y-79193000D01*
X127391360Y-79193000D01*
X127404795Y-79194323D01*
G37*
G36*
X118016721Y-78908674D02*
G01*
X118116995Y-78950209D01*
X118116996Y-78950210D01*
X118207242Y-79010510D01*
X118283990Y-79087258D01*
X118283991Y-79087260D01*
X118344291Y-79177505D01*
X118385826Y-79277779D01*
X118407000Y-79384230D01*
X118407000Y-79492770D01*
X118385826Y-79599221D01*
X118344291Y-79699495D01*
X118344290Y-79699496D01*
X118283990Y-79789742D01*
X118207242Y-79866490D01*
X118205564Y-79867611D01*
X118116995Y-79926791D01*
X118016721Y-79968326D01*
X117910270Y-79989500D01*
X117801730Y-79989500D01*
X117695279Y-79968326D01*
X117595005Y-79926791D01*
X117506436Y-79867611D01*
X117504758Y-79866490D01*
X117428010Y-79789742D01*
X117367710Y-79699496D01*
X117367709Y-79699495D01*
X117326174Y-79599221D01*
X117305000Y-79492770D01*
X117305000Y-79384230D01*
X117326174Y-79277779D01*
X117367709Y-79177505D01*
X117428009Y-79087260D01*
X117428010Y-79087258D01*
X117504758Y-79010510D01*
X117595004Y-78950210D01*
X117595005Y-78950209D01*
X117695279Y-78908674D01*
X117801730Y-78887500D01*
X117910270Y-78887500D01*
X118016721Y-78908674D01*
G37*
G36*
X147458015Y-78736973D02*
G01*
X147561879Y-78768479D01*
X147589055Y-78783005D01*
X147657600Y-78819643D01*
X147741501Y-78888499D01*
X147810357Y-78972400D01*
X147830727Y-79010510D01*
X147861521Y-79068121D01*
X147893027Y-79171985D01*
X147903666Y-79280000D01*
X147893027Y-79388015D01*
X147861521Y-79491879D01*
X147846995Y-79519055D01*
X147810357Y-79587600D01*
X147741501Y-79671501D01*
X147657600Y-79740357D01*
X147602014Y-79770068D01*
X147561879Y-79791521D01*
X147458015Y-79823027D01*
X147377067Y-79831000D01*
X146722933Y-79831000D01*
X146641985Y-79823027D01*
X146538121Y-79791521D01*
X146497986Y-79770068D01*
X146442400Y-79740357D01*
X146358499Y-79671501D01*
X146289643Y-79587600D01*
X146253005Y-79519055D01*
X146238479Y-79491879D01*
X146206973Y-79388015D01*
X146196334Y-79280000D01*
X146206973Y-79171985D01*
X146238479Y-79068121D01*
X146269273Y-79010510D01*
X146289643Y-78972400D01*
X146358499Y-78888499D01*
X146442400Y-78819643D01*
X146510945Y-78783005D01*
X146538121Y-78768479D01*
X146641985Y-78736973D01*
X146722933Y-78729000D01*
X147377067Y-78729000D01*
X147458015Y-78736973D01*
G37*
G36*
X112266591Y-77900085D02*
G01*
X112300569Y-77910393D01*
X112331890Y-77927134D01*
X112359339Y-77949661D01*
X112381866Y-77977110D01*
X112398607Y-78008431D01*
X112408915Y-78042409D01*
X112413000Y-78083890D01*
X112413000Y-78685110D01*
X112408915Y-78726591D01*
X112398607Y-78760569D01*
X112381866Y-78791890D01*
X112359339Y-78819339D01*
X112331890Y-78841866D01*
X112300569Y-78858607D01*
X112266591Y-78868915D01*
X112225110Y-78873000D01*
X111548890Y-78873000D01*
X111507409Y-78868915D01*
X111473431Y-78858607D01*
X111442110Y-78841866D01*
X111414661Y-78819339D01*
X111392134Y-78791890D01*
X111375393Y-78760569D01*
X111365085Y-78726591D01*
X111361000Y-78685110D01*
X111361000Y-78083890D01*
X111365085Y-78042409D01*
X111375393Y-78008431D01*
X111392134Y-77977110D01*
X111414661Y-77949661D01*
X111442110Y-77927134D01*
X111473431Y-77910393D01*
X111507409Y-77900085D01*
X111548890Y-77896000D01*
X112225110Y-77896000D01*
X112266591Y-77900085D01*
G37*
G36*
X134904795Y-72869323D02*
G01*
X134911810Y-72871451D01*
X134918276Y-72874908D01*
X134923942Y-72879558D01*
X134928592Y-72885224D01*
X134932049Y-72891690D01*
X134934177Y-72898705D01*
X134935500Y-72912140D01*
X134935500Y-73225860D01*
X134934177Y-73239295D01*
X134932049Y-73246309D01*
X134924690Y-73260077D01*
X134915313Y-73282716D01*
X134910533Y-73306749D01*
X134910533Y-73331253D01*
X134915314Y-73355286D01*
X134924690Y-73377923D01*
X134932049Y-73391691D01*
X134934177Y-73398705D01*
X134935500Y-73412140D01*
X134935500Y-73725860D01*
X134934177Y-73739295D01*
X134932049Y-73746309D01*
X134924690Y-73760077D01*
X134915313Y-73782716D01*
X134910533Y-73806749D01*
X134910533Y-73831253D01*
X134915314Y-73855286D01*
X134924690Y-73877923D01*
X134932049Y-73891691D01*
X134934177Y-73898705D01*
X134935500Y-73912140D01*
X134935500Y-74225860D01*
X134934177Y-74239295D01*
X134932049Y-74246309D01*
X134924690Y-74260077D01*
X134915313Y-74282716D01*
X134910533Y-74306749D01*
X134910533Y-74331253D01*
X134915314Y-74355286D01*
X134924690Y-74377923D01*
X134932049Y-74391691D01*
X134934177Y-74398705D01*
X134935500Y-74412140D01*
X134935500Y-74725860D01*
X134934177Y-74739295D01*
X134932049Y-74746309D01*
X134924690Y-74760077D01*
X134915313Y-74782716D01*
X134910533Y-74806749D01*
X134910533Y-74831253D01*
X134915314Y-74855286D01*
X134924690Y-74877923D01*
X134932049Y-74891691D01*
X134934177Y-74898705D01*
X134935500Y-74912140D01*
X134935500Y-75225860D01*
X134934177Y-75239295D01*
X134932049Y-75246309D01*
X134924690Y-75260077D01*
X134915313Y-75282716D01*
X134910533Y-75306749D01*
X134910533Y-75331253D01*
X134915314Y-75355286D01*
X134924690Y-75377923D01*
X134932049Y-75391691D01*
X134934177Y-75398705D01*
X134935500Y-75412140D01*
X134935500Y-75725860D01*
X134934177Y-75739295D01*
X134932049Y-75746309D01*
X134924690Y-75760077D01*
X134915313Y-75782716D01*
X134910533Y-75806749D01*
X134910533Y-75831253D01*
X134915314Y-75855286D01*
X134924690Y-75877923D01*
X134932049Y-75891691D01*
X134934177Y-75898705D01*
X134935500Y-75912140D01*
X134935500Y-76225860D01*
X134934177Y-76239295D01*
X134932049Y-76246309D01*
X134924690Y-76260077D01*
X134915313Y-76282716D01*
X134910533Y-76306749D01*
X134910533Y-76331253D01*
X134915314Y-76355286D01*
X134924690Y-76377923D01*
X134932049Y-76391691D01*
X134934177Y-76398705D01*
X134935500Y-76412140D01*
X134935500Y-76725860D01*
X134934177Y-76739295D01*
X134932049Y-76746309D01*
X134924690Y-76760077D01*
X134915313Y-76782716D01*
X134910533Y-76806749D01*
X134910533Y-76831253D01*
X134915314Y-76855286D01*
X134924690Y-76877923D01*
X134932049Y-76891691D01*
X134934177Y-76898705D01*
X134935500Y-76912140D01*
X134935500Y-77225860D01*
X134934177Y-77239295D01*
X134932049Y-77246309D01*
X134924690Y-77260077D01*
X134915313Y-77282716D01*
X134910533Y-77306749D01*
X134910533Y-77331253D01*
X134915314Y-77355286D01*
X134924690Y-77377923D01*
X134932049Y-77391691D01*
X134934177Y-77398705D01*
X134935500Y-77412140D01*
X134935500Y-77725860D01*
X134934177Y-77739295D01*
X134932049Y-77746309D01*
X134924690Y-77760077D01*
X134915313Y-77782716D01*
X134910533Y-77806749D01*
X134910533Y-77831253D01*
X134915314Y-77855286D01*
X134924690Y-77877923D01*
X134932049Y-77891691D01*
X134934177Y-77898705D01*
X134935500Y-77912140D01*
X134935500Y-78225860D01*
X134934177Y-78239295D01*
X134932049Y-78246309D01*
X134924690Y-78260077D01*
X134915313Y-78282716D01*
X134910533Y-78306749D01*
X134910533Y-78331253D01*
X134915314Y-78355286D01*
X134924690Y-78377923D01*
X134932049Y-78391691D01*
X134934177Y-78398705D01*
X134935500Y-78412140D01*
X134935500Y-78725860D01*
X134934177Y-78739295D01*
X134932049Y-78746310D01*
X134928592Y-78752776D01*
X134923942Y-78758442D01*
X134918276Y-78763092D01*
X134911810Y-78766549D01*
X134904795Y-78768677D01*
X134891360Y-78770000D01*
X133402640Y-78770000D01*
X133389205Y-78768677D01*
X133382190Y-78766549D01*
X133375724Y-78763092D01*
X133370058Y-78758442D01*
X133365408Y-78752776D01*
X133361951Y-78746310D01*
X133359823Y-78739295D01*
X133358500Y-78725860D01*
X133358500Y-78412140D01*
X133359823Y-78398705D01*
X133361951Y-78391691D01*
X133369310Y-78377923D01*
X133378687Y-78355284D01*
X133383467Y-78331251D01*
X133383467Y-78306747D01*
X133378686Y-78282714D01*
X133369310Y-78260077D01*
X133361951Y-78246309D01*
X133359823Y-78239295D01*
X133358500Y-78225860D01*
X133358500Y-77912140D01*
X133359823Y-77898705D01*
X133361951Y-77891691D01*
X133369310Y-77877923D01*
X133378687Y-77855284D01*
X133383467Y-77831251D01*
X133383467Y-77806747D01*
X133378686Y-77782714D01*
X133369310Y-77760077D01*
X133361951Y-77746309D01*
X133359823Y-77739295D01*
X133358500Y-77725860D01*
X133358500Y-77412140D01*
X133359823Y-77398705D01*
X133361951Y-77391691D01*
X133369310Y-77377923D01*
X133378687Y-77355284D01*
X133383467Y-77331251D01*
X133383467Y-77306747D01*
X133378686Y-77282714D01*
X133369310Y-77260077D01*
X133361951Y-77246309D01*
X133359823Y-77239295D01*
X133358500Y-77225860D01*
X133358500Y-76912140D01*
X133359823Y-76898705D01*
X133361951Y-76891691D01*
X133369310Y-76877923D01*
X133378687Y-76855284D01*
X133383467Y-76831251D01*
X133383467Y-76806747D01*
X133378686Y-76782714D01*
X133369310Y-76760077D01*
X133361951Y-76746309D01*
X133359823Y-76739295D01*
X133358500Y-76725860D01*
X133358500Y-76412140D01*
X133359823Y-76398705D01*
X133361951Y-76391691D01*
X133369310Y-76377923D01*
X133378687Y-76355284D01*
X133383467Y-76331251D01*
X133383467Y-76306747D01*
X133378686Y-76282714D01*
X133369310Y-76260077D01*
X133361951Y-76246309D01*
X133359823Y-76239295D01*
X133358500Y-76225860D01*
X133358500Y-75912140D01*
X133359823Y-75898705D01*
X133361951Y-75891691D01*
X133369310Y-75877923D01*
X133378687Y-75855284D01*
X133383467Y-75831251D01*
X133383467Y-75806747D01*
X133378686Y-75782714D01*
X133369310Y-75760077D01*
X133361951Y-75746309D01*
X133359823Y-75739295D01*
X133358500Y-75725860D01*
X133358500Y-75412140D01*
X133359823Y-75398705D01*
X133361951Y-75391691D01*
X133369310Y-75377923D01*
X133378687Y-75355284D01*
X133383467Y-75331251D01*
X133383467Y-75306747D01*
X133378686Y-75282714D01*
X133369310Y-75260077D01*
X133361951Y-75246309D01*
X133359823Y-75239295D01*
X133358500Y-75225860D01*
X133358500Y-74912140D01*
X133359823Y-74898705D01*
X133361951Y-74891691D01*
X133369310Y-74877923D01*
X133378687Y-74855284D01*
X133383467Y-74831251D01*
X133383467Y-74806747D01*
X133378686Y-74782714D01*
X133369310Y-74760077D01*
X133361951Y-74746309D01*
X133359823Y-74739295D01*
X133358500Y-74725860D01*
X133358500Y-74412140D01*
X133359823Y-74398705D01*
X133361951Y-74391691D01*
X133369310Y-74377923D01*
X133378687Y-74355284D01*
X133383467Y-74331251D01*
X133383467Y-74306747D01*
X133378686Y-74282714D01*
X133369310Y-74260077D01*
X133361951Y-74246309D01*
X133359823Y-74239295D01*
X133358500Y-74225860D01*
X133358500Y-73912140D01*
X133359823Y-73898705D01*
X133361951Y-73891691D01*
X133369310Y-73877923D01*
X133378687Y-73855284D01*
X133383467Y-73831251D01*
X133383467Y-73806747D01*
X133378686Y-73782714D01*
X133369310Y-73760077D01*
X133361951Y-73746309D01*
X133359823Y-73739295D01*
X133358500Y-73725860D01*
X133358500Y-73412140D01*
X133359823Y-73398705D01*
X133361951Y-73391691D01*
X133369310Y-73377923D01*
X133378687Y-73355284D01*
X133383467Y-73331251D01*
X133383467Y-73306747D01*
X133378686Y-73282714D01*
X133369310Y-73260077D01*
X133361951Y-73246309D01*
X133359823Y-73239295D01*
X133358500Y-73225860D01*
X133358500Y-72912140D01*
X133359823Y-72898705D01*
X133361951Y-72891690D01*
X133365408Y-72885224D01*
X133370058Y-72879558D01*
X133375724Y-72874908D01*
X133382190Y-72871451D01*
X133389205Y-72869323D01*
X133402640Y-72868000D01*
X134891360Y-72868000D01*
X134904795Y-72869323D01*
G37*
G36*
X126579795Y-72869323D02*
G01*
X126586810Y-72871451D01*
X126593276Y-72874908D01*
X126598942Y-72879558D01*
X126603592Y-72885224D01*
X126607049Y-72891690D01*
X126609177Y-72898705D01*
X126610500Y-72912140D01*
X126610500Y-73225860D01*
X126609177Y-73239295D01*
X126607049Y-73246309D01*
X126599690Y-73260077D01*
X126590313Y-73282716D01*
X126585533Y-73306749D01*
X126585533Y-73331253D01*
X126590314Y-73355286D01*
X126599690Y-73377923D01*
X126607049Y-73391691D01*
X126609177Y-73398705D01*
X126610500Y-73412140D01*
X126610500Y-73725860D01*
X126609177Y-73739295D01*
X126607049Y-73746309D01*
X126599690Y-73760077D01*
X126590313Y-73782716D01*
X126585533Y-73806749D01*
X126585533Y-73831253D01*
X126590314Y-73855286D01*
X126599690Y-73877923D01*
X126607049Y-73891691D01*
X126609177Y-73898705D01*
X126610500Y-73912140D01*
X126610500Y-74225860D01*
X126609177Y-74239295D01*
X126607049Y-74246309D01*
X126599690Y-74260077D01*
X126590313Y-74282716D01*
X126585533Y-74306749D01*
X126585533Y-74331253D01*
X126590314Y-74355286D01*
X126599690Y-74377923D01*
X126607049Y-74391691D01*
X126609177Y-74398705D01*
X126610500Y-74412140D01*
X126610500Y-74725860D01*
X126609177Y-74739295D01*
X126607049Y-74746309D01*
X126599690Y-74760077D01*
X126590313Y-74782716D01*
X126585533Y-74806749D01*
X126585533Y-74831253D01*
X126590314Y-74855286D01*
X126599690Y-74877923D01*
X126607049Y-74891691D01*
X126609177Y-74898705D01*
X126610500Y-74912140D01*
X126610500Y-75225860D01*
X126609177Y-75239295D01*
X126607049Y-75246309D01*
X126599690Y-75260077D01*
X126590313Y-75282716D01*
X126585533Y-75306749D01*
X126585533Y-75331253D01*
X126590314Y-75355286D01*
X126599690Y-75377923D01*
X126607049Y-75391691D01*
X126609177Y-75398705D01*
X126610500Y-75412140D01*
X126610500Y-75725860D01*
X126609177Y-75739295D01*
X126607049Y-75746309D01*
X126599690Y-75760077D01*
X126590313Y-75782716D01*
X126585533Y-75806749D01*
X126585533Y-75831253D01*
X126590314Y-75855286D01*
X126599690Y-75877923D01*
X126607049Y-75891691D01*
X126609177Y-75898705D01*
X126610500Y-75912140D01*
X126610500Y-76225860D01*
X126609177Y-76239295D01*
X126607049Y-76246309D01*
X126599690Y-76260077D01*
X126590313Y-76282716D01*
X126585533Y-76306749D01*
X126585533Y-76331253D01*
X126590314Y-76355286D01*
X126599690Y-76377923D01*
X126607049Y-76391691D01*
X126609177Y-76398705D01*
X126610500Y-76412140D01*
X126610500Y-76725860D01*
X126609177Y-76739295D01*
X126607049Y-76746309D01*
X126599690Y-76760077D01*
X126590313Y-76782716D01*
X126585533Y-76806749D01*
X126585533Y-76831253D01*
X126590314Y-76855286D01*
X126599690Y-76877923D01*
X126607049Y-76891691D01*
X126609177Y-76898705D01*
X126610500Y-76912140D01*
X126610500Y-77225860D01*
X126609177Y-77239295D01*
X126607049Y-77246309D01*
X126599690Y-77260077D01*
X126590313Y-77282716D01*
X126585533Y-77306749D01*
X126585533Y-77331253D01*
X126590314Y-77355286D01*
X126599690Y-77377923D01*
X126607049Y-77391691D01*
X126609177Y-77398705D01*
X126610500Y-77412140D01*
X126610500Y-77725860D01*
X126609177Y-77739295D01*
X126607049Y-77746309D01*
X126599690Y-77760077D01*
X126590313Y-77782716D01*
X126585533Y-77806749D01*
X126585533Y-77831253D01*
X126590314Y-77855286D01*
X126599690Y-77877923D01*
X126607049Y-77891691D01*
X126609177Y-77898705D01*
X126610500Y-77912140D01*
X126610500Y-78225860D01*
X126609177Y-78239295D01*
X126607049Y-78246309D01*
X126599690Y-78260077D01*
X126590313Y-78282716D01*
X126585533Y-78306749D01*
X126585533Y-78331253D01*
X126590314Y-78355286D01*
X126599690Y-78377923D01*
X126607049Y-78391691D01*
X126609177Y-78398705D01*
X126610500Y-78412140D01*
X126610500Y-78725860D01*
X126609177Y-78739295D01*
X126607049Y-78746310D01*
X126603592Y-78752776D01*
X126598942Y-78758442D01*
X126593276Y-78763092D01*
X126586810Y-78766549D01*
X126579795Y-78768677D01*
X126566360Y-78770000D01*
X125077640Y-78770000D01*
X125064205Y-78768677D01*
X125057190Y-78766549D01*
X125050724Y-78763092D01*
X125045058Y-78758442D01*
X125040408Y-78752776D01*
X125036951Y-78746310D01*
X125034823Y-78739295D01*
X125033500Y-78725860D01*
X125033500Y-78412140D01*
X125034823Y-78398705D01*
X125036951Y-78391691D01*
X125044310Y-78377923D01*
X125053687Y-78355284D01*
X125058467Y-78331251D01*
X125058467Y-78306747D01*
X125053686Y-78282714D01*
X125044310Y-78260077D01*
X125036951Y-78246309D01*
X125034823Y-78239295D01*
X125033500Y-78225860D01*
X125033500Y-77912140D01*
X125034823Y-77898705D01*
X125036951Y-77891691D01*
X125044310Y-77877923D01*
X125053687Y-77855284D01*
X125058467Y-77831251D01*
X125058467Y-77806747D01*
X125053686Y-77782714D01*
X125044310Y-77760077D01*
X125036951Y-77746309D01*
X125034823Y-77739295D01*
X125033500Y-77725860D01*
X125033500Y-77412140D01*
X125034823Y-77398705D01*
X125036951Y-77391691D01*
X125044310Y-77377923D01*
X125053687Y-77355284D01*
X125058467Y-77331251D01*
X125058467Y-77306747D01*
X125053686Y-77282714D01*
X125044310Y-77260077D01*
X125036951Y-77246309D01*
X125034823Y-77239295D01*
X125033500Y-77225860D01*
X125033500Y-76912140D01*
X125034823Y-76898705D01*
X125036951Y-76891691D01*
X125044310Y-76877923D01*
X125053687Y-76855284D01*
X125058467Y-76831251D01*
X125058467Y-76806747D01*
X125053686Y-76782714D01*
X125044310Y-76760077D01*
X125036951Y-76746309D01*
X125034823Y-76739295D01*
X125033500Y-76725860D01*
X125033500Y-76412140D01*
X125034823Y-76398705D01*
X125036951Y-76391691D01*
X125044310Y-76377923D01*
X125053687Y-76355284D01*
X125058467Y-76331251D01*
X125058467Y-76306747D01*
X125053686Y-76282714D01*
X125044310Y-76260077D01*
X125036951Y-76246309D01*
X125034823Y-76239295D01*
X125033500Y-76225860D01*
X125033500Y-75912140D01*
X125034823Y-75898705D01*
X125036951Y-75891691D01*
X125044310Y-75877923D01*
X125053687Y-75855284D01*
X125058467Y-75831251D01*
X125058467Y-75806747D01*
X125053686Y-75782714D01*
X125044310Y-75760077D01*
X125036951Y-75746309D01*
X125034823Y-75739295D01*
X125033500Y-75725860D01*
X125033500Y-75412140D01*
X125034823Y-75398705D01*
X125036951Y-75391691D01*
X125044310Y-75377923D01*
X125053687Y-75355284D01*
X125058467Y-75331251D01*
X125058467Y-75306747D01*
X125053686Y-75282714D01*
X125044310Y-75260077D01*
X125036951Y-75246309D01*
X125034823Y-75239295D01*
X125033500Y-75225860D01*
X125033500Y-74912140D01*
X125034823Y-74898705D01*
X125036951Y-74891691D01*
X125044310Y-74877923D01*
X125053687Y-74855284D01*
X125058467Y-74831251D01*
X125058467Y-74806747D01*
X125053686Y-74782714D01*
X125044310Y-74760077D01*
X125036951Y-74746309D01*
X125034823Y-74739295D01*
X125033500Y-74725860D01*
X125033500Y-74412140D01*
X125034823Y-74398705D01*
X125036951Y-74391691D01*
X125044310Y-74377923D01*
X125053687Y-74355284D01*
X125058467Y-74331251D01*
X125058467Y-74306747D01*
X125053686Y-74282714D01*
X125044310Y-74260077D01*
X125036951Y-74246309D01*
X125034823Y-74239295D01*
X125033500Y-74225860D01*
X125033500Y-73912140D01*
X125034823Y-73898705D01*
X125036951Y-73891691D01*
X125044310Y-73877923D01*
X125053687Y-73855284D01*
X125058467Y-73831251D01*
X125058467Y-73806747D01*
X125053686Y-73782714D01*
X125044310Y-73760077D01*
X125036951Y-73746309D01*
X125034823Y-73739295D01*
X125033500Y-73725860D01*
X125033500Y-73412140D01*
X125034823Y-73398705D01*
X125036951Y-73391691D01*
X125044310Y-73377923D01*
X125053687Y-73355284D01*
X125058467Y-73331251D01*
X125058467Y-73306747D01*
X125053686Y-73282714D01*
X125044310Y-73260077D01*
X125036951Y-73246309D01*
X125034823Y-73239295D01*
X125033500Y-73225860D01*
X125033500Y-72912140D01*
X125034823Y-72898705D01*
X125036951Y-72891690D01*
X125040408Y-72885224D01*
X125045058Y-72879558D01*
X125050724Y-72874908D01*
X125057190Y-72871451D01*
X125064205Y-72869323D01*
X125077640Y-72868000D01*
X126566360Y-72868000D01*
X126579795Y-72869323D01*
G37*
G36*
X137794091Y-77710085D02*
G01*
X137828069Y-77720393D01*
X137859390Y-77737134D01*
X137886839Y-77759661D01*
X137909366Y-77787110D01*
X137926107Y-77818431D01*
X137936415Y-77852409D01*
X137940500Y-77893890D01*
X137940500Y-78570110D01*
X137936415Y-78611591D01*
X137926107Y-78645569D01*
X137909366Y-78676890D01*
X137886839Y-78704339D01*
X137859390Y-78726866D01*
X137828069Y-78743607D01*
X137794091Y-78753915D01*
X137752610Y-78758000D01*
X137151390Y-78758000D01*
X137109909Y-78753915D01*
X137075931Y-78743607D01*
X137044610Y-78726866D01*
X137017161Y-78704339D01*
X136994634Y-78676890D01*
X136977893Y-78645569D01*
X136967585Y-78611591D01*
X136963500Y-78570110D01*
X136963500Y-77893890D01*
X136967585Y-77852409D01*
X136977893Y-77818431D01*
X136994634Y-77787110D01*
X137017161Y-77759661D01*
X137044610Y-77737134D01*
X137075931Y-77720393D01*
X137109909Y-77710085D01*
X137151390Y-77706000D01*
X137752610Y-77706000D01*
X137794091Y-77710085D01*
G37*
G36*
X139369091Y-77710085D02*
G01*
X139403069Y-77720393D01*
X139434390Y-77737134D01*
X139461839Y-77759661D01*
X139484366Y-77787110D01*
X139501107Y-77818431D01*
X139511415Y-77852409D01*
X139515500Y-77893890D01*
X139515500Y-78570110D01*
X139511415Y-78611591D01*
X139501107Y-78645569D01*
X139484366Y-78676890D01*
X139461839Y-78704339D01*
X139434390Y-78726866D01*
X139403069Y-78743607D01*
X139369091Y-78753915D01*
X139327610Y-78758000D01*
X138726390Y-78758000D01*
X138684909Y-78753915D01*
X138650931Y-78743607D01*
X138619610Y-78726866D01*
X138592161Y-78704339D01*
X138569634Y-78676890D01*
X138552893Y-78645569D01*
X138542585Y-78611591D01*
X138538500Y-78570110D01*
X138538500Y-77893890D01*
X138542585Y-77852409D01*
X138552893Y-77818431D01*
X138569634Y-77787110D01*
X138592161Y-77759661D01*
X138619610Y-77737134D01*
X138650931Y-77720393D01*
X138684909Y-77710085D01*
X138726390Y-77706000D01*
X139327610Y-77706000D01*
X139369091Y-77710085D01*
G37*
G36*
X113399260Y-77190371D02*
G01*
X113433071Y-77204376D01*
X113476784Y-77222482D01*
X113476787Y-77222484D01*
X113546559Y-77269104D01*
X113605896Y-77328441D01*
X113637440Y-77375650D01*
X113652518Y-77398216D01*
X113665699Y-77430040D01*
X113684629Y-77475740D01*
X113701000Y-77558043D01*
X113701000Y-77641957D01*
X113684629Y-77724260D01*
X113675496Y-77746309D01*
X113652518Y-77801784D01*
X113652516Y-77801787D01*
X113605896Y-77871559D01*
X113546559Y-77930896D01*
X113506743Y-77957500D01*
X113476784Y-77977518D01*
X113433071Y-77995624D01*
X113399260Y-78009629D01*
X113316957Y-78026000D01*
X113233043Y-78026000D01*
X113150740Y-78009629D01*
X113116929Y-77995624D01*
X113073216Y-77977518D01*
X113043257Y-77957500D01*
X113003441Y-77930896D01*
X112944104Y-77871559D01*
X112897484Y-77801787D01*
X112897482Y-77801784D01*
X112874504Y-77746309D01*
X112865371Y-77724260D01*
X112849000Y-77641957D01*
X112849000Y-77558043D01*
X112865371Y-77475740D01*
X112884301Y-77430040D01*
X112897482Y-77398216D01*
X112912560Y-77375650D01*
X112944104Y-77328441D01*
X113003441Y-77269104D01*
X113073213Y-77222484D01*
X113073216Y-77222482D01*
X113116929Y-77204376D01*
X113150740Y-77190371D01*
X113233043Y-77174000D01*
X113316957Y-77174000D01*
X113399260Y-77190371D01*
G37*
G36*
X110649260Y-77190371D02*
G01*
X110683071Y-77204376D01*
X110726784Y-77222482D01*
X110726787Y-77222484D01*
X110796559Y-77269104D01*
X110855896Y-77328441D01*
X110887440Y-77375650D01*
X110902518Y-77398216D01*
X110915699Y-77430040D01*
X110934629Y-77475740D01*
X110951000Y-77558043D01*
X110951000Y-77641957D01*
X110934629Y-77724260D01*
X110925496Y-77746309D01*
X110902518Y-77801784D01*
X110902516Y-77801787D01*
X110855896Y-77871559D01*
X110796559Y-77930896D01*
X110756743Y-77957500D01*
X110726784Y-77977518D01*
X110683071Y-77995624D01*
X110649260Y-78009629D01*
X110566957Y-78026000D01*
X110483043Y-78026000D01*
X110400740Y-78009629D01*
X110366929Y-77995624D01*
X110323216Y-77977518D01*
X110293257Y-77957500D01*
X110253441Y-77930896D01*
X110194104Y-77871559D01*
X110147484Y-77801787D01*
X110147482Y-77801784D01*
X110124504Y-77746309D01*
X110115371Y-77724260D01*
X110099000Y-77641957D01*
X110099000Y-77558043D01*
X110115371Y-77475740D01*
X110134301Y-77430040D01*
X110147482Y-77398216D01*
X110162560Y-77375650D01*
X110194104Y-77328441D01*
X110253441Y-77269104D01*
X110323213Y-77222484D01*
X110323216Y-77222482D01*
X110366929Y-77204376D01*
X110400740Y-77190371D01*
X110483043Y-77174000D01*
X110566957Y-77174000D01*
X110649260Y-77190371D01*
G37*
G36*
X118016721Y-76876674D02*
G01*
X118116995Y-76918209D01*
X118116996Y-76918210D01*
X118207242Y-76978510D01*
X118283990Y-77055258D01*
X118283991Y-77055260D01*
X118344291Y-77145505D01*
X118385826Y-77245779D01*
X118407000Y-77352230D01*
X118407000Y-77460770D01*
X118385826Y-77567221D01*
X118344291Y-77667495D01*
X118344290Y-77667496D01*
X118283990Y-77757742D01*
X118207242Y-77834490D01*
X118180424Y-77852409D01*
X118116995Y-77894791D01*
X118016721Y-77936326D01*
X117910270Y-77957500D01*
X117801730Y-77957500D01*
X117695279Y-77936326D01*
X117595005Y-77894791D01*
X117531576Y-77852409D01*
X117504758Y-77834490D01*
X117428010Y-77757742D01*
X117367710Y-77667496D01*
X117367709Y-77667495D01*
X117326174Y-77567221D01*
X117305000Y-77460770D01*
X117305000Y-77352230D01*
X117326174Y-77245779D01*
X117367709Y-77145505D01*
X117428009Y-77055260D01*
X117428010Y-77055258D01*
X117504758Y-76978510D01*
X117595004Y-76918210D01*
X117595005Y-76918209D01*
X117695279Y-76876674D01*
X117801730Y-76855500D01*
X117910270Y-76855500D01*
X118016721Y-76876674D01*
G37*
G36*
X112266591Y-76325085D02*
G01*
X112300569Y-76335393D01*
X112331890Y-76352134D01*
X112359339Y-76374661D01*
X112381866Y-76402110D01*
X112398607Y-76433431D01*
X112408915Y-76467409D01*
X112413000Y-76508890D01*
X112413000Y-77110110D01*
X112408915Y-77151591D01*
X112398607Y-77185569D01*
X112381866Y-77216890D01*
X112359339Y-77244339D01*
X112331890Y-77266866D01*
X112300569Y-77283607D01*
X112266591Y-77293915D01*
X112225110Y-77298000D01*
X111548890Y-77298000D01*
X111507409Y-77293915D01*
X111473431Y-77283607D01*
X111442110Y-77266866D01*
X111414661Y-77244339D01*
X111392134Y-77216890D01*
X111375393Y-77185569D01*
X111365085Y-77151591D01*
X111361000Y-77110110D01*
X111361000Y-76508890D01*
X111365085Y-76467409D01*
X111375393Y-76433431D01*
X111392134Y-76402110D01*
X111414661Y-76374661D01*
X111442110Y-76352134D01*
X111473431Y-76335393D01*
X111507409Y-76325085D01*
X111548890Y-76321000D01*
X112225110Y-76321000D01*
X112266591Y-76325085D01*
G37*
G36*
X137794091Y-76122585D02*
G01*
X137828069Y-76132893D01*
X137859390Y-76149634D01*
X137886839Y-76172161D01*
X137909366Y-76199610D01*
X137926107Y-76230931D01*
X137936415Y-76264909D01*
X137940500Y-76306390D01*
X137940500Y-76982610D01*
X137936415Y-77024091D01*
X137926107Y-77058069D01*
X137909366Y-77089390D01*
X137886839Y-77116839D01*
X137859390Y-77139366D01*
X137828069Y-77156107D01*
X137794091Y-77166415D01*
X137752610Y-77170500D01*
X137151390Y-77170500D01*
X137109909Y-77166415D01*
X137075931Y-77156107D01*
X137044610Y-77139366D01*
X137017161Y-77116839D01*
X136994634Y-77089390D01*
X136977893Y-77058069D01*
X136967585Y-77024091D01*
X136963500Y-76982610D01*
X136963500Y-76306390D01*
X136967585Y-76264909D01*
X136977893Y-76230931D01*
X136994634Y-76199610D01*
X137017161Y-76172161D01*
X137044610Y-76149634D01*
X137075931Y-76132893D01*
X137109909Y-76122585D01*
X137151390Y-76118500D01*
X137752610Y-76118500D01*
X137794091Y-76122585D01*
G37*
G36*
X139369091Y-76122585D02*
G01*
X139403069Y-76132893D01*
X139434390Y-76149634D01*
X139461839Y-76172161D01*
X139484366Y-76199610D01*
X139501107Y-76230931D01*
X139511415Y-76264909D01*
X139515500Y-76306390D01*
X139515500Y-76982610D01*
X139511415Y-77024091D01*
X139501107Y-77058069D01*
X139484366Y-77089390D01*
X139461839Y-77116839D01*
X139434390Y-77139366D01*
X139403069Y-77156107D01*
X139369091Y-77166415D01*
X139327610Y-77170500D01*
X138726390Y-77170500D01*
X138684909Y-77166415D01*
X138650931Y-77156107D01*
X138619610Y-77139366D01*
X138592161Y-77116839D01*
X138569634Y-77089390D01*
X138552893Y-77058069D01*
X138542585Y-77024091D01*
X138538500Y-76982610D01*
X138538500Y-76306390D01*
X138542585Y-76264909D01*
X138552893Y-76230931D01*
X138569634Y-76199610D01*
X138592161Y-76172161D01*
X138619610Y-76149634D01*
X138650931Y-76132893D01*
X138684909Y-76122585D01*
X138726390Y-76118500D01*
X139327610Y-76118500D01*
X139369091Y-76122585D01*
G37*
G36*
X147797740Y-76008626D02*
G01*
X147846136Y-76018253D01*
X147883902Y-76033896D01*
X147937311Y-76056019D01*
X147937312Y-76056020D01*
X148019369Y-76110848D01*
X148089152Y-76180631D01*
X148089153Y-76180633D01*
X148143981Y-76262689D01*
X148152276Y-76282716D01*
X148181747Y-76353864D01*
X148184559Y-76368000D01*
X148201000Y-76450655D01*
X148201000Y-76549345D01*
X148181747Y-76646135D01*
X148143981Y-76737311D01*
X148133456Y-76753063D01*
X148089152Y-76819369D01*
X148019369Y-76889152D01*
X147984179Y-76912665D01*
X147937311Y-76943981D01*
X147883902Y-76966104D01*
X147846136Y-76981747D01*
X147797740Y-76991373D01*
X147749345Y-77001000D01*
X147650655Y-77001000D01*
X147602260Y-76991373D01*
X147553864Y-76981747D01*
X147516098Y-76966104D01*
X147462689Y-76943981D01*
X147415821Y-76912665D01*
X147380631Y-76889152D01*
X147310848Y-76819369D01*
X147266544Y-76753063D01*
X147256019Y-76737311D01*
X147218253Y-76646135D01*
X147199000Y-76549345D01*
X147199000Y-76450655D01*
X147215441Y-76368000D01*
X147218253Y-76353864D01*
X147247724Y-76282716D01*
X147256019Y-76262689D01*
X147310847Y-76180633D01*
X147310848Y-76180631D01*
X147380631Y-76110848D01*
X147462688Y-76056020D01*
X147462689Y-76056019D01*
X147516098Y-76033896D01*
X147553864Y-76018253D01*
X147602260Y-76008626D01*
X147650655Y-75999000D01*
X147749345Y-75999000D01*
X147797740Y-76008626D01*
G37*
G36*
X142481000Y-76526000D02*
G01*
X141319000Y-76526000D01*
X141319000Y-73874000D01*
X142481000Y-73874000D01*
X142481000Y-76526000D01*
G37*
G36*
X144681000Y-76526000D02*
G01*
X143519000Y-76526000D01*
X143519000Y-73874000D01*
X144681000Y-73874000D01*
X144681000Y-76526000D01*
G37*
G36*
X118044721Y-74851174D02*
G01*
X118144995Y-74892709D01*
X118162583Y-74904461D01*
X118235242Y-74953010D01*
X118311990Y-75029758D01*
X118311991Y-75029760D01*
X118372291Y-75120005D01*
X118413826Y-75220279D01*
X118435000Y-75326730D01*
X118435000Y-75435270D01*
X118413826Y-75541721D01*
X118372291Y-75641995D01*
X118372290Y-75641996D01*
X118311990Y-75732242D01*
X118235242Y-75808990D01*
X118201926Y-75831251D01*
X118144995Y-75869291D01*
X118044721Y-75910826D01*
X117938270Y-75932000D01*
X117829730Y-75932000D01*
X117723279Y-75910826D01*
X117623005Y-75869291D01*
X117566074Y-75831251D01*
X117532758Y-75808990D01*
X117456010Y-75732242D01*
X117395710Y-75641996D01*
X117395709Y-75641995D01*
X117354174Y-75541721D01*
X117333000Y-75435270D01*
X117333000Y-75326730D01*
X117354174Y-75220279D01*
X117395709Y-75120005D01*
X117456009Y-75029760D01*
X117456010Y-75029758D01*
X117532758Y-74953010D01*
X117605417Y-74904461D01*
X117623005Y-74892709D01*
X117723279Y-74851174D01*
X117829730Y-74830000D01*
X117938270Y-74830000D01*
X118044721Y-74851174D01*
G37*
G36*
X122299591Y-74534585D02*
G01*
X122333569Y-74544893D01*
X122364890Y-74561634D01*
X122392339Y-74584161D01*
X122414866Y-74611610D01*
X122431607Y-74642931D01*
X122441915Y-74676909D01*
X122446000Y-74718390D01*
X122446000Y-75319610D01*
X122441915Y-75361091D01*
X122431607Y-75395069D01*
X122414866Y-75426390D01*
X122392339Y-75453839D01*
X122364890Y-75476366D01*
X122333569Y-75493107D01*
X122299591Y-75503415D01*
X122258110Y-75507500D01*
X121581890Y-75507500D01*
X121540409Y-75503415D01*
X121506431Y-75493107D01*
X121475110Y-75476366D01*
X121447661Y-75453839D01*
X121425134Y-75426390D01*
X121408393Y-75395069D01*
X121398085Y-75361091D01*
X121394000Y-75319610D01*
X121394000Y-74718390D01*
X121398085Y-74676909D01*
X121408393Y-74642931D01*
X121425134Y-74611610D01*
X121447661Y-74584161D01*
X121475110Y-74561634D01*
X121506431Y-74544893D01*
X121540409Y-74534585D01*
X121581890Y-74530500D01*
X122258110Y-74530500D01*
X122299591Y-74534585D01*
G37*
G36*
X148284468Y-74303565D02*
G01*
X148323138Y-74315296D01*
X148358777Y-74334346D01*
X148390017Y-74359983D01*
X148415654Y-74391223D01*
X148434704Y-74426862D01*
X148446435Y-74465532D01*
X148451000Y-74511888D01*
X148451000Y-75163112D01*
X148446435Y-75209468D01*
X148434704Y-75248138D01*
X148415654Y-75283777D01*
X148390017Y-75315017D01*
X148358777Y-75340654D01*
X148323138Y-75359704D01*
X148284468Y-75371435D01*
X148238112Y-75376000D01*
X147161888Y-75376000D01*
X147115532Y-75371435D01*
X147076862Y-75359704D01*
X147041223Y-75340654D01*
X147009983Y-75315017D01*
X146984346Y-75283777D01*
X146965296Y-75248138D01*
X146953565Y-75209468D01*
X146949000Y-75163112D01*
X146949000Y-74511888D01*
X146953565Y-74465532D01*
X146965296Y-74426862D01*
X146984346Y-74391223D01*
X147009983Y-74359983D01*
X147041223Y-74334346D01*
X147076862Y-74315296D01*
X147115532Y-74303565D01*
X147161888Y-74299000D01*
X148238112Y-74299000D01*
X148284468Y-74303565D01*
G37*
G36*
X146279591Y-74203085D02*
G01*
X146313569Y-74213393D01*
X146344890Y-74230134D01*
X146372339Y-74252661D01*
X146394866Y-74280110D01*
X146411607Y-74311431D01*
X146421915Y-74345409D01*
X146426000Y-74386890D01*
X146426000Y-74988110D01*
X146421915Y-75029591D01*
X146411607Y-75063569D01*
X146394866Y-75094890D01*
X146372339Y-75122339D01*
X146344890Y-75144866D01*
X146313569Y-75161607D01*
X146279591Y-75171915D01*
X146238110Y-75176000D01*
X145561890Y-75176000D01*
X145520409Y-75171915D01*
X145486431Y-75161607D01*
X145455110Y-75144866D01*
X145427661Y-75122339D01*
X145405134Y-75094890D01*
X145388393Y-75063569D01*
X145378085Y-75029591D01*
X145374000Y-74988110D01*
X145374000Y-74386890D01*
X145378085Y-74345409D01*
X145388393Y-74311431D01*
X145405134Y-74280110D01*
X145427661Y-74252661D01*
X145455110Y-74230134D01*
X145486431Y-74213393D01*
X145520409Y-74203085D01*
X145561890Y-74199000D01*
X146238110Y-74199000D01*
X146279591Y-74203085D01*
G37*
G36*
X140579591Y-74003085D02*
G01*
X140613569Y-74013393D01*
X140644890Y-74030134D01*
X140672339Y-74052661D01*
X140694866Y-74080110D01*
X140711607Y-74111431D01*
X140721915Y-74145409D01*
X140726000Y-74186890D01*
X140726000Y-74788110D01*
X140721915Y-74829591D01*
X140711607Y-74863569D01*
X140694866Y-74894890D01*
X140672339Y-74922339D01*
X140644890Y-74944866D01*
X140613569Y-74961607D01*
X140579591Y-74971915D01*
X140538110Y-74976000D01*
X139861890Y-74976000D01*
X139820409Y-74971915D01*
X139786431Y-74961607D01*
X139755110Y-74944866D01*
X139727661Y-74922339D01*
X139705134Y-74894890D01*
X139688393Y-74863569D01*
X139678085Y-74829591D01*
X139674000Y-74788110D01*
X139674000Y-74186890D01*
X139678085Y-74145409D01*
X139688393Y-74111431D01*
X139705134Y-74080110D01*
X139727661Y-74052661D01*
X139755110Y-74030134D01*
X139786431Y-74013393D01*
X139820409Y-74003085D01*
X139861890Y-73999000D01*
X140538110Y-73999000D01*
X140579591Y-74003085D01*
G37*
G36*
X122299591Y-72959585D02*
G01*
X122333569Y-72969893D01*
X122364890Y-72986634D01*
X122392339Y-73009161D01*
X122414866Y-73036610D01*
X122431607Y-73067931D01*
X122441915Y-73101909D01*
X122446000Y-73143390D01*
X122446000Y-73744610D01*
X122441915Y-73786091D01*
X122431607Y-73820069D01*
X122414866Y-73851390D01*
X122392339Y-73878839D01*
X122364890Y-73901366D01*
X122333569Y-73918107D01*
X122299591Y-73928415D01*
X122258110Y-73932500D01*
X121581890Y-73932500D01*
X121540409Y-73928415D01*
X121506431Y-73918107D01*
X121475110Y-73901366D01*
X121447661Y-73878839D01*
X121425134Y-73851390D01*
X121408393Y-73820069D01*
X121398085Y-73786091D01*
X121394000Y-73744610D01*
X121394000Y-73143390D01*
X121398085Y-73101909D01*
X121408393Y-73067931D01*
X121425134Y-73036610D01*
X121447661Y-73009161D01*
X121475110Y-72986634D01*
X121506431Y-72969893D01*
X121540409Y-72959585D01*
X121581890Y-72955500D01*
X122258110Y-72955500D01*
X122299591Y-72959585D01*
G37*
G36*
X118044721Y-72851174D02*
G01*
X118144995Y-72892709D01*
X118174075Y-72912140D01*
X118235242Y-72953010D01*
X118311990Y-73029758D01*
X118311991Y-73029760D01*
X118372291Y-73120005D01*
X118413826Y-73220279D01*
X118435000Y-73326730D01*
X118435000Y-73435270D01*
X118413826Y-73541721D01*
X118372291Y-73641995D01*
X118372290Y-73641996D01*
X118311990Y-73732242D01*
X118235242Y-73808990D01*
X118201926Y-73831251D01*
X118144995Y-73869291D01*
X118044721Y-73910826D01*
X117938270Y-73932000D01*
X117829730Y-73932000D01*
X117723279Y-73910826D01*
X117623005Y-73869291D01*
X117566074Y-73831251D01*
X117532758Y-73808990D01*
X117456010Y-73732242D01*
X117395710Y-73641996D01*
X117395709Y-73641995D01*
X117354174Y-73541721D01*
X117333000Y-73435270D01*
X117333000Y-73326730D01*
X117354174Y-73220279D01*
X117395709Y-73120005D01*
X117456009Y-73029760D01*
X117456010Y-73029758D01*
X117532758Y-72953010D01*
X117593925Y-72912140D01*
X117623005Y-72892709D01*
X117723279Y-72851174D01*
X117829730Y-72830000D01*
X117938270Y-72830000D01*
X118044721Y-72851174D01*
G37*
G36*
X146279591Y-72628085D02*
G01*
X146313569Y-72638393D01*
X146344890Y-72655134D01*
X146372339Y-72677661D01*
X146394866Y-72705110D01*
X146411607Y-72736431D01*
X146421915Y-72770409D01*
X146426000Y-72811890D01*
X146426000Y-73413110D01*
X146421915Y-73454591D01*
X146411607Y-73488569D01*
X146394866Y-73519890D01*
X146372339Y-73547339D01*
X146344890Y-73569866D01*
X146313569Y-73586607D01*
X146279591Y-73596915D01*
X146238110Y-73601000D01*
X145561890Y-73601000D01*
X145520409Y-73596915D01*
X145486431Y-73586607D01*
X145455110Y-73569866D01*
X145427661Y-73547339D01*
X145405134Y-73519890D01*
X145388393Y-73488569D01*
X145378085Y-73454591D01*
X145374000Y-73413110D01*
X145374000Y-72811890D01*
X145378085Y-72770409D01*
X145388393Y-72736431D01*
X145405134Y-72705110D01*
X145427661Y-72677661D01*
X145455110Y-72655134D01*
X145486431Y-72638393D01*
X145520409Y-72628085D01*
X145561890Y-72624000D01*
X146238110Y-72624000D01*
X146279591Y-72628085D01*
G37*
G36*
X148284468Y-72428565D02*
G01*
X148323138Y-72440296D01*
X148358777Y-72459346D01*
X148390017Y-72484983D01*
X148415654Y-72516223D01*
X148434704Y-72551862D01*
X148446435Y-72590532D01*
X148451000Y-72636888D01*
X148451000Y-73288112D01*
X148446435Y-73334468D01*
X148434704Y-73373138D01*
X148415654Y-73408777D01*
X148390017Y-73440017D01*
X148358777Y-73465654D01*
X148323138Y-73484704D01*
X148284468Y-73496435D01*
X148238112Y-73501000D01*
X147161888Y-73501000D01*
X147115532Y-73496435D01*
X147076862Y-73484704D01*
X147041223Y-73465654D01*
X147009983Y-73440017D01*
X146984346Y-73408777D01*
X146965296Y-73373138D01*
X146953565Y-73334468D01*
X146949000Y-73288112D01*
X146949000Y-72636888D01*
X146953565Y-72590532D01*
X146965296Y-72551862D01*
X146984346Y-72516223D01*
X147009983Y-72484983D01*
X147041223Y-72459346D01*
X147076862Y-72440296D01*
X147115532Y-72428565D01*
X147161888Y-72424000D01*
X148238112Y-72424000D01*
X148284468Y-72428565D01*
G37*
G36*
X140579591Y-72428085D02*
G01*
X140613569Y-72438393D01*
X140644890Y-72455134D01*
X140672339Y-72477661D01*
X140694866Y-72505110D01*
X140711607Y-72536431D01*
X140721915Y-72570409D01*
X140726000Y-72611890D01*
X140726000Y-73213110D01*
X140721915Y-73254591D01*
X140711607Y-73288569D01*
X140694866Y-73319890D01*
X140672339Y-73347339D01*
X140644890Y-73369866D01*
X140613569Y-73386607D01*
X140579591Y-73396915D01*
X140538110Y-73401000D01*
X139861890Y-73401000D01*
X139820409Y-73396915D01*
X139786431Y-73386607D01*
X139755110Y-73369866D01*
X139727661Y-73347339D01*
X139705134Y-73319890D01*
X139688393Y-73288569D01*
X139678085Y-73254591D01*
X139674000Y-73213110D01*
X139674000Y-72611890D01*
X139678085Y-72570409D01*
X139688393Y-72536431D01*
X139705134Y-72505110D01*
X139727661Y-72477661D01*
X139755110Y-72455134D01*
X139786431Y-72438393D01*
X139820409Y-72428085D01*
X139861890Y-72424000D01*
X140538110Y-72424000D01*
X140579591Y-72428085D01*
G37*
G36*
X142481000Y-72826000D02*
G01*
X141319000Y-72826000D01*
X141319000Y-72074000D01*
X142481000Y-72074000D01*
X142481000Y-72826000D01*
G37*
G36*
X144681000Y-72826000D02*
G01*
X143519000Y-72826000D01*
X143519000Y-70174000D01*
X144681000Y-70174000D01*
X144681000Y-72826000D01*
G37*
G36*
X127404795Y-70869323D02*
G01*
X127411809Y-70871451D01*
X127425577Y-70878810D01*
X127448216Y-70888187D01*
X127472249Y-70892967D01*
X127496753Y-70892967D01*
X127520786Y-70888186D01*
X127543423Y-70878810D01*
X127557191Y-70871451D01*
X127564205Y-70869323D01*
X127577640Y-70868000D01*
X127891360Y-70868000D01*
X127904795Y-70869323D01*
X127911809Y-70871451D01*
X127925577Y-70878810D01*
X127948216Y-70888187D01*
X127972249Y-70892967D01*
X127996753Y-70892967D01*
X128020786Y-70888186D01*
X128043423Y-70878810D01*
X128057191Y-70871451D01*
X128064205Y-70869323D01*
X128077640Y-70868000D01*
X128391360Y-70868000D01*
X128404795Y-70869323D01*
X128411809Y-70871451D01*
X128425577Y-70878810D01*
X128448216Y-70888187D01*
X128472249Y-70892967D01*
X128496753Y-70892967D01*
X128520786Y-70888186D01*
X128543423Y-70878810D01*
X128557191Y-70871451D01*
X128564205Y-70869323D01*
X128577640Y-70868000D01*
X128891360Y-70868000D01*
X128904795Y-70869323D01*
X128911809Y-70871451D01*
X128925577Y-70878810D01*
X128948216Y-70888187D01*
X128972249Y-70892967D01*
X128996753Y-70892967D01*
X129020786Y-70888186D01*
X129043423Y-70878810D01*
X129057191Y-70871451D01*
X129064205Y-70869323D01*
X129077640Y-70868000D01*
X129391360Y-70868000D01*
X129404795Y-70869323D01*
X129411809Y-70871451D01*
X129425577Y-70878810D01*
X129448216Y-70888187D01*
X129472249Y-70892967D01*
X129496753Y-70892967D01*
X129520786Y-70888186D01*
X129543423Y-70878810D01*
X129557191Y-70871451D01*
X129564205Y-70869323D01*
X129577640Y-70868000D01*
X129891360Y-70868000D01*
X129904795Y-70869323D01*
X129911809Y-70871451D01*
X129925577Y-70878810D01*
X129948216Y-70888187D01*
X129972249Y-70892967D01*
X129996753Y-70892967D01*
X130020786Y-70888186D01*
X130043423Y-70878810D01*
X130057191Y-70871451D01*
X130064205Y-70869323D01*
X130077640Y-70868000D01*
X130391360Y-70868000D01*
X130404795Y-70869323D01*
X130411809Y-70871451D01*
X130425577Y-70878810D01*
X130448216Y-70888187D01*
X130472249Y-70892967D01*
X130496753Y-70892967D01*
X130520786Y-70888186D01*
X130543423Y-70878810D01*
X130557191Y-70871451D01*
X130564205Y-70869323D01*
X130577640Y-70868000D01*
X130891360Y-70868000D01*
X130904795Y-70869323D01*
X130911809Y-70871451D01*
X130925577Y-70878810D01*
X130948216Y-70888187D01*
X130972249Y-70892967D01*
X130996753Y-70892967D01*
X131020786Y-70888186D01*
X131043423Y-70878810D01*
X131057191Y-70871451D01*
X131064205Y-70869323D01*
X131077640Y-70868000D01*
X131391360Y-70868000D01*
X131404795Y-70869323D01*
X131411809Y-70871451D01*
X131425577Y-70878810D01*
X131448216Y-70888187D01*
X131472249Y-70892967D01*
X131496753Y-70892967D01*
X131520786Y-70888186D01*
X131543423Y-70878810D01*
X131557191Y-70871451D01*
X131564205Y-70869323D01*
X131577640Y-70868000D01*
X131891360Y-70868000D01*
X131904795Y-70869323D01*
X131911809Y-70871451D01*
X131925577Y-70878810D01*
X131948216Y-70888187D01*
X131972249Y-70892967D01*
X131996753Y-70892967D01*
X132020786Y-70888186D01*
X132043423Y-70878810D01*
X132057191Y-70871451D01*
X132064205Y-70869323D01*
X132077640Y-70868000D01*
X132391360Y-70868000D01*
X132404795Y-70869323D01*
X132411809Y-70871451D01*
X132425577Y-70878810D01*
X132448216Y-70888187D01*
X132472249Y-70892967D01*
X132496753Y-70892967D01*
X132520786Y-70888186D01*
X132543423Y-70878810D01*
X132557191Y-70871451D01*
X132564205Y-70869323D01*
X132577640Y-70868000D01*
X132891360Y-70868000D01*
X132904795Y-70869323D01*
X132911810Y-70871451D01*
X132918276Y-70874908D01*
X132923942Y-70879558D01*
X132928592Y-70885224D01*
X132932049Y-70891690D01*
X132934177Y-70898705D01*
X132935500Y-70912140D01*
X132935500Y-72400860D01*
X132934177Y-72414295D01*
X132932049Y-72421310D01*
X132928592Y-72427776D01*
X132923942Y-72433442D01*
X132918276Y-72438092D01*
X132911810Y-72441549D01*
X132904795Y-72443677D01*
X132891360Y-72445000D01*
X132577640Y-72445000D01*
X132564205Y-72443677D01*
X132557191Y-72441549D01*
X132543423Y-72434190D01*
X132520784Y-72424813D01*
X132496751Y-72420033D01*
X132472247Y-72420033D01*
X132448214Y-72424814D01*
X132425577Y-72434190D01*
X132411809Y-72441549D01*
X132404795Y-72443677D01*
X132391360Y-72445000D01*
X132077640Y-72445000D01*
X132064205Y-72443677D01*
X132057191Y-72441549D01*
X132043423Y-72434190D01*
X132020784Y-72424813D01*
X131996751Y-72420033D01*
X131972247Y-72420033D01*
X131948214Y-72424814D01*
X131925577Y-72434190D01*
X131911809Y-72441549D01*
X131904795Y-72443677D01*
X131891360Y-72445000D01*
X131577640Y-72445000D01*
X131564205Y-72443677D01*
X131557191Y-72441549D01*
X131543423Y-72434190D01*
X131520784Y-72424813D01*
X131496751Y-72420033D01*
X131472247Y-72420033D01*
X131448214Y-72424814D01*
X131425577Y-72434190D01*
X131411809Y-72441549D01*
X131404795Y-72443677D01*
X131391360Y-72445000D01*
X131077640Y-72445000D01*
X131064205Y-72443677D01*
X131057191Y-72441549D01*
X131043423Y-72434190D01*
X131020784Y-72424813D01*
X130996751Y-72420033D01*
X130972247Y-72420033D01*
X130948214Y-72424814D01*
X130925577Y-72434190D01*
X130911809Y-72441549D01*
X130904795Y-72443677D01*
X130891360Y-72445000D01*
X130577640Y-72445000D01*
X130564205Y-72443677D01*
X130557191Y-72441549D01*
X130543423Y-72434190D01*
X130520784Y-72424813D01*
X130496751Y-72420033D01*
X130472247Y-72420033D01*
X130448214Y-72424814D01*
X130425577Y-72434190D01*
X130411809Y-72441549D01*
X130404795Y-72443677D01*
X130391360Y-72445000D01*
X130077640Y-72445000D01*
X130064205Y-72443677D01*
X130057191Y-72441549D01*
X130043423Y-72434190D01*
X130020784Y-72424813D01*
X129996751Y-72420033D01*
X129972247Y-72420033D01*
X129948214Y-72424814D01*
X129925577Y-72434190D01*
X129911809Y-72441549D01*
X129904795Y-72443677D01*
X129891360Y-72445000D01*
X129577640Y-72445000D01*
X129564205Y-72443677D01*
X129557191Y-72441549D01*
X129543423Y-72434190D01*
X129520784Y-72424813D01*
X129496751Y-72420033D01*
X129472247Y-72420033D01*
X129448214Y-72424814D01*
X129425577Y-72434190D01*
X129411809Y-72441549D01*
X129404795Y-72443677D01*
X129391360Y-72445000D01*
X129077640Y-72445000D01*
X129064205Y-72443677D01*
X129057191Y-72441549D01*
X129043423Y-72434190D01*
X129020784Y-72424813D01*
X128996751Y-72420033D01*
X128972247Y-72420033D01*
X128948214Y-72424814D01*
X128925577Y-72434190D01*
X128911809Y-72441549D01*
X128904795Y-72443677D01*
X128891360Y-72445000D01*
X128577640Y-72445000D01*
X128564205Y-72443677D01*
X128557191Y-72441549D01*
X128543423Y-72434190D01*
X128520784Y-72424813D01*
X128496751Y-72420033D01*
X128472247Y-72420033D01*
X128448214Y-72424814D01*
X128425577Y-72434190D01*
X128411809Y-72441549D01*
X128404795Y-72443677D01*
X128391360Y-72445000D01*
X128077640Y-72445000D01*
X128064205Y-72443677D01*
X128057191Y-72441549D01*
X128043423Y-72434190D01*
X128020784Y-72424813D01*
X127996751Y-72420033D01*
X127972247Y-72420033D01*
X127948214Y-72424814D01*
X127925577Y-72434190D01*
X127911809Y-72441549D01*
X127904795Y-72443677D01*
X127891360Y-72445000D01*
X127577640Y-72445000D01*
X127564205Y-72443677D01*
X127557191Y-72441549D01*
X127543423Y-72434190D01*
X127520784Y-72424813D01*
X127496751Y-72420033D01*
X127472247Y-72420033D01*
X127448214Y-72424814D01*
X127425577Y-72434190D01*
X127411809Y-72441549D01*
X127404795Y-72443677D01*
X127391360Y-72445000D01*
X127077640Y-72445000D01*
X127064205Y-72443677D01*
X127057190Y-72441549D01*
X127050724Y-72438092D01*
X127045058Y-72433442D01*
X127040408Y-72427776D01*
X127036951Y-72421310D01*
X127034823Y-72414295D01*
X127033500Y-72400860D01*
X127033500Y-70912140D01*
X127034823Y-70898705D01*
X127036951Y-70891690D01*
X127040408Y-70885224D01*
X127045058Y-70879558D01*
X127050724Y-70874908D01*
X127057190Y-70871451D01*
X127064205Y-70869323D01*
X127077640Y-70868000D01*
X127391360Y-70868000D01*
X127404795Y-70869323D01*
G37*
G36*
X140579591Y-70903085D02*
G01*
X140613569Y-70913393D01*
X140644890Y-70930134D01*
X140672339Y-70952661D01*
X140694866Y-70980110D01*
X140711607Y-71011431D01*
X140721915Y-71045409D01*
X140726000Y-71086890D01*
X140726000Y-71688110D01*
X140721915Y-71729591D01*
X140711607Y-71763569D01*
X140694866Y-71794890D01*
X140672339Y-71822339D01*
X140644890Y-71844866D01*
X140613569Y-71861607D01*
X140579591Y-71871915D01*
X140538110Y-71876000D01*
X139861890Y-71876000D01*
X139820409Y-71871915D01*
X139786431Y-71861607D01*
X139755110Y-71844866D01*
X139727661Y-71822339D01*
X139705134Y-71794890D01*
X139688393Y-71763569D01*
X139678085Y-71729591D01*
X139674000Y-71688110D01*
X139674000Y-71086890D01*
X139678085Y-71045409D01*
X139688393Y-71011431D01*
X139705134Y-70980110D01*
X139727661Y-70952661D01*
X139755110Y-70930134D01*
X139786431Y-70913393D01*
X139820409Y-70903085D01*
X139861890Y-70899000D01*
X140538110Y-70899000D01*
X140579591Y-70903085D01*
G37*
G36*
X112266591Y-69962585D02*
G01*
X112300569Y-69972893D01*
X112331890Y-69989634D01*
X112359339Y-70012161D01*
X112381866Y-70039610D01*
X112398607Y-70070931D01*
X112408915Y-70104909D01*
X112413000Y-70146390D01*
X112413000Y-70747610D01*
X112408915Y-70789091D01*
X112398607Y-70823069D01*
X112381866Y-70854390D01*
X112359339Y-70881839D01*
X112331890Y-70904366D01*
X112300569Y-70921107D01*
X112266591Y-70931415D01*
X112225110Y-70935500D01*
X111548890Y-70935500D01*
X111507409Y-70931415D01*
X111473431Y-70921107D01*
X111442110Y-70904366D01*
X111414661Y-70881839D01*
X111392134Y-70854390D01*
X111375393Y-70823069D01*
X111365085Y-70789091D01*
X111361000Y-70747610D01*
X111361000Y-70146390D01*
X111365085Y-70104909D01*
X111375393Y-70070931D01*
X111392134Y-70039610D01*
X111414661Y-70012161D01*
X111442110Y-69989634D01*
X111473431Y-69972893D01*
X111507409Y-69962585D01*
X111548890Y-69958500D01*
X112225110Y-69958500D01*
X112266591Y-69962585D01*
G37*
G36*
X142481000Y-70926000D02*
G01*
X141319000Y-70926000D01*
X141319000Y-70174000D01*
X142481000Y-70174000D01*
X142481000Y-70926000D01*
G37*
G36*
X140579591Y-69328085D02*
G01*
X140613569Y-69338393D01*
X140644890Y-69355134D01*
X140672339Y-69377661D01*
X140694866Y-69405110D01*
X140711607Y-69436431D01*
X140721915Y-69470409D01*
X140726000Y-69511890D01*
X140726000Y-70113110D01*
X140721915Y-70154591D01*
X140711607Y-70188569D01*
X140694866Y-70219890D01*
X140672339Y-70247339D01*
X140644890Y-70269866D01*
X140613569Y-70286607D01*
X140579591Y-70296915D01*
X140538110Y-70301000D01*
X139861890Y-70301000D01*
X139820409Y-70296915D01*
X139786431Y-70286607D01*
X139755110Y-70269866D01*
X139727661Y-70247339D01*
X139705134Y-70219890D01*
X139688393Y-70188569D01*
X139678085Y-70154591D01*
X139674000Y-70113110D01*
X139674000Y-69511890D01*
X139678085Y-69470409D01*
X139688393Y-69436431D01*
X139705134Y-69405110D01*
X139727661Y-69377661D01*
X139755110Y-69355134D01*
X139786431Y-69338393D01*
X139820409Y-69328085D01*
X139861890Y-69324000D01*
X140538110Y-69324000D01*
X140579591Y-69328085D01*
G37*
G36*
X147797740Y-69208626D02*
G01*
X147846136Y-69218253D01*
X147862330Y-69224961D01*
X147937311Y-69256019D01*
X147953145Y-69266599D01*
X148019369Y-69310848D01*
X148089152Y-69380631D01*
X148095374Y-69389943D01*
X148143981Y-69462689D01*
X148166104Y-69516098D01*
X148181747Y-69553864D01*
X148191374Y-69602260D01*
X148201000Y-69650655D01*
X148201000Y-69749345D01*
X148193756Y-69785761D01*
X148181747Y-69846136D01*
X148168652Y-69877750D01*
X148143981Y-69937311D01*
X148143980Y-69937312D01*
X148089152Y-70019369D01*
X148019369Y-70089152D01*
X147991749Y-70107607D01*
X147937311Y-70143981D01*
X147883902Y-70166104D01*
X147846136Y-70181747D01*
X147811839Y-70188569D01*
X147749345Y-70201000D01*
X147650655Y-70201000D01*
X147588161Y-70188569D01*
X147553864Y-70181747D01*
X147516098Y-70166104D01*
X147462689Y-70143981D01*
X147408251Y-70107607D01*
X147380631Y-70089152D01*
X147310848Y-70019369D01*
X147256020Y-69937312D01*
X147256019Y-69937311D01*
X147231348Y-69877750D01*
X147218253Y-69846136D01*
X147206244Y-69785761D01*
X147199000Y-69749345D01*
X147199000Y-69650655D01*
X147208626Y-69602260D01*
X147218253Y-69553864D01*
X147233896Y-69516098D01*
X147256019Y-69462689D01*
X147304626Y-69389943D01*
X147310848Y-69380631D01*
X147380631Y-69310848D01*
X147446855Y-69266599D01*
X147462689Y-69256019D01*
X147537670Y-69224961D01*
X147553864Y-69218253D01*
X147602260Y-69208626D01*
X147650655Y-69199000D01*
X147749345Y-69199000D01*
X147797740Y-69208626D01*
G37*
G36*
X120395091Y-69074085D02*
G01*
X120429069Y-69084393D01*
X120460390Y-69101134D01*
X120487839Y-69123661D01*
X120510366Y-69151110D01*
X120527107Y-69182431D01*
X120537415Y-69216409D01*
X120541500Y-69257890D01*
X120541500Y-69934110D01*
X120537415Y-69975591D01*
X120527107Y-70009569D01*
X120510366Y-70040890D01*
X120487839Y-70068339D01*
X120460390Y-70090866D01*
X120429069Y-70107607D01*
X120395091Y-70117915D01*
X120353610Y-70122000D01*
X119752390Y-70122000D01*
X119710909Y-70117915D01*
X119676931Y-70107607D01*
X119645610Y-70090866D01*
X119618161Y-70068339D01*
X119595634Y-70040890D01*
X119578893Y-70009569D01*
X119568585Y-69975591D01*
X119564500Y-69934110D01*
X119564500Y-69257890D01*
X119568585Y-69216409D01*
X119578893Y-69182431D01*
X119595634Y-69151110D01*
X119618161Y-69123661D01*
X119645610Y-69101134D01*
X119676931Y-69084393D01*
X119710909Y-69074085D01*
X119752390Y-69070000D01*
X120353610Y-69070000D01*
X120395091Y-69074085D01*
G37*
G36*
X121970091Y-69074085D02*
G01*
X122004069Y-69084393D01*
X122035390Y-69101134D01*
X122062839Y-69123661D01*
X122085366Y-69151110D01*
X122102107Y-69182431D01*
X122112415Y-69216409D01*
X122116500Y-69257890D01*
X122116500Y-69934110D01*
X122112415Y-69975591D01*
X122102107Y-70009569D01*
X122085366Y-70040890D01*
X122062839Y-70068339D01*
X122035390Y-70090866D01*
X122004069Y-70107607D01*
X121970091Y-70117915D01*
X121928610Y-70122000D01*
X121327390Y-70122000D01*
X121285909Y-70117915D01*
X121251931Y-70107607D01*
X121220610Y-70090866D01*
X121193161Y-70068339D01*
X121170634Y-70040890D01*
X121153893Y-70009569D01*
X121143585Y-69975591D01*
X121139500Y-69934110D01*
X121139500Y-69257890D01*
X121143585Y-69216409D01*
X121153893Y-69182431D01*
X121170634Y-69151110D01*
X121193161Y-69123661D01*
X121220610Y-69101134D01*
X121251931Y-69084393D01*
X121285909Y-69074085D01*
X121327390Y-69070000D01*
X121928610Y-69070000D01*
X121970091Y-69074085D01*
G37*
G36*
X113399260Y-69251871D02*
G01*
X113433071Y-69265876D01*
X113476784Y-69283982D01*
X113476787Y-69283984D01*
X113546559Y-69330604D01*
X113605896Y-69389941D01*
X113652516Y-69459713D01*
X113652518Y-69459716D01*
X113670624Y-69503429D01*
X113684629Y-69537240D01*
X113701000Y-69619543D01*
X113701000Y-69703457D01*
X113684629Y-69785760D01*
X113670624Y-69819571D01*
X113652518Y-69863284D01*
X113652516Y-69863287D01*
X113605896Y-69933059D01*
X113546559Y-69992396D01*
X113516978Y-70012161D01*
X113476784Y-70039018D01*
X113449157Y-70050461D01*
X113399260Y-70071129D01*
X113316957Y-70087500D01*
X113233043Y-70087500D01*
X113150740Y-70071129D01*
X113100843Y-70050461D01*
X113073216Y-70039018D01*
X113033022Y-70012161D01*
X113003441Y-69992396D01*
X112944104Y-69933059D01*
X112897484Y-69863287D01*
X112897482Y-69863284D01*
X112879376Y-69819571D01*
X112865371Y-69785760D01*
X112849000Y-69703457D01*
X112849000Y-69619543D01*
X112865371Y-69537240D01*
X112879376Y-69503429D01*
X112897482Y-69459716D01*
X112897484Y-69459713D01*
X112944104Y-69389941D01*
X113003441Y-69330604D01*
X113073213Y-69283984D01*
X113073216Y-69283982D01*
X113116929Y-69265876D01*
X113150740Y-69251871D01*
X113233043Y-69235500D01*
X113316957Y-69235500D01*
X113399260Y-69251871D01*
G37*
G36*
X110649260Y-69251871D02*
G01*
X110683071Y-69265876D01*
X110726784Y-69283982D01*
X110726787Y-69283984D01*
X110796559Y-69330604D01*
X110855896Y-69389941D01*
X110902516Y-69459713D01*
X110902518Y-69459716D01*
X110920624Y-69503429D01*
X110934629Y-69537240D01*
X110951000Y-69619543D01*
X110951000Y-69703457D01*
X110934629Y-69785760D01*
X110920624Y-69819571D01*
X110902518Y-69863284D01*
X110902516Y-69863287D01*
X110855896Y-69933059D01*
X110796559Y-69992396D01*
X110766978Y-70012161D01*
X110726784Y-70039018D01*
X110699157Y-70050461D01*
X110649260Y-70071129D01*
X110566957Y-70087500D01*
X110483043Y-70087500D01*
X110400740Y-70071129D01*
X110350843Y-70050461D01*
X110323216Y-70039018D01*
X110283022Y-70012161D01*
X110253441Y-69992396D01*
X110194104Y-69933059D01*
X110147484Y-69863287D01*
X110147482Y-69863284D01*
X110129376Y-69819571D01*
X110115371Y-69785760D01*
X110099000Y-69703457D01*
X110099000Y-69619543D01*
X110115371Y-69537240D01*
X110129376Y-69503429D01*
X110147482Y-69459716D01*
X110147484Y-69459713D01*
X110194104Y-69389941D01*
X110253441Y-69330604D01*
X110323213Y-69283984D01*
X110323216Y-69283982D01*
X110366929Y-69265876D01*
X110400740Y-69251871D01*
X110483043Y-69235500D01*
X110566957Y-69235500D01*
X110649260Y-69251871D01*
G37*
G36*
X112266591Y-68387585D02*
G01*
X112300569Y-68397893D01*
X112331890Y-68414634D01*
X112359339Y-68437161D01*
X112381866Y-68464610D01*
X112398607Y-68495931D01*
X112408915Y-68529909D01*
X112413000Y-68571390D01*
X112413000Y-69172610D01*
X112408915Y-69214091D01*
X112398607Y-69248069D01*
X112381866Y-69279390D01*
X112359339Y-69306839D01*
X112331890Y-69329366D01*
X112300569Y-69346107D01*
X112266591Y-69356415D01*
X112225110Y-69360500D01*
X111548890Y-69360500D01*
X111507409Y-69356415D01*
X111473431Y-69346107D01*
X111442110Y-69329366D01*
X111414661Y-69306839D01*
X111392134Y-69279390D01*
X111375393Y-69248069D01*
X111365085Y-69214091D01*
X111361000Y-69172610D01*
X111361000Y-68571390D01*
X111365085Y-68529909D01*
X111375393Y-68495931D01*
X111392134Y-68464610D01*
X111414661Y-68437161D01*
X111442110Y-68414634D01*
X111473431Y-68397893D01*
X111507409Y-68387585D01*
X111548890Y-68383500D01*
X112225110Y-68383500D01*
X112266591Y-68387585D01*
G37*
G36*
X142112091Y-68248585D02*
G01*
X142146069Y-68258893D01*
X142177390Y-68275634D01*
X142204839Y-68298161D01*
X142227366Y-68325610D01*
X142244107Y-68356931D01*
X142254415Y-68390909D01*
X142258500Y-68432390D01*
X142258500Y-69108610D01*
X142254415Y-69150091D01*
X142244107Y-69184069D01*
X142227366Y-69215390D01*
X142204839Y-69242839D01*
X142177390Y-69265366D01*
X142146069Y-69282107D01*
X142112091Y-69292415D01*
X142070610Y-69296500D01*
X141469390Y-69296500D01*
X141427909Y-69292415D01*
X141393931Y-69282107D01*
X141362610Y-69265366D01*
X141335161Y-69242839D01*
X141312634Y-69215390D01*
X141295893Y-69184069D01*
X141285585Y-69150091D01*
X141281500Y-69108610D01*
X141281500Y-68432390D01*
X141285585Y-68390909D01*
X141295893Y-68356931D01*
X141312634Y-68325610D01*
X141335161Y-68298161D01*
X141362610Y-68275634D01*
X141393931Y-68258893D01*
X141427909Y-68248585D01*
X141469390Y-68244500D01*
X142070610Y-68244500D01*
X142112091Y-68248585D01*
G37*
G36*
X143687091Y-68248585D02*
G01*
X143721069Y-68258893D01*
X143752390Y-68275634D01*
X143779839Y-68298161D01*
X143802366Y-68325610D01*
X143819107Y-68356931D01*
X143829415Y-68390909D01*
X143833500Y-68432390D01*
X143833500Y-69108610D01*
X143829415Y-69150091D01*
X143819107Y-69184069D01*
X143802366Y-69215390D01*
X143779839Y-69242839D01*
X143752390Y-69265366D01*
X143721069Y-69282107D01*
X143687091Y-69292415D01*
X143645610Y-69296500D01*
X143044390Y-69296500D01*
X143002909Y-69292415D01*
X142968931Y-69282107D01*
X142937610Y-69265366D01*
X142910161Y-69242839D01*
X142887634Y-69215390D01*
X142870893Y-69184069D01*
X142860585Y-69150091D01*
X142856500Y-69108610D01*
X142856500Y-68432390D01*
X142860585Y-68390909D01*
X142870893Y-68356931D01*
X142887634Y-68325610D01*
X142910161Y-68298161D01*
X142937610Y-68275634D01*
X142968931Y-68258893D01*
X143002909Y-68248585D01*
X143044390Y-68244500D01*
X143645610Y-68244500D01*
X143687091Y-68248585D01*
G37*
G36*
X140606174Y-67586465D02*
G01*
X140643867Y-67597899D01*
X140678603Y-67616466D01*
X140709048Y-67641452D01*
X140734034Y-67671897D01*
X140752601Y-67706633D01*
X140764035Y-67744326D01*
X140768500Y-67789661D01*
X140768500Y-68626339D01*
X140764035Y-68671674D01*
X140752601Y-68709367D01*
X140734034Y-68744103D01*
X140709048Y-68774548D01*
X140678603Y-68799534D01*
X140643867Y-68818101D01*
X140606174Y-68829535D01*
X140560839Y-68834000D01*
X139474161Y-68834000D01*
X139428826Y-68829535D01*
X139391133Y-68818101D01*
X139356397Y-68799534D01*
X139325952Y-68774548D01*
X139300966Y-68744103D01*
X139282399Y-68709367D01*
X139270965Y-68671674D01*
X139266500Y-68626339D01*
X139266500Y-67789661D01*
X139270965Y-67744326D01*
X139282399Y-67706633D01*
X139300966Y-67671897D01*
X139325952Y-67641452D01*
X139356397Y-67616466D01*
X139391133Y-67597899D01*
X139428826Y-67586465D01*
X139474161Y-67582000D01*
X140560839Y-67582000D01*
X140606174Y-67586465D01*
G37*
G36*
X132523591Y-67740585D02*
G01*
X132557569Y-67750893D01*
X132588890Y-67767634D01*
X132616339Y-67790161D01*
X132638866Y-67817610D01*
X132655607Y-67848931D01*
X132665915Y-67882909D01*
X132670000Y-67924390D01*
X132670000Y-68600610D01*
X132665915Y-68642091D01*
X132655607Y-68676069D01*
X132638866Y-68707390D01*
X132616339Y-68734839D01*
X132588890Y-68757366D01*
X132557569Y-68774107D01*
X132523591Y-68784415D01*
X132482110Y-68788500D01*
X131880890Y-68788500D01*
X131839409Y-68784415D01*
X131805431Y-68774107D01*
X131774110Y-68757366D01*
X131746661Y-68734839D01*
X131724134Y-68707390D01*
X131707393Y-68676069D01*
X131697085Y-68642091D01*
X131693000Y-68600610D01*
X131693000Y-67924390D01*
X131697085Y-67882909D01*
X131707393Y-67848931D01*
X131724134Y-67817610D01*
X131746661Y-67790161D01*
X131774110Y-67767634D01*
X131805431Y-67750893D01*
X131839409Y-67740585D01*
X131880890Y-67736500D01*
X132482110Y-67736500D01*
X132523591Y-67740585D01*
G37*
G36*
X134098591Y-67740585D02*
G01*
X134132569Y-67750893D01*
X134163890Y-67767634D01*
X134191339Y-67790161D01*
X134213866Y-67817610D01*
X134230607Y-67848931D01*
X134240915Y-67882909D01*
X134245000Y-67924390D01*
X134245000Y-68600610D01*
X134240915Y-68642091D01*
X134230607Y-68676069D01*
X134213866Y-68707390D01*
X134191339Y-68734839D01*
X134163890Y-68757366D01*
X134132569Y-68774107D01*
X134098591Y-68784415D01*
X134057110Y-68788500D01*
X133455890Y-68788500D01*
X133414409Y-68784415D01*
X133380431Y-68774107D01*
X133349110Y-68757366D01*
X133321661Y-68734839D01*
X133299134Y-68707390D01*
X133282393Y-68676069D01*
X133272085Y-68642091D01*
X133268000Y-68600610D01*
X133268000Y-67924390D01*
X133272085Y-67882909D01*
X133282393Y-67848931D01*
X133299134Y-67817610D01*
X133321661Y-67790161D01*
X133349110Y-67767634D01*
X133380431Y-67750893D01*
X133414409Y-67740585D01*
X133455890Y-67736500D01*
X134057110Y-67736500D01*
X134098591Y-67740585D01*
G37*
G36*
X121970091Y-67486585D02*
G01*
X122004069Y-67496893D01*
X122035390Y-67513634D01*
X122062839Y-67536161D01*
X122085366Y-67563610D01*
X122102107Y-67594931D01*
X122112415Y-67628909D01*
X122116500Y-67670390D01*
X122116500Y-68346610D01*
X122112415Y-68388091D01*
X122102107Y-68422069D01*
X122085366Y-68453390D01*
X122062839Y-68480839D01*
X122035390Y-68503366D01*
X122004069Y-68520107D01*
X121970091Y-68530415D01*
X121928610Y-68534500D01*
X121327390Y-68534500D01*
X121285909Y-68530415D01*
X121251931Y-68520107D01*
X121220610Y-68503366D01*
X121193161Y-68480839D01*
X121170634Y-68453390D01*
X121153893Y-68422069D01*
X121143585Y-68388091D01*
X121139500Y-68346610D01*
X121139500Y-67670390D01*
X121143585Y-67628909D01*
X121153893Y-67594931D01*
X121170634Y-67563610D01*
X121193161Y-67536161D01*
X121220610Y-67513634D01*
X121251931Y-67496893D01*
X121285909Y-67486585D01*
X121327390Y-67482500D01*
X121928610Y-67482500D01*
X121970091Y-67486585D01*
G37*
G36*
X120395091Y-67486585D02*
G01*
X120429069Y-67496893D01*
X120460390Y-67513634D01*
X120487839Y-67536161D01*
X120510366Y-67563610D01*
X120527107Y-67594931D01*
X120537415Y-67628909D01*
X120541500Y-67670390D01*
X120541500Y-68346610D01*
X120537415Y-68388091D01*
X120527107Y-68422069D01*
X120510366Y-68453390D01*
X120487839Y-68480839D01*
X120460390Y-68503366D01*
X120429069Y-68520107D01*
X120395091Y-68530415D01*
X120353610Y-68534500D01*
X119752390Y-68534500D01*
X119710909Y-68530415D01*
X119676931Y-68520107D01*
X119645610Y-68503366D01*
X119618161Y-68480839D01*
X119595634Y-68453390D01*
X119578893Y-68422069D01*
X119568585Y-68388091D01*
X119564500Y-68346610D01*
X119564500Y-67670390D01*
X119568585Y-67628909D01*
X119578893Y-67594931D01*
X119595634Y-67563610D01*
X119618161Y-67536161D01*
X119645610Y-67513634D01*
X119676931Y-67496893D01*
X119710909Y-67486585D01*
X119752390Y-67482500D01*
X120353610Y-67482500D01*
X120395091Y-67486585D01*
G37*
G36*
X146611266Y-65849899D02*
G01*
X146743388Y-65904626D01*
X146743390Y-65904627D01*
X146862298Y-65984079D01*
X146963421Y-66085202D01*
X146963422Y-66085204D01*
X147042874Y-66204112D01*
X147097601Y-66336234D01*
X147125500Y-66476494D01*
X147125500Y-66619506D01*
X147097601Y-66759766D01*
X147042874Y-66891888D01*
X147042873Y-66891890D01*
X146963421Y-67010798D01*
X146862298Y-67111921D01*
X146743390Y-67191373D01*
X146743389Y-67191374D01*
X146743388Y-67191374D01*
X146611266Y-67246101D01*
X146471006Y-67274000D01*
X146327994Y-67274000D01*
X146187734Y-67246101D01*
X146055612Y-67191374D01*
X146055611Y-67191374D01*
X146055610Y-67191373D01*
X145936702Y-67111921D01*
X145835579Y-67010798D01*
X145756127Y-66891890D01*
X145756126Y-66891888D01*
X145701399Y-66759766D01*
X145673500Y-66619506D01*
X145673500Y-66476494D01*
X145701399Y-66336234D01*
X145756126Y-66204112D01*
X145835578Y-66085204D01*
X145835579Y-66085202D01*
X145936702Y-65984079D01*
X146055610Y-65904627D01*
X146055612Y-65904626D01*
X146187734Y-65849899D01*
X146327994Y-65822000D01*
X146471006Y-65822000D01*
X146611266Y-65849899D01*
G37*
G36*
X149125500Y-67274000D02*
G01*
X147673500Y-67274000D01*
X147673500Y-65822000D01*
X149125500Y-65822000D01*
X149125500Y-67274000D01*
G37*
G36*
X140606174Y-65536465D02*
G01*
X140643867Y-65547899D01*
X140678603Y-65566466D01*
X140709048Y-65591452D01*
X140734034Y-65621897D01*
X140752601Y-65656633D01*
X140764035Y-65694326D01*
X140768500Y-65739661D01*
X140768500Y-66576339D01*
X140764035Y-66621674D01*
X140752601Y-66659367D01*
X140734034Y-66694103D01*
X140709048Y-66724548D01*
X140678603Y-66749534D01*
X140643867Y-66768101D01*
X140606174Y-66779535D01*
X140560839Y-66784000D01*
X139474161Y-66784000D01*
X139428826Y-66779535D01*
X139391133Y-66768101D01*
X139356397Y-66749534D01*
X139325952Y-66724548D01*
X139300966Y-66694103D01*
X139282399Y-66659367D01*
X139270965Y-66621674D01*
X139266500Y-66576339D01*
X139266500Y-65739661D01*
X139270965Y-65694326D01*
X139282399Y-65656633D01*
X139300966Y-65621897D01*
X139325952Y-65591452D01*
X139356397Y-65566466D01*
X139391133Y-65547899D01*
X139428826Y-65536465D01*
X139474161Y-65532000D01*
X140560839Y-65532000D01*
X140606174Y-65536465D01*
G37*
G36*
X125093591Y-64755585D02*
G01*
X125127569Y-64765893D01*
X125158890Y-64782634D01*
X125186339Y-64805161D01*
X125208866Y-64832610D01*
X125225607Y-64863931D01*
X125235915Y-64897909D01*
X125240000Y-64939390D01*
X125240000Y-65540610D01*
X125235915Y-65582091D01*
X125225607Y-65616069D01*
X125208866Y-65647390D01*
X125186339Y-65674839D01*
X125158890Y-65697366D01*
X125127569Y-65714107D01*
X125093591Y-65724415D01*
X125052110Y-65728500D01*
X124375890Y-65728500D01*
X124334409Y-65724415D01*
X124300431Y-65714107D01*
X124269110Y-65697366D01*
X124241661Y-65674839D01*
X124219134Y-65647390D01*
X124202393Y-65616069D01*
X124192085Y-65582091D01*
X124188000Y-65540610D01*
X124188000Y-64939390D01*
X124192085Y-64897909D01*
X124202393Y-64863931D01*
X124219134Y-64832610D01*
X124241661Y-64805161D01*
X124269110Y-64782634D01*
X124300431Y-64765893D01*
X124334409Y-64755585D01*
X124375890Y-64751500D01*
X125052110Y-64751500D01*
X125093591Y-64755585D01*
G37*
G36*
X123509928Y-64802764D02*
G01*
X123531009Y-64809160D01*
X123550445Y-64819548D01*
X123567476Y-64833524D01*
X123581452Y-64850555D01*
X123591840Y-64869991D01*
X123598236Y-64891072D01*
X123601000Y-64919140D01*
X123601000Y-65382860D01*
X123598236Y-65410928D01*
X123591840Y-65432009D01*
X123581452Y-65451445D01*
X123567476Y-65468476D01*
X123550445Y-65482452D01*
X123531009Y-65492840D01*
X123509928Y-65499236D01*
X123481860Y-65502000D01*
X121668140Y-65502000D01*
X121640072Y-65499236D01*
X121618991Y-65492840D01*
X121599555Y-65482452D01*
X121582524Y-65468476D01*
X121568548Y-65451445D01*
X121558160Y-65432009D01*
X121551764Y-65410928D01*
X121549000Y-65382860D01*
X121549000Y-64919140D01*
X121551764Y-64891072D01*
X121558160Y-64869991D01*
X121568548Y-64850555D01*
X121582524Y-64833524D01*
X121599555Y-64819548D01*
X121618991Y-64809160D01*
X121640072Y-64802764D01*
X121668140Y-64800000D01*
X123481860Y-64800000D01*
X123509928Y-64802764D01*
G37*
G36*
X118559928Y-64802764D02*
G01*
X118581009Y-64809160D01*
X118600445Y-64819548D01*
X118617476Y-64833524D01*
X118631452Y-64850555D01*
X118641840Y-64869991D01*
X118648236Y-64891072D01*
X118651000Y-64919140D01*
X118651000Y-65382860D01*
X118648236Y-65410928D01*
X118641840Y-65432009D01*
X118631452Y-65451445D01*
X118617476Y-65468476D01*
X118600445Y-65482452D01*
X118581009Y-65492840D01*
X118559928Y-65499236D01*
X118531860Y-65502000D01*
X116718140Y-65502000D01*
X116690072Y-65499236D01*
X116668991Y-65492840D01*
X116649555Y-65482452D01*
X116632524Y-65468476D01*
X116618548Y-65451445D01*
X116608160Y-65432009D01*
X116601764Y-65410928D01*
X116599000Y-65382860D01*
X116599000Y-64919140D01*
X116601764Y-64891072D01*
X116608160Y-64869991D01*
X116618548Y-64850555D01*
X116632524Y-64833524D01*
X116649555Y-64819548D01*
X116668991Y-64809160D01*
X116690072Y-64802764D01*
X116718140Y-64800000D01*
X118531860Y-64800000D01*
X118559928Y-64802764D01*
G37*
G36*
X130239000Y-64901500D02*
G01*
X129887000Y-64901500D01*
X129887000Y-63599500D01*
X130239000Y-63599500D01*
X130239000Y-64901500D01*
G37*
G36*
X130889000Y-64901500D02*
G01*
X130537000Y-64901500D01*
X130537000Y-63599500D01*
X130889000Y-63599500D01*
X130889000Y-64901500D01*
G37*
G36*
X129589000Y-64901500D02*
G01*
X129237000Y-64901500D01*
X129237000Y-63599500D01*
X129589000Y-63599500D01*
X129589000Y-64901500D01*
G37*
G36*
X132851499Y-61124137D02*
G01*
X132861108Y-61127052D01*
X132869972Y-61131790D01*
X132877737Y-61138163D01*
X132887948Y-61150606D01*
X132894878Y-61160975D01*
X132912205Y-61178302D01*
X132932580Y-61191915D01*
X132955220Y-61201291D01*
X132979253Y-61206071D01*
X133003757Y-61206070D01*
X133027790Y-61201288D01*
X133050429Y-61191910D01*
X133070802Y-61178295D01*
X133088129Y-61160968D01*
X133095058Y-61150598D01*
X133105263Y-61138163D01*
X133113028Y-61131790D01*
X133121892Y-61127052D01*
X133131501Y-61124137D01*
X133147640Y-61122548D01*
X133485360Y-61122548D01*
X133501499Y-61124137D01*
X133511108Y-61127052D01*
X133519972Y-61131790D01*
X133527737Y-61138163D01*
X133534110Y-61145928D01*
X133538848Y-61154792D01*
X133541763Y-61164401D01*
X133543352Y-61180540D01*
X133543352Y-62393262D01*
X133543111Y-62395709D01*
X133542509Y-62407960D01*
X133542509Y-62410418D01*
X133540316Y-62432685D01*
X133536020Y-62454289D01*
X133534229Y-62460194D01*
X133534228Y-62460197D01*
X133531311Y-62469813D01*
X133531309Y-62469818D01*
X133529519Y-62475718D01*
X133521088Y-62496071D01*
X133510541Y-62515803D01*
X133498300Y-62534123D01*
X133484104Y-62551422D01*
X133468522Y-62567004D01*
X133451223Y-62581200D01*
X133432903Y-62593441D01*
X133413171Y-62603988D01*
X133392820Y-62612418D01*
X133386998Y-62614184D01*
X133364360Y-62623562D01*
X133343986Y-62637177D01*
X133326659Y-62654504D01*
X133316500Y-62669709D01*
X133306336Y-62654499D01*
X133289009Y-62637172D01*
X133268634Y-62623559D01*
X133246002Y-62614184D01*
X133240180Y-62612418D01*
X133219829Y-62603988D01*
X133200097Y-62593441D01*
X133181777Y-62581200D01*
X133164478Y-62567004D01*
X133148896Y-62551422D01*
X133134700Y-62534123D01*
X133122459Y-62515803D01*
X133111912Y-62496071D01*
X133106983Y-62484171D01*
X133095431Y-62462561D01*
X133079885Y-62443619D01*
X133060943Y-62428074D01*
X133039332Y-62416524D01*
X133015883Y-62409411D01*
X132991497Y-62407010D01*
X132967111Y-62409412D01*
X132943662Y-62416526D01*
X132922052Y-62428078D01*
X132903110Y-62443624D01*
X132887565Y-62462566D01*
X132876017Y-62484171D01*
X132871088Y-62496071D01*
X132860541Y-62515803D01*
X132848300Y-62534123D01*
X132834104Y-62551422D01*
X132818522Y-62567004D01*
X132801223Y-62581200D01*
X132782903Y-62593441D01*
X132763171Y-62603988D01*
X132742820Y-62612418D01*
X132736998Y-62614184D01*
X132714360Y-62623562D01*
X132693986Y-62637177D01*
X132676659Y-62654504D01*
X132666500Y-62669709D01*
X132656336Y-62654499D01*
X132639009Y-62637172D01*
X132618634Y-62623559D01*
X132596002Y-62614184D01*
X132590180Y-62612418D01*
X132569829Y-62603988D01*
X132550097Y-62593441D01*
X132531777Y-62581200D01*
X132514478Y-62567004D01*
X132498896Y-62551422D01*
X132484703Y-62534127D01*
X132471433Y-62514266D01*
X132455888Y-62495324D01*
X132436946Y-62479779D01*
X132415335Y-62468228D01*
X132391886Y-62461114D01*
X132367500Y-62458712D01*
X132343114Y-62461114D01*
X132319665Y-62468226D01*
X132298054Y-62479777D01*
X132279112Y-62495322D01*
X132263567Y-62514264D01*
X132252016Y-62535875D01*
X132244902Y-62559324D01*
X132242500Y-62583711D01*
X132242500Y-62625400D01*
X132166488Y-62625400D01*
X132142102Y-62627802D01*
X132118653Y-62634915D01*
X132097042Y-62646466D01*
X132078100Y-62662011D01*
X132062555Y-62680953D01*
X132051004Y-62702564D01*
X132043891Y-62726013D01*
X132041489Y-62750399D01*
X132043891Y-62774785D01*
X132051004Y-62798234D01*
X132062555Y-62819845D01*
X132078100Y-62838787D01*
X132097042Y-62854332D01*
X132108025Y-62860206D01*
X132107752Y-62860716D01*
X132132903Y-62874159D01*
X132151223Y-62886400D01*
X132168522Y-62900596D01*
X132184104Y-62916178D01*
X132198300Y-62933477D01*
X132210541Y-62951797D01*
X132221088Y-62971529D01*
X132226017Y-62983429D01*
X132237569Y-63005039D01*
X132253115Y-63023981D01*
X132272057Y-63039526D01*
X132293668Y-63051076D01*
X132317117Y-63058189D01*
X132341503Y-63060590D01*
X132365889Y-63058188D01*
X132389338Y-63051074D01*
X132410948Y-63039522D01*
X132429890Y-63023976D01*
X132445435Y-63005034D01*
X132456983Y-62983429D01*
X132461912Y-62971529D01*
X132472459Y-62951797D01*
X132484700Y-62933477D01*
X132498896Y-62916178D01*
X132514478Y-62900596D01*
X132531777Y-62886400D01*
X132550097Y-62874159D01*
X132569829Y-62863612D01*
X132590180Y-62855182D01*
X132596002Y-62853416D01*
X132618640Y-62844038D01*
X132639014Y-62830423D01*
X132656341Y-62813096D01*
X132666500Y-62797891D01*
X132676664Y-62813101D01*
X132693991Y-62830428D01*
X132714366Y-62844041D01*
X132736998Y-62853416D01*
X132742820Y-62855182D01*
X132763171Y-62863612D01*
X132782903Y-62874159D01*
X132801223Y-62886400D01*
X132818522Y-62900596D01*
X132834104Y-62916178D01*
X132848300Y-62933477D01*
X132860541Y-62951797D01*
X132871088Y-62971529D01*
X132876017Y-62983429D01*
X132887569Y-63005039D01*
X132903115Y-63023981D01*
X132922057Y-63039526D01*
X132943668Y-63051076D01*
X132967117Y-63058189D01*
X132991503Y-63060590D01*
X133015889Y-63058188D01*
X133039338Y-63051074D01*
X133060948Y-63039522D01*
X133079890Y-63023976D01*
X133095435Y-63005034D01*
X133106983Y-62983429D01*
X133111912Y-62971529D01*
X133122459Y-62951797D01*
X133134700Y-62933477D01*
X133148896Y-62916178D01*
X133164478Y-62900596D01*
X133181777Y-62886400D01*
X133200097Y-62874159D01*
X133219829Y-62863612D01*
X133240180Y-62855182D01*
X133246002Y-62853416D01*
X133268640Y-62844038D01*
X133289014Y-62830423D01*
X133306341Y-62813096D01*
X133316500Y-62797891D01*
X133326664Y-62813101D01*
X133343991Y-62830428D01*
X133364366Y-62844041D01*
X133386998Y-62853416D01*
X133392820Y-62855182D01*
X133413171Y-62863612D01*
X133432903Y-62874159D01*
X133451223Y-62886400D01*
X133468522Y-62900596D01*
X133484104Y-62916178D01*
X133498300Y-62933477D01*
X133510541Y-62951797D01*
X133521088Y-62971529D01*
X133529519Y-62991882D01*
X133531309Y-62997782D01*
X133531311Y-62997787D01*
X133534228Y-63007403D01*
X133536020Y-63013311D01*
X133540316Y-63034915D01*
X133542509Y-63057182D01*
X133542509Y-63059640D01*
X133543111Y-63071891D01*
X133543352Y-63074338D01*
X133543352Y-64287060D01*
X133541763Y-64303199D01*
X133538848Y-64312808D01*
X133534110Y-64321672D01*
X133527737Y-64329437D01*
X133519972Y-64335810D01*
X133511108Y-64340548D01*
X133501499Y-64343463D01*
X133485360Y-64345052D01*
X133147640Y-64345052D01*
X133131501Y-64343463D01*
X133121892Y-64340548D01*
X133113028Y-64335810D01*
X133105263Y-64329437D01*
X133095052Y-64316994D01*
X133088122Y-64306625D01*
X133070795Y-64289298D01*
X133050420Y-64275685D01*
X133027780Y-64266309D01*
X133003747Y-64261529D01*
X132979243Y-64261530D01*
X132955210Y-64266312D01*
X132932571Y-64275690D01*
X132912198Y-64289305D01*
X132894871Y-64306632D01*
X132887942Y-64317002D01*
X132877737Y-64329437D01*
X132869972Y-64335810D01*
X132861108Y-64340548D01*
X132851499Y-64343463D01*
X132835360Y-64345052D01*
X132497640Y-64345052D01*
X132481501Y-64343463D01*
X132471892Y-64340548D01*
X132463028Y-64335810D01*
X132455263Y-64329437D01*
X132445052Y-64316994D01*
X132438122Y-64306625D01*
X132420795Y-64289298D01*
X132400420Y-64275685D01*
X132377780Y-64266309D01*
X132353747Y-64261529D01*
X132329243Y-64261530D01*
X132305210Y-64266312D01*
X132282571Y-64275690D01*
X132262198Y-64289305D01*
X132244871Y-64306632D01*
X132237942Y-64317002D01*
X132227737Y-64329437D01*
X132219972Y-64335810D01*
X132211108Y-64340548D01*
X132201499Y-64343463D01*
X132185360Y-64345052D01*
X131847640Y-64345052D01*
X131831501Y-64343463D01*
X131821892Y-64340548D01*
X131813028Y-64335810D01*
X131805263Y-64329437D01*
X131798890Y-64321672D01*
X131794152Y-64312808D01*
X131791237Y-64303199D01*
X131789648Y-64287060D01*
X131789648Y-63074338D01*
X131789889Y-63071891D01*
X131790491Y-63059640D01*
X131790491Y-63057182D01*
X131792684Y-63034915D01*
X131796980Y-63013311D01*
X131798772Y-63007403D01*
X131801689Y-62997787D01*
X131801691Y-62997782D01*
X131803481Y-62991882D01*
X131811912Y-62971529D01*
X131822459Y-62951797D01*
X131834700Y-62933477D01*
X131848896Y-62916178D01*
X131864478Y-62900596D01*
X131881777Y-62886400D01*
X131900097Y-62874159D01*
X131925248Y-62860716D01*
X131924974Y-62860203D01*
X131936018Y-62854292D01*
X131954951Y-62838735D01*
X131970485Y-62819784D01*
X131982024Y-62798167D01*
X131989123Y-62774714D01*
X131991511Y-62750326D01*
X131989095Y-62725942D01*
X131981968Y-62702497D01*
X131970405Y-62680893D01*
X131954848Y-62661960D01*
X131935897Y-62646426D01*
X131914280Y-62634887D01*
X131890827Y-62627788D01*
X131866512Y-62625400D01*
X131790500Y-62625400D01*
X131790500Y-61123400D01*
X132268055Y-61123400D01*
X132279111Y-61136872D01*
X132298053Y-61152417D01*
X132319664Y-61163968D01*
X132343113Y-61171081D01*
X132367499Y-61173483D01*
X132391885Y-61171081D01*
X132415334Y-61163968D01*
X132446796Y-61145111D01*
X132463028Y-61131790D01*
X132471892Y-61127052D01*
X132481501Y-61124137D01*
X132497640Y-61122548D01*
X132835360Y-61122548D01*
X132851499Y-61124137D01*
G37*
G36*
X118559928Y-63532764D02*
G01*
X118581009Y-63539160D01*
X118600445Y-63549548D01*
X118617476Y-63563524D01*
X118631452Y-63580555D01*
X118641840Y-63599991D01*
X118648236Y-63621072D01*
X118651000Y-63649140D01*
X118651000Y-64112860D01*
X118648236Y-64140928D01*
X118641840Y-64162009D01*
X118631452Y-64181445D01*
X118617476Y-64198476D01*
X118600445Y-64212452D01*
X118581009Y-64222840D01*
X118559928Y-64229236D01*
X118531860Y-64232000D01*
X116718140Y-64232000D01*
X116690072Y-64229236D01*
X116668991Y-64222840D01*
X116649555Y-64212452D01*
X116632524Y-64198476D01*
X116618548Y-64181445D01*
X116608160Y-64162009D01*
X116601764Y-64140928D01*
X116599000Y-64112860D01*
X116599000Y-63649140D01*
X116601764Y-63621072D01*
X116608160Y-63599991D01*
X116618548Y-63580555D01*
X116632524Y-63563524D01*
X116649555Y-63549548D01*
X116668991Y-63539160D01*
X116690072Y-63532764D01*
X116718140Y-63530000D01*
X118531860Y-63530000D01*
X118559928Y-63532764D01*
G37*
G36*
X123509928Y-63532764D02*
G01*
X123531009Y-63539160D01*
X123550445Y-63549548D01*
X123567476Y-63563524D01*
X123581452Y-63580555D01*
X123591840Y-63599991D01*
X123598236Y-63621072D01*
X123601000Y-63649140D01*
X123601000Y-64112860D01*
X123598236Y-64140928D01*
X123591840Y-64162009D01*
X123581452Y-64181445D01*
X123567476Y-64198476D01*
X123550445Y-64212452D01*
X123531009Y-64222840D01*
X123509928Y-64229236D01*
X123481860Y-64232000D01*
X121668140Y-64232000D01*
X121640072Y-64229236D01*
X121618991Y-64222840D01*
X121599555Y-64212452D01*
X121582524Y-64198476D01*
X121568548Y-64181445D01*
X121558160Y-64162009D01*
X121551764Y-64140928D01*
X121549000Y-64112860D01*
X121549000Y-63649140D01*
X121551764Y-63621072D01*
X121558160Y-63599991D01*
X121568548Y-63580555D01*
X121582524Y-63563524D01*
X121599555Y-63549548D01*
X121618991Y-63539160D01*
X121640072Y-63532764D01*
X121668140Y-63530000D01*
X123481860Y-63530000D01*
X123509928Y-63532764D01*
G37*
G36*
X125093591Y-63180585D02*
G01*
X125127569Y-63190893D01*
X125158890Y-63207634D01*
X125186339Y-63230161D01*
X125208866Y-63257610D01*
X125225607Y-63288931D01*
X125235915Y-63322909D01*
X125240000Y-63364390D01*
X125240000Y-63965610D01*
X125235915Y-64007091D01*
X125225607Y-64041069D01*
X125208866Y-64072390D01*
X125186339Y-64099839D01*
X125158890Y-64122366D01*
X125127569Y-64139107D01*
X125093591Y-64149415D01*
X125052110Y-64153500D01*
X124375890Y-64153500D01*
X124334409Y-64149415D01*
X124300431Y-64139107D01*
X124269110Y-64122366D01*
X124241661Y-64099839D01*
X124219134Y-64072390D01*
X124202393Y-64041069D01*
X124192085Y-64007091D01*
X124188000Y-63965610D01*
X124188000Y-63364390D01*
X124192085Y-63322909D01*
X124202393Y-63288931D01*
X124219134Y-63257610D01*
X124241661Y-63230161D01*
X124269110Y-63207634D01*
X124300431Y-63190893D01*
X124334409Y-63180585D01*
X124375890Y-63176500D01*
X125052110Y-63176500D01*
X125093591Y-63180585D01*
G37*
G36*
X140424260Y-62965371D02*
G01*
X140458071Y-62979376D01*
X140501784Y-62997482D01*
X140501787Y-62997484D01*
X140571559Y-63044104D01*
X140630896Y-63103441D01*
X140630897Y-63103443D01*
X140677518Y-63173216D01*
X140686579Y-63195092D01*
X140709629Y-63250740D01*
X140726000Y-63333043D01*
X140726000Y-63416957D01*
X140709629Y-63499260D01*
X140696896Y-63530000D01*
X140677518Y-63576784D01*
X140677516Y-63576787D01*
X140630896Y-63646559D01*
X140571559Y-63705896D01*
X140504056Y-63751000D01*
X140501784Y-63752518D01*
X140458071Y-63770624D01*
X140424260Y-63784629D01*
X140341957Y-63801000D01*
X140258043Y-63801000D01*
X140175740Y-63784629D01*
X140141929Y-63770624D01*
X140098216Y-63752518D01*
X140095944Y-63751000D01*
X140028441Y-63705896D01*
X139969104Y-63646559D01*
X139922484Y-63576787D01*
X139922482Y-63576784D01*
X139903104Y-63530000D01*
X139890371Y-63499260D01*
X139874000Y-63416957D01*
X139874000Y-63333043D01*
X139890371Y-63250740D01*
X139913421Y-63195092D01*
X139922482Y-63173216D01*
X139969103Y-63103443D01*
X139969104Y-63103441D01*
X140028441Y-63044104D01*
X140098213Y-62997484D01*
X140098216Y-62997482D01*
X140141929Y-62979376D01*
X140175740Y-62965371D01*
X140258043Y-62949000D01*
X140341957Y-62949000D01*
X140424260Y-62965371D01*
G37*
G36*
X112824549Y-61471116D02*
G01*
X112935734Y-61493232D01*
X113145203Y-61579997D01*
X113333720Y-61705960D01*
X113494040Y-61866280D01*
X113620003Y-62054797D01*
X113706398Y-62263372D01*
X113706768Y-62264267D01*
X113747339Y-62468228D01*
X113751000Y-62486636D01*
X113751000Y-62713364D01*
X113706768Y-62935734D01*
X113620003Y-63145203D01*
X113494040Y-63333720D01*
X113333720Y-63494040D01*
X113145203Y-63620003D01*
X113145202Y-63620004D01*
X113145201Y-63620004D01*
X113100936Y-63638339D01*
X112935734Y-63706768D01*
X112824549Y-63728884D01*
X112713365Y-63751000D01*
X112486635Y-63751000D01*
X112375451Y-63728884D01*
X112264266Y-63706768D01*
X112099064Y-63638339D01*
X112054799Y-63620004D01*
X112054798Y-63620004D01*
X112054797Y-63620003D01*
X111866280Y-63494040D01*
X111705960Y-63333720D01*
X111579997Y-63145203D01*
X111493232Y-62935734D01*
X111449000Y-62713364D01*
X111449000Y-62486636D01*
X111452662Y-62468228D01*
X111493232Y-62264267D01*
X111493603Y-62263372D01*
X111579997Y-62054797D01*
X111705960Y-61866280D01*
X111866280Y-61705960D01*
X112054797Y-61579997D01*
X112264266Y-61493232D01*
X112375451Y-61471116D01*
X112486635Y-61449000D01*
X112713365Y-61449000D01*
X112824549Y-61471116D01*
G37*
G36*
X147624549Y-61471116D02*
G01*
X147735734Y-61493232D01*
X147945203Y-61579997D01*
X148133720Y-61705960D01*
X148294040Y-61866280D01*
X148420003Y-62054797D01*
X148506398Y-62263372D01*
X148506768Y-62264267D01*
X148547339Y-62468228D01*
X148551000Y-62486636D01*
X148551000Y-62713364D01*
X148506768Y-62935734D01*
X148420003Y-63145203D01*
X148294040Y-63333720D01*
X148133720Y-63494040D01*
X147945203Y-63620003D01*
X147945202Y-63620004D01*
X147945201Y-63620004D01*
X147900936Y-63638339D01*
X147735734Y-63706768D01*
X147624549Y-63728884D01*
X147513365Y-63751000D01*
X147286635Y-63751000D01*
X147175451Y-63728884D01*
X147064266Y-63706768D01*
X146899064Y-63638339D01*
X146854799Y-63620004D01*
X146854798Y-63620004D01*
X146854797Y-63620003D01*
X146666280Y-63494040D01*
X146505960Y-63333720D01*
X146379997Y-63145203D01*
X146293232Y-62935734D01*
X146249000Y-62713364D01*
X146249000Y-62486636D01*
X146252662Y-62468228D01*
X146293232Y-62264267D01*
X146293603Y-62263372D01*
X146379997Y-62054797D01*
X146505960Y-61866280D01*
X146666280Y-61705960D01*
X146854797Y-61579997D01*
X147064266Y-61493232D01*
X147175451Y-61471116D01*
X147286635Y-61449000D01*
X147513365Y-61449000D01*
X147624549Y-61471116D01*
G37*
G36*
X130799400Y-63076500D02*
G01*
X129347400Y-63076500D01*
X129347400Y-62324500D01*
X130799400Y-62324500D01*
X130799400Y-63076500D01*
G37*
G36*
X123509928Y-62262764D02*
G01*
X123531009Y-62269160D01*
X123550445Y-62279548D01*
X123567476Y-62293524D01*
X123581452Y-62310555D01*
X123591840Y-62329991D01*
X123598236Y-62351072D01*
X123601000Y-62379140D01*
X123601000Y-62842860D01*
X123598236Y-62870928D01*
X123591840Y-62892009D01*
X123581452Y-62911445D01*
X123567476Y-62928476D01*
X123550445Y-62942452D01*
X123531009Y-62952840D01*
X123509928Y-62959236D01*
X123481860Y-62962000D01*
X121668140Y-62962000D01*
X121640072Y-62959236D01*
X121618991Y-62952840D01*
X121599555Y-62942452D01*
X121582524Y-62928476D01*
X121568548Y-62911445D01*
X121558160Y-62892009D01*
X121551764Y-62870928D01*
X121549000Y-62842860D01*
X121549000Y-62379140D01*
X121551764Y-62351072D01*
X121558160Y-62329991D01*
X121568548Y-62310555D01*
X121582524Y-62293524D01*
X121599555Y-62279548D01*
X121618991Y-62269160D01*
X121640072Y-62262764D01*
X121668140Y-62260000D01*
X123481860Y-62260000D01*
X123509928Y-62262764D01*
G37*
G36*
X118559928Y-62262764D02*
G01*
X118581009Y-62269160D01*
X118600445Y-62279548D01*
X118617476Y-62293524D01*
X118631452Y-62310555D01*
X118641840Y-62329991D01*
X118648236Y-62351072D01*
X118651000Y-62379140D01*
X118651000Y-62842860D01*
X118648236Y-62870928D01*
X118641840Y-62892009D01*
X118631452Y-62911445D01*
X118617476Y-62928476D01*
X118600445Y-62942452D01*
X118581009Y-62952840D01*
X118559928Y-62959236D01*
X118531860Y-62962000D01*
X116718140Y-62962000D01*
X116690072Y-62959236D01*
X116668991Y-62952840D01*
X116649555Y-62942452D01*
X116632524Y-62928476D01*
X116618548Y-62911445D01*
X116608160Y-62892009D01*
X116601764Y-62870928D01*
X116599000Y-62842860D01*
X116599000Y-62379140D01*
X116601764Y-62351072D01*
X116608160Y-62329991D01*
X116618548Y-62310555D01*
X116632524Y-62293524D01*
X116649555Y-62279548D01*
X116668991Y-62269160D01*
X116690072Y-62262764D01*
X116718140Y-62260000D01*
X118531860Y-62260000D01*
X118559928Y-62262764D01*
G37*
G36*
X130889000Y-61801500D02*
G01*
X130537000Y-61801500D01*
X130537000Y-60499500D01*
X130889000Y-60499500D01*
X130889000Y-61801500D01*
G37*
G36*
X130239000Y-61801500D02*
G01*
X129887000Y-61801500D01*
X129887000Y-60499500D01*
X130239000Y-60499500D01*
X130239000Y-61801500D01*
G37*
G36*
X129589000Y-61801500D02*
G01*
X129237000Y-61801500D01*
X129237000Y-60499500D01*
X129589000Y-60499500D01*
X129589000Y-61801500D01*
G37*
G36*
X123509928Y-60992764D02*
G01*
X123531009Y-60999160D01*
X123550445Y-61009548D01*
X123567476Y-61023524D01*
X123581452Y-61040555D01*
X123591840Y-61059991D01*
X123598236Y-61081072D01*
X123601000Y-61109140D01*
X123601000Y-61572860D01*
X123598236Y-61600928D01*
X123591840Y-61622009D01*
X123581452Y-61641445D01*
X123567476Y-61658476D01*
X123550445Y-61672452D01*
X123531009Y-61682840D01*
X123509928Y-61689236D01*
X123481860Y-61692000D01*
X121668140Y-61692000D01*
X121640072Y-61689236D01*
X121618991Y-61682840D01*
X121599555Y-61672452D01*
X121582524Y-61658476D01*
X121568548Y-61641445D01*
X121558160Y-61622009D01*
X121551764Y-61600928D01*
X121549000Y-61572860D01*
X121549000Y-61109140D01*
X121551764Y-61081072D01*
X121558160Y-61059991D01*
X121568548Y-61040555D01*
X121582524Y-61023524D01*
X121599555Y-61009548D01*
X121618991Y-60999160D01*
X121640072Y-60992764D01*
X121668140Y-60990000D01*
X123481860Y-60990000D01*
X123509928Y-60992764D01*
G37*
G36*
X118559928Y-60992764D02*
G01*
X118581009Y-60999160D01*
X118600445Y-61009548D01*
X118617476Y-61023524D01*
X118631452Y-61040555D01*
X118641840Y-61059991D01*
X118648236Y-61081072D01*
X118651000Y-61109140D01*
X118651000Y-61572860D01*
X118648236Y-61600928D01*
X118641840Y-61622009D01*
X118631452Y-61641445D01*
X118617476Y-61658476D01*
X118600445Y-61672452D01*
X118581009Y-61682840D01*
X118559928Y-61689236D01*
X118531860Y-61692000D01*
X116718140Y-61692000D01*
X116690072Y-61689236D01*
X116668991Y-61682840D01*
X116649555Y-61672452D01*
X116632524Y-61658476D01*
X116618548Y-61641445D01*
X116608160Y-61622009D01*
X116601764Y-61600928D01*
X116599000Y-61572860D01*
X116599000Y-61109140D01*
X116601764Y-61081072D01*
X116608160Y-61059991D01*
X116618548Y-61040555D01*
X116632524Y-61023524D01*
X116649555Y-61009548D01*
X116668991Y-60999160D01*
X116690072Y-60992764D01*
X116718140Y-60990000D01*
X118531860Y-60990000D01*
X118559928Y-60992764D01*
G37*
G36*
X140424260Y-60215371D02*
G01*
X140458071Y-60229376D01*
X140501784Y-60247482D01*
X140501787Y-60247484D01*
X140571559Y-60294104D01*
X140630896Y-60353441D01*
X140630897Y-60353443D01*
X140677518Y-60423216D01*
X140695624Y-60466929D01*
X140709629Y-60500740D01*
X140726000Y-60583043D01*
X140726000Y-60666957D01*
X140709629Y-60749260D01*
X140695624Y-60783071D01*
X140677518Y-60826784D01*
X140677516Y-60826787D01*
X140630896Y-60896559D01*
X140571559Y-60955896D01*
X140516382Y-60992764D01*
X140501784Y-61002518D01*
X140458071Y-61020624D01*
X140424260Y-61034629D01*
X140341957Y-61051000D01*
X140258043Y-61051000D01*
X140175740Y-61034629D01*
X140141929Y-61020624D01*
X140098216Y-61002518D01*
X140083618Y-60992764D01*
X140028441Y-60955896D01*
X139969104Y-60896559D01*
X139922484Y-60826787D01*
X139922482Y-60826784D01*
X139904376Y-60783071D01*
X139890371Y-60749260D01*
X139874000Y-60666957D01*
X139874000Y-60583043D01*
X139890371Y-60500740D01*
X139904376Y-60466929D01*
X139922482Y-60423216D01*
X139969103Y-60353443D01*
X139969104Y-60353441D01*
X140028441Y-60294104D01*
X140098213Y-60247484D01*
X140098216Y-60247482D01*
X140141929Y-60229376D01*
X140175740Y-60215371D01*
X140258043Y-60199000D01*
X140341957Y-60199000D01*
X140424260Y-60215371D01*
G37*
M02*
