M48
; DRILL file {KiCad (5.1.5)-2} date 2020/6/18 10:42:56
; FORMAT={-:-/ absolute / metric / decimal}
; #@! TF.CreationDate,2020-06-18T10:42:56+08:00
; #@! TF.GenerationSoftware,Kicad,Pcbnew,(5.1.5)-2
; #@! TF.FileFunction,Plated,1,2,PTH
FMAT,2
METRIC
T1C0.301
T2C0.600
T3C0.800
%
G90
G05
T1
X111.862Y-76.784
X111.862Y-86.322
X111.887Y-68.872
X111.887Y-70.472
X111.887Y-78.41
X111.887Y-84.722
X112.712Y-82.867
X112.776Y-72.326
X112.776Y-80.2
X116.078Y-66.992
X116.078Y-69.469
X119.189Y-79.439
X120.078Y-71.628
X120.523Y-75.374
X120.523Y-77.406
X121.856Y-83.566
X123.317Y-80.454
X123.342Y-83.566
X123.546Y-86.157
X123.634Y-68.199
X123.634Y-69.469
X124.206Y-75.692
X124.714Y-65.278
X125.92Y-64.706
X126.428Y-80.518
X126.873Y-62.928
X127.317Y-73.85
X127.734Y-78.577
X127.953Y-82.042
X128.46Y-61.341
X128.46Y-64.262
X128.46Y-75.374
X128.714Y-66.421
X129.095Y-74.358
X129.826Y-73.565
X129.921Y-76.898
X129.921Y-77.787
X130.048Y-65.405
X130.048Y-67.373
X130.302Y-86.233
X130.58Y-78.558
X130.874Y-65.405
X131.381Y-78.55
X131.889Y-72.962
X131.978Y-61.316
X132.017Y-66.992
X132.27Y-74.486
X133.794Y-68.263
X134.147Y-79.594
X134.81Y-62.865
X134.81Y-69.723
X135.826Y-75.248
X137.096Y-64.706
X137.477Y-80.2
X137.477Y-82.105
X137.668Y-61.15
X137.668Y-62.928
X139.203Y-79.174
X139.636Y-66.294
X139.636Y-68.199
X139.639Y-81.15
X139.7Y-82.105
X140.716Y-80.264
X140.716Y-82.042
X141.224Y-77.787
X141.922Y-75.248
X143.32Y-68.897
X143.573Y-81.915
X143.573Y-83.82
X144.082Y-74.295
X144.613Y-77.736
X144.844Y-81.28
X144.844Y-82.867
X144.844Y-87.947
X145.351Y-75.882
X147.193Y-82.995
X148.971Y-74.295
T3
X146.399Y-66.548
X148.399Y-66.548
T2
G00X143.42Y-79.28
M15
G01X142.32Y-79.28
M16
G05
G00X143.42Y-87.92
M15
G01X142.32Y-87.92
M16
G05
G00X147.35Y-79.28
M15
G01X146.75Y-79.28
M16
G05
G00X147.35Y-87.92
M15
G01X146.75Y-87.92
M16
G05
T0
M30
